<svg width="95" height="65" viewBox="0 0 95 65" fill="none" xmlns="http://www.w3.org/2000/svg">
<path d="M44.6284 58.0186C44.6282 61.02 42.2319 63.5 39.2183 63.5H9.91064C6.89813 63.5 4.50066 61.0202 4.50049 58.0186V27.8213L4.65869 27.5049L15.7378 5.3291L16.1519 4.5H27.3687V26.0117H39.2183C42.2314 26.0117 44.6284 28.4912 44.6284 31.4932V58.0186ZM93.5005 58.0186C93.5003 61.02 91.1039 63.5 88.0903 63.5H58.7827C55.7702 63.5 53.3727 61.0202 53.3726 58.0186V27.8213L53.5308 27.5049L64.6099 5.3291L65.0239 4.5H76.2397V26.0117H88.0903C91.1034 26.0118 93.5005 28.4912 93.5005 31.4932V58.0186Z" fill="black" stroke="black" stroke-width="3"/>
<path d="M41.6284 55.0186C41.6282 58.02 39.2319 60.5 36.2183 60.5H6.91064C3.89813 60.5 1.50066 58.0202 1.50049 55.0186V24.8213L1.65869 24.5049L12.7378 2.3291L13.1519 1.5H24.3687V23.0117H36.2183C39.2314 23.0117 41.6284 25.4912 41.6284 28.4932V55.0186ZM90.5005 55.0186C90.5003 58.02 88.1039 60.5 85.0903 60.5H55.7827C52.7702 60.5 50.3727 58.0202 50.3726 55.0186V24.8213L50.5308 24.5049L61.6099 2.3291L62.0239 1.5H73.2397V23.0117H85.0903C88.1034 23.0118 90.5005 25.4912 90.5005 28.4932V55.0186Z" fill="#F48352" stroke="black" stroke-width="3"/>
</svg>
