<svg width="52" height="51" viewBox="0 0 52 51" fill="none" xmlns="http://www.w3.org/2000/svg">
<path d="M23.0565 0.557844L24.863 11.9706C25.9682 18.9529 32.279 23.8991 39.3304 23.3096L51.1926 22.3179L39.4343 24.172C32.4447 25.2742 27.4892 31.5777 28.0741 38.6227L29.03 50.138L27.2235 38.7252C26.1183 31.7429 19.8075 26.7968 12.756 27.3863L0.893865 28.378L12.6521 26.5238C19.6418 25.4216 24.5972 19.1181 24.0124 12.0731L23.0565 0.557844Z" fill="black"/>
<path d="M35.8636 2.38424L31.7161 13.1717C29.1787 19.7715 32.1679 27.2079 38.5689 30.2198L49.3368 35.2864L38.2272 31.0187C31.6232 28.4818 24.1775 31.4661 21.1581 37.8602L16.2228 48.3116L20.3703 37.5241C22.9077 30.9244 19.9185 23.4879 13.5175 20.4761L2.74968 15.4095L13.8592 19.6771C20.4633 22.214 27.9089 19.2297 30.9283 12.8356L35.8636 2.38424Z" fill="black"/>
<path d="M46.0394 10.3638L37.0493 17.6354C31.5491 22.0842 30.4158 30.0185 34.4511 35.8246L41.2395 45.5919L33.7554 36.3459C29.3065 30.8497 21.3657 29.7152 15.5511 33.7451L6.04702 40.3321L15.0372 33.0604C20.5373 28.6116 21.6706 20.6774 17.6353 14.8712L10.847 5.10399L18.331 14.3499C22.7799 19.8462 30.7207 20.9807 36.5353 16.9508L46.0394 10.3638Z" fill="black"/>
</svg>
