<svg width="42" height="48" viewBox="0 0 42 48" fill="none" xmlns="http://www.w3.org/2000/svg">
<path d="M16.3053 10.8943C15.7866 10.8202 15.7619 10.7954 16.0089 10.7707C16.4783 10.6966 17.5652 10.7954 18.331 10.9684C20.1097 11.3883 21.7154 12.4753 23.4199 14.3774L23.8646 14.8962L24.5069 14.7974C27.249 14.3527 30.0652 14.6986 32.412 15.7855C33.0543 16.082 34.0671 16.6749 34.1906 16.8231C34.24 16.8725 34.3141 17.1936 34.3635 17.5148C34.5365 18.6758 34.4624 19.5405 34.0918 20.2075C33.8942 20.578 33.8942 20.6768 34.0177 20.998C34.1165 21.245 34.413 21.4179 34.6847 21.4179C35.2776 21.4179 35.8952 20.4792 36.1916 19.1699L36.3151 18.6511L36.5374 18.8982C37.7973 20.3063 38.7855 22.2578 38.9337 23.6412L38.9831 24.0118L38.7608 23.6906C38.3902 23.1225 38.0444 22.7519 37.575 22.4308C36.7351 21.8626 35.8458 21.6897 33.4989 21.5661C31.3744 21.4426 30.164 21.2697 28.9782 20.8744C26.9525 20.2074 25.915 19.3428 23.5187 16.1561C22.4565 14.748 21.7895 13.9822 21.1225 13.3399C19.665 11.9318 18.2075 11.1907 16.3053 10.8943Z" fill="white"/>
<path d="M34.7093 14.0315C34.7587 13.0928 34.8822 12.4752 35.154 11.907C35.2528 11.6847 35.3516 11.4871 35.3763 11.4871C35.401 11.4871 35.3516 11.66 35.2775 11.8576C35.0799 12.4011 35.0552 13.1669 35.1787 14.0315C35.3516 15.1432 35.4257 15.2914 36.6115 16.5019C37.155 17.07 37.7973 17.7864 38.0443 18.0829L38.4642 18.6263L38.0443 18.2311C37.5255 17.737 36.3397 16.7983 36.068 16.6748C35.8951 16.576 35.8704 16.576 35.7469 16.6995C35.6481 16.7983 35.6233 16.9465 35.6233 17.6629C35.5986 18.7746 35.4504 19.4663 35.0799 20.1827C34.8822 20.5532 34.8575 20.4791 35.0305 20.0591C35.154 19.738 35.1787 19.5898 35.1787 18.5275C35.1787 16.3783 34.9317 15.8596 33.4247 14.9949C33.0542 14.7726 32.4119 14.4515 32.0414 14.2785C31.6461 14.1056 31.3497 13.9574 31.3744 13.9574C31.4238 13.908 32.8813 14.328 33.4494 14.575C34.3141 14.9208 34.4623 14.9455 34.5611 14.9208C34.6352 14.8467 34.6846 14.6491 34.7093 14.0315Z" fill="white"/>
<path d="M17.3182 17.7123C16.2807 16.2795 15.6137 14.0562 15.7619 12.4011L15.8113 11.8823L16.0583 11.9317C16.503 12.0058 17.2688 12.3023 17.6394 12.5246C18.6275 13.1175 19.0722 13.9327 19.4921 15.9584C19.6156 16.5513 19.7885 17.243 19.8627 17.4653C19.9862 17.8358 20.4555 18.7005 20.8508 19.2439C21.1225 19.6392 20.9496 19.8368 20.332 19.7874C19.3933 19.6886 18.1334 18.824 17.3182 17.7123Z" fill="white"/>
<path d="M33.4495 28.4583C28.5582 26.482 26.829 24.7774 26.829 21.8871C26.829 21.4672 26.8537 21.1213 26.8537 21.1213C26.8784 21.1213 27.0513 21.2696 27.2736 21.4425C28.2618 22.233 29.3734 22.5788 32.4614 23.0235C34.2647 23.2952 35.3023 23.4929 36.241 23.814C39.2301 24.8021 41.0829 26.8278 41.5275 29.5699C41.651 30.3604 41.5769 31.8673 41.3793 32.6578C41.2064 33.2754 40.7123 34.4118 40.5888 34.4365C40.5641 34.4365 40.5147 34.313 40.5147 34.1153C40.4653 33.0778 39.9465 32.0897 39.0819 31.3239C38.0443 30.4345 36.7103 29.7675 33.4495 28.4583Z" fill="white"/>
<path d="M29.9911 29.2736C29.9417 28.903 29.8182 28.4337 29.7441 28.236L29.6205 27.8655L29.8429 28.1372C30.164 28.5078 30.4111 28.9524 30.6334 29.57C30.8063 30.0394 30.8063 30.1876 30.8063 30.9534C30.8063 31.6945 30.7816 31.8674 30.6334 32.2874C30.3863 32.9544 30.0899 33.4237 29.5958 33.9425C28.7065 34.8565 27.5455 35.3506 25.8903 35.5729C25.5939 35.5976 24.754 35.6718 24.0129 35.7212C22.1601 35.82 20.9249 36.0176 19.8133 36.4129C19.6651 36.4623 19.5168 36.5117 19.4921 36.487C19.4427 36.4376 20.2085 35.9929 20.8261 35.6965C21.6907 35.2765 22.5801 35.0542 24.5316 34.7083C25.4951 34.5601 26.4832 34.3625 26.7302 34.2637C29.1759 33.4979 30.3863 31.5957 29.9911 29.2736Z" fill="white"/>
<path d="M32.239 33.2507C31.5967 31.8426 31.4485 30.5086 31.7944 29.2487C31.8438 29.1252 31.8932 29.0017 31.9426 29.0017C31.992 29.0017 32.1402 29.0758 32.2884 29.1746C32.5849 29.3723 33.2025 29.7181 34.7835 30.5827C36.7845 31.6697 37.9208 32.5096 38.7113 33.473C39.403 34.3129 39.823 35.2764 40.0206 36.4621C40.1441 37.1291 40.07 38.7349 39.8971 39.4018C39.3536 41.5016 38.1184 43.1815 36.3151 44.1449C36.0434 44.2931 35.821 44.3919 35.7963 44.3919C35.7716 44.3919 35.8704 44.1449 36.0186 43.8485C36.6115 42.5886 36.6856 41.3781 36.241 40.0194C35.9692 39.1795 35.4011 38.1667 34.2647 36.4621C32.906 34.4859 32.5849 33.9671 32.239 33.2507Z" fill="white"/>
<path d="M13.8351 40.8101C15.6631 39.2785 17.9111 38.1916 19.9862 37.8457C20.8755 37.6975 22.3577 37.7469 23.1729 37.9692C24.4822 38.3151 25.668 39.0562 26.2856 39.9702C26.8785 40.8595 27.1502 41.6253 27.4219 43.3299C27.5207 43.9969 27.6443 44.6886 27.669 44.8368C27.8666 45.7261 28.2619 46.4178 28.7559 46.7883C29.5217 47.3565 30.8557 47.3812 32.165 46.8872C32.3873 46.8131 32.5849 46.7389 32.5849 46.7636C32.6344 46.8131 31.9674 47.2577 31.5227 47.48C30.9051 47.8012 30.411 47.9 29.7441 47.9C28.5583 47.9 27.5455 47.2824 26.7302 46.0472C26.5573 45.8002 26.2115 45.0838 25.915 44.4168C25.0504 42.4158 24.6057 41.823 23.5929 41.156C22.7036 40.5878 21.5672 40.4643 20.7026 40.8842C19.5662 41.4277 19.2698 42.8852 20.0603 43.7745C20.3815 44.1451 20.9743 44.4415 21.4684 44.5156C22.3824 44.6392 23.1729 43.9228 23.1729 43.0087C23.1729 42.4158 22.9506 42.07 22.3577 41.7983C21.5672 41.4524 20.7026 41.8477 20.7273 42.6135C20.7273 42.9346 20.8755 43.1322 21.1967 43.2805C21.3943 43.3793 21.3943 43.3793 21.2461 43.3546C20.5297 43.2064 20.3568 42.317 20.9249 41.7489C21.6166 41.0572 23.0741 41.3536 23.5682 42.317C23.7658 42.7123 23.7905 43.5028 23.6176 43.9969C23.1977 45.0838 22.0119 45.652 20.8014 45.3308C19.9862 45.1085 19.6404 44.8862 18.6522 43.8733C16.923 42.0947 16.256 41.7489 13.7856 41.3783L13.3163 41.3042L13.8351 40.8101Z" fill="white"/>
<path fill-rule="evenodd" clip-rule="evenodd" d="M0.841015 1.06225C6.59691 8.05331 15.4654 18.9228 15.9101 19.5157C16.2807 20.0098 16.1324 20.4791 15.5148 20.825C15.169 21.0226 14.4526 21.2202 14.1067 21.2202C13.7115 21.2202 13.2421 21.0226 12.921 20.7015C12.6987 20.4791 11.7352 19.071 9.56132 15.6867C7.90619 13.0928 6.4981 10.9436 6.47339 10.9189C6.37458 10.8695 6.37458 10.8695 9.3884 16.2549C11.2906 19.6392 11.9081 20.8497 11.9081 20.9979C11.9081 21.319 11.8093 21.492 11.4141 21.9366C10.7471 22.6777 10.4506 23.5177 10.2283 25.2716C9.98128 27.2232 9.31429 28.6066 7.41212 30.9534C6.30047 32.3368 6.12755 32.5838 5.85581 33.152C5.50996 33.8437 5.41115 34.2389 5.36174 35.1283C5.31233 36.067 5.41115 36.6599 5.68288 37.5492C5.92992 38.3397 6.20166 38.8585 6.86865 39.8713C7.43683 40.7606 7.78268 41.4276 7.78268 41.6747C7.78268 41.8723 7.83208 41.8723 8.72141 41.6747C10.8459 41.1806 12.5998 40.3407 13.5633 39.3031C14.1562 38.6609 14.3044 38.315 14.3044 37.4257C14.3044 36.8575 14.2797 36.734 14.1315 36.3881C13.8844 35.8447 13.4151 35.4 12.4022 34.7083C11.0682 33.7943 10.5001 33.0532 10.3518 32.065C10.2283 31.2251 10.3765 30.6569 11.1176 29.1006C11.8834 27.4949 12.0811 26.8279 12.2046 25.1975C12.2787 24.1599 12.4022 23.74 12.6987 23.4188C13.0198 23.073 13.2915 22.9495 14.0573 22.8507C15.3172 22.6777 16.1324 22.3566 16.7747 21.739C17.3429 21.2202 17.5899 20.7015 17.6146 19.9357L17.6393 19.3675L17.3182 19.0216C16.1571 17.6876 0.0752091 0 0.00109882 0C-0.0236046 0 0.37165 0.469365 0.841015 1.06225ZM8.42496 36.1905C8.6967 35.7211 8.54848 35.1283 8.10382 34.8318C7.68386 34.5601 7.04157 34.6836 7.04157 35.0541C7.04157 35.153 7.09098 35.2518 7.2392 35.3012C7.46153 35.4247 7.48623 35.5482 7.31331 35.82C7.14039 36.0917 7.14039 36.3387 7.36272 36.5117C7.70856 36.7834 8.17793 36.6352 8.42496 36.1905Z" fill="white"/>
<path fill-rule="evenodd" clip-rule="evenodd" d="M18.4298 23.1964C17.8369 23.3693 17.2687 24.0116 17.0958 24.6539C16.997 25.0491 17.0464 25.7655 17.2193 25.9879C17.491 26.3337 17.7381 26.4325 18.4298 26.4325C19.7884 26.4325 20.9495 25.8396 21.073 25.1232C21.1965 24.5304 20.6778 23.7151 19.9614 23.3446C19.5908 23.147 18.825 23.0729 18.4298 23.1964ZM20.0108 24.4315C20.2084 24.1351 20.1343 23.814 19.7637 23.5916C19.0967 23.1717 18.0839 23.5175 18.0839 24.1598C18.0839 24.481 18.6027 24.8268 19.0968 24.8268C19.4179 24.8268 19.8626 24.6292 20.0108 24.4315Z" fill="white"/>
</svg>
