<svg width="44" height="45" viewBox="0 0 44 45" fill="none" xmlns="http://www.w3.org/2000/svg">
<path opacity="0.25" d="M42.5986 22.5C42.5986 34.4245 33.4414 44 22.2549 44C11.0684 44 1.91113 34.4245 1.91113 22.5C1.91113 10.5755 11.0684 1 22.2549 1C33.4414 1 42.5986 10.5755 42.5986 22.5Z" stroke="white" stroke-width="2"/>
<path d="M20.5464 29.393L20.527 23.0961H17.9861V20.3974H20.527V18.5983C20.527 16.1702 21.9427 15 23.9821 15C24.959 15 25.7986 15.0772 26.0433 15.1118V17.6493L24.6289 17.65C23.5197 17.65 23.305 18.2097 23.305 19.0312V20.3974H26.4558L25.6089 23.0961H23.305V29.393H20.5464Z" fill="white"/>
</svg>
