<svg width="43" height="45" viewBox="0 0 43 45" fill="none" xmlns="http://www.w3.org/2000/svg">
<path opacity="0.25" d="M42.0015 22.5C42.0015 34.4245 32.8442 44 21.6577 44C10.4712 44 1.31396 34.4245 1.31396 22.5C1.31396 10.5755 10.4712 1 21.6577 1C32.8442 1 42.0015 10.5755 42.0015 22.5Z" stroke="white" stroke-width="2"/>
<path d="M24.8525 19.9422C25.2611 19.9422 25.5924 19.593 25.5924 19.1622C25.5924 18.7314 25.2611 18.3822 24.8525 18.3822C24.4438 18.3822 24.1125 18.7314 24.1125 19.1622C24.1125 19.593 24.4438 19.9422 24.8525 19.9422Z" fill="white"/>
<path fill-rule="evenodd" clip-rule="evenodd" d="M18.5747 22.5C18.5747 24.2924 19.9574 25.75 21.6577 25.75C23.358 25.75 24.7407 24.2924 24.7407 22.5C24.7407 20.7076 23.358 19.25 21.6577 19.25C19.9574 19.25 18.5747 20.7076 18.5747 22.5ZM20.1162 22.5C20.1162 21.6038 20.8076 20.875 21.6577 20.875C22.5078 20.875 23.1992 21.6038 23.1992 22.5C23.1992 23.3962 22.5078 24.125 21.6577 24.125C20.8076 24.125 20.1162 23.3962 20.1162 22.5Z" fill="white"/>
<path fill-rule="evenodd" clip-rule="evenodd" d="M18.5747 29H24.7407C26.3253 29 27.8236 27.4205 27.8236 25.75V19.25C27.8236 17.5795 26.3253 16 24.7407 16H18.5747C16.99 16 15.4917 17.5795 15.4917 19.25V25.75C15.4917 27.4205 16.99 29 18.5747 29ZM17.0332 19.25C17.0332 18.4903 17.854 17.625 18.5747 17.625H24.7407C25.4613 17.625 26.2821 18.4903 26.2821 19.25V25.75C26.2821 26.5097 25.4613 27.375 24.7407 27.375H18.5747C17.8402 27.375 17.0332 26.5243 17.0332 25.75V19.25Z" fill="white"/>
</svg>
