<svg width="44" height="45" viewBox="0 0 44 45" fill="none" xmlns="http://www.w3.org/2000/svg">
<path opacity="0.25" d="M42.0708 22.5C42.0708 34.3617 32.9634 43.875 21.8521 43.875C10.7407 43.875 1.6333 34.3617 1.6333 22.5C1.6333 10.6383 10.7407 1.125 21.8521 1.125C32.9634 1.125 42.0708 10.6383 42.0708 22.5Z" stroke="white" stroke-width="2.25"/>
<path d="M17.2868 19.375C18.1709 19.375 18.8876 18.6195 18.8876 17.6875C18.8876 16.7555 18.1709 16 17.2868 16C16.4027 16 15.686 16.7555 15.686 17.6875C15.686 18.6195 16.4027 19.375 17.2868 19.375Z" fill="white"/>
<path d="M18.6208 20.5H15.9528C15.8056 20.5 15.686 20.626 15.686 20.7812V29.2188C15.686 29.374 15.8056 29.5 15.9528 29.5H18.6208C18.7681 29.5 18.8876 29.374 18.8876 29.2188V20.7812C18.8876 20.626 18.7681 20.5 18.6208 20.5Z" fill="white"/>
<path d="M26.5698 20.1125C25.4295 19.7007 24.0032 20.0624 23.1479 20.711C23.1185 20.59 23.0139 20.5 22.8896 20.5H20.2216C20.0744 20.5 19.9548 20.626 19.9548 20.7813V29.2188C19.9548 29.374 20.0744 29.5 20.2216 29.5H22.8896C23.0369 29.5 23.1564 29.374 23.1564 29.2188V23.155C23.5875 22.7635 24.143 22.6387 24.5976 22.8423C25.0384 23.0386 25.2908 23.5178 25.2908 24.1563V29.2188C25.2908 29.374 25.4103 29.5 25.5576 29.5H28.2255C28.3728 29.5 28.4923 29.374 28.4923 29.2188V23.5898C28.4619 21.2785 27.4305 20.423 26.5698 20.1125Z" fill="white"/>
</svg>
