<svg width="44" height="45" viewBox="0 0 44 45" fill="none" xmlns="http://www.w3.org/2000/svg">
<path opacity="0.25" d="M42.4041 22.5C42.4041 34.4245 33.2468 44 22.0603 44C10.8738 44 1.71655 34.4245 1.71655 22.5C1.71655 10.5755 10.8738 1 22.0603 1C33.2468 1 42.4041 10.5755 42.4041 22.5Z" stroke="white" stroke-width="2"/>
<path fill-rule="evenodd" clip-rule="evenodd" d="M28.4786 17.3431C29.1285 17.5244 29.6404 18.0559 29.8148 18.7295C30.1386 19.9588 30.1235 22.522 30.1235 22.522C30.1235 22.522 30.1212 25.071 29.8072 26.2996C29.6305 26.9724 29.1164 27.5031 28.4672 27.6836C27.2796 28.0055 22.5286 28 22.5286 28C22.5286 28 17.7904 27.9945 16.5907 27.6569C15.94 27.4756 15.4281 26.9441 15.2537 26.2713C14.9428 25.0545 14.9458 22.4921 14.9458 22.4921C14.9458 22.4921 14.9488 19.9423 15.262 18.713C15.438 18.0402 15.9643 17.4969 16.6013 17.3172C17.7896 16.9945 22.5399 17 22.5399 17C22.5399 17 27.291 17.0055 28.4786 17.3431ZM21.024 20.1441L21.0202 24.8543L24.9727 22.5031L21.024 20.1441Z" fill="white"/>
</svg>
