<svg width="100" height="94" viewBox="0 0 100 94" fill="none" xmlns="http://www.w3.org/2000/svg">
<path d="M35.5675 15.8309C36.6544 13.7135 39.1975 12.8021 41.3819 13.7472L48.9086 17.0038C50.2289 17.575 51.7422 17.4835 52.984 16.7574L60.7945 12.19C63.0662 10.8616 65.988 11.7477 67.139 14.1143L69.6052 19.1847C70.3682 20.7536 71.9663 21.7431 73.7108 21.7268L80.6643 21.6621C83.7037 21.6338 85.9036 24.5541 85.0378 27.4678L83.6789 32.0406C83.1169 33.9319 83.847 35.9693 85.4824 37.0731L89.4365 39.7419C91.9559 41.4424 92.1116 45.0953 89.746 47.004L84.3342 51.3706C82.9764 52.4662 82.3706 54.2454 82.7778 55.9418L84.0935 61.4245C84.7077 63.9835 83.0138 66.5238 80.4154 66.9407L71.4817 68.3739C70.0614 68.6017 68.8344 69.4923 68.1775 70.772L64.4325 78.068C63.3456 80.1855 60.8025 81.0969 58.6181 80.1517L51.0914 76.8952C49.7711 76.3239 48.2578 76.4154 47.016 77.1416L39.2055 81.709C36.9338 83.0374 34.012 82.1512 32.861 79.7847L30.3948 74.7142C29.6318 73.1454 28.0337 72.1559 26.2892 72.1721L19.3357 72.2368C16.2963 72.2651 14.0964 69.3448 14.9622 66.4312L16.3211 61.8584C16.8831 59.967 16.153 57.9297 14.5176 56.8258L10.5635 54.157C8.04414 52.4565 7.88844 48.8036 10.254 46.8949L15.6658 42.5283C17.0236 41.4328 17.6294 39.6536 17.2222 37.9571L15.9065 32.4744C15.2923 29.9155 16.9862 27.3752 19.5846 26.9583L28.5183 25.5251C29.9386 25.2972 31.1656 24.4067 31.8225 23.1269L35.5675 15.8309Z" fill="#0155D2"/>
<path d="M36.3632 47.909L32.8768 48.8431L30.2415 39.0083L33.7567 38.0664C34.746 37.8013 35.6503 37.77 36.4698 37.9725C37.2883 38.1718 37.9879 38.5865 38.5686 39.2167C39.1524 39.846 39.5811 40.6713 39.8548 41.6926C40.1293 42.7171 40.1715 43.6494 39.9814 44.4895C39.7945 45.3288 39.3937 46.0418 38.7789 46.6286C38.1673 47.2145 37.362 47.6413 36.3632 47.909ZM34.4787 46.5044L35.7993 46.1505C36.414 45.9858 36.9019 45.7384 37.263 45.4084C37.6264 45.0742 37.8519 44.6483 37.9397 44.1307C38.0298 43.609 37.9767 42.9816 37.7802 42.2485C37.5855 41.5218 37.3191 40.9566 36.9811 40.5531C36.6463 40.1487 36.24 39.8938 35.7623 39.7885C35.2845 39.6832 34.7383 39.7129 34.1237 39.8776L32.7983 40.2327L34.4787 46.5044ZM46.0482 45.4683C45.3022 45.6682 44.6147 45.6825 43.9855 45.5114C43.3587 45.3363 42.8216 45.0032 42.3744 44.5123C41.9263 44.0181 41.6011 43.3933 41.3986 42.6377C41.1945 41.8758 41.1633 41.1704 41.3051 40.5216C41.4461 39.8697 41.7447 39.3127 42.2008 38.8508C42.6593 38.3848 43.2615 38.0519 44.0074 37.852C44.7533 37.6521 45.4397 37.6398 46.0665 37.815C46.6957 37.9861 47.2344 38.3187 47.6824 38.8129C48.1297 39.3038 48.4554 39.9302 48.6595 40.6922C48.862 41.4477 48.8927 42.1515 48.7517 42.8035C48.6099 43.4523 48.3097 44.0096 47.8513 44.4756C47.3951 44.9375 46.7941 45.2684 46.0482 45.4683ZM45.6331 43.881C45.9725 43.7901 46.2301 43.6181 46.4059 43.3651C46.5809 43.1089 46.681 42.7973 46.7062 42.4303C46.7345 42.0624 46.6913 41.6639 46.5763 41.2349C46.4614 40.8059 46.2996 40.4392 46.0911 40.1348C45.8858 39.8296 45.6433 39.6097 45.3637 39.4753C45.084 39.341 44.7745 39.3192 44.4352 39.4102C44.0926 39.5019 43.8307 39.6768 43.6493 39.9347C43.4711 40.1918 43.3678 40.5042 43.3394 40.8721C43.3143 41.2392 43.3592 41.6372 43.4741 42.0662C43.589 42.4952 43.7492 42.8623 43.9545 43.1676C44.163 43.472 44.4087 43.691 44.6915 43.8245C44.9767 43.9539 45.2906 43.9728 45.6331 43.881ZM51.8733 39.1825L53.016 43.4469L50.9702 43.995L48.9938 36.6189L50.9435 36.0964L51.2922 37.3978L51.3786 37.3747C51.4269 36.9019 51.6097 36.4892 51.927 36.1366C52.2434 35.7807 52.6753 35.5295 53.2228 35.3828C53.735 35.2455 54.2117 35.2379 54.6527 35.3599C55.0937 35.4819 55.4756 35.7227 55.7984 36.0823C56.1204 36.4387 56.3581 36.9034 56.5117 37.4765L57.7701 42.173L55.7244 42.7211L54.5638 38.3896C54.446 37.9373 54.2364 37.616 53.9349 37.4257C53.6326 37.2322 53.2765 37.1904 52.8667 37.3002C52.5914 37.374 52.364 37.4984 52.1844 37.6735C52.0081 37.8477 51.8911 38.0643 51.8336 38.3233C51.7783 38.5783 51.7916 38.8647 51.8733 39.1825ZM58.4616 31.4467L58.7395 32.484C58.8184 32.7785 58.8415 33.0949 58.8086 33.4331C58.778 33.7673 58.7047 34.0957 58.5888 34.4185C58.4719 34.738 58.3268 35.0222 58.1533 35.2712L57.1076 34.98C57.2 34.6842 57.2658 34.3664 57.3051 34.0264C57.3476 33.6856 57.3143 33.3119 57.2054 32.9054L56.9249 31.8585L58.4616 31.4467ZM64.6573 32.4218L65.0691 33.9585L60.6271 35.1488L60.2153 33.6121L64.6573 32.4218ZM60.7502 31.5746L62.796 31.0265L64.6386 37.9032C64.6892 38.0921 64.7575 38.2317 64.8434 38.3219C64.9285 38.4089 65.0278 38.4595 65.1414 38.4736C65.2582 38.4869 65.3855 38.4752 65.5231 38.4383C65.6192 38.4125 65.7131 38.3788 65.8048 38.337C65.8957 38.2921 65.9655 38.258 66.0141 38.2346L66.7438 39.6707C66.6499 39.7302 66.5157 39.8056 66.3412 39.897C66.1675 39.9916 65.9491 40.0792 65.6859 40.16C65.1981 40.3114 64.7483 40.3615 64.3366 40.3106C63.9281 40.2588 63.579 40.1018 63.2891 39.8398C62.9993 39.5777 62.7912 39.2046 62.6649 38.7203L60.7502 31.5746ZM35.8063 52.0111L38.3707 51.3239L42.8496 57.206L42.9649 57.1751L43.9028 49.8416L46.4671 49.1545L49.1024 58.9894L47.0855 59.5298L45.3702 53.1285L45.2886 53.1504L44.4458 60.1856L43.0724 60.5536L38.8184 54.8583L38.7368 54.8802L40.4585 61.3055L38.4415 61.8459L35.8063 52.0111ZM50.7772 58.5406L48.8007 51.1645L50.8464 50.6163L52.8229 57.9925L50.7772 58.5406ZM49.5736 49.9383C49.2695 50.0198 48.9815 49.9888 48.7098 49.8455C48.4404 49.698 48.2675 49.4819 48.1912 49.1969C48.1157 48.9152 48.1582 48.6448 48.3186 48.3856C48.4814 48.1224 48.7149 47.95 49.019 47.8685C49.3232 47.787 49.6099 47.82 49.8793 47.9674C50.1511 48.1108 50.3247 48.3233 50.4002 48.605C50.4765 48.89 50.4333 49.164 50.2705 49.4273C50.11 49.6864 49.8777 49.8568 49.5736 49.9383ZM59.186 50.6361L57.344 51.2532C57.2691 51.1017 57.1617 50.9761 57.0217 50.8763C56.8809 50.7734 56.7138 50.7066 56.5203 50.6761C56.3292 50.6416 56.1151 50.656 55.8782 50.7195C55.5613 50.8044 55.312 50.9433 55.1303 51.1361C54.9478 51.3257 54.8861 51.5309 54.9453 51.7518C54.9925 51.9279 55.1028 52.0579 55.2763 52.1418C55.4497 52.2257 55.7176 52.2586 56.0799 52.2404L57.487 52.1516C58.2435 52.1068 58.8417 52.2004 59.2813 52.4326C59.721 52.6648 60.012 53.0466 60.1544 53.578C60.2839 54.0615 60.2551 54.5238 60.068 54.9651C59.8841 55.4056 59.573 55.7943 59.1349 56.1313C58.6991 56.4643 58.1611 56.7165 57.5208 56.8881C56.5444 57.1497 55.7119 57.1549 55.0235 56.9036C54.3375 56.6482 53.8505 56.1816 53.5625 55.5039L55.5463 54.8591C55.6869 55.1405 55.8951 55.3284 56.1708 55.4226C56.4457 55.5137 56.7656 55.5103 57.1306 55.4125C57.4891 55.3164 57.7588 55.1704 57.9396 54.9744C58.1228 54.7744 58.1864 54.5634 58.1304 54.3417C58.0774 54.1569 57.9583 54.0258 57.7729 53.9485C57.5866 53.8681 57.3248 53.8387 56.9875 53.8604L55.6419 53.9482C54.883 53.9971 54.2798 53.8911 53.8325 53.6301C53.3883 53.3683 53.0924 52.962 52.9449 52.4114C52.8179 51.9375 52.8366 51.495 53.0009 51.0839C53.1685 50.6718 53.461 50.3103 53.8787 49.9994C54.2996 49.6876 54.8253 49.4472 55.456 49.2782C56.3877 49.0286 57.1735 49.0291 57.8137 49.2796C58.4571 49.5292 58.9145 49.9814 59.186 50.6361ZM66.7794 48.6014L64.9375 49.2185C64.8626 49.067 64.7551 48.9414 64.6152 48.8417C64.4744 48.7387 64.3072 48.672 64.1137 48.6415C63.9226 48.6069 63.7086 48.6214 63.4717 48.6848C63.1548 48.7698 62.9054 48.9086 62.7238 49.1014C62.5412 49.291 62.4796 49.4962 62.5388 49.7171C62.5859 49.8932 62.6963 50.0232 62.8697 50.1071C63.0432 50.191 63.3111 50.2239 63.6734 50.2058L65.0804 50.117C65.837 50.0721 66.4351 50.1657 66.8748 50.3979C67.3144 50.6301 67.6055 51.0119 67.7479 51.5434C67.8774 52.0268 67.8486 52.4892 67.6615 52.9305C67.4775 53.3709 67.1665 53.7597 66.7284 54.0967C66.2926 54.4296 65.7546 54.6818 65.1143 54.8534C64.1378 55.1151 63.3054 55.1202 62.617 54.8689C61.9309 54.6135 61.4439 54.147 61.1559 53.4692L63.1398 52.8244C63.2804 53.1059 63.4885 53.2937 63.7643 53.388C64.0392 53.479 64.3591 53.4756 64.724 53.3779C65.0826 53.2818 65.3523 53.1357 65.5331 52.9397C65.7163 52.7397 65.7798 52.5288 65.7239 52.307C65.6709 52.1222 65.5517 51.9911 65.3663 51.9139C65.18 51.8334 64.9183 51.804 64.581 51.8258L63.2354 51.9135C62.4764 51.9625 61.8733 51.8565 61.4259 51.5955C60.9817 51.3336 60.6859 50.9273 60.5383 50.3767C60.4114 49.9029 60.4301 49.4604 60.5944 49.0492C60.7619 48.6372 61.0545 48.2757 61.4722 47.9647C61.893 47.653 62.4188 47.4126 63.0495 47.2436C63.9811 46.9939 64.767 46.9944 65.4072 47.2449C66.0505 47.4946 66.5079 47.9468 66.7794 48.6014Z" fill="white"/>
</svg>
