<svg width="24" height="25" viewBox="0 0 24 25" fill="none" xmlns="http://www.w3.org/2000/svg">
<path d="M12.1349 1.25C12.2099 1.385 12.2999 1.52 12.3524 1.6625C12.4724 1.985 12.5699 2.315 12.6674 2.645C12.7049 2.765 12.7574 2.8025 12.8849 2.8025C13.2674 2.795 13.6424 2.8025 14.0249 2.8025C14.1974 2.8025 14.3549 2.8325 14.4149 3.02C14.4749 3.2 14.3699 3.32 14.2274 3.425C13.9274 3.635 13.6424 3.86 13.3349 4.0625C13.1999 4.1525 13.1774 4.235 13.2299 4.385C13.3574 4.745 13.4624 5.105 13.5899 5.465C13.6424 5.6225 13.6274 5.7575 13.4924 5.855C13.3499 5.96 13.2149 5.915 13.0874 5.825C12.7274 5.5625 12.3674 5.3 11.9999 5.03C11.6399 5.2925 11.2949 5.54 10.9499 5.795C10.8149 5.9 10.6724 5.9675 10.5074 5.855C10.3499 5.7425 10.3649 5.585 10.4174 5.42C10.5374 5.0675 10.6424 4.7075 10.7699 4.3625C10.8149 4.2275 10.7999 4.1525 10.6799 4.07C10.3649 3.8525 10.0649 3.6275 9.74994 3.4025C9.60744 3.305 9.52494 3.185 9.57744 3.0125C9.62994 2.84 9.77244 2.795 9.94494 2.795C10.3199 2.795 10.6949 2.795 11.0624 2.795C11.2199 2.795 11.2949 2.7575 11.3399 2.6C11.4299 2.2775 11.5349 1.955 11.6474 1.64C11.6999 1.505 11.7899 1.3775 11.8649 1.25C11.9549 1.25 12.0374 1.25 12.1274 1.25H12.1349ZM10.9049 3.41C10.9049 3.41 10.8899 3.44 10.8824 3.455C11.0249 3.56 11.1599 3.665 11.3024 3.7625C11.4824 3.8825 11.5274 4.04 11.4524 4.235C11.3924 4.4 11.3399 4.5725 11.2724 4.7975C11.4524 4.6625 11.5949 4.5725 11.7224 4.4675C11.9099 4.31 12.0899 4.3175 12.2699 4.4675C12.3974 4.5725 12.5324 4.6625 12.7199 4.7975C12.6449 4.565 12.5924 4.3925 12.5324 4.2275C12.4649 4.04 12.5024 3.89 12.6824 3.77C12.8324 3.6725 12.9749 3.56 13.1174 3.455C12.9299 3.41 12.7574 3.4025 12.5849 3.41C12.3524 3.425 12.2324 3.32 12.1724 3.1025C12.1274 2.9375 12.0674 2.7875 11.9924 2.57C11.9099 2.8175 11.8499 2.9975 11.7899 3.17C11.7374 3.3275 11.6324 3.41 11.4599 3.4025C11.2724 3.4025 11.0849 3.4025 10.8899 3.4025L10.9049 3.41Z" fill="#F26334"/>
<path d="M6.73484 21.3948C6.39734 21.3948 6.09734 21.3948 5.78984 21.3948C5.42984 21.3948 5.34734 21.3123 5.33984 20.9598C5.33984 20.2248 5.33984 19.4973 5.33984 18.7623C5.33984 18.4098 5.42984 18.3273 5.78984 18.3273C6.45734 18.3273 7.12484 18.3273 7.79234 18.3273C7.87484 18.3273 7.94984 18.3273 8.02484 18.3273C8.02484 17.3673 8.04734 16.4223 8.02484 15.4773C7.97234 13.5498 9.35234 12.8223 10.5898 12.6798C10.7173 12.6648 10.8298 12.6798 10.8748 12.5073C10.9123 12.3648 10.8973 12.2973 10.7623 12.2073C10.0273 11.7198 9.69734 10.9848 9.56234 10.1448C9.39734 9.09483 9.58484 8.13483 10.3798 7.38483C11.0623 6.73983 11.8798 6.48483 12.8098 6.70983C13.2298 6.80733 13.6198 6.75483 14.0173 6.64233C14.5273 6.49983 14.8798 6.66483 15.0073 7.17483C15.0898 7.48983 15.0748 7.84233 15.0673 8.17233C15.0673 8.70483 14.9923 9.23733 15.0073 9.76983C15.0373 10.7898 14.6548 11.5923 13.8448 12.1998C13.7173 12.2973 13.6873 12.3798 13.7173 12.5298C13.7473 12.6873 13.8598 12.6723 13.9648 12.6873C15.0748 12.8298 15.9373 13.3173 16.4098 14.3973C16.8898 15.4923 17.4223 16.5723 17.9173 17.6598C18.0073 17.8623 18.0298 18.0873 18.0898 18.3273C18.0898 18.3273 18.1273 18.3348 18.1648 18.3348C18.6073 18.3498 18.6598 18.4023 18.6598 18.8373C18.6598 19.5273 18.6598 20.2173 18.6598 20.8998C18.6598 21.3423 18.5998 21.4023 18.1498 21.4023C17.8648 21.4023 17.5798 21.4023 17.2723 21.4023C17.2723 21.4998 17.2723 21.5823 17.2723 21.6573C17.2723 22.2273 17.2723 22.7973 17.2723 23.3673C17.2723 23.6448 17.1598 23.7498 16.8823 23.7498C13.6348 23.7498 10.3798 23.7498 7.13234 23.7498C6.85484 23.7498 6.74234 23.6448 6.74234 23.3673C6.74234 22.7223 6.74234 22.0773 6.74234 21.4023L6.73484 21.3948ZM18.0373 18.8898C17.8573 18.9423 17.6923 18.9648 17.5573 19.0398C17.1448 19.2873 16.6573 19.2948 16.2898 19.0473C16.1923 18.9798 16.0498 18.9348 15.9373 18.9348C12.6973 18.9348 9.44984 18.9348 6.20984 18.9348C6.13484 18.9348 6.05234 18.9348 5.96984 18.9423V20.7648H18.0448V18.8898H18.0373ZM16.6498 21.4173H7.36484V23.1198H16.6498V21.4173ZM14.3248 18.3123C14.3248 17.4273 14.3248 16.5723 14.3248 15.7173C14.3248 15.5073 14.3023 15.2898 14.3398 15.0798C14.3548 14.9748 14.4598 14.8473 14.5573 14.7948C14.6923 14.7273 14.8273 14.8023 14.9023 14.9448C14.9323 15.0048 14.9623 15.0648 14.9848 15.1248C15.4798 16.1823 15.9673 17.2473 16.4698 18.3048C16.6123 18.6123 16.8523 18.7023 17.1298 18.5748C17.4073 18.4473 17.4973 18.1998 17.3548 17.8998C16.8223 16.7373 16.2748 15.5823 15.7348 14.4198C15.5698 14.0598 15.2998 13.8048 14.9548 13.6098C14.5798 13.3998 14.1673 13.3023 13.7398 13.2648C13.6873 13.2648 13.6048 13.2873 13.5673 13.3248C13.3873 13.5273 13.2148 13.7373 13.0423 13.9473C13.1473 14.1123 13.2523 14.2623 13.3498 14.4123C13.5598 14.7273 13.5373 14.8398 13.2148 15.0498C13.1173 15.1098 13.0723 15.1773 13.0948 15.2973C13.2073 15.9273 13.3123 16.5648 13.4248 17.2023C13.4548 17.3898 13.4248 17.5398 13.2973 17.6898C13.1323 17.8848 12.9823 18.0948 12.8023 18.3198H14.3173L14.3248 18.3123ZM11.7598 18.3123C11.5798 18.0648 11.4373 17.8548 11.2798 17.6598C11.1673 17.5173 11.1448 17.3748 11.1748 17.2098C11.2798 16.5948 11.3698 15.9798 11.4898 15.3723C11.5273 15.1848 11.4748 15.0948 11.3248 15.0048C11.0848 14.8623 11.0623 14.7123 11.2048 14.4798C11.2348 14.4273 11.2723 14.3823 11.3023 14.3298C11.4523 14.1048 11.4373 13.8848 11.2573 13.6698C10.9923 13.3598 10.6623 13.2523 10.2673 13.3473C9.26984 13.5873 8.68484 14.1873 8.64734 15.1323C8.60234 16.1073 8.62484 17.0748 8.62484 18.0498C8.62484 18.1998 8.69984 18.3123 8.85734 18.3198C9.10484 18.3348 9.35234 18.3198 9.61484 18.3198V18.0573C9.61484 17.1048 9.61484 16.1523 9.61484 15.2073C9.61484 15.1323 9.59234 15.0423 9.62984 14.9898C9.69734 14.8923 9.79484 14.7648 9.89234 14.7498C9.98984 14.7423 10.1173 14.8473 10.1923 14.9298C10.2373 14.9823 10.2298 15.0948 10.2298 15.1848C10.2298 16.1448 10.2298 17.1048 10.2298 18.0573V18.3048H11.7598V18.3123ZM10.1548 10.0773C10.2148 10.2948 10.2523 10.4748 10.3123 10.6548C10.6498 11.5998 11.4148 12.0948 12.5023 12.0648C13.2748 12.0423 14.0923 11.4048 14.2948 10.5498C14.4073 10.0773 14.3773 9.56733 14.4148 9.04233C13.4548 9.25983 12.5923 9.07983 11.7148 8.84733C11.4673 9.58233 10.9198 9.94233 10.1548 10.0698V10.0773ZM10.1323 9.43983C10.7098 9.37983 11.0473 9.06483 11.1673 8.48733C11.2348 8.16483 11.3698 8.09733 11.6848 8.18733C12.0898 8.29983 12.5023 8.41983 12.9223 8.47983C13.2898 8.53233 13.6648 8.50983 14.0323 8.49483C14.2048 8.49483 14.4073 8.43483 14.4298 8.22483C14.4598 7.96233 14.4598 7.68483 14.4448 7.42233C14.4373 7.24233 14.3323 7.16733 14.1298 7.23483C13.6573 7.39233 13.1773 7.42983 12.6823 7.30983C11.3698 6.97983 10.0723 8.06733 10.1323 9.44733V9.43983ZM12.7573 14.6373C12.5548 14.2398 12.5098 14.2023 12.2248 14.2323C11.9848 14.2548 11.9848 14.4873 11.8573 14.6148C12.1873 14.8548 12.1948 14.8548 12.1348 15.2373C12.0298 15.8823 11.9173 16.5198 11.8198 17.1648C11.8123 17.2323 11.8048 17.3223 11.8348 17.3673C11.9773 17.5773 12.1348 17.7798 12.2923 17.9973C12.4573 17.7948 12.6073 17.6073 12.7498 17.4123C12.7948 17.3448 12.8248 17.2398 12.8098 17.1573C12.7123 16.5123 12.6148 15.8748 12.4873 15.2298C12.4348 14.9523 12.4723 14.7498 12.7648 14.6373H12.7573ZM11.4973 12.5523C11.3773 12.7473 11.3698 12.9048 11.5423 13.0623C11.6548 13.1673 11.7523 13.2873 11.8348 13.4148C11.9473 13.5798 12.0823 13.6248 12.2773 13.6248C12.4498 13.6248 12.5773 13.5873 12.6823 13.4373C12.7873 13.2798 12.9148 13.1373 13.0498 13.0023C13.1773 12.8673 13.1698 12.7398 13.0873 12.5823C12.5548 12.7323 12.0298 12.6873 11.4973 12.5523ZM15.7948 18.3123C15.5173 17.7123 15.2473 17.1423 14.9848 16.5723H14.9473V18.3123H15.7948Z" fill="#F26334"/>
<path d="M4.52219 6.05766C4.76969 6.05766 5.07719 6.14766 5.24219 6.03516C5.39969 5.93016 5.41469 5.60766 5.49719 5.37516C5.55719 5.18766 5.61719 5.00016 5.67719 4.81266C5.72969 4.65516 5.81219 4.53516 5.99969 4.53516C6.18719 4.53516 6.26219 4.66266 6.31469 4.82016C6.43469 5.18766 6.55469 5.55516 6.66719 5.92266C6.70469 6.04266 6.75719 6.08016 6.88469 6.08016C7.28219 6.08016 7.67219 6.08016 8.06968 6.08016C8.23469 6.08016 8.35469 6.12516 8.41469 6.29016C8.46719 6.45516 8.38469 6.56766 8.25718 6.66516C7.93469 6.89766 7.61968 7.13016 7.29718 7.35516C7.19218 7.43016 7.17719 7.49766 7.21468 7.61016C7.34219 7.97766 7.45468 8.34516 7.58218 8.71266C7.63468 8.87016 7.64218 9.02016 7.49218 9.12516C7.34218 9.23016 7.20719 9.17766 7.07219 9.08016C6.76469 8.85516 6.44969 8.63766 6.14969 8.40516C6.03719 8.31516 5.95469 8.32266 5.84969 8.40516C5.55719 8.63016 5.25719 8.84016 4.96469 9.05766C4.82219 9.16266 4.67219 9.24516 4.50719 9.11766C4.34219 8.99016 4.37969 8.82516 4.43969 8.66016C4.55219 8.32266 4.65719 7.97766 4.77719 7.64016C4.82969 7.50516 4.81469 7.42266 4.68719 7.33266C4.37219 7.12266 4.07219 6.89016 3.75719 6.66516C3.62219 6.56766 3.53219 6.44766 3.59219 6.27516C3.64469 6.11016 3.77969 6.06516 3.94469 6.07266C4.13969 6.07266 4.34219 6.07266 4.53719 6.07266C4.53719 6.07266 4.53719 6.05766 4.53719 6.05016L4.52219 6.05766ZM6.65218 8.01516C6.65218 8.01516 6.68219 8.00016 6.69719 7.99266C6.64469 7.83516 6.60718 7.67016 6.54718 7.52016C6.45718 7.29516 6.52468 7.14516 6.71218 7.01766C6.84718 6.92766 6.97469 6.83016 7.10219 6.73266C6.89969 6.69516 6.71969 6.69516 6.53969 6.68766C6.35969 6.68766 6.23969 6.60516 6.18719 6.42516C6.13469 6.24516 6.06719 6.06516 5.99219 5.84016C5.91719 6.05766 5.85719 6.23766 5.80469 6.41766C5.75219 6.60516 5.62469 6.69516 5.42969 6.68766C5.24969 6.68766 5.07719 6.68766 4.89719 6.68766C5.03219 6.83766 5.17469 6.95016 5.32469 7.05516C5.47469 7.16016 5.52719 7.29516 5.45969 7.47516C5.39219 7.65516 5.34719 7.83516 5.27219 8.06766C5.47469 7.92516 5.63219 7.81266 5.78219 7.70016C5.92469 7.59516 6.05969 7.59516 6.20219 7.70016C6.35219 7.80516 6.49468 7.91016 6.64468 8.02266L6.65218 8.01516Z" fill="#F26334"/>
<path d="M18.0077 8.29234C17.6552 8.54734 17.3102 8.79484 16.9727 9.04984C16.8302 9.15484 16.6802 9.23734 16.5152 9.10984C16.3577 8.98984 16.3877 8.83234 16.4402 8.67484C16.5752 8.26984 16.7027 7.87234 16.8452 7.44484C16.5452 7.22734 16.2377 7.00234 15.9302 6.77734C15.8627 6.72484 15.7652 6.68734 15.7202 6.61984C15.6602 6.51484 15.5852 6.37234 15.6152 6.28234C15.6452 6.19234 15.7952 6.08734 15.9002 6.07984C16.2677 6.05734 16.6352 6.05734 16.9952 6.07984C17.2127 6.09484 17.3177 6.03484 17.3777 5.80984C17.4602 5.47234 17.5877 5.14234 17.6927 4.80484C17.7452 4.64734 17.8277 4.52734 18.0077 4.52734C18.1952 4.52734 18.2702 4.65484 18.3227 4.81234C18.4427 5.17984 18.5627 5.54734 18.6752 5.91484C18.7127 6.02734 18.7577 6.07984 18.8852 6.07234C19.2827 6.06484 19.6727 6.07234 20.0702 6.07234C20.2352 6.07234 20.3627 6.11734 20.4152 6.28234C20.4677 6.44734 20.3927 6.55984 20.2577 6.65734C19.9352 6.88984 19.6202 7.12234 19.2977 7.34734C19.1927 7.42234 19.1777 7.48984 19.2152 7.60234C19.3427 7.96234 19.4552 8.32234 19.5752 8.68234C19.6277 8.84734 19.6502 9.00484 19.4927 9.11734C19.3352 9.22984 19.1927 9.16234 19.0502 9.05734C18.7052 8.80234 18.3527 8.54734 18.0002 8.29234H18.0077ZM16.9127 6.68734C16.9127 6.68734 16.9127 6.72484 16.9052 6.73984C17.0477 6.84484 17.1902 6.94984 17.3327 7.04734C17.4902 7.15984 17.5352 7.30234 17.4677 7.48984C17.4077 7.65484 17.3627 7.82734 17.2877 8.05984C17.4902 7.91734 17.6402 7.81234 17.7827 7.69984C17.9327 7.58734 18.0752 7.58734 18.2252 7.69984C18.3752 7.81234 18.5327 7.91734 18.7277 8.05984C18.6677 7.87234 18.6302 7.73734 18.5852 7.60234C18.4652 7.22734 18.4727 7.20484 18.7952 6.96484C18.9002 6.88984 19.0052 6.80734 19.1177 6.73234C18.9227 6.68734 18.7427 6.68734 18.5702 6.68734C18.3752 6.68734 18.2552 6.60484 18.1952 6.41734C18.1427 6.23734 18.0752 6.05734 18.0077 5.83984C17.9327 6.06484 17.8652 6.24484 17.8127 6.42484C17.7602 6.60484 17.6327 6.68734 17.4527 6.68734C17.2727 6.68734 17.0927 6.68734 16.9127 6.68734Z" fill="#F26334"/>
</svg>
