<svg width="24" height="25" viewBox="0 0 24 25" fill="none" xmlns="http://www.w3.org/2000/svg">
<path d="M6.89977 20.5176C6.54727 20.4501 6.25478 20.3001 6.03727 20.0226C5.72227 19.6251 5.69227 19.1376 5.94727 18.6726C5.97727 18.6126 6.00727 18.5001 5.97727 18.4551C5.60227 17.9676 5.21227 17.4951 4.86727 17.0601C4.57477 17.1951 4.31977 17.3826 4.04227 17.4276C3.80227 17.4651 3.51727 17.3826 3.29227 17.2701C2.75227 17.0001 2.23477 16.6776 1.71727 16.3701C1.14727 16.0326 0.967275 15.3951 1.29727 14.8176C2.24977 13.1526 3.21727 11.4951 4.17727 9.83014C4.21477 9.77014 4.24477 9.69514 4.29727 9.65764C4.54477 9.49264 4.54477 9.24514 4.54477 8.98264C4.54477 6.71014 4.54477 4.44514 4.54477 2.17264C4.54477 1.74514 4.64978 1.64014 5.08477 1.64014C9.70477 1.64014 14.3248 1.64014 18.9373 1.64014C19.3873 1.64014 19.4923 1.73764 19.4923 2.18764C19.4923 4.52014 19.4923 6.85264 19.4923 9.18514C19.4923 9.34264 19.5148 9.46264 19.6498 9.56764C19.7623 9.65764 19.8373 9.79264 19.9123 9.92014C20.8348 11.5101 21.7573 13.1076 22.6723 14.7051C23.0848 15.4176 22.9198 16.0176 22.1998 16.4301C21.7648 16.6851 21.3148 16.9176 20.8948 17.1951C20.3248 17.5701 19.6123 17.5926 19.1023 16.8276C18.8398 16.9626 18.5698 17.0976 18.3073 17.2326C18.5548 18.0801 18.4573 18.4401 17.8348 18.9801C18.0523 19.4001 18.0448 19.8351 17.7823 20.2476C17.5273 20.6526 17.1523 20.8551 16.6498 20.8476C16.5148 21.5301 16.1398 21.9801 15.3973 22.0551C15.3748 22.1526 15.3598 22.2501 15.3298 22.3401C15.1198 23.1501 14.2948 23.5251 13.5523 23.1351C13.2148 22.9551 12.8923 22.7601 12.5398 22.5501C12.2623 22.9626 11.9473 23.3451 11.3923 23.3451C10.8598 23.3451 10.4773 23.0826 10.2148 22.6476C9.34477 22.8726 8.88727 22.6626 8.45227 21.8601C7.51477 21.8826 7.03477 21.4626 6.91477 20.5101L6.89977 20.5176ZM16.1098 11.5476C16.0648 11.0601 16.1848 10.6476 16.6048 10.4001C17.2948 9.98764 17.9998 9.59764 18.7123 9.18514V2.41264H5.28727V9.25264C5.42228 9.30514 5.54978 9.33514 5.66227 9.39514C6.23228 9.71764 6.79478 10.0401 7.35728 10.3701C7.73228 10.5951 7.91978 10.9476 7.88977 11.3826C7.88227 11.5326 7.92727 11.6001 8.06977 11.6451C8.60977 11.8251 9.14227 12.0126 9.66727 12.2151C9.86228 12.2901 9.99727 12.2751 10.1623 12.1251C10.7773 11.5701 11.4973 11.3151 12.3298 11.4576C12.5623 11.4951 12.7873 11.5401 13.0198 11.5851C14.0473 11.7876 15.0673 11.8176 16.1098 11.5401V11.5476ZM9.31477 12.8826C8.72227 12.6726 8.14477 12.4626 7.57477 12.2601C7.54477 12.2751 7.53727 12.2751 7.52977 12.2826C6.77227 13.5876 6.01477 14.8926 5.26477 16.1976C5.24227 16.2426 5.24227 16.3251 5.26477 16.3626C5.66227 16.8651 6.06728 17.3676 6.47977 17.8926C6.61478 17.6976 6.73478 17.5326 6.85477 17.3601C7.36478 16.6626 8.30227 16.6476 8.84977 17.3301C8.89477 17.3826 8.93227 17.4351 8.97727 17.4876C9.74227 17.0601 10.7698 17.5326 10.8898 18.5676C11.2948 18.6276 11.6398 18.8001 11.8798 19.1526C12.1198 19.5051 12.1423 19.8876 11.9998 20.2701C12.0223 20.2926 12.0298 20.3001 12.0373 20.3001C12.8248 20.6301 13.0348 20.9976 12.9523 21.8301C12.9523 21.8826 12.9973 21.9576 13.0423 21.9876C13.3273 22.1601 13.6123 22.3326 13.9048 22.4901C14.1523 22.6251 14.3773 22.5501 14.5273 22.3176C14.6923 22.0551 14.6323 21.8076 14.3623 21.6426C13.9648 21.4026 13.5523 21.1851 13.1623 20.9301C13.0573 20.8551 12.9673 20.6826 12.9673 20.5551C12.9673 20.4501 13.1023 20.3076 13.2148 20.2626C13.3123 20.2251 13.4773 20.2626 13.5823 20.3301C14.1073 20.6226 14.6173 20.9301 15.1348 21.2226C15.4048 21.3726 15.6448 21.3051 15.7948 21.0501C15.9448 20.7951 15.8923 20.5626 15.6298 20.3901C15.5248 20.3226 15.4123 20.2626 15.3073 20.2026C14.9098 19.9701 14.5123 19.7451 14.1223 19.5051C13.9198 19.3776 13.8673 19.1676 13.9798 18.9876C14.0848 18.8151 14.2873 18.7626 14.4898 18.8601C14.5573 18.8976 14.6248 18.9351 14.6923 18.9801C15.2998 19.3326 15.8998 19.6851 16.5073 20.0301C16.7623 20.1726 16.9948 20.1051 17.1448 19.8576C17.3023 19.6026 17.2498 19.3626 16.9948 19.1976C16.9348 19.1601 16.8748 19.1226 16.8148 19.0926C16.2523 18.7626 15.6823 18.4401 15.1273 18.1026C14.8423 17.9376 14.8198 17.5701 15.0898 17.4501C15.2098 17.3976 15.4048 17.4201 15.5173 17.4801C16.0048 17.7351 16.4698 18.0276 16.9498 18.3051C17.2648 18.4776 17.5573 18.3576 17.6698 18.0201C17.7523 17.7726 17.6698 17.6076 17.3773 17.4351C15.9448 16.6026 14.5048 15.7926 13.0873 14.9376C12.6298 14.6601 12.2098 14.6376 11.7448 14.8701C11.6398 14.9226 11.5273 14.9526 11.4298 15.0201C11.3473 15.0726 11.2573 15.1476 11.2123 15.2376C11.0548 15.5226 10.9198 15.8226 10.7623 16.1001C10.4848 16.5951 10.0423 16.8576 9.49477 16.9626C8.84977 17.0826 8.38477 16.7076 8.36977 16.0551C8.36977 15.9951 8.36977 15.9276 8.36977 15.8676C8.39977 15.2301 8.42227 14.5926 8.46727 13.9551C8.47477 13.8201 8.55727 13.6776 8.64727 13.5726C8.84977 13.3401 9.07477 13.1226 9.31477 12.8751V12.8826ZM18.7273 16.1751C17.9848 14.8926 17.2573 13.6251 16.5148 12.3576C16.4848 12.3051 16.3723 12.2676 16.3123 12.2826C15.0223 12.6201 13.7398 12.5451 12.4573 12.2451C11.7823 12.0876 11.1748 12.2151 10.6573 12.6951C10.1923 13.1226 9.74227 13.5576 9.28477 13.9926C9.24727 14.0301 9.20227 14.0901 9.20227 14.1501C9.16477 14.7801 9.14227 15.4101 9.10477 16.0326C9.09727 16.2201 9.19477 16.2651 9.35227 16.2351C9.69727 16.1676 9.97477 15.9951 10.1398 15.6726C10.3048 15.3576 10.4548 15.0276 10.6273 14.7201C10.6873 14.6151 10.7848 14.5026 10.8898 14.4426C11.1448 14.3076 11.4073 14.2026 11.6773 14.0901C12.2548 13.8576 12.8023 13.9101 13.3498 14.2326C14.7148 15.0426 16.0873 15.8226 17.4598 16.6176C17.5348 16.6626 17.6623 16.7001 17.7298 16.6701C18.0598 16.5201 18.3823 16.3476 18.7198 16.1751H18.7273ZM22.1548 15.4401C22.1173 15.3201 22.0948 15.2451 22.0573 15.1776C22.0123 15.0876 21.9598 15.0051 21.9073 14.9151C21.0148 13.3701 20.1223 11.8251 19.2298 10.2801C19.0723 10.0026 18.8998 9.93514 18.6598 10.0701C18.1198 10.3701 17.5798 10.6851 17.0473 11.0001C16.8298 11.1276 16.7923 11.3151 16.9123 11.5401C16.9948 11.6976 17.0923 11.8476 17.1823 12.0051C18.0373 13.4826 18.8923 14.9601 19.7473 16.4376C19.9048 16.7076 20.0848 16.7826 20.3173 16.6476C20.8573 16.3401 21.3973 16.0326 21.9298 15.7101C22.0273 15.6501 22.0948 15.5226 22.1623 15.4326L22.1548 15.4401ZM7.19227 11.2851C7.10977 11.1876 7.04227 11.0526 6.93727 10.9926C6.41978 10.6776 5.89477 10.3776 5.36977 10.0776C5.12977 9.94264 4.94227 9.98764 4.79977 10.2351C3.84727 11.8701 2.90227 13.5126 1.95727 15.1551C1.80727 15.4101 1.85977 15.5826 2.12227 15.7401C2.63227 16.0401 3.14227 16.3326 3.65227 16.6251C3.91477 16.7751 4.10227 16.7226 4.25227 16.4601C5.18977 14.8326 6.12727 13.2051 7.06477 11.5851C7.10978 11.5101 7.13977 11.4201 7.19227 11.2926V11.2851ZM9.60728 18.0051C9.44977 18.1176 9.30727 18.1851 9.23228 18.2901C8.73727 18.9726 8.24977 19.6701 7.76977 20.3601C7.59727 20.6076 7.65727 20.8551 7.89727 21.0276C8.13727 21.1926 8.37727 21.1626 8.54977 20.9226C9.04477 20.2326 9.53227 19.5276 10.0273 18.8301C10.1323 18.6801 10.1773 18.5001 10.0498 18.3576C9.93727 18.2226 9.77227 18.1326 9.60728 18.0051ZM11.3473 19.8426C11.3173 19.5801 11.1823 19.4301 10.9723 19.3476C10.7473 19.2651 10.5748 19.3476 10.4473 19.5276C10.0423 20.0976 9.63727 20.6676 9.24727 21.2376C9.07477 21.4851 9.13477 21.7326 9.38227 21.9051C9.62227 22.0701 9.86227 22.0401 10.0348 21.8001C10.4398 21.2376 10.8448 20.6601 11.2348 20.0901C11.2873 20.0076 11.3173 19.9101 11.3473 19.8426ZM7.84477 17.5326C7.72477 17.6151 7.57477 17.6751 7.49227 17.7876C7.19227 18.1851 6.89977 18.6051 6.62227 19.0176C6.45727 19.2576 6.50977 19.5051 6.73477 19.6701C6.97477 19.8501 7.22977 19.8201 7.40227 19.5726C7.70227 19.1676 7.98727 18.7551 8.27227 18.3351C8.49727 18.0051 8.27227 17.6076 7.84477 17.5326ZM12.2473 21.5376C12.2323 21.2676 12.0973 21.1326 11.9023 21.0501C11.7073 20.9676 11.5273 21.0051 11.3998 21.1776C11.2273 21.4026 11.0548 21.6351 10.9048 21.8826C10.7623 22.1076 10.8223 22.3551 11.0473 22.5126C11.2723 22.6701 11.5198 22.6476 11.6848 22.4301C11.8573 22.2126 12.0148 21.9801 12.1648 21.7476C12.2098 21.6801 12.2248 21.5901 12.2398 21.5451L12.2473 21.5376Z" fill="#F26334"/>
<path d="M13.8904 8.53271C14.8354 8.53271 15.7879 8.53271 16.7329 8.53271C16.9204 8.53271 17.0704 8.57772 17.1454 8.76522C17.2279 8.96772 17.1304 9.18521 16.9204 9.24521C16.8304 9.27521 16.7404 9.27521 16.6429 9.27521C14.8054 9.27521 12.9604 9.27521 11.1229 9.27521C11.0629 9.27521 10.9954 9.27521 10.9354 9.27521C10.7104 9.23771 10.5829 9.08021 10.5979 8.87021C10.6129 8.67521 10.7554 8.54022 10.9729 8.54022C11.5729 8.54022 12.1654 8.54022 12.7654 8.54022C13.1404 8.54022 13.5079 8.54022 13.8829 8.54022L13.8904 8.53271Z" fill="#F26334"/>
<path d="M13.8896 5.28494C12.9596 5.28494 12.0221 5.28494 11.0921 5.28494C10.9796 5.28494 10.8371 5.28494 10.7621 5.21744C10.6721 5.13494 10.5896 4.97744 10.6121 4.86494C10.6271 4.75244 10.7546 4.64744 10.8596 4.57244C10.9271 4.52744 11.0396 4.54244 11.1296 4.54244C12.9596 4.54244 14.7971 4.54244 16.6271 4.54244C16.6796 4.54244 16.7396 4.54244 16.7921 4.54244C17.0171 4.56494 17.1671 4.71494 17.1746 4.90994C17.1746 5.11994 17.0171 5.27744 16.7846 5.28494C16.1921 5.28494 15.6071 5.28494 15.0146 5.28494C14.6396 5.28494 14.2721 5.28494 13.8971 5.28494H13.8896Z" fill="#F26334"/>
<path d="M7.7623 4.9475C8.0623 4.64 8.3323 4.37 8.6023 4.1C8.8123 3.89 9.0298 3.875 9.1948 4.0475C9.3523 4.2125 9.3373 4.4225 9.1348 4.6175C8.7898 4.9625 8.4448 5.315 8.0998 5.6525C7.8823 5.87 7.6948 5.87 7.4773 5.6525C7.3123 5.495 7.1548 5.3375 6.9973 5.1725C6.8023 4.97 6.7873 4.76 6.9523 4.6025C7.1098 4.445 7.3348 4.4675 7.5298 4.655C7.6123 4.7375 7.6798 4.8275 7.7698 4.9325L7.7623 4.9475Z" fill="#F26334"/>
<path d="M7.75451 8.98227C8.06201 8.66727 8.32451 8.39727 8.58701 8.13477C8.79701 7.92477 9.01451 7.90227 9.17951 8.05977C9.35201 8.22477 9.32951 8.43477 9.11951 8.65227C8.78201 8.99727 8.43701 9.33477 8.09951 9.67227C7.86701 9.90477 7.69451 9.90477 7.46201 9.67227C7.29701 9.50727 7.12451 9.34977 6.96701 9.17727C6.78701 8.98977 6.78701 8.77227 6.95201 8.62227C7.10201 8.47977 7.31951 8.48727 7.49201 8.65977C7.58201 8.74227 7.64951 8.84727 7.75451 8.97477V8.98227Z" fill="#F26334"/>
</svg>
