<svg width="24" height="25" viewBox="0 0 24 25" fill="none" xmlns="http://www.w3.org/2000/svg">
<path d="M22.7104 19.1148C22.5604 19.6773 22.1629 19.9698 21.6454 20.1873C19.7179 20.9973 17.7904 21.8373 15.8704 22.6698C14.8879 23.0973 13.8754 23.1573 12.8179 22.9923C11.0704 22.7148 9.31535 22.4748 7.56785 22.2198C7.50785 22.2123 7.44785 22.2198 7.36535 22.2198C7.36535 22.3848 7.36535 22.5423 7.36535 22.6998C7.36535 22.9623 7.24535 23.0898 6.98285 23.0898C5.21285 23.0898 3.44285 23.0898 1.67285 23.0898C1.40285 23.0898 1.29785 22.9548 1.29785 22.6548C1.29785 20.4198 1.29785 18.1773 1.29785 15.9423C1.29785 15.6873 1.29785 15.4248 1.29785 15.1698C1.29785 14.9073 1.42535 14.7798 1.68035 14.7798C3.44285 14.7798 5.20535 14.7798 6.96785 14.7798C7.24535 14.7798 7.35785 14.8998 7.35785 15.1773C7.35785 15.3198 7.35785 15.4548 7.35785 15.6273C7.44785 15.6273 7.53035 15.6273 7.61285 15.6273C8.50535 15.6273 9.39785 15.6348 10.2904 15.6273C11.1379 15.6198 11.7979 15.9423 12.2629 16.6623C12.6079 17.1873 13.0954 17.4498 13.7254 17.4273C14.0554 17.4198 14.3779 17.4423 14.7079 17.4273C15.5479 17.3823 16.1629 17.6898 16.4554 18.5223C17.0554 18.4098 17.6554 18.2973 18.2479 18.1848C19.2154 17.9973 20.1754 17.8098 21.1429 17.6298C21.8329 17.5023 22.4704 17.8998 22.6654 18.5673C22.6729 18.5973 22.6954 18.6273 22.7029 18.6573V19.1148H22.7104ZM7.37285 21.4998C7.43285 21.5148 7.48535 21.5298 7.53785 21.5373C9.32285 21.7998 11.1079 22.0398 12.8929 22.3248C13.9054 22.4898 14.8729 22.4073 15.8029 21.9648C16.3504 21.7098 16.9129 21.4848 17.4679 21.2448C18.8254 20.6598 20.1754 20.0823 21.5329 19.4898C21.6604 19.4373 21.7879 19.3623 21.8779 19.2723C22.0579 19.0923 22.0804 18.8073 21.9529 18.5973C21.8179 18.3573 21.5404 18.2373 21.2329 18.2898C20.8804 18.3498 20.5354 18.4248 20.1904 18.4923C18.9904 18.7173 17.7979 18.9498 16.6054 19.1823C16.5304 19.1973 16.4329 19.2573 16.4104 19.3248C16.1254 20.0748 15.6379 20.4198 14.8354 20.4198C13.2754 20.4198 11.7154 20.4198 10.1554 20.4198C10.0879 20.4198 10.0129 20.4198 9.94535 20.4198C9.76535 20.3823 9.66035 20.2698 9.66035 20.0823C9.66035 19.9098 9.79535 19.7748 9.97535 19.7598C10.0354 19.7598 10.1029 19.7598 10.1629 19.7598C11.4304 19.7598 12.6979 19.7598 13.9654 19.7598C14.3104 19.7598 14.6479 19.7673 14.9929 19.7598C15.4204 19.7448 15.7354 19.4373 15.7879 18.9873C15.8404 18.5898 15.6379 18.2673 15.2629 18.1548C15.1504 18.1248 15.0304 18.1173 14.9104 18.1173C14.4979 18.1173 14.0854 18.1173 13.6804 18.1173C12.8404 18.1173 12.1804 17.7723 11.7229 17.0748C11.3779 16.5498 10.9054 16.3098 10.2829 16.3173C9.39035 16.3323 8.49785 16.3173 7.60535 16.3173H7.36535V21.5223L7.37285 21.4998ZM1.98035 15.4473V22.3998H6.68285V15.4473H1.98035Z" fill="#F26334"/>
<path d="M22.7104 11.5401C22.6054 11.6076 22.5004 11.7276 22.3879 11.7276C22.2829 11.7276 22.1554 11.6301 22.0804 11.5401C21.9979 11.4426 21.9679 11.3076 21.9004 11.1576C21.8629 11.2326 21.8254 11.2926 21.8029 11.3526C20.6254 13.8276 18.0679 15.3201 15.3304 15.1326C12.6454 14.9451 10.2454 13.0251 9.48786 10.4451C9.41286 10.2051 9.48786 10.0176 9.66786 9.95757C9.87786 9.88257 10.0429 9.98757 10.1254 10.2576C10.3654 11.0301 10.7479 11.7276 11.2654 12.3501C14.0404 15.6651 19.3579 14.9751 21.1954 11.0676C21.2179 11.0151 21.2404 10.9551 21.2854 10.8501C21.1204 10.9176 20.9929 10.9776 20.8579 11.0301C20.6479 11.1126 20.4529 11.0526 20.3779 10.8801C20.2954 10.6926 20.3779 10.5126 20.6029 10.4151C20.9554 10.2576 21.3154 10.1001 21.6754 9.95007C21.9304 9.84507 22.0879 9.91257 22.2004 10.1601C22.3729 10.5351 22.5454 10.9176 22.7179 11.2926V11.5401H22.7104Z" fill="#F26334"/>
<path d="M20.1604 8.53262C20.1604 10.9251 18.2104 12.8751 15.8029 12.8751C13.4254 12.8751 11.4829 10.9326 11.4679 8.52512C11.4529 6.15512 13.4179 4.19012 15.8029 4.18262C18.1954 4.18262 20.1529 6.12512 20.1529 8.53262H20.1604ZM12.1429 8.54012C12.1429 10.5576 13.8079 12.2076 15.8254 12.2076C17.8354 12.2076 19.4929 10.5576 19.4929 8.55512C19.4929 6.51512 17.8504 4.85762 15.8254 4.85762C13.8079 4.85762 12.1429 6.52262 12.1429 8.54762V8.54012Z" fill="#F26334"/>
<path d="M10.3577 6.18512C10.5377 6.11012 10.6727 6.04262 10.8077 5.99762C11.0102 5.92262 11.1827 5.99012 11.2652 6.16262C11.3402 6.33512 11.2652 6.51512 11.0702 6.60512C10.6877 6.77762 10.3052 6.94262 9.92273 7.10012C9.72773 7.18262 9.56273 7.12262 9.47273 6.92762C9.29273 6.54512 9.12773 6.15512 8.96273 5.75762C8.88773 5.57012 8.96273 5.39012 9.12773 5.31512C9.30023 5.24012 9.48023 5.31512 9.57774 5.50262C9.63024 5.61512 9.67523 5.72762 9.74273 5.87762C9.78773 5.79512 9.81773 5.75012 9.84023 5.69762C11.0102 3.24512 13.5452 1.75262 16.2527 1.92512C18.9527 2.09762 21.3377 3.98012 22.1327 6.56762C22.2227 6.86012 22.1627 7.04012 21.9527 7.10762C21.7352 7.17512 21.5927 7.06262 21.4952 6.77762C20.7977 4.73012 19.4252 3.37262 17.3327 2.78762C14.6027 2.02262 11.6252 3.42512 10.4402 5.99012C10.4177 6.04262 10.3952 6.08762 10.3577 6.18512Z" fill="#F26334"/>
<path d="M16.1623 10.6023C16.1098 11.0598 16.0348 11.1873 15.8173 11.1873C15.5998 11.1873 15.5323 11.0748 15.4498 10.6023C15.3148 10.5873 15.1723 10.5798 15.0448 10.5423C14.7148 10.4598 14.4748 10.2648 14.3098 9.97228C14.2048 9.78478 14.2423 9.59728 14.4073 9.49228C14.5723 9.38728 14.7598 9.43228 14.8723 9.61978C14.9998 9.83728 15.1798 9.92728 15.4273 9.91978C15.6748 9.91228 15.9298 9.91978 16.1773 9.91978C16.4923 9.91228 16.7173 9.67978 16.7098 9.39478C16.7098 9.10978 16.4773 8.87728 16.1698 8.86978C15.9298 8.86978 15.6823 8.86978 15.4348 8.86978C14.7823 8.85478 14.2648 8.35978 14.2498 7.72978C14.2273 7.06228 14.6923 6.53728 15.3598 6.47728C15.3898 6.47728 15.4123 6.47728 15.4573 6.46228C15.4873 6.21478 15.4273 5.89228 15.8173 5.87728C16.0273 5.86978 16.0948 5.98978 16.1548 6.45478C16.2973 6.47728 16.4398 6.48478 16.5823 6.52228C16.9048 6.60478 17.1448 6.79228 17.3023 7.07728C17.4148 7.27228 17.3698 7.46728 17.2048 7.56478C17.0398 7.66228 16.8598 7.61728 16.7398 7.42978C16.6123 7.22728 16.4398 7.12978 16.1998 7.13728C15.9448 7.13728 15.6823 7.13728 15.4273 7.13728C15.1198 7.14478 14.9098 7.36228 14.9098 7.65478C14.9098 7.95478 15.1198 8.17978 15.4348 8.18728C15.6748 8.19478 15.9223 8.18728 16.1698 8.18728C16.8298 8.19478 17.3548 8.70478 17.3773 9.35728C17.3998 9.97978 16.9198 10.5123 16.2673 10.5723C16.2298 10.5723 16.1998 10.5798 16.1548 10.5873L16.1623 10.6023Z" fill="#F26334"/>
</svg>
