<svg width="24" height="25" viewBox="0 0 24 25" fill="none" xmlns="http://www.w3.org/2000/svg">
<path d="M15.8473 16.6402C15.9148 17.6227 15.0298 18.0952 14.2948 17.7127C13.8673 18.4252 13.4473 18.5752 12.7498 18.2602C12.7273 18.3127 12.6973 18.3577 12.6673 18.4102C12.3223 19.0702 11.4373 19.1527 10.9798 18.5677C10.8073 18.3502 10.6573 18.1102 10.4773 17.8627C10.3648 17.9977 10.2748 18.1102 10.1773 18.2302C9.65979 18.8452 8.88729 18.7402 8.54979 18.0127C8.54229 17.9902 8.52729 17.9752 8.50479 17.9452C8.24229 18.0427 7.97979 18.0727 7.70979 17.9452C7.43979 17.8252 7.28229 17.6077 7.19229 17.3377C6.33729 17.6152 5.75229 16.9927 5.86479 16.2652C5.51979 16.2127 5.23479 16.0627 5.07729 15.7327C4.91979 15.4102 4.96479 15.1027 5.15979 14.7802C4.80729 14.6077 4.46229 14.4352 4.10979 14.2702C4.06479 14.2477 3.98979 14.2702 3.93729 14.3002C3.69729 14.4127 3.45729 14.4202 3.22479 14.3152C2.68479 14.0752 2.15229 13.8427 1.61979 13.5952C1.18479 13.3927 1.01979 12.9577 1.20729 12.5227C2.09979 10.5277 2.99229 8.52524 3.89229 6.53774C4.08729 6.11024 4.52979 5.94524 4.96479 6.13274C5.49729 6.36524 6.02229 6.59774 6.54729 6.84524C7.01229 7.06274 7.16979 7.49774 6.97479 7.97024C6.89979 8.15024 6.81729 8.32274 6.73479 8.51774C7.34979 8.77274 7.94229 8.90024 8.56479 8.56274C9.29979 8.16524 10.0873 8.13524 10.8973 8.23274C11.0698 8.25524 11.1748 8.23274 11.2873 8.09024C12.0598 7.20524 13.1173 7.01024 14.1523 7.55774C14.3923 7.68524 14.6398 7.82024 14.8798 7.94774C15.3373 8.19524 15.8173 8.23274 16.3123 8.09024C16.5298 8.02274 16.7548 7.95524 16.9798 7.88774C16.9723 7.81274 16.9648 7.74524 16.9573 7.68524C16.9273 7.31774 17.0923 7.01774 17.4373 6.86024C17.9623 6.62024 18.4948 6.38024 19.0273 6.14774C19.4923 5.94524 19.9348 6.11024 20.1448 6.57524C21.0298 8.54024 21.9148 10.5127 22.7923 12.4852C23.0098 12.9652 22.8373 13.4002 22.3648 13.6177C21.8548 13.8577 21.3373 14.0827 20.8198 14.3152C20.5123 14.4502 20.2198 14.4277 19.9348 14.2252C19.8823 14.1877 19.7698 14.1802 19.7098 14.2102C18.8173 14.6677 17.9323 15.1252 17.0473 15.5977C16.9873 15.6277 16.9273 15.7027 16.9123 15.7702C16.7623 16.3552 16.4698 16.6102 15.8473 16.6627V16.6402ZM10.7773 17.4727C10.9723 17.7502 11.1448 18.0202 11.3398 18.2752C11.5273 18.5227 11.8498 18.5677 12.0973 18.3952C12.3448 18.2227 12.4048 17.9077 12.2548 17.6452C12.2248 17.5852 12.1798 17.5402 12.1423 17.4802C11.8873 17.1127 11.6323 16.7377 11.3773 16.3702C11.2873 16.2427 11.2498 16.1077 11.3923 16.0102C11.5423 15.9052 11.6623 15.9802 11.7523 16.1227C11.7823 16.1752 11.8198 16.2202 11.8498 16.2652C12.1723 16.7302 12.4798 17.2027 12.8173 17.6602C12.9073 17.7802 13.0423 17.8852 13.1848 17.9377C13.4023 18.0202 13.6498 17.9077 13.7698 17.7202C13.9123 17.5027 13.8973 17.2777 13.7548 17.0677C13.4098 16.5652 13.0648 16.0627 12.7198 15.5602C12.6898 15.5152 12.6298 15.4627 12.6298 15.4177C12.6298 15.3127 12.6448 15.1777 12.7048 15.1252C12.7498 15.0877 12.8923 15.1327 12.9823 15.1702C13.0273 15.1852 13.0498 15.2602 13.0873 15.3052C13.4923 15.8977 13.8898 16.4902 14.3098 17.0752C14.4073 17.2027 14.5573 17.3227 14.7073 17.3752C14.9323 17.4502 15.1423 17.3602 15.2773 17.1577C15.4273 16.9402 15.4123 16.7227 15.2698 16.5052C14.8798 15.9352 14.4898 15.3727 14.0998 14.8027C14.0398 14.7127 13.9723 14.6227 13.9198 14.5327C13.8448 14.4127 13.8598 14.2852 13.9798 14.2327C14.0623 14.2027 14.1898 14.2477 14.2873 14.2852C14.3323 14.3002 14.3548 14.3752 14.3923 14.4202C14.7298 14.9077 15.0673 15.4027 15.4048 15.8902C15.6148 16.1902 15.9448 16.2652 16.2148 16.0852C16.4848 15.9052 16.5373 15.5677 16.3273 15.2602C15.3748 13.8652 14.4223 12.4702 13.4623 11.0752C13.2973 10.8352 13.1248 10.7902 12.8923 10.9552C12.5473 11.1952 12.2098 11.4502 11.8873 11.7202C11.0623 12.4102 10.1473 12.5527 9.14229 12.2002C8.53479 11.9827 8.36979 11.4202 8.78979 10.9327C9.16479 10.4977 9.53979 10.0702 9.91479 9.63524C10.1923 9.32024 10.4623 9.00524 10.7398 8.68274C10.2673 8.53274 9.32979 8.64524 8.79729 8.93024C8.22729 9.23774 7.64229 9.26774 7.02729 9.08774C6.86229 9.04274 6.70479 8.98274 6.53229 8.92274C5.78979 10.5727 5.05479 12.2152 4.31979 13.8577C4.70979 14.0452 5.07729 14.2252 5.45229 14.4052C5.75979 14.0302 6.04479 13.6702 6.34479 13.3177C6.58479 13.0327 6.91479 12.9352 7.26729 13.0252C7.63479 13.1227 7.86729 13.3627 7.94979 13.7377C7.95729 13.7827 7.97979 13.8277 7.98729 13.8727C8.60979 13.8577 8.95479 14.1652 9.06729 14.7502C9.74979 14.8027 9.95229 14.9677 10.1623 15.6577C10.5973 15.6277 10.9498 15.7777 11.1373 16.1902C11.3698 16.7002 11.1223 17.0977 10.7623 17.4727H10.7773ZM17.1748 8.29274C16.9123 8.36774 16.6723 8.43524 16.4323 8.51024C15.8098 8.70524 15.2173 8.63774 14.6473 8.33024C14.3923 8.19524 14.1373 8.05274 13.8823 7.91774C13.0948 7.51274 12.2548 7.65524 11.6698 8.31524C10.8223 9.27524 9.98229 10.2502 9.13479 11.2177C8.91729 11.4727 8.96979 11.6602 9.29229 11.7727C10.0648 12.0502 10.7923 11.9677 11.4523 11.4727C11.8123 11.2027 12.1723 10.9327 12.5248 10.6552C13.0498 10.2577 13.4998 10.3252 13.8673 10.8652C14.8048 12.2302 15.7348 13.5952 16.6723 14.9527C16.7173 15.0202 16.7698 15.0877 16.8223 15.1627C17.7598 14.6752 18.6748 14.1952 19.6048 13.7077C18.7873 11.8852 17.9848 10.0852 17.1673 8.27024L17.1748 8.29274ZM19.3423 6.50024C19.2973 6.51524 19.2298 6.53774 19.1623 6.56774C18.6673 6.78524 18.1723 7.01024 17.6773 7.23524C17.3998 7.36274 17.3323 7.52774 17.4598 7.81274C18.3298 9.76274 19.2073 11.7127 20.0773 13.6552C20.2048 13.9402 20.3698 14.0077 20.6548 13.8802C21.1348 13.6702 21.6223 13.4527 22.1023 13.2352C22.4323 13.0852 22.4923 12.9277 22.3423 12.5977C21.9898 11.8027 21.6298 11.0152 21.2773 10.2202C20.7673 9.08774 20.2573 7.94774 19.7548 6.81524C19.6798 6.64274 19.5748 6.51524 19.3498 6.50774L19.3423 6.50024ZM3.55479 13.9477C3.55479 13.9477 3.58479 13.9702 3.59979 13.9852C3.69729 13.8877 3.83979 13.8052 3.89979 13.6852C4.79229 11.7202 5.66979 9.75524 6.55479 7.78274C6.66729 7.52774 6.59979 7.35524 6.34479 7.23524C5.84229 7.01024 5.33979 6.78524 4.83729 6.56024C4.55229 6.43274 4.39479 6.50024 4.25979 6.78524C3.38229 8.73524 2.51229 10.6777 1.64229 12.6277C1.51479 12.9052 1.58229 13.0777 1.86729 13.2052C2.36229 13.4302 2.85729 13.6552 3.35229 13.8727C3.41979 13.9027 3.48729 13.9177 3.55479 13.9402V13.9477ZM8.60979 14.8777C8.59479 14.6002 8.49729 14.4502 8.30229 14.3827C8.08479 14.3002 7.90479 14.3602 7.75479 14.5402C7.31229 15.0727 6.86979 15.6127 6.43479 16.1527C6.23229 16.4077 6.25479 16.6852 6.47979 16.8577C6.68979 17.0227 6.96729 16.9852 7.16979 16.7452C7.60479 16.2127 8.03979 15.6802 8.46729 15.1477C8.54229 15.0577 8.57979 14.9377 8.60229 14.8777H8.60979ZM7.52229 13.9927C7.51479 13.7227 7.40979 13.5727 7.21479 13.4977C7.01979 13.4152 6.81729 13.4677 6.66729 13.6477C6.29229 14.0977 5.91729 14.5552 5.55729 15.0127C5.36979 15.2452 5.39979 15.5152 5.60229 15.6952C5.81979 15.8752 6.09729 15.8452 6.29229 15.6052C6.65979 15.1552 7.02729 14.7052 7.38729 14.2552C7.45479 14.1652 7.48479 14.0527 7.51479 14.0002L7.52229 13.9927ZM8.06229 17.6152C8.21229 17.5402 8.33979 17.5102 8.40729 17.4352C8.81979 16.9477 9.22479 16.4602 9.61479 15.9502C9.77229 15.7477 9.71229 15.4777 9.51729 15.3277C9.32979 15.1777 9.04479 15.1852 8.88729 15.3727C8.48229 15.8527 8.08479 16.3477 7.69479 16.8352C7.57479 16.9852 7.56729 17.1727 7.68729 17.3227C7.78479 17.4427 7.93479 17.5177 8.06229 17.6152ZM8.93979 17.6152C8.93979 17.8927 9.04479 18.0427 9.23979 18.1177C9.45729 18.2077 9.63729 18.1402 9.78729 17.9677C10.0798 17.6152 10.3723 17.2627 10.6498 16.9027C10.8448 16.6627 10.8148 16.3777 10.6048 16.2052C10.3948 16.0327 10.1098 16.0702 9.91479 16.3102C9.62979 16.6477 9.35229 16.9927 9.08229 17.3377C9.00729 17.4277 8.96979 17.5477 8.94729 17.6002L8.93979 17.6152Z" fill="#F26334"/>
<path d="M20.8197 13.115C20.7447 13.04 20.6472 12.9875 20.6322 12.92C20.6172 12.845 20.6547 12.71 20.7147 12.68C20.9172 12.5675 21.1272 12.4775 21.3522 12.4025C21.4122 12.38 21.5397 12.455 21.5772 12.515C21.6072 12.575 21.5922 12.7325 21.5472 12.7625C21.3222 12.89 21.0822 12.995 20.8272 13.115H20.8197Z" fill="#F26334"/>
<path d="M3.2328 13.1151C2.9703 12.9876 2.7303 12.8901 2.5128 12.7626C2.4678 12.7326 2.4453 12.5676 2.4828 12.5151C2.5278 12.4476 2.6553 12.3876 2.7303 12.4101C2.9328 12.4701 3.1353 12.5601 3.3228 12.6651C3.3828 12.7026 3.4278 12.8376 3.4203 12.9201C3.4128 12.9876 3.3078 13.0401 3.2328 13.1151Z" fill="#F26334"/>
</svg>
