<svg width="24" height="25" viewBox="0 0 24 25" fill="none" xmlns="http://www.w3.org/2000/svg">
<path d="M17.3549 14.6677C17.6174 14.0302 17.8574 13.8652 18.5249 13.8652C19.2374 13.8652 19.9424 13.8652 20.6549 13.8652C21.3749 13.8652 21.7499 14.2402 21.7499 14.9677C21.7499 17.4577 21.7499 19.9552 21.7499 22.4452C21.7499 23.1877 21.3824 23.5552 20.6399 23.5552C19.9274 23.5552 19.2224 23.5402 18.5174 23.5552C18.0299 23.5627 17.6474 23.4202 17.4224 22.9327C16.4924 23.3077 15.5174 23.2252 14.5574 23.2252C13.1774 23.2252 11.7974 23.2252 10.4174 23.2252C9.38243 23.2252 8.34743 23.2252 7.31243 23.2252C6.43493 23.2177 5.79743 22.5577 5.86493 21.7252C5.88743 21.4627 6.00743 21.2077 6.08993 20.9377C5.18993 20.4802 5.00243 19.4827 5.57243 18.7027C4.82243 18.2377 4.58243 17.3677 5.12993 16.5427C5.06993 16.5052 5.00243 16.4602 4.94243 16.4227C4.45493 16.0852 4.22993 15.4852 4.37993 14.9152C4.52993 14.3302 5.00243 13.9102 5.59493 13.8727C6.13493 13.8427 6.67493 13.8577 7.21493 13.8502C8.00993 13.8502 8.79743 13.8502 9.59243 13.8502C9.65243 13.8502 9.70493 13.8427 9.74243 13.8427C9.51743 13.4827 9.25493 13.1452 9.07493 12.7702C8.69993 11.9827 8.63993 11.1277 8.71493 10.2652C8.73743 10.0177 8.75993 9.76267 8.81993 9.52267C8.97743 8.87017 9.55493 8.44268 10.2149 8.47268C10.9274 8.50268 11.5574 8.99018 11.6099 9.65768C11.7074 10.9177 12.4049 11.7427 13.4249 12.3652C13.7399 12.5527 14.0549 12.7402 14.3699 12.9127C15.1274 13.3327 15.7874 13.8577 16.3574 14.5027C16.4549 14.6152 16.5599 14.6677 16.7099 14.6602C16.9199 14.6452 17.1374 14.6602 17.3549 14.6602V14.6677ZM10.2824 16.2052C10.6874 16.4452 10.9424 16.7752 11.0174 17.2327C11.0924 17.6977 10.9424 18.1027 10.6424 18.4477C11.4224 19.0852 11.4449 20.0152 10.8224 20.6902C11.4149 21.2227 11.5349 21.8602 11.1674 22.6027H11.4449C12.8399 22.6027 14.2349 22.6027 15.6299 22.6027C16.1549 22.6027 16.6574 22.5277 17.1599 22.3702C17.3249 22.3177 17.3774 22.2502 17.3774 22.0702C17.3774 19.8877 17.3774 17.7127 17.3774 15.5302V15.2902C17.0624 15.2902 16.7849 15.2827 16.4999 15.2902C16.2974 15.2977 16.1549 15.2302 16.0274 15.0727C15.4724 14.4052 14.8049 13.8652 14.0399 13.4452C13.6424 13.2202 13.2449 12.9952 12.8624 12.7402C12.0524 12.2077 11.3999 11.5402 11.1374 10.5727C11.0624 10.2952 11.0399 10.0027 10.9799 9.72518C10.8974 9.35018 10.5524 9.09518 10.1549 9.09518C9.77993 9.09518 9.45743 9.35767 9.41993 9.74767C9.36743 10.2502 9.30743 10.7677 9.34493 11.2702C9.41993 12.4252 9.89243 13.3552 10.9949 13.8652C11.0174 13.8727 11.0474 13.8802 11.0549 13.8952C11.1074 14.0077 11.2124 14.1427 11.1899 14.2402C11.1674 14.3377 11.0174 14.4352 10.9049 14.4652C10.7549 14.5027 10.5899 14.4727 10.4249 14.4727C10.6949 15.4102 10.6799 15.5827 10.2899 16.1902L10.2824 16.2052ZM18.0074 18.7027C18.0074 19.9702 18.0074 21.2302 18.0074 22.4977C18.0074 22.8502 18.1049 22.9327 18.4574 22.9327C19.1849 22.9327 19.9049 22.9327 20.6324 22.9327C21.0149 22.9327 21.1124 22.8352 21.1124 22.4377C21.1124 20.9452 21.1124 19.4527 21.1124 17.9602C21.1124 16.9477 21.1124 15.9352 21.1124 14.9227C21.1124 14.6377 21.0074 14.5027 20.7449 14.5027C19.9424 14.5027 19.1474 14.5027 18.3449 14.5027C18.1124 14.5027 17.9999 14.6302 17.9999 14.8627C17.9999 16.1452 17.9999 17.4202 17.9999 18.7027H18.0074ZM7.46993 16.0477C8.03993 16.0477 8.60993 16.0477 9.18743 16.0477C9.28493 16.0477 9.38993 16.0402 9.47993 16.0102C9.82493 15.8902 10.0274 15.5527 9.98243 15.1852C9.93743 14.8102 9.63743 14.5177 9.23993 14.5102C8.06243 14.4952 6.87743 14.5102 5.69993 14.5102C5.57993 14.5102 5.44493 14.5627 5.33243 14.6227C5.02493 14.8027 4.89743 15.1477 4.98743 15.4927C5.07743 15.8152 5.36243 16.0477 5.71493 16.0477C6.29993 16.0477 6.88493 16.0477 7.47743 16.0477H7.46993ZM7.92743 18.2377C8.46743 18.2377 9.00743 18.2377 9.54743 18.2377C10.0499 18.2377 10.4024 17.9152 10.4024 17.4577C10.4024 17.0077 10.0499 16.6852 9.56243 16.6852C8.47493 16.6852 7.38743 16.6852 6.29243 16.6852C5.80493 16.6852 5.45243 17.0077 5.44493 17.4502C5.44493 17.9002 5.79743 18.2302 6.29993 18.2302C6.83993 18.2302 7.37993 18.2302 7.91993 18.2302L7.92743 18.2377ZM8.27243 18.8752C7.74743 18.8752 7.22243 18.8752 6.69743 18.8752C6.23243 18.8752 5.89493 19.1827 5.88743 19.6177C5.87243 20.0677 6.20243 20.4202 6.66743 20.4202C7.72493 20.4277 8.78243 20.4202 9.83993 20.4202C10.3049 20.4202 10.6274 20.0827 10.6199 19.6402C10.6199 19.1902 10.2749 18.8752 9.80243 18.8752C9.29243 18.8752 8.78243 18.8752 8.27243 18.8752ZM8.65493 22.6102V22.5952C9.11243 22.5952 9.56993 22.5952 10.0274 22.5952C10.4474 22.5877 10.7624 22.2427 10.7474 21.8152C10.7399 21.4027 10.4174 21.0727 10.0049 21.0727C9.08243 21.0727 8.15993 21.0727 7.23743 21.0727C7.09493 21.0727 6.93743 21.1327 6.81743 21.2077C6.53993 21.3802 6.42743 21.7402 6.52493 22.0552C6.62993 22.3927 6.89993 22.6027 7.28243 22.6102C7.73993 22.6177 8.19743 22.6102 8.65493 22.6102Z" fill="#F26334"/>
<path d="M17.9703 2.55518C18.1053 2.69768 18.2253 2.78018 18.2853 2.89268C18.4878 3.26768 18.6678 3.65018 18.8553 4.04018C18.9153 4.16768 18.9903 4.23518 19.1403 4.25018C19.5753 4.29518 20.0178 4.36268 20.4528 4.44518C20.5653 4.46768 20.7153 4.57268 20.7528 4.67018C20.7828 4.76768 20.7228 4.94018 20.6403 5.03018C20.3403 5.35268 20.0178 5.66018 19.6953 5.96018C19.5828 6.06518 19.5603 6.16268 19.5903 6.30518C19.6653 6.72518 19.7328 7.14518 19.8078 7.56518C19.8378 7.72268 19.8378 7.87268 19.6878 7.97768C19.5378 8.08268 19.3953 8.01518 19.2603 7.94768C18.9078 7.76018 18.5403 7.58018 18.1953 7.37768C18.0303 7.28018 17.9028 7.28768 17.7378 7.37768C17.3778 7.58018 17.0103 7.76018 16.6503 7.95518C16.5078 8.03018 16.3428 8.09018 16.2303 7.95518C16.1553 7.85768 16.1103 7.69268 16.1253 7.56518C16.1778 7.13018 16.2753 6.69518 16.3353 6.26018C16.3503 6.17768 16.3053 6.05018 16.2453 5.99018C15.9378 5.67518 15.6078 5.37518 15.3078 5.05268C15.2253 4.96268 15.1353 4.77518 15.1728 4.68518C15.2178 4.57268 15.3828 4.47518 15.5103 4.44518C15.9378 4.36268 16.3653 4.31768 16.7928 4.24268C16.8828 4.22768 17.0028 4.14518 17.0403 4.06268C17.2503 3.67268 17.4303 3.26768 17.6403 2.88518C17.7003 2.77268 17.8278 2.69768 17.9628 2.56268L17.9703 2.55518ZM19.0803 7.12268C19.0203 6.76268 18.9828 6.45518 18.9153 6.15518C18.8703 5.95268 18.9303 5.81018 19.0728 5.66768C19.2978 5.45018 19.5153 5.21768 19.7403 4.97768C19.4253 4.93268 19.1328 4.87268 18.8253 4.84268C18.6003 4.82018 18.4653 4.72268 18.3753 4.52018C18.2478 4.24268 18.1053 3.96518 17.9478 3.65768C17.7903 3.98018 17.6403 4.26518 17.5053 4.55018C17.4228 4.73018 17.2953 4.81268 17.1078 4.83518C16.7928 4.87268 16.4853 4.92518 16.1628 4.97018C16.3878 5.20268 16.5828 5.43518 16.8078 5.63768C16.9803 5.79518 17.0253 5.96768 16.9803 6.18518C16.9203 6.47768 16.8753 6.77768 16.8153 7.11518C17.1228 6.95018 17.4003 6.82268 17.6553 6.66518C17.8578 6.54518 18.0303 6.55268 18.2328 6.66518C18.4878 6.81518 18.7503 6.94268 19.0653 7.10768L19.0803 7.12268Z" fill="#F26334"/>
<path d="M9.64532 6.4175C9.71282 6.035 9.77282 5.615 9.86282 5.195C9.90782 4.985 9.88532 4.8275 9.70532 4.6775C9.39782 4.415 9.11282 4.13 8.84282 3.83C8.76032 3.74 8.68532 3.56 8.72282 3.455C8.76032 3.3575 8.92532 3.26 9.05282 3.2375C9.47282 3.155 9.89282 3.1025 10.3203 3.05C10.4703 3.0275 10.5603 2.975 10.6278 2.825C10.8003 2.4425 10.9953 2.075 11.1753 1.7C11.2428 1.5575 11.3328 1.4375 11.5128 1.4375C11.6928 1.4375 11.7753 1.5575 11.8503 1.7C12.0303 2.075 12.2328 2.45 12.3978 2.825C12.4728 2.9825 12.5778 3.0275 12.7278 3.0425C13.1478 3.1025 13.5753 3.1475 13.9953 3.23C14.1078 3.2525 14.2653 3.35 14.2953 3.4475C14.3253 3.545 14.2653 3.7175 14.1828 3.8075C13.8903 4.1225 13.5753 4.4225 13.2528 4.7225C13.1253 4.835 13.1028 4.9475 13.1328 5.105C13.2078 5.495 13.2753 5.885 13.3428 6.275C13.3728 6.44 13.4103 6.6125 13.2528 6.74C13.0803 6.875 12.9228 6.785 12.7653 6.7025C12.4053 6.515 12.0453 6.335 11.7003 6.1325C11.5653 6.0575 11.4603 6.065 11.3253 6.1325C10.9428 6.3425 10.5453 6.5525 10.1553 6.7475C9.87782 6.89 9.65282 6.7475 9.66032 6.41L9.64532 6.4175ZM11.4978 2.45C11.3553 2.735 11.2128 2.9825 11.1078 3.245C11.0028 3.515 10.8228 3.6275 10.5378 3.65C10.2603 3.6725 9.99032 3.725 9.71282 3.77C9.94532 4.0175 10.1553 4.25 10.3803 4.46C10.5303 4.6025 10.5753 4.7525 10.5303 4.955C10.4628 5.2625 10.4253 5.57 10.3653 5.915C10.6728 5.7575 10.9428 5.63 11.1903 5.48C11.4003 5.3525 11.5803 5.36 11.7903 5.48C12.0453 5.63 12.3153 5.7575 12.6153 5.915C12.5553 5.555 12.5103 5.2475 12.4503 4.9475C12.4053 4.745 12.4653 4.6025 12.6078 4.46C12.8328 4.2425 13.0428 4.0175 13.2753 3.77C12.9678 3.725 12.6678 3.68 12.3753 3.6425C12.1653 3.62 12.0078 3.5375 11.9178 3.3275C11.7978 3.0425 11.6478 2.765 11.4903 2.45H11.4978Z" fill="#F26334"/>
<path d="M3.18762 7.61769C3.25512 7.21269 3.33012 6.76269 3.42012 6.3127C3.45012 6.15519 3.42012 6.0427 3.30012 5.93019C2.98512 5.6377 2.67762 5.3452 2.39262 5.0302C2.31012 4.9402 2.23512 4.7602 2.27262 4.6552C2.31012 4.5502 2.47512 4.4527 2.59512 4.4302C3.03012 4.3477 3.46512 4.3027 3.90012 4.2277C3.98262 4.2127 4.08762 4.1377 4.13262 4.0627C4.33512 3.6802 4.52262 3.2902 4.71012 2.9002C4.77762 2.7577 4.86762 2.6377 5.04762 2.6377C5.22762 2.6377 5.31762 2.7502 5.38512 2.9002C5.56512 3.2752 5.76012 3.6502 5.94012 4.0252C6.00762 4.1602 6.07512 4.2277 6.24012 4.2502C6.66012 4.2952 7.08012 4.3702 7.50762 4.4302C7.66512 4.4527 7.83762 4.4977 7.85262 4.6702C7.86012 4.7902 7.80012 4.9552 7.71012 5.0452C7.41012 5.3677 7.08012 5.6602 6.77262 5.9752C6.71262 6.0352 6.67512 6.16269 6.69012 6.24519C6.75012 6.6727 6.82512 7.10019 6.90012 7.52769C6.93012 7.68519 6.93762 7.8352 6.79512 7.9402C6.65262 8.05269 6.51012 8.00769 6.36762 7.92519C6.01512 7.73769 5.64762 7.5577 5.30262 7.3552C5.12262 7.2502 4.98012 7.2577 4.80762 7.3552C4.44762 7.5652 4.07262 7.7527 3.69762 7.9402C3.42012 8.07519 3.18762 7.9402 3.20262 7.59519L3.18762 7.61769ZM3.91512 7.12269C4.23012 6.9577 4.50762 6.8227 4.77762 6.6652C4.96512 6.5527 5.13012 6.5677 5.31012 6.6652C5.58012 6.8152 5.85762 6.9577 6.16512 7.11519C6.10512 6.76269 6.05262 6.45519 5.99262 6.15519C5.95512 5.9602 5.99262 5.8027 6.15012 5.6602C6.38262 5.4427 6.59262 5.2027 6.82512 4.9702C6.50262 4.9252 6.18762 4.8727 5.87262 4.8352C5.68512 4.8127 5.56512 4.7302 5.48262 4.5652C5.34762 4.2727 5.19762 3.9877 5.03262 3.6577C4.87512 3.9727 4.73262 4.2502 4.60512 4.5277C4.51512 4.7227 4.38762 4.8202 4.17012 4.8427C3.86262 4.8727 3.56262 4.9327 3.25512 4.97769C3.48762 5.22519 3.70512 5.4652 3.93762 5.6902C4.05762 5.8177 4.11012 5.94519 4.07262 6.11769C4.00512 6.43269 3.96012 6.75519 3.90012 7.11519L3.91512 7.12269Z" fill="#F26334"/>
</svg>
