<svg width="24" height="25" viewBox="0 0 24 25" fill="none" xmlns="http://www.w3.org/2000/svg">
<path d="M4.72512 13.3026C5.28012 13.1601 5.81262 13.0026 6.35262 12.8826C6.97512 12.7476 7.61262 12.6801 8.22012 12.9051C8.52762 13.0176 8.81262 13.2201 9.09012 13.4001C9.42762 13.6176 9.74262 13.8801 10.0876 14.0826C11.1451 14.7051 12.2101 15.3126 13.2676 15.9276C14.1451 16.4301 14.3926 16.9701 14.2051 17.9901C14.5726 17.9151 14.9251 17.8401 15.2851 17.7651C17.1451 17.3751 18.9976 16.9701 20.8576 16.5951C21.7726 16.4076 22.6801 17.0151 22.8751 17.8851C23.0851 18.8076 22.5751 19.7001 21.6451 19.9551C19.4101 20.5701 17.1676 21.1626 14.9326 21.7626C14.0326 22.0026 13.1251 22.2201 12.2401 22.4901C11.5576 22.7001 10.9126 22.6476 10.2901 22.3551C9.54762 22.0026 8.82762 21.6051 8.10762 21.2151C7.37262 20.8176 6.65262 20.3901 5.84262 20.1501C5.48262 20.0451 5.11512 19.9701 4.73262 20.0301C4.71762 20.0976 4.70262 20.1651 4.68762 20.2251C4.56762 20.7876 4.12512 21.1626 3.54762 21.1776C3.10512 21.1851 2.66262 21.1851 2.22762 21.1776C1.56012 21.1626 1.06512 20.6601 1.05762 19.9926C1.05762 17.8401 1.05762 15.6876 1.05762 13.5351C1.05762 12.8826 1.50012 12.3951 2.15262 12.3501C2.64012 12.3201 3.13512 12.3201 3.63012 12.3501C4.17762 12.3801 4.49262 12.6801 4.71762 13.2951L4.72512 13.3026ZM4.74012 19.3176C5.34762 19.2726 5.93262 19.3851 6.46512 19.6251C7.17012 19.9401 7.84512 20.3001 8.53512 20.6526C9.24012 21.0126 9.93012 21.3951 10.6426 21.7401C11.0926 21.9576 11.5651 21.9951 12.0526 21.8151C12.2701 21.7326 12.5026 21.6876 12.7276 21.6276C15.6076 20.8551 18.4951 20.0826 21.3751 19.3101C21.9901 19.1451 22.3276 18.6351 22.2001 18.0801C22.0651 17.5026 21.5401 17.1801 20.9176 17.3076C18.9301 17.7201 16.9426 18.1401 14.9551 18.5676C14.3176 18.7026 13.6876 18.8676 13.0501 19.0176C12.6451 19.1151 12.2626 19.0701 11.9026 18.8601C10.8451 18.2526 9.78762 17.6451 8.73762 17.0376C8.52762 16.9101 8.46762 16.7226 8.56512 16.5351C8.67012 16.3551 8.86512 16.3101 9.07512 16.4226C9.35262 16.5726 9.62262 16.7376 9.89262 16.8951C10.6651 17.3376 11.4301 17.7876 12.2026 18.2226C12.7801 18.5451 13.4401 18.2376 13.5676 17.6001C13.6426 17.2251 13.4551 16.8576 13.0726 16.6326C11.9101 15.9576 10.7476 15.2976 9.58512 14.6151C9.28512 14.4351 8.98512 14.2401 8.72262 14.0076C8.21262 13.5651 7.62762 13.3926 6.99012 13.5126C6.29262 13.6476 5.61012 13.8426 4.92012 14.0076C4.76262 14.0451 4.71762 14.1201 4.71762 14.2851C4.71762 15.8901 4.71762 17.5026 4.71762 19.1076C4.71762 19.1751 4.71762 19.2351 4.73262 19.3101L4.74012 19.3176ZM1.77762 16.7676C1.77762 17.8176 1.77762 18.8676 1.77762 19.9176C1.77762 20.3076 1.95012 20.4801 2.34762 20.4801C2.71512 20.4801 3.08262 20.4801 3.45012 20.4801C3.85512 20.4801 4.02762 20.3076 4.02762 19.9026C4.02762 17.8101 4.02762 15.7176 4.02762 13.6251C4.02762 13.2201 3.85512 13.0551 3.45012 13.0551C3.09012 13.0551 2.73012 13.0551 2.37012 13.0551C1.95012 13.0551 1.78512 13.2201 1.78512 13.6476C1.78512 14.6901 1.78512 15.7326 1.78512 16.7751L1.77762 16.7676Z" fill="#F26334"/>
<path d="M13.5975 4.17484C14.04 3.98734 14.445 3.82984 14.865 3.64984C14.865 3.47734 14.865 3.27484 14.865 3.07984C14.8725 2.74984 15.075 2.50984 15.405 2.44984C16.035 2.34484 16.665 2.34484 17.2875 2.44984C17.6025 2.50234 17.805 2.74234 17.82 3.06484C17.8275 3.26734 17.7675 3.52234 17.865 3.66484C17.955 3.79984 18.2175 3.80734 18.405 3.88234C18.615 3.97234 18.8175 4.06984 19.0875 4.19734C19.1775 4.08484 19.2825 3.94234 19.41 3.82234C19.7175 3.51484 20.0475 3.47734 20.3625 3.76234C20.7825 4.13734 21.18 4.54234 21.555 4.95484C21.84 5.26984 21.795 5.59234 21.5025 5.89234C21.3825 6.01984 21.2475 6.13234 21.1425 6.22984C21.3075 6.64234 21.45 7.01734 21.6 7.38484C21.615 7.42984 21.69 7.47484 21.7425 7.47484C21.8925 7.48984 22.05 7.47484 22.2075 7.47484C22.5675 7.48984 22.8375 7.68484 22.8525 8.03734C22.8825 8.65234 22.8825 9.26734 22.8525 9.88234C22.83 10.2348 22.5675 10.4598 22.2225 10.4223C21.765 10.3698 21.5175 10.5198 21.4425 10.9773C21.42 11.1198 21.345 11.2623 21.27 11.3748C21.135 11.5773 21.15 11.7273 21.345 11.8698C21.435 11.9373 21.5025 12.0198 21.5775 12.1023C21.78 12.3423 21.81 12.6348 21.6225 12.8898C21.255 13.4073 20.805 13.8498 20.2875 14.2248C20.0325 14.4123 19.7175 14.3823 19.4775 14.1723C19.4775 14.1723 19.4625 14.1648 19.4625 14.1573C19.2 13.7298 18.87 13.7448 18.4875 14.0073C18.39 14.0748 18.27 14.0973 18.1575 14.1348C18.045 14.1723 17.9325 14.2098 17.8125 14.2473C17.8125 14.4423 17.8125 14.6373 17.8125 14.8248C17.805 15.1848 17.5875 15.4548 17.22 15.4698C16.6275 15.4923 16.035 15.4923 15.4425 15.4698C15.075 15.4548 14.865 15.1848 14.8575 14.8248C14.8575 14.6373 14.9175 14.3973 14.82 14.2698C14.73 14.1423 14.4825 14.1273 14.3025 14.0523C14.1225 13.9773 13.9425 13.8948 13.7625 13.7973C13.6575 13.7448 13.59 13.7523 13.515 13.8423C13.41 13.9548 13.305 14.0673 13.185 14.1648C12.945 14.3748 12.6375 14.4048 12.375 14.2173C11.8575 13.8423 11.415 13.3998 11.04 12.8823C10.8525 12.6198 10.8525 12.2823 11.1075 12.0798C11.4975 11.7723 11.5425 11.4723 11.265 11.0748C11.19 10.9623 11.1375 10.8198 11.115 10.6848C11.0775 10.4373 10.9425 10.3773 10.7175 10.4073C10.62 10.4223 10.53 10.4073 10.4325 10.4073C10.08 10.3923 9.80996 10.1823 9.79496 9.83734C9.76496 9.23734 9.76496 8.63734 9.79496 8.03734C9.80996 7.67734 10.0875 7.42984 10.455 7.46734C10.9125 7.51984 11.145 7.36234 11.22 6.91234C11.2425 6.76984 11.3175 6.62734 11.4 6.51484C11.5425 6.31234 11.52 6.16234 11.325 6.01984C11.2425 5.95984 11.175 5.87734 11.1075 5.80234C10.89 5.55484 10.86 5.26234 11.0475 4.99234C11.415 4.47484 11.865 4.03234 12.3825 3.65734C12.645 3.46234 12.945 3.48484 13.1925 3.70984C13.335 3.84484 13.4625 3.99484 13.59 4.12984L13.5975 4.17484ZM10.4925 8.19484V9.71734C10.545 9.73234 10.56 9.73984 10.5675 9.73984C10.785 9.73984 11.01 9.73984 11.2275 9.73984C11.5125 9.73984 11.5875 9.82984 11.685 10.0923C11.8575 10.5573 12.0525 11.0148 12.255 11.4648C12.375 11.7198 12.375 11.8248 12.1725 12.0348C12 12.2073 11.8275 12.3648 11.625 12.5598C12.015 12.9498 12.3675 13.3023 12.72 13.6473C12.78 13.6098 12.795 13.6098 12.8025 13.5948C12.945 13.4523 13.095 13.3023 13.2375 13.1598C13.4775 12.9198 13.575 12.9273 13.875 13.0698C14.295 13.2723 14.73 13.4523 15.1725 13.6023C15.4875 13.7148 15.5625 13.7823 15.57 14.1123C15.57 14.3373 15.57 14.5623 15.57 14.8098H17.115C17.115 14.5323 17.115 14.2923 17.115 14.0523C17.115 13.8198 17.22 13.7073 17.4375 13.6248C17.9175 13.4448 18.39 13.2498 18.855 13.0398C19.08 12.9348 19.2075 12.9348 19.3875 13.1148C19.56 13.2873 19.725 13.4748 19.92 13.6848C20.31 13.2948 20.67 12.9348 21.0525 12.5523C20.85 12.3648 20.685 12.2148 20.5275 12.0498C20.295 11.8173 20.3025 11.7273 20.4375 11.4348C20.64 11.0073 20.8275 10.5648 20.985 10.1223C21.0975 9.81484 21.1575 9.73984 21.48 9.73984C21.7125 9.73984 21.945 9.73984 22.1925 9.73984V8.18734C21.915 8.18734 21.6675 8.18734 21.42 8.18734C21.165 8.18734 21.0825 8.09734 20.9925 7.85734C20.8125 7.38484 20.625 6.91984 20.415 6.46234C20.3025 6.21484 20.295 6.10234 20.49 5.91484C20.6625 5.74234 20.85 5.57734 21.06 5.38234C20.6625 4.98484 20.3025 4.62484 19.9275 4.25734C19.725 4.46734 19.56 4.64734 19.3875 4.81984C19.2 5.00734 19.08 4.99984 18.8325 4.88734C18.375 4.67734 17.91 4.48984 17.4375 4.30984C17.1975 4.21984 17.1075 4.13734 17.1075 3.88984C17.1075 3.64234 17.1075 3.39484 17.1075 3.11734H15.5625C15.5625 3.40234 15.5625 3.64984 15.5625 3.89734C15.5625 4.11484 15.45 4.23484 15.24 4.30984C14.76 4.48984 14.2875 4.68484 13.8225 4.89484C13.5825 4.99984 13.4625 5.00734 13.275 4.81984C13.1025 4.64734 12.945 4.47484 12.7425 4.26484C12.36 4.64734 12 5.00734 11.6325 5.37484C11.85 5.59234 12.0225 5.76484 12.2025 5.93734C12.3525 6.08734 12.36 6.23734 12.27 6.43234C12.0525 6.91234 11.8575 7.39984 11.6625 7.88734C11.5875 8.08234 11.475 8.19484 11.2575 8.18734C11.01 8.18734 10.7625 8.18734 10.4775 8.18734L10.4925 8.19484Z" fill="#F26334"/>
<path d="M2.30957 14.3376C2.30957 14.0226 2.57957 13.7451 2.89457 13.7451C3.21707 13.7451 3.47957 14.0076 3.48707 14.3301C3.48707 14.6451 3.21707 14.9226 2.90207 14.9226C2.58707 14.9226 2.30957 14.6526 2.30957 14.3376Z" fill="#F26334"/>
<path d="M19.8671 8.9752C19.8671 10.9177 18.2921 12.5002 16.3421 12.5077C14.4146 12.5077 12.8096 10.9177 12.8096 8.9977C12.8096 7.0477 14.3846 5.4502 16.3196 5.4502C18.2921 5.4502 19.8596 7.0102 19.8671 8.9752ZM19.1621 8.9677C19.1621 7.3927 17.9021 6.1477 16.3046 6.1477C14.7821 6.1477 13.5071 7.4302 13.5071 8.9677C13.5071 10.5277 14.7821 11.8027 16.3346 11.8027C17.9021 11.8027 19.1621 10.5352 19.1546 8.9752L19.1621 8.9677Z" fill="#F26334"/>
<path d="M15.9229 9.39482C16.3579 8.89232 16.7704 8.41982 17.1829 7.95482C17.2204 7.91732 17.2504 7.87233 17.2879 7.84233C17.4304 7.70733 17.6254 7.69233 17.7679 7.81233C17.9179 7.93233 17.9479 8.14983 17.8129 8.30733C17.2879 8.92233 16.7554 9.52983 16.2154 10.1298C16.0654 10.2948 15.8704 10.2948 15.7054 10.1373C15.4204 9.86733 15.1504 9.58983 14.8804 9.31233C14.7379 9.16233 14.7454 8.95233 14.8804 8.81733C15.0229 8.67483 15.2329 8.67483 15.3904 8.83232C15.5704 9.01232 15.7429 9.19983 15.9304 9.40233L15.9229 9.39482Z" fill="#F26334"/>
</svg>
