<svg width="114" height="86" viewBox="0 0 114 86" fill="none" xmlns="http://www.w3.org/2000/svg">
<path d="M76.2482 76.6356C61.6878 82.1436 21.1985 83.5712 8.95998 69.2439C-3.91024 54.1773 -2.21543 26.4466 19.2233 12.1598C47.4721 -6.66544 84.7447 7.08513 97.4806 22.8729C113.147 42.294 111.574 59.0901 98.381 68.5586C98.381 68.5586 97.1796 77.6337 106.16 82.2085C94.5843 85.1673 84.351 83.3067 76.2482 76.6356Z" fill="#FEFEFE"/>
<path d="M95.9496 85.5C88.4398 85.5 81.6353 83.2532 75.8792 78.8236C68.3091 81.3128 56.1777 81.6582 43.7915 79.6983C29.6174 77.4551 18.1937 72.6801 12.4496 66.5965C4.47249 58.1483 0.4362 46.7222 1.65289 36.0318C2.82072 25.7701 8.52351 16.957 18.1446 10.5454C31.278 1.79333 48.6985 -1.38835 67.1963 1.5865C83.2943 4.17542 97.5614 11.073 104.43 19.5878C111.674 28.5673 114.829 38.2695 113.556 47.6462C112.408 56.1003 107.583 64.0459 100.266 69.5816C100.242 71.641 100.783 77.291 107.043 80.4802C107.763 80.847 108.181 81.6208 108.092 82.4231C108.002 83.2257 107.425 83.8889 106.642 84.0891C102.953 85.0317 99.3775 85.5 95.9496 85.5ZM76.2479 74.6949C76.6924 74.6949 77.1308 74.8471 77.4846 75.1382C84.0978 80.583 92.1132 82.6186 101.356 81.2138C96.7973 76.9528 96.0678 71.2221 96.4541 68.3044C96.5243 67.7734 96.8111 67.2952 97.2465 66.9825C104.119 62.05 108.66 54.8122 109.704 47.1247C110.83 38.8309 107.959 30.1506 101.402 22.0223C95.2063 14.3418 81.537 7.82427 66.5779 5.4186C56.4276 3.78562 36.9181 2.70076 20.302 13.774C11.6627 19.5315 6.54937 27.3795 5.51482 36.4702C4.42585 46.0396 8.07537 56.3065 15.2775 63.9341C20.4433 69.4048 31.0579 73.7536 44.3995 75.8646C56.5637 77.7898 68.7945 77.38 75.5593 74.8207C75.7828 74.7362 76.0163 74.6949 76.2479 74.6949Z" fill="#353535"/>
<path d="M38.8842 46.2192C41.695 46.2192 43.9736 43.944 43.9736 41.1373C43.9736 38.3306 41.695 36.0554 38.8842 36.0554C36.0733 36.0554 33.7947 38.3306 33.7947 41.1373C33.7947 43.944 36.0733 46.2192 38.8842 46.2192Z" fill="#353535"/>
<path d="M59.157 46.2192C61.9678 46.2192 64.2464 43.944 64.2464 41.1373C64.2464 38.3306 61.9678 36.0554 59.157 36.0554C56.3462 36.0554 54.0675 38.3306 54.0675 41.1373C54.0675 43.944 56.3462 46.2192 59.157 46.2192Z" fill="#353535"/>
<path d="M79.4295 46.2192C82.2404 46.2192 84.519 43.944 84.519 41.1373C84.519 38.3306 82.2404 36.0554 79.4295 36.0554C76.6187 36.0554 74.3401 38.3306 74.3401 41.1373C74.3401 43.944 76.6187 46.2192 79.4295 46.2192Z" fill="#353535"/>
</svg>
