<svg width="107" height="88" viewBox="0 0 107 88" fill="none" xmlns="http://www.w3.org/2000/svg">
<path d="M99.1488 23.6409C78.277 -6.15734 28.8663 -3.61077 10.124 21.0072C-3.59866 39.0319 2.39745 60.941 23.3906 72.4802C21.4437 78.0489 13.0377 85.7637 13.0377 85.7637C20.7048 86.6126 34.2737 86.1732 45.4784 79.5808C91.853 86.3305 116.967 49.0787 99.1488 23.6404V23.6409Z" fill="#FEFEFE"/>
<path d="M19.1862 87.9997C16.3465 87.9997 14.1198 87.8144 12.8254 87.6711C12.0756 87.588 11.444 87.0763 11.2088 86.3623C10.9737 85.6483 11.1789 84.8628 11.7334 84.3535C13.7287 82.5204 18.813 77.3565 20.9359 73.2899C10.5363 67.1253 3.66907 58.262 1.52385 48.1766C-0.517947 38.5763 1.99146 28.5159 8.5905 19.848C18.1921 7.23579 36.0212 -0.3576 55.1373 0.0129695C74.3477 0.392584 90.9649 8.6046 100.728 22.5432C104.699 28.2114 106.809 34.7374 106.831 41.4156C106.853 47.834 104.962 54.2957 101.363 60.1028C93.3043 73.1059 74.5155 85.5132 45.8677 81.5742C36.4316 86.9223 26.0323 88 19.1865 88L19.1862 87.9997ZM17.4002 84.1392C23.7674 84.3316 34.7853 83.6444 44.4995 77.9291C44.8783 77.7066 45.3219 77.6194 45.7568 77.6827C72.9328 81.6384 90.6078 70.1534 98.0865 58.0864C104.8 47.2538 104.606 34.7865 97.57 24.7395C88.5196 11.8183 73.0255 4.20408 55.0606 3.84913C37.1633 3.50214 20.5291 10.5145 11.658 22.1669C5.6597 30.0456 3.4581 38.7647 5.29084 47.3809C7.30376 56.8442 14.0621 65.1614 24.3208 70.8006C25.1427 71.252 25.5179 72.2286 25.209 73.1117C23.9096 76.8284 20.1385 81.256 17.4002 84.1392Z" fill="#353535"/>
<path d="M53.8294 50.2838C53.7807 50.2838 53.7317 50.2822 53.6825 50.2784C52.6221 50.1986 51.8275 49.2774 51.9075 48.2205C52.322 42.7483 55.7045 40.8806 58.4227 39.38C61.3543 37.7615 63.8862 36.3633 64.2334 30.6521C64.471 26.7477 62.084 24.6383 60.6402 23.7281C57.8194 21.95 54.0802 21.7675 51.3362 23.2736C48.4777 24.8422 46.9668 27.963 46.9668 32.2986C46.9668 33.3582 46.1048 34.2172 45.0414 34.2172C43.978 34.2172 43.1159 33.3582 43.1159 32.2986C43.1159 26.563 45.3756 22.1641 49.4784 19.9125C53.4762 17.7184 58.6653 17.9434 62.6985 20.4853C66.3778 22.8041 68.3381 26.5945 68.0774 30.8846C67.6021 38.6989 63.5471 40.9376 60.289 42.7365C57.7097 44.1604 56.0057 45.1013 55.7474 48.5094C55.6712 49.5167 54.827 50.2836 53.8294 50.2836V50.2838Z" fill="#353535"/>
<path d="M53.8274 61.9497C55.3125 61.9497 56.5165 60.75 56.5165 59.2701C56.5165 57.7903 55.3125 56.5906 53.8274 56.5906C52.3423 56.5906 51.1384 57.7903 51.1384 59.2701C51.1384 60.75 52.3423 61.9497 53.8274 61.9497Z" fill="#353535"/>
</svg>
