<svg width="207" height="17" viewBox="0 0 207 17" fill="none" xmlns="http://www.w3.org/2000/svg">
<path d="M10.3747 3.2918C10.0017 2.55784 9.42144 1.97534 8.64577 1.54429C7.86419 1.11323 6.86352 0.897705 5.64376 0.897705H0.379883V16.2234H2.26872V10.6255H5.67337C6.8872 10.6255 7.88195 10.4042 8.65762 9.97313C9.43328 9.53625 10.0076 8.94792 10.3807 8.20814C10.7537 7.46836 10.9373 6.64703 10.9373 5.74414C10.9373 4.84126 10.7478 4.02576 10.3747 3.2918ZM8.73459 7.39846C8.50367 7.88194 8.13656 8.26639 7.62734 8.55182C7.12405 8.83724 6.44904 8.97705 5.61416 8.97705H2.26872V2.54619H5.58455C6.43127 2.54619 7.1122 2.68017 7.62142 2.95977C8.13656 3.23937 8.50367 3.618 8.73459 4.10148C8.96552 4.58496 9.08394 5.13251 9.08394 5.74414C9.08394 6.35577 8.96552 6.90916 8.73459 7.39846Z" fill="#1F1F1F"/>
<path d="M13.9805 0.897705H16.2306L21.524 13.6196H21.7076L27.0011 0.897705H29.2511V16.2234H27.4866V4.57913H27.3327L22.4655 16.2234H20.7602L15.8931 4.57913H15.7391V16.2234H13.9746V0.897705H13.9805Z" fill="#1F1F1F"/>
<path d="M43.0183 3.2918C42.6453 2.55784 42.065 1.97534 41.2893 1.54429C40.5077 1.11323 39.5071 0.897705 38.2873 0.897705H33.0234V16.2234H34.9123V10.6255H38.3169C39.5308 10.6255 40.5255 10.4042 41.3012 9.97313C42.0768 9.53625 42.6512 8.94792 43.0242 8.20814C43.3913 7.46836 43.5808 6.64703 43.5808 5.74414C43.5808 4.84126 43.3913 4.02576 43.0183 3.2918ZM41.3781 7.39846C41.1472 7.88194 40.7801 8.26639 40.2709 8.55182C39.7676 8.83724 39.0926 8.97705 38.2577 8.97705H34.9123V2.54619H38.2281C39.0748 2.54619 39.7498 2.68017 40.265 2.95977C40.7742 3.23937 41.1472 3.618 41.3781 4.10148C41.6091 4.58496 41.7275 5.13251 41.7275 5.74414C41.7275 6.35577 41.6091 6.90916 41.3781 7.39846Z" fill="#1F1F1F"/>
<path d="M52.6456 0.897705H54.8956L60.1891 13.6196H60.3726L65.6661 0.897705H67.9162V16.2234H66.1517V4.57913H65.9977L61.1305 16.2234H59.4253L54.5581 4.57913H54.4041V16.2234H52.6396V0.897705H52.6456Z" fill="#1F1F1F"/>
<path d="M78.0175 0.897705H76.0694L70.3496 16.2234H72.3273L73.8904 11.8837H80.1964L81.7596 16.2234H83.7373L78.0175 0.897705ZM74.4885 10.2353L76.9813 3.32093H77.1056L79.5984 10.2353H74.4885Z" fill="#1F1F1F"/>
<path d="M94.6916 4.73057C94.6028 3.97332 94.2298 3.38499 93.5784 2.96558C92.9271 2.54618 92.1337 2.33648 91.1922 2.33648C90.4994 2.33648 89.9014 2.44715 89.3863 2.66268C88.8711 2.88403 88.4685 3.18694 88.1843 3.56556C87.9001 3.95002 87.752 4.38689 87.752 4.8762C87.752 5.28395 87.8527 5.63346 88.054 5.92471C88.2553 6.21596 88.5099 6.46061 88.8238 6.65284C89.1376 6.84507 89.4692 7.00234 89.8126 7.12467C90.156 7.24699 90.4758 7.34602 90.7659 7.42175L92.3468 7.84115C92.7554 7.946 93.2054 8.09163 93.7028 8.27803C94.2001 8.46443 94.6798 8.7149 95.1416 9.02946C95.5975 9.34401 95.9824 9.75176 96.2785 10.2469C96.5804 10.742 96.7285 11.3478 96.7285 12.0643C96.7285 12.8915 96.5094 13.6429 96.0712 14.307C95.6331 14.9768 94.9936 15.5069 94.1528 15.903C93.312 16.2991 92.2935 16.4913 91.0975 16.4913C89.9843 16.4913 89.0192 16.3166 88.202 15.9613C87.3908 15.6059 86.7514 15.1108 86.2836 14.4817C85.8218 13.8468 85.5553 13.1128 85.4961 12.274H87.4441C87.4915 12.8507 87.6928 13.3283 88.0422 13.707C88.3915 14.0856 88.8297 14.3652 89.3685 14.5458C89.9014 14.7264 90.4817 14.8196 91.0975 14.8196C91.8199 14.8196 92.4653 14.7031 93.0396 14.4701C93.614 14.2371 94.064 13.9167 94.4015 13.4973C94.733 13.0837 94.9048 12.5944 94.9048 12.0352C94.9048 11.5284 94.7626 11.1148 94.4725 10.7944C94.1824 10.4741 93.8034 10.2178 93.3297 10.0139C92.8561 9.81584 92.3468 9.64109 91.8021 9.48964L89.8836 8.94791C88.6639 8.60423 87.7047 8.11492 86.9941 7.47417C86.2836 6.83341 85.9283 6.00044 85.9283 4.9694C85.9283 4.11312 86.1652 3.36169 86.6389 2.72093C87.1126 2.08018 87.752 1.57922 88.5573 1.2239C89.3626 0.868568 90.2626 0.687988 91.2514 0.687988C92.2403 0.687988 93.1462 0.862742 93.9278 1.21807C94.7094 1.56757 95.3311 2.05105 95.787 2.65686C96.2429 3.26266 96.4857 3.95584 96.5153 4.73057H94.6916Z" fill="#1F1F1F"/>
<path d="M98.9785 2.54619V0.897705H110.661V2.54619H105.764V16.2234H103.875V2.54619H98.9785Z" fill="#1F1F1F"/>
<path d="M113.586 16.2234V0.897705H122.989V2.54619H115.475V7.72466H122.503V9.37315H115.475V14.5807H123.113V16.2292H113.592L113.586 16.2234Z" fill="#1F1F1F"/>
<path d="M134.032 9.90323C134.257 9.8275 134.464 9.74013 134.654 9.6411C135.435 9.245 136.01 8.69744 136.383 7.99844C136.756 7.29943 136.945 6.5014 136.945 5.59852C136.945 4.69564 136.756 3.89178 136.383 3.18113C136.01 2.47047 135.429 1.91709 134.648 1.50934C133.866 1.10158 132.871 0.897705 131.652 0.897705H126.388V16.2234H128.277V10.2353H131.681C131.817 10.2353 131.948 10.2353 132.078 10.2236L135.364 16.2234H137.555L134.032 9.90323ZM128.277 2.54619H131.592C132.433 2.54619 133.108 2.66852 133.623 2.92482C134.133 3.1753 134.506 3.53063 134.742 3.99081C134.973 4.44516 135.092 4.98106 135.092 5.59852C135.092 6.21597 134.973 6.74023 134.742 7.17711C134.511 7.61981 134.144 7.96349 133.635 8.20232C133.126 8.44114 132.451 8.55764 131.622 8.55764H128.277V2.54619Z" fill="#1F1F1F"/>
<path d="M152.612 5.69181H150.723C150.61 5.1559 150.415 4.6899 150.143 4.28215C149.864 3.88022 149.533 3.53654 149.136 3.26276C148.745 2.98316 148.307 2.77928 147.833 2.63948C147.36 2.49968 146.862 2.42978 146.341 2.42978C145.4 2.42978 144.547 2.66278 143.783 3.13461C143.019 3.60644 142.415 4.29379 141.965 5.20833C141.515 6.12286 141.29 7.24127 141.29 8.56938C141.29 9.89749 141.515 11.0159 141.965 11.9304C142.415 12.845 143.019 13.5323 143.783 14.0041C144.547 14.476 145.4 14.709 146.341 14.709C146.856 14.709 147.354 14.6391 147.833 14.4993C148.313 14.3595 148.745 14.1498 149.136 13.876C149.527 13.5964 149.864 13.2585 150.143 12.8508C150.421 12.443 150.61 11.977 150.723 11.447H152.612C152.47 12.2275 152.209 12.9323 151.836 13.5498C151.463 14.1672 150.995 14.6915 150.439 15.1226C149.882 15.5536 149.254 15.8798 148.562 16.107C147.869 16.3342 147.129 16.4448 146.347 16.4448C145.021 16.4448 143.837 16.1245 142.8 15.4895C141.764 14.8488 140.953 13.9459 140.361 12.7634C139.769 11.5809 139.473 10.1887 139.473 8.5752C139.473 6.96166 139.769 5.56366 140.361 4.387C140.953 3.21034 141.77 2.30163 142.8 1.66087C143.831 1.02012 145.015 0.705566 146.347 0.705566C147.135 0.705566 147.875 0.816239 148.562 1.04342C149.254 1.27059 149.876 1.5968 150.439 2.02785C150.995 2.4589 151.463 2.98316 151.836 3.60061C152.209 4.21807 152.47 4.91707 152.612 5.70928V5.69181Z" fill="#1F1F1F"/>
<path d="M155.655 16.2234V0.897705H157.544V14.5749H164.786V16.2234H155.661H155.655Z" fill="#1F1F1F"/>
<path d="M174.029 0.897705H172.081L166.361 16.2234H168.339L169.902 11.8837H176.208L177.771 16.2234H179.749L174.029 0.897705ZM170.5 10.2353L172.993 3.32093H173.117L175.61 10.2353H170.5Z" fill="#1F1F1F"/>
<path d="M190.702 4.73057C190.614 3.97332 190.24 3.38499 189.589 2.96558C188.938 2.54618 188.144 2.33648 187.203 2.33648C186.51 2.33648 185.912 2.44715 185.397 2.66268C184.882 2.88403 184.479 3.18694 184.195 3.56556C183.911 3.95002 183.763 4.38689 183.763 4.8762C183.763 5.28395 183.863 5.63346 184.065 5.92471C184.266 6.21596 184.521 6.46061 184.835 6.65284C185.148 6.84507 185.48 7.00234 185.823 7.12467C186.167 7.24699 186.486 7.34602 186.777 7.42175L188.358 7.84115C188.766 7.946 189.216 8.09163 189.714 8.27803C190.211 8.46443 190.69 8.7149 191.152 9.02946C191.608 9.34401 191.993 9.75176 192.289 10.2469C192.591 10.742 192.739 11.3478 192.739 12.0643C192.739 12.8915 192.52 13.6429 192.082 14.307C191.644 14.9768 191.004 15.5069 190.164 15.903C189.323 16.2991 188.304 16.4913 187.108 16.4913C185.995 16.4913 185.03 16.3166 184.213 15.9613C183.402 15.6059 182.762 15.1108 182.294 14.4817C181.832 13.8468 181.566 13.1128 181.507 12.274H183.455C183.502 12.8507 183.704 13.3283 184.053 13.707C184.402 14.0856 184.84 14.3652 185.379 14.5458C185.912 14.7264 186.492 14.8196 187.108 14.8196C187.831 14.8196 188.476 14.7031 189.05 14.4701C189.625 14.2371 190.075 13.9167 190.412 13.4973C190.744 13.0837 190.915 12.5944 190.915 12.0352C190.915 11.5284 190.773 11.1148 190.483 10.7944C190.193 10.4741 189.814 10.2178 189.34 10.0139C188.867 9.81584 188.358 9.64109 187.813 9.48964L185.894 8.94791C184.675 8.60423 183.715 8.11492 183.005 7.47417C182.294 6.83341 181.939 6.00044 181.939 4.9694C181.939 4.11312 182.176 3.36169 182.65 2.72093C183.123 2.08018 183.763 1.57922 184.568 1.2239C185.373 0.868568 186.273 0.687988 187.262 0.687988C188.251 0.687988 189.157 0.862742 189.939 1.21807C190.72 1.56757 191.342 2.05105 191.798 2.65686C192.254 3.26266 192.496 3.95584 192.526 4.73057H190.702Z" fill="#1F1F1F"/>
<path d="M204.363 4.73057C204.274 3.97332 203.901 3.38499 203.249 2.96558C202.598 2.54618 201.805 2.33648 200.863 2.33648C200.17 2.33648 199.572 2.44715 199.057 2.66268C198.542 2.88403 198.139 3.18694 197.855 3.56556C197.571 3.95002 197.423 4.38689 197.423 4.8762C197.423 5.28395 197.524 5.63346 197.725 5.92471C197.926 6.21596 198.181 6.46061 198.495 6.65284C198.808 6.84507 199.14 7.00234 199.483 7.12467C199.827 7.24699 200.147 7.34602 200.437 7.42175L202.018 7.84115C202.426 7.946 202.876 8.09163 203.374 8.27803C203.871 8.46443 204.351 8.7149 204.813 9.02946C205.268 9.34401 205.653 9.75176 205.949 10.2469C206.251 10.742 206.399 11.3478 206.399 12.0643C206.399 12.8915 206.18 13.6429 205.742 14.307C205.304 14.9768 204.664 15.5069 203.824 15.903C202.983 16.2991 201.964 16.4913 200.768 16.4913C199.655 16.4913 198.69 16.3166 197.873 15.9613C197.062 15.6059 196.422 15.1108 195.955 14.4817C195.493 13.8468 195.226 13.1128 195.167 12.274H197.115C197.162 12.8507 197.364 13.3283 197.713 13.707C198.062 14.0856 198.501 14.3652 199.039 14.5458C199.572 14.7264 200.153 14.8196 200.768 14.8196C201.491 14.8196 202.136 14.7031 202.711 14.4701C203.285 14.2371 203.735 13.9167 204.072 13.4973C204.404 13.0837 204.576 12.5944 204.576 12.0352C204.576 11.5284 204.434 11.1148 204.143 10.7944C203.853 10.4741 203.474 10.2178 203.001 10.0139C202.527 9.81584 202.018 9.64109 201.473 9.48964L199.555 8.94791C198.335 8.60423 197.376 8.11492 196.665 7.47417C195.955 6.83341 195.599 6.00044 195.599 4.9694C195.599 4.11312 195.836 3.36169 196.31 2.72093C196.783 2.08018 197.423 1.57922 198.228 1.2239C199.033 0.868568 199.933 0.687988 200.922 0.687988C201.911 0.687988 202.817 0.862742 203.599 1.21807C204.38 1.56757 205.002 2.05105 205.458 2.65686C205.914 3.26266 206.157 3.95584 206.186 4.73057H204.363Z" fill="#1F1F1F"/>
</svg>
