<svg width="158" height="25" viewBox="0 0 158 25" fill="none" xmlns="http://www.w3.org/2000/svg">
<path d="M88.1885 24.2284V0.508789H93.2866V20.0984H103.625V24.2342H88.1885V24.2284Z" fill="#1F1F1F"/>
<path d="M112.104 0.508789V24.2342H107.006V0.508789H112.104Z" fill="#1F1F1F"/>
<path d="M120.666 0.508789L126.492 18.5315H126.717L132.555 0.508789H138.204L129.891 24.2342H123.318L114.993 0.508789H120.66H120.666Z" fill="#1F1F1F"/>
<path d="M141.105 24.2284V0.508789H157.353V4.64457H146.204V10.2949H156.518V14.4307H146.204V20.0926H157.4V24.2284H141.105Z" fill="#1F1F1F"/>
<path d="M0.567383 24.2286V0.509033H16.5367V4.64482H5.67139V10.2951H15.4827V14.4309H5.67139V24.2286H0.573305H0.567383Z" fill="#1F1F1F"/>
<path d="M33.8617 15.0131C33.9387 14.984 34.0098 14.949 34.0867 14.9141C35.3953 14.3141 36.39 13.4462 37.0828 12.3161C37.7756 11.1861 38.119 9.82883 38.119 8.25607C38.119 6.68331 37.7815 5.32024 37.1006 4.16106C36.4196 2.99605 35.4367 2.09899 34.1459 1.46406C32.8551 0.823307 31.2979 0.50293 29.4742 0.50293H19.9648V24.2283H25.0629V15.817H28.7814L33.3525 24.2283H38.9776L33.8617 15.0131ZM25.0629 4.60376H28.4972C29.4801 4.60376 30.2972 4.74939 30.9426 5.02899C31.588 5.30859 32.0735 5.72217 32.3933 6.2639C32.7071 6.80563 32.867 7.46969 32.867 8.25607C32.867 9.04245 32.7071 9.68903 32.3933 10.2133C32.0735 10.7375 31.5939 11.1336 30.9485 11.3958C30.3031 11.6579 29.4979 11.786 28.5209 11.786H25.0629V4.60376Z" fill="#1F1F1F"/>
<path d="M41.7188 24.2284V0.508789H57.9663V4.64457H46.8168V10.2949H57.1314V14.4307H46.8168V20.0926H58.0137V24.2284H41.7188Z" fill="#1F1F1F"/>
<path d="M62.0342 24.2284V0.508789H78.2818V4.64457H67.1323V10.2949H77.4469V14.4307H67.1323V20.0926H78.3291V24.2284H62.0342Z" fill="#1F1F1F"/>
</svg>
