<svg width="38.344727" height="23.719482" viewBox="0 0 38.3447 23.7195" fill="none" xmlns="http://www.w3.org/2000/svg" xmlns:xlink="http://www.w3.org/1999/xlink">
	<desc>
			Created with Pixso.
	</desc>
	<defs/>
	<path id="Vector" d="M36.23 1.78L29.42 5.93L29.42 0L3.94 0C1.83 0 0 1.78 0 3.85L0 20.02C0 22.08 1.83 23.71 3.94 23.71L29.42 23.71L29.42 17.79L36.23 22.08L38.34 22.08L38.34 1.78L36.23 1.78Z" fill="#F26334" fill-opacity="1.000000" fill-rule="evenodd"/>
	<path id="Vector" d="M14 17.18L19.81 13.09C20.61 12.53 20.61 11.46 19.81 10.89L14 6.79C12.96 6.06 11.41 6.71 11.41 7.89L11.41 16.08C11.41 17.26 12.96 17.91 14 17.18Z" fill="#FFFFFF" fill-opacity="1.000000" fill-rule="evenodd"/>
</svg>
