<svg width="29" height="29" viewBox="0 0 29 29" fill="none" xmlns="http://www.w3.org/2000/svg">
<path fill-rule="evenodd" clip-rule="evenodd" d="M9.2431 19.4244C14.6902 24.8715 19.7378 25.4679 21.2196 25.5232C23.0103 25.5883 24.8378 24.1263 25.6283 22.6289C24.3674 21.1499 22.7255 20.0024 20.9278 18.7586C19.8667 19.8183 18.5591 21.7874 16.818 21.0819C15.8278 20.6838 13.3826 19.5576 11.2463 17.4198C9.10993 15.2821 7.98368 12.8383 7.58276 11.8495C6.87726 10.1056 8.8521 8.79517 9.91318 7.73408C8.66935 5.90658 7.54168 4.22217 6.06551 3.02508C4.54685 3.81842 3.07635 5.63175 3.14293 7.4465C3.19818 8.92833 3.7946 13.9759 9.2431 19.4244ZM21.1148 28.3551C19.0748 28.28 13.2933 27.481 7.23851 21.4276C1.1851 15.3727 0.387513 9.59275 0.311013 7.55133C0.19768 4.44033 2.58051 1.41858 5.3331 0.2385C5.66456 0.09537 6.02755 0.040876 6.38643 0.0803655C6.74531 0.119855 7.08777 0.251971 7.38018 0.46375C9.65818 2.1255 11.2293 4.64292 12.5793 6.61492C12.8602 7.02497 12.9889 7.52031 12.9431 8.01521C12.8973 8.51011 12.6799 8.97344 12.3286 9.325L10.4076 11.2474C10.8538 12.232 11.7619 13.9292 13.2494 15.4167C14.7369 16.9042 16.4341 17.8122 17.4201 18.2585L19.3397 16.3375C19.6922 15.9847 20.1575 15.7671 20.6543 15.7228C21.151 15.6785 21.6475 15.8104 22.0568 16.0952C24.0685 17.4893 26.4315 19.0377 28.1542 21.2434C28.3832 21.5379 28.5288 21.8886 28.5759 22.2587C28.623 22.6287 28.5698 23.0047 28.4219 23.3472C27.2362 26.1139 24.2357 28.4698 21.1148 28.3551Z" fill="#FEFEFE"/>
</svg>
