<svg width="32" height="32" viewBox="0 0 32 32" fill="none" xmlns="http://www.w3.org/2000/svg">
<path d="M6.98079 0C6.33846 0 5.70472 0.231159 5.1766 0.652901L5.10045 0.691018L5.06238 0.730364L1.22433 4.68835L1.2624 4.72523C0.698702 5.23679 0.299305 5.90429 0.114779 6.64323C-0.0697476 7.38218 -0.031104 8.15932 0.225817 8.87626C0.230729 8.88609 0.220904 8.90454 0.225817 8.91437C1.26731 11.8973 3.93 17.6566 9.13011 22.8626C14.3499 28.0883 20.1788 30.6482 23.0626 31.777H23.1006C23.8233 32.0161 24.5956 32.0639 25.3422 31.9157C26.0888 31.7674 26.7843 31.4282 27.3612 30.931L31.2373 27.0505C32.2542 26.0324 32.2542 24.2643 31.2373 23.2462L26.2484 18.2517L26.2091 18.1743C25.1922 17.1562 23.3892 17.1562 22.3711 18.1743L19.9147 20.6334C18.0716 19.7464 16.376 18.5802 14.8878 17.1758C12.8773 15.254 11.8505 13.0445 11.4722 12.1801L13.9286 9.72097C14.9603 8.68813 14.9787 6.9692 13.8893 5.95603L13.9274 5.91668L13.8131 5.80233L8.90044 0.730364L8.86236 0.692247L8.78499 0.652901C8.27505 0.23655 7.63878 0.00629756 6.98079 0ZM6.98079 2.45914C7.0812 2.46498 7.17637 2.50588 7.24976 2.57472L12.1625 7.60734L12.2779 7.72292C12.2681 7.71308 12.3492 7.84342 12.2005 7.9922L9.13011 11.0661L8.55409 11.6047L8.82429 12.3719C8.82429 12.3719 10.2342 16.1528 13.1991 18.9821L13.468 19.212C16.3211 21.8199 19.6851 23.2462 19.6851 23.2462L20.4527 23.593L24.0991 19.9411C24.3104 19.7309 24.2711 19.7309 24.4823 19.9411L29.5105 24.9775C29.7217 25.1877 29.7217 25.1115 29.5105 25.3217L25.7486 29.0879C25.1836 29.5736 24.583 29.6744 23.8695 29.4346C21.0864 28.3391 15.6787 25.9611 10.8569 21.1351C5.99702 16.2684 3.45961 10.7501 2.52988 8.07089C2.34197 7.57045 2.47584 6.83148 2.91307 6.45647L2.98922 6.379L6.71305 2.57595C6.78563 2.50718 6.87987 2.46588 6.97957 2.45914H6.98079Z" fill="#353535"/>
</svg>
