<svg width="675" height="507" viewBox="0 0 675 507" fill="none" xmlns="http://www.w3.org/2000/svg">
<path d="M465.79 425.692C465.384 425.752 464.974 425.671 464.643 425.466C427.816 402.374 391.166 378.684 355.711 355.025C354.226 354.039 353.278 353.461 352.688 353.108C351.914 352.642 350.965 352.456 350.025 352.588C349.887 352.602 349.75 352.624 349.615 352.653L315.033 362.533C302.119 366.222 289.205 369.898 276.291 373.561C246.693 381.961 216.082 390.654 186.061 399.481C185.848 399.546 185.631 399.596 185.41 399.63C184.881 399.714 184.283 399.698 184.151 399.524C166.116 375.22 148.783 349.876 132.02 325.372C126.374 317.112 120.701 308.861 115 300.62L114.692 300.168C103.307 283.646 91.4965 266.535 79.3526 250.031C77.2488 247.171 75.1185 244.699 73.2361 242.525C66.6893 234.953 63.4013 231.131 68.3093 221.828C74.1793 210.74 79.8934 199.551 85.6196 188.384C91.1767 177.533 96.735 166.689 102.39 155.901C104.136 152.593 105.835 148.705 107.612 144.594C112.156 134.199 136.898 87.4037 144.239 81.7217L172.095 79.9997C172.243 79.8799 172.427 79.8044 172.622 79.784L173.775 79.6027C174.629 79.4684 175.495 79.4103 176.358 79.3371C176.939 79.3005 177.484 79.2616 177.992 79.2053L539.001 40.2829C539.382 40.2138 539.773 40.2663 540.106 40.4311C540.439 40.596 540.692 40.8627 540.823 41.1848C565.967 83.3628 594.099 128.628 626.796 179.494C628.278 181.794 620.854 192.626 618.421 196.184C616.846 198.472 615.609 200.285 614.903 201.639C609.131 212.462 603.887 222.521 598.874 232.38C586.71 256.312 575.663 277.886 563.612 299.697C563.448 299.994 563.231 300.266 562.969 300.502C562.853 300.598 562.68 300.782 562.575 300.892C554.808 307.767 547.053 315.273 539.558 322.535C532.823 329.068 525.889 335.788 518.773 342.178C518.613 342.237 518.446 342.279 518.276 342.303C516.158 342.636 512.348 341.671 509.842 341.041C508.668 340.749 507.647 340.495 506.911 340.376L456.165 331.727C455.754 331.656 455.33 331.654 454.913 331.72C454.337 331.8 453.789 332.009 453.318 332.326C452.847 332.644 452.468 333.06 452.217 333.536C451.966 334.013 451.85 334.535 451.881 335.053C451.911 335.572 419.917 332.909 438.981 335.851C486.984 395.241 464.741 434.15 480.09 409.287C464.137 424.369 454.734 431.617 471.182 422.223C455.067 437.002 459.692 431.877 476.247 417.951C459.692 431.877 480.452 414.581 480.423 414.672C480.374 414.918 471.391 422.054 471.182 422.223L487.823 408.809C480.875 414.327 473.686 420.032 466.479 425.458C466.279 425.597 466.038 425.678 465.79 425.692Z" fill="#3CEAAA"/>
<path d="M513.466 349.52L437.683 339.176L422.291 317.083L557.034 308.754L513.466 349.52Z" fill="#FD8753"/>
<path d="M141.311 82.9737L87.6389 122.36L29.5497 236.161L155.622 411.717L335.898 361.999L453.772 437.37L488.346 413.191L357.286 327.113L187.181 371.193C180.942 373.983 174.268 372.993 171.711 372.149L80.34 214.987C77.0271 206.776 78.5071 204.246 79.6613 204.008L141.311 82.9737Z" fill="#FD8753"/>
<path d="M621.277 206.111C615.414 216.797 609.656 227.516 604.003 238.267C591.607 261.953 579.168 285.596 565.885 308.947C565.515 309.601 565.022 310.199 564.427 310.714C564.37 310.772 564.332 310.827 564.274 310.877C548.001 325 533.07 340.26 516.927 354.493C513.586 357.472 504.178 354.152 500.835 353.598L446.46 344.781C461.77 366.988 477.429 388.995 493.439 410.802C493.449 410.866 493.459 410.93 493.524 410.985C493.89 411.382 494.158 411.841 494.315 412.337C494.472 412.834 494.514 413.356 494.439 413.875C494.431 413.99 494.415 414.105 494.389 414.218C494.341 414.484 494.269 414.747 494.175 415.004C493.916 415.901 493.345 416.714 492.542 417.33C481.806 425.61 471.208 433.999 460.301 442.085C459.379 442.746 458.248 443.132 457.081 443.184C455.915 443.236 454.777 442.951 453.843 442.372C414.591 418.436 375.753 393.999 337.332 369.06C335.713 368.014 334.71 367.428 334.126 367.111L328.582 368.678L297.031 377.598C250.915 390.625 204.714 403.403 158.69 416.776C156.545 417.399 153.828 417.426 152.454 415.606C126.826 381.766 103.126 346.822 78.7739 312.267C66.3117 294.601 53.8265 276.848 40.7822 259.478C31.0132 246.467 20.7609 241.717 28.8509 226.813C41.3212 203.843 53.2218 180.652 65.6775 157.71C72.3248 145.444 78.789 124.499 90.6868 115.489L141.732 76.8267C142.516 76.248 143.477 75.891 144.48 75.8057C146.297 75.5191 148.126 75.3187 149.959 75.2056L209.581 68.7064L536.946 33.0242C538.088 32.8683 539.241 33.0309 540.242 33.4888C541.242 33.9468 542.039 34.6767 542.518 35.5743C572.052 84.1651 602.754 132.188 634.033 179.883C637.567 185.231 624.061 201.02 621.277 206.111ZM92.1807 127.373C95.7474 125.471 99.4088 123.693 102.903 121.925C108.795 118.937 114.814 115.504 121 112.716C123.402 108.299 125.792 103.867 128.299 99.4652C128.439 99.2224 128.586 98.9048 128.723 98.6381L96.1574 123.304C94.6417 124.509 93.3047 125.877 92.1807 127.373ZM160.248 393.748C163.263 389.054 166.651 382.437 170.898 377.402C170.889 377.346 170.781 377.314 170.744 377.263C168.036 373.469 165.397 369.632 162.775 365.792C160.917 370.263 157.521 374.681 155.291 378.638C152.848 382.972 151.327 388.699 148.666 393.255C150.297 395.452 151.909 397.709 153.563 399.927C154.075 400.608 154.543 401.315 154.965 402.045C156.649 399.089 158.64 396.233 160.25 393.764L160.248 393.748ZM160.635 362.686C158.371 359.329 156.152 355.957 153.94 352.568C151.792 356.815 148.697 360.998 146.504 364.655C144.058 368.793 141.778 374.696 138.193 378.809C140.603 382.202 143.043 385.586 145.513 388.959C146.916 384.813 149.667 380.586 151.5 377.386C154.17 372.763 156.805 367.025 160.638 362.702L160.635 362.686ZM151.086 348.209C148.356 343.977 145.661 339.726 143 335.456C141.128 338.531 138.761 341.495 136.944 344.144C132.942 349.878 129.347 355.814 126.18 361.914C128.804 365.59 131.4 369.328 134.046 373.025L135.164 374.583C137.575 369.87 141.525 365.037 143.791 361.124C146.056 357.21 148.129 352.255 151.089 348.224L151.086 348.209ZM140.493 331.451C137.595 326.744 134.721 322.016 131.873 317.269C129.819 320.912 126.601 324.436 124.554 327.35C121.607 331.576 118.905 335.923 116.459 340.375C115.77 341.843 114.906 343.248 113.881 344.566C117.039 349.074 120.249 353.558 123.425 358.055C126.052 353.258 128.986 348.586 132.212 344.063C134.88 340.266 137.37 335.458 140.493 331.451ZM129.899 313.965C127.673 310.232 125.458 306.491 123.254 302.744C120.874 306.34 117.336 309.8 115.286 312.633C111.43 317.949 108.065 324.473 103.45 329.672C106.154 333.542 108.861 337.407 111.57 341.266C113.14 336.93 117.004 332.324 119.229 328.875C121.584 325.233 124.439 321.906 127.017 318.376C128.097 316.947 128.976 315.435 129.926 313.961L129.899 313.965ZM120.955 298.861C118.106 293.994 115.272 289.121 112.453 284.244C110.111 288.562 106.331 292.567 103.326 296.253C98.9953 301.53 95.0833 306.905 91.3167 312.428C94.4839 316.935 97.6481 321.442 100.809 325.949C104.037 321.353 107.597 316.786 110.807 312.315C113.446 308.629 116.405 305.129 119.136 301.494C119.85 300.605 120.424 299.722 121.001 298.854L120.955 298.861ZM110.6 281.052C107.762 276.134 104.922 271.219 102.079 266.307C98.8419 270.905 94.5303 275.23 91.2408 279.313C87.3126 284.167 83.766 290.432 79.2379 295.291C82.4479 299.79 85.6281 304.3 88.7787 308.82C91.8002 304.411 95.0807 300.136 98.6063 296.014C102.552 291.272 106.119 285.551 110.646 281.045L110.6 281.052ZM99.8905 262.538L99.6296 262.072C97.3369 258.114 95.0168 254.162 92.7242 250.204C89.0147 255.375 83.8809 260.141 79.9697 264.984C76.0586 269.827 72.672 275.381 68.4282 280.137C71.1361 283.931 73.8703 287.712 76.5691 291.507C79.8007 286.46 84.5024 281.632 87.9923 277.272C91.6756 272.711 95.3821 266.984 99.9363 262.53L99.8905 262.538ZM91.1152 247.432C87.9217 241.924 84.6929 236.429 81.5228 230.95C78.1914 236.675 72.1845 242.273 68.3694 247.011C64.9298 251.272 60.7891 258.474 55.5384 262.317C58.9801 267.018 62.3719 271.759 65.7795 276.481C69.4216 271.002 74.4248 265.823 78.4647 261.083C82.3241 256.567 86.2212 251.276 91.1609 247.425L91.1152 247.432ZM58.6956 229.593C54.1081 235.147 49.7026 241.859 43.9732 246.775C47.0248 250.785 50.1154 254.804 53.0858 258.835C54.0964 257.564 55.2947 256.353 56.4616 254.943C59.8299 250.864 63.1929 246.792 66.5506 242.725C70.3916 238.032 74.2189 231.404 79.4219 227.257L79.2798 227.009C77.5528 224.084 73.5996 219.472 71.3196 215.177C67.466 220.207 62.448 225.053 58.6956 229.593ZM88.7075 173.182C83.2803 176.44 77.3982 179.311 72.4679 182.507C68.5848 185.023 64.4059 188.224 59.8677 190.213C58.292 193.201 56.6967 196.183 55.116 199.138C54.0153 201.209 51.1873 205.481 48.0684 210.469C54.5255 206.182 61.2845 202.085 67.8739 198.162C71.4159 196.043 74.7663 193.66 78.0537 191.295C80.5948 187.346 83.1481 183.534 84.8797 180.285L88.7075 173.182ZM104.377 143.584L104.855 142.691C100.181 145.667 95.1175 148.312 90.5451 150.92C85.9728 153.528 81.3291 156.458 76.4594 158.786C76.0978 159.53 75.7483 160.231 75.3991 160.874C71.3939 168.341 67.4303 175.833 63.5021 183.312C67.5713 180.906 71.6626 178.521 75.6406 176.071C81.26 172.603 86.9095 168.313 92.9558 165.113C96.7867 157.93 100.594 150.754 104.377 143.584ZM117.729 118.587C114.36 120.253 110.84 121.739 107.488 123.395C101.393 126.406 94.9061 131.098 88.1041 133.55C84.6219 139.749 81.5707 147.196 78.8898 153.358C83.0982 151.061 87.3873 148.8 91.3849 146.355C96.9398 142.955 102.476 138.78 108.492 135.806C111.59 130.085 114.683 124.354 117.771 118.613L117.729 118.587ZM41.8288 243.94C46.2158 237.468 52.5404 231.444 57.4976 225.496C61.2866 220.95 65.0448 215.314 69.7319 210.929C69.6001 210.287 69.5753 209.627 69.6583 208.97C70.1486 205.704 71.7766 202.095 73.8329 198.345C72.511 199.068 71.2416 199.767 70.002 200.477C61.8802 205.156 54.2295 210.923 45.4954 214.692C39.8957 224.012 34.5215 234.409 37.3496 238.012C38.841 239.977 40.327 241.968 41.8288 243.94ZM164.094 405.614C168.249 404.412 172.42 403.249 176.581 402.08C178.744 396.685 182.836 390.964 185.349 386.537C187.554 382.657 189.622 378.505 191.971 374.586L175.611 378.795C175.442 378.82 175.272 378.833 175.102 378.834C172.616 383.314 168.632 387.694 166.148 391.528C163.025 396.099 160.266 400.845 157.891 405.731C157.724 406.1 157.583 406.458 157.425 406.826C158.23 407.288 159.788 406.872 164.094 405.614ZM288.621 349.539C286.88 353.804 283.575 358.208 281.687 361.89C279.697 365.769 278.164 370.516 275.297 374.18L288.319 370.472C290.698 365.846 294.863 361.306 297.342 357.261C299.587 353.637 301.188 349.558 303.164 345.714L288.621 349.539ZM282.851 351.035L270.228 354.305C269.12 358.772 266.013 363.301 263.826 367.292C261.977 370.747 260.314 375.507 257.687 379.15L271.791 375.157C272.251 369.614 276.377 363.748 278.928 358.791C280.165 356.512 281.353 353.683 282.851 351.035ZM266.063 355.385L251.803 359.043C250.016 364.2 247.57 369.186 244.513 373.903C242.364 377.422 240.233 381.233 237.778 384.775C242.949 383.324 248.115 381.866 253.276 380.4C253.964 375.581 258.209 370.359 260.516 366.177C262.358 362.853 263.899 358.866 266.063 355.385ZM249.203 359.754L233.155 363.914C231.181 369.262 227.206 374.532 225.227 379.61C224.059 382.624 223.102 386.086 221.716 389.322L233.162 386.09C235.892 380.893 239.739 376.003 242.702 370.917C244.866 367.199 246.97 363.45 249.203 359.754ZM227.511 365.374L211.958 369.398C209.493 375.208 206.53 380.826 203.595 386.505C202.088 389.457 200.803 392.619 199.236 395.662L216.629 390.743C218.316 385.858 220.317 381.049 222.621 376.34C224.161 372.95 225.669 369.057 227.511 365.374ZM209.687 369.993L196.163 373.502C194.245 379.201 190.239 384.754 187.491 389.953C185.905 392.934 184.558 396.777 182.789 400.326L195.367 396.778C196.933 392.116 199.881 387.53 202.14 383.283C204.456 378.797 207.026 374.377 209.687 369.993ZM306.543 365.349C307.821 360.83 310.937 356.48 313.498 352.536C315.715 349.154 317.729 345.075 320.14 341.368L307.185 344.73C306.158 350.134 302.351 355.762 299.531 360.261C297.945 362.825 296.326 365.893 294.433 368.774L306.543 365.349ZM328.248 359.212C329.481 353.751 333.666 348.26 336.38 343.385C337.521 341.333 338.477 338.819 339.597 336.337L325.938 339.875C324.559 343.813 321.536 347.682 319.362 351.042C316.777 355.071 314.494 359.584 311.899 363.844L328.248 359.212ZM343.321 360.431C345.279 354.979 349.542 349.509 352.491 344.874C354.464 341.784 356.27 337.517 358.95 334.397L355.797 332.243C354.965 332.376 354.14 332.549 353.326 332.763L345.951 334.675C344.638 338.259 342.165 341.862 340.548 344.765C338.188 349.029 335.795 354.279 332.437 358.463C336.245 358.245 340.006 358.924 343.331 360.429L343.321 360.431ZM354.781 367.305C356.923 363.026 360.481 358.983 363.196 355.187C366.166 351.209 368.874 347.092 371.306 342.855C368.909 341.212 366.487 339.598 364.097 337.946L362.497 336.84C362.141 337.379 361.734 337.958 361.301 338.664C358.827 342.504 356.333 346.331 353.959 350.212C351.586 354.094 349.684 358.408 346.978 362.203C349.715 363.745 352.325 365.449 354.79 367.303L354.781 367.305ZM398.167 361.086C395.855 364.762 392.371 368.442 390.49 370.921C387.39 375.072 384.313 380.749 380.499 384.955C383.409 386.812 386.352 388.638 389.28 390.492C391.355 386.142 395.324 381.666 397.84 378.22C400.235 374.949 402.864 369.948 406.31 366.445C403.562 364.662 400.852 362.888 398.176 361.085L398.167 361.086ZM394.356 358.57C391.826 356.866 389.321 355.134 386.799 353.421C384.303 356.7 381.136 359.831 378.953 362.718C375.546 367.244 372.528 372.994 368.493 377.406C371.435 379.291 374.417 381.128 377.358 383.004C379.181 378.547 383.082 374.057 385.719 370.535C388.355 367.012 391.069 363.568 393.484 359.95C393.857 359.458 394.107 359.018 394.356 358.57ZM382.891 350.764L374.999 345.39C372.903 349.13 369.697 352.905 367.845 355.511C364.662 359.969 361.563 365.208 357.615 369.46C360.435 371.633 363.158 373.797 365.783 375.633C367.867 370.325 372.486 364.97 375.736 360.697C377.949 357.765 380.209 353.999 382.909 350.762L382.891 350.764ZM401.222 398.051C403.201 393.332 407.897 388.823 411.085 385.051C413.883 381.931 416.47 378.673 418.831 375.295L419.031 374.961C415.889 372.879 412.743 370.774 409.599 368.684C408.909 369.545 408.162 370.406 407.414 371.375C405.164 374.255 402.946 377.156 400.812 380.108C398.224 383.704 395.731 388.791 392.436 392.482C395.348 394.33 398.283 396.185 401.241 398.048L401.222 398.051ZM446.343 396.359C443.698 399.523 441.051 402.679 438.454 405.859C435.858 409.04 433.523 412.269 430.956 415.396L430.165 416.338C432.891 418.158 435.689 420.253 438.544 422.241C441.158 418.216 445.376 414.371 448.163 411.152C450.716 408.318 453.11 405.378 455.336 402.345C455.961 401.429 456.55 400.519 457.157 399.606C454.197 397.732 451.263 395.839 448.32 393.955C447.739 394.733 447.082 395.507 446.362 396.356L446.343 396.359ZM444.998 391.803C441.04 389.269 437.097 386.727 433.167 384.178L432.842 384.556C429.953 387.963 427.064 391.369 424.28 394.849C421.37 398.48 418.701 403.283 415.078 406.797C418.98 409.233 422.834 411.726 426.744 414.153C428.767 410.311 432.736 406.374 434.977 403.675C437.613 400.513 440.292 397.376 442.952 394.243C443.688 393.375 444.336 392.545 445.016 391.8L444.998 391.803ZM429.397 381.745L422.456 377.227C420.322 380.482 417.121 383.693 415.4 385.697C411.675 389.995 408.07 395.534 403.675 399.627C406.424 401.354 409.166 403.098 411.915 404.824C414.14 399.821 419.092 394.856 422.276 390.994C424.424 388.366 426.724 384.791 429.416 381.742L429.397 381.745ZM450.606 428.653C452.74 424.678 457.475 420.36 459.687 417.959C462.437 414.983 465.252 412.055 467.908 409.02C468.44 408.405 468.918 407.806 469.399 407.224C466.194 405.217 462.954 403.233 459.756 401.217C457.443 405.424 453.343 409.544 450.631 412.702C447.728 416.078 444.739 420.523 441.294 424.09C444.114 426.011 447.258 427.547 450.625 428.65L450.606 428.653ZM466.421 425.576L480.827 414.315C478.083 412.621 475.355 410.907 472.619 409.203C471.748 410.223 470.738 411.2 469.834 412.193C467.487 414.753 465.079 417.283 462.725 419.853C460.043 422.785 457.375 425.748 454.889 428.797C454.732 428.993 454.603 429.185 454.455 429.38C458.366 429.722 462.36 428.75 466.44 425.573L466.421 425.576ZM435.947 329.368C437.44 326.213 439.121 323.123 440.985 320.112C441.006 320.064 441.034 320.019 441.067 319.976L430.099 320.704C432.037 323.599 433.987 326.487 435.947 329.368ZM439.165 334.136L447.246 335.458C448.549 331.81 451.576 327.793 453.139 325.2C454.38 323.19 455.66 320.944 457.197 318.903L445.478 319.683C444.889 320.651 444.285 321.588 443.831 322.396C441.916 325.853 440.14 329.355 438.333 332.844C438.601 333.293 438.873 333.708 439.165 334.136ZM509.758 345.366C512.259 339.968 516.246 334.533 519.787 329.961C523.937 324.606 528.28 318.812 533.305 313.834L520.695 314.673C518.093 320.504 513.065 326.299 509.542 331.286C506.679 335.334 503.961 340.186 500.592 344.363C504.044 345.128 507.012 345.684 509.758 345.366ZM516.196 315.004L500.266 316.038C497.56 320.969 492.342 325.315 488.989 329.71C486.52 332.985 484.36 337.446 481.462 341.034L494.167 343.125C494.832 343.233 495.444 343.365 496.1 343.483C498.991 338.539 503.297 333.879 506.489 329.411C509.68 324.943 512.544 319.528 516.196 315.004ZM495.622 316.343L477.882 317.498C476.1 322.456 471.836 327.444 468.81 331.412L463.748 338.121L476.97 340.277C479.318 335.819 483.182 331.269 486.092 327.876C489.002 324.483 492.155 320.012 495.622 316.343ZM474.264 317.764L461.487 318.621C459.318 322.127 456.537 325.508 454.681 329.038C453.619 330.996 452.74 333.76 451.452 336.129L459.339 337.416C461.563 334.612 464.301 331.917 466.038 329.656C468.84 325.994 471.31 321.59 474.264 317.764ZM516.241 342.319C526.916 332.634 537.096 322.601 547.665 312.843L536.481 313.621C532.791 319.991 526.914 325.757 522.609 331.733C520.203 335.112 518.136 339.093 515.679 342.742C515.87 342.581 516.072 342.492 516.26 342.316L516.241 342.319ZM620.489 178.014C598.902 145.008 577.662 111.822 556.769 78.4567C554.595 74.9552 534.169 42.5708 538.007 42.1552L531.172 42.9032L433.385 53.5651L192.034 79.8566L156.278 83.7631C143.363 85.1729 148.335 84.2683 141.967 95.6227C124.39 127.05 107.956 158.943 90.891 190.584C81.7473 207.559 83.1373 212.877 92.2307 228.513C99.1616 240.404 106.07 252.309 112.955 264.228C128.284 290.635 143.525 317.137 160.056 342.954C162.533 346.768 178.056 368.745 174.913 369.525L184.993 366.909L295.115 338.328L345.533 325.271C349.453 324.246 356.787 320.819 360.548 323.433C396.367 348.329 432.851 372.504 470.001 395.958C451.594 370.502 433.65 344.768 416.336 318.69C414.737 316.275 417.216 312.353 420.474 312.126L534.387 304.546L558.049 302.975C561.021 302.778 572.597 276.154 575.244 271.265C582.727 257.216 589.991 243.088 597.445 229.028C602.619 219.268 626.852 187.742 620.489 178.014ZM304.429 325.66C274.494 332.208 245.214 340.297 215.777 348.517L196.397 353.929C184.885 357.154 182.98 356.979 177.345 347.039C169.31 332.765 160.637 318.371 150.234 305.386C149.873 304.936 149.114 305.423 149.319 305.89C157.432 325.017 169.68 342.757 179.595 361.167C179.801 361.603 180.17 361.96 180.643 362.182C181.116 362.404 181.667 362.477 182.208 362.392C223.284 351.025 264.342 339.971 305.043 327.534C306.219 327.137 305.627 325.398 304.429 325.66ZM315.719 322.093C313.731 322.341 310.475 323.115 309.589 324.881C309.53 325.001 309.51 325.132 309.529 325.259C309.549 325.385 309.609 325.503 309.702 325.599C311.458 327.278 315.176 326.096 317.014 324.777C317.304 324.554 317.51 324.26 317.6 323.935C317.691 323.611 317.661 323.274 317.517 322.973C317.372 322.673 317.119 322.426 316.796 322.268C316.472 322.109 316.095 322.048 315.719 322.093ZM568.966 264.345C562.179 273.156 556.991 282.649 550.654 291.692C547.405 296.333 534.807 295.82 529.708 296.393C524.181 297.05 518.859 297.691 513.551 299.204C513.165 299.314 513.332 299.778 513.648 299.819C520.467 300.758 527.418 299.967 534.344 299.499C538.987 299.186 546.643 300.141 550.798 297.263C560.85 290.301 566.292 274.963 570.242 264.937C570.51 264.257 569.464 263.694 568.966 264.345ZM575.76 250.92C573.676 252.171 572.874 253.696 571.96 255.696C571.2 257.369 570.33 258.577 571.063 260.318C571.114 260.417 571.2 260.497 571.31 260.546C571.419 260.596 571.546 260.611 571.669 260.591C573.702 260.329 574.47 259.128 575.417 257.63C576.762 255.505 577.777 253.726 577.083 251.341C577.059 251.219 576.999 251.105 576.909 251.011C576.82 250.916 576.703 250.845 576.57 250.803C576.438 250.76 576.294 250.749 576.152 250.769C576.01 250.79 575.875 250.842 575.76 250.92ZM530.995 52.5152C526.942 51.0918 521.295 51.9391 517.008 52.1228C509.713 52.4525 500.779 51.854 493.949 54.662C493.875 54.694 493.812 54.7439 493.769 54.8055C493.725 54.8672 493.703 54.9379 493.704 55.009C493.705 55.0801 493.73 55.1484 493.776 55.2056C493.821 55.2628 493.885 55.3063 493.96 55.3308C503.638 58.5761 516.789 55.2647 527.111 55.6856C531.918 55.8782 534.98 64.4327 536.916 67.6119C540.976 74.2759 544.933 80.7026 551.07 86.0096C551.159 86.0949 551.282 86.1488 551.415 86.1621C551.549 86.1754 551.685 86.1473 551.802 86.0826C551.918 86.0179 552.007 85.9206 552.053 85.8075C552.098 85.6943 552.099 85.5723 552.053 85.4624C548.499 77.1242 543.294 69.5037 538.407 61.7594C536.814 59.2051 534.441 53.7232 530.995 52.5152ZM554.575 89.0891C554.487 89.0817 554.397 89.0923 554.312 89.1202C554.227 89.1481 554.15 89.1925 554.086 89.2499C554.023 89.3073 553.975 89.3763 553.946 89.4514C553.916 89.5265 553.907 89.6058 553.918 89.6831C554.169 91.2791 555.473 92.7096 556.382 94.014C557.291 95.3185 557.864 96.6349 559.594 97.017C559.711 97.0521 559.837 97.0636 559.961 97.0507C560.086 97.0377 560.207 97.0005 560.316 96.9419C560.424 96.8833 560.518 96.8048 560.589 96.7119C560.66 96.6191 560.707 96.5144 560.727 96.4054C560.956 94.6358 559.529 93.3227 558.468 92.0014C557.406 90.6801 556.327 89.4269 554.575 89.0891ZM341.798 73.2122C280.499 76.0335 218.89 83.622 157.776 90.0042C157.318 90.0762 157.307 90.7239 157.775 90.7157C218.337 90.7254 281.847 82.8133 341.899 74.1531C342.656 74.0749 342.47 73.1883 341.798 73.2122ZM346.969 73.7564C351.197 73.9092 356.502 74.7102 359.985 71.8563C360.061 71.7971 360.12 71.7227 360.155 71.6399C360.191 71.5571 360.202 71.4686 360.189 71.3827C360.175 71.2968 360.137 71.2161 360.078 71.1482C360.019 71.0804 359.94 71.0275 359.85 70.9945C355.746 69.8408 350.758 70.699 346.699 72.0406C346.495 72.1283 346.326 72.2707 346.217 72.4463C346.108 72.6218 346.066 72.8212 346.096 73.0145C346.127 73.2078 346.228 73.3846 346.386 73.5183C346.543 73.6521 346.748 73.7356 346.969 73.7564ZM107.157 178.621C102.08 183.271 95.4296 192.176 94.1038 198.542C92.3281 206.999 96.0785 214.677 102.019 220.947C102.115 221.047 102.247 221.116 102.394 221.143C102.542 221.17 102.698 221.153 102.838 221.096C102.979 221.039 103.096 220.944 103.172 220.826C103.249 220.708 103.281 220.572 103.263 220.441C102.384 212.172 96.6041 205.55 100.025 196.932C102.484 190.731 107.922 185.517 107.828 178.835C107.816 178.772 107.786 178.714 107.741 178.666C107.695 178.618 107.636 178.582 107.569 178.56C107.501 178.539 107.428 178.533 107.356 178.544C107.284 178.555 107.215 178.581 107.157 178.621Z" fill="black"/>
</svg>
