<svg width="24" height="23" viewBox="0 0 24 23" fill="none" xmlns="http://www.w3.org/2000/svg">
<path d="M10.4783 1.28331C10.9573 -0.19079 13.0427 -0.19079 13.5217 1.28331L15.233 6.55018C15.4472 7.20942 16.0615 7.65576 16.7547 7.65576H22.2926C23.8426 7.65576 24.487 9.63914 23.2331 10.5502L18.7528 13.8053C18.192 14.2127 17.9574 14.9349 18.1716 15.5941L19.8829 20.861C20.3618 22.3351 18.6747 23.5609 17.4207 22.6499L12.9404 19.3948C12.3797 18.9873 11.6203 18.9873 11.0595 19.3948L6.57926 22.6499C5.32532 23.5609 3.63815 22.3351 4.11711 20.861L5.82842 15.5941C6.04262 14.9349 5.80797 14.2127 5.24719 13.8053L0.766919 10.5502C-0.487022 9.63914 0.157419 7.65576 1.70738 7.65576H7.2453C7.93846 7.65576 8.55279 7.20942 8.76698 6.55018L10.4783 1.28331Z" fill="#F97316"/>
</svg>
