<svg width="617" height="551" viewBox="0 0 617 551" fill="none" xmlns="http://www.w3.org/2000/svg">
<g filter="url(#filter0_d_1_380)">
<path d="M10.6367 227.984H196.86L202.887 368.802L120.854 366.35L47.8963 364.169L10.6367 363.055V227.984Z" fill="#D1EAFF"/>
<path d="M495.721 418.783H464.181L463.161 277.966L477.054 280.417L489.41 282.599L495.721 283.713V418.783Z" fill="#D1EAFF"/>
<path d="M446.777 418.783H415.238L414.217 333.546L428.111 335.031L440.467 336.35L446.777 337.024V418.783Z" fill="#D1EAFF"/>
<path d="M348.889 418.783H317.351L316.329 376.269L330.224 377.009L342.58 377.666L348.889 378.004V418.783Z" fill="#D1EAFF"/>
<path d="M397.834 418.783H366.296L365.273 300.363L379.168 302.425L391.524 304.26L397.834 305.195V418.783Z" fill="#D1EAFF"/>
<path d="M51.3292 446.573L42.8469 468.044L13.211 453.788L32.2701 481.299L7.73386 494.341L36.0446 497.827L34.3647 520.85L51.3292 505.184L74.7601 526.626L66.6117 497.827L89.4453 494.341L70.3862 481.299L78.3022 462.911L59.8093 468.044L51.3292 446.573Z" fill="#12141D"/>
<path d="M47.5948 449.892L39.1126 471.363L9.47663 457.107L28.5357 484.617L3.99949 497.66L32.3102 501.146L30.6304 524.168L47.5948 508.502L71.0257 529.944L62.8773 501.146L85.7109 497.66L66.6518 484.617L74.5679 466.23L56.075 471.363L47.5948 449.892Z" fill="#FFDC4D"/>
<path d="M426.265 96.5L419.809 112.854L397.251 101.996L411.758 122.949L393.083 132.883L414.631 135.538L413.353 153.074L426.265 141.141L444.101 157.472L437.899 135.538L455.279 132.883L440.772 122.949L446.797 108.943L432.721 112.854L426.265 96.5Z" fill="#FFDC4D"/>
<path d="M145.439 153.71C138.542 118.719 106.892 54.0116 97.3603 74.1187C85.4458 99.2526 90.0436 171.204 106.141 175.393C122.237 179.583 98.8245 74.6116 78.7554 82.0038C62.7014 87.9177 72.0671 118.637 78.7554 133.257C76.3871 113.544 73.3426 85.9467 40.5004 67.4658" stroke="#FFDC4D" stroke-width="2.48867" stroke-linecap="round"/>
<path d="M402.603 284.729C405.439 270.29 418.449 243.587 422.367 251.885C427.265 262.256 425.375 291.948 418.758 293.678C412.141 295.405 421.766 252.088 430.015 255.138C436.614 257.579 432.765 270.255 430.015 276.288C430.989 268.154 432.24 256.764 445.74 249.139" stroke="#12141D" stroke-width="2.48867" stroke-linecap="round"/>
<path d="M472.701 170.849V10.1221H258.26V46.9337H175.097V164.524" stroke="#FFDC4D" stroke-width="2.48867"/>
<path d="M488.598 491.094C488.598 500.219 490.655 518.026 499.78 518.026C508.906 518.026 521.645 500.219 521.645 491.094C521.645 481.969 514.247 474.571 505.121 474.571C495.996 474.571 488.598 481.969 488.598 491.094Z" fill="#12141D"/>
<path d="M442.547 491.094C442.547 500.219 444.604 518.026 453.729 518.026C462.855 518.026 475.594 500.219 475.594 491.094C475.594 481.969 468.196 474.571 459.071 474.571C449.945 474.571 442.547 481.969 442.547 491.094Z" fill="#12141D"/>
<path d="M396.571 491.094C396.571 500.219 398.627 518.026 407.753 518.026C416.878 518.026 429.617 500.219 429.617 491.094C429.617 481.969 422.219 474.571 413.094 474.571C403.969 474.571 396.571 481.969 396.571 491.094Z" fill="#12141D"/>
<path d="M73.8911 127.871C73.8911 132.139 74.8596 140.467 79.1546 140.467C83.4497 140.467 89.4453 132.139 89.4453 127.871C89.4453 123.603 85.9632 120.143 81.6682 120.143C77.3732 120.143 73.8911 123.603 73.8911 127.871Z" fill="#12141D"/>
<path d="M55.4783 132.874C55.4783 136.126 56.2125 142.471 59.4623 142.471C62.7141 142.471 67.2539 136.126 67.2539 132.874C67.2539 129.622 64.618 126.986 61.3661 126.986C58.1142 126.986 55.4783 129.622 55.4783 132.874Z" fill="#12141D"/>
<path d="M71.8611 153.406C71.8611 156.657 72.5953 163.002 75.8451 163.002C79.0969 163.002 83.6367 156.657 83.6367 153.406C83.6367 150.154 81.0008 147.518 77.7489 147.518C74.497 147.518 71.8611 150.154 71.8611 153.406Z" fill="#12141D"/>
<path d="M55.4529 153.406C55.4529 156.657 56.185 163.002 59.4369 163.002C62.6887 163.002 67.2285 156.657 67.2285 153.406C67.2285 150.154 64.5926 147.518 61.3408 147.518C58.0889 147.518 55.4529 150.154 55.4529 153.406Z" fill="#12141D"/>
<path d="M39.0701 153.406C39.0701 156.657 39.8022 163.002 43.0541 163.002C46.3059 163.002 50.8457 156.657 50.8457 153.406C50.8457 150.154 48.2098 147.518 44.9579 147.518C41.7061 147.518 39.0701 150.154 39.0701 153.406Z" fill="#12141D"/>
<path d="M71.6541 173.938C71.6541 177.189 72.3883 183.534 75.6381 183.534C78.8899 183.534 83.4297 177.189 83.4297 173.938C83.4297 170.686 80.7937 168.05 77.5419 168.05C74.29 168.05 71.6541 170.686 71.6541 173.938Z" fill="#12141D"/>
<path d="M29.7166 179.958C29.7166 186.534 31.2015 199.366 37.7882 199.366C44.3728 199.366 53.5664 186.534 53.5664 179.958C53.5664 173.382 48.2282 168.05 41.6415 168.05C35.0569 168.05 29.7166 173.382 29.7166 179.958Z" fill="#12141D"/>
<path d="M332.506 423.713H300.315L241.669 421.622V168.143H534.786L544.273 432.407L444.6 428.856" stroke="#12141D" stroke-width="2.48867"/>
<path d="M322.551 138.546H226.915H322.551ZM322.551 121.387H262.433H322.551Z" stroke="#12141D" stroke-width="2.48867" stroke-linecap="round"/>
<path d="M534.787 168.143H241.669V220.618H536.682L534.787 168.143Z" fill="#12141D"/>
<path d="M511.72 207.785C504.831 207.785 499.246 201.783 499.246 194.379C499.246 186.975 504.831 180.974 511.72 180.974C518.609 180.974 524.193 186.975 524.193 194.379C524.193 201.783 518.609 207.785 511.72 207.785Z" fill="white"/>
<path d="M479.288 207.785C472.399 207.785 466.814 201.783 466.814 194.379C466.814 186.975 472.399 180.974 479.288 180.974C486.177 180.974 491.762 186.975 491.762 194.379C491.762 201.783 486.177 207.785 479.288 207.785Z" fill="white"/>
<path d="M446.856 207.785C439.968 207.785 434.383 201.783 434.383 194.379C434.383 186.975 439.968 180.974 446.856 180.974C453.745 180.974 459.33 186.975 459.33 194.379C459.33 201.783 453.745 207.785 446.856 207.785Z" fill="white"/>
<path d="M265.063 257.309L377.715 260.597L369.438 71.8203H113.708V252.892L164.873 254.385" stroke="#12141D" stroke-width="2.48867"/>
<path d="M113.709 71.8203H369.42V93.8036H113.709V71.8203Z" fill="#12141D"/>
<path d="M181.071 351.626L293.723 354.077L285.446 213.26H29.7159V348.33L80.8809 349.444" stroke="#12141D" stroke-width="2.48867"/>
<path d="M273.932 342.677H190.493H273.932ZM273.932 333.533H221.481H273.932Z" stroke="#12141D" stroke-width="2.48867" stroke-linecap="round"/>
<path d="M29.7166 213.26H285.428V239.391H29.7166V213.26Z" fill="#12141D"/>
<path d="M330.846 437.448C330.846 456.026 338.235 468.974 349.478 477.315C360.77 485.696 376.063 489.503 391.923 489.503C407.779 489.503 420.886 485.698 430.021 477.394C439.135 469.111 444.496 456.165 444.496 437.448C444.496 400.021 418.868 370.047 387.671 370.047C356.475 370.047 330.846 400.021 330.846 437.448Z" stroke="#12141D" stroke-width="2.48867"/>
<path d="M331.373 420.206L303.529 426.886C292.376 447.797 298.952 460.576 299.945 479.341C320.276 478.053 371.113 474.293 377.069 468.505C383.111 462.63 376.406 460.446 372.677 460.34L382.078 457.748C384.658 457.159 389.904 455.041 390.248 451.285C390.593 447.53 383.494 447.395 379.902 447.797C398.352 444.338 392.916 435.522 388.273 435.273C386.005 435.153 376.787 436.299 372.482 436.998C374.093 436.544 377.779 435.097 379.608 432.948C381.895 430.264 380.748 427.72 377.283 426.334C374.332 425.152 351.455 426.913 344.546 427.579C339.02 428.114 333.389 422.883 331.373 420.206Z" fill="#FFC2AE"/>
<path d="M371.434 436.985L346.843 439.401" stroke="#12141D" stroke-width="2.48867" stroke-linecap="round"/>
<path d="M376.979 448.589L352.386 451.003" stroke="#12141D" stroke-width="2.48867" stroke-linecap="round"/>
<path d="M370.293 461.814L345.701 464.228" stroke="#12141D" stroke-width="2.48867" stroke-linecap="round"/>
<path d="M379.931 2C373.323 9.49858 368.255 18.2255 365.02 27.6825C361.784 37.1392 360.442 47.141 361.073 57.1162C361.701 67.0917 364.29 76.8452 368.688 85.8204C373.087 94.7956 379.211 102.816 386.71 109.425C394.208 116.033 402.935 121.1 412.392 124.336C421.849 127.572 431.851 128.913 441.826 128.284C451.801 127.654 461.555 125.066 470.53 120.667C479.505 116.268 487.526 110.145 494.135 102.646L458.683 71.4031C456.177 74.2462 453.136 76.5681 449.733 78.236C446.331 79.9038 442.632 80.8851 438.85 81.1236C435.068 81.3623 431.276 80.8538 427.69 79.6269C424.105 78.4 420.796 76.4789 417.953 73.9733C415.11 71.4676 412.788 68.4266 411.12 65.0236C409.452 61.6207 408.471 57.9226 408.232 54.1404C407.993 50.3582 408.502 46.5661 409.729 42.9806C410.956 39.3948 412.877 36.0861 415.383 33.2428L379.931 2Z" stroke="#12141D" stroke-width="2.48867"/>
<path d="M365.584 73.4799L345.053 133.934L385.598 146.066L401.152 119.417C385.494 109.773 377.717 99.3691 374.191 93.2856C376.508 84.0914 379.583 75.3464 377.509 67.0508C375.321 58.2961 369.11 64.2511 365.584 73.4799Z" fill="#FFC2AE"/>
<path d="M384.975 140.57C391.279 144.801 387.602 149.315 384.975 151.043C386.53 151.043 390.18 152.391 392.337 157.784C395.033 164.524 389.641 168.36 389.641 186.196C389.641 204.031 392.337 236.488 389.641 261.167C386.945 285.847 373.36 298.912 356.665 313.533C339.971 328.154 327.216 356.048 315.706 369.632C306.498 380.499 281.454 390.958 270.08 394.83C270.08 402.379 282.316 418.229 288.434 425.212C294.208 423.657 306.498 422.744 309.484 431.538C313.217 442.529 305.751 446.781 305.751 455.18C305.751 463.579 310.003 474.571 305.751 478.719C302.35 482.037 294.587 482.591 291.13 482.452C289.471 485.438 282.352 488.881 278.998 490.229C278.998 504.138 252.328 524.784 240.216 528.596C223.418 533.884 126.982 561.052 88.1997 523.307C49.4179 485.563 60.928 378.55 69.3273 331.887C76.0467 294.557 97.2917 266.352 107.072 256.916C108.802 254.116 113.729 247.583 119.619 243.85C151.557 222.904 218.751 246.443 223.936 248.516C229.121 250.59 223.936 256.916 228.706 256.916C232.522 256.916 237.97 262.169 240.216 264.797C245.297 264.797 258.384 264.071 270.08 261.167C284.701 257.538 305.751 239.599 315.706 222.904C325.661 206.209 329.912 164.627 333.541 151.043C337.171 137.459 342.459 140.57 344.015 132.689C345.57 124.809 377.093 135.282 384.975 140.57Z" fill="#FFDC4D"/>
<path d="M241.668 269.566C243.327 275.753 246.542 294.972 246.127 322.347C245.712 349.722 255.702 376.061 260.748 385.808" stroke="#12141D" stroke-width="2.48867" stroke-linecap="round"/>
<path d="M257.325 489.399C249.963 486.91 226.528 487.429 204.545 489.399C182.562 491.369 146.891 475.711 140.565 467.934C134.24 460.157 68.8084 383.942 74.6153 334.064C79.6943 290.436 100.937 270.244 140.565 290.616C149.207 294.971 168.729 312.392 177.688 347.234C188.887 390.785 188.991 417.746 207.552 419.613C226.113 421.479 253.281 412.25 266.451 418.576C279.931 423.449 284.659 428.904 288.226 447.403C291.794 465.902 292.963 480.135 289.989 484.318" stroke="#12141D" stroke-width="2.48867" stroke-linecap="round"/>
<path d="M306.374 471.549C302.4 472.553 293.91 474.577 291.753 474.66L306.374 471.549ZM308.24 434.323C303.956 433.425 294.262 432.021 289.783 433.597L308.24 434.323ZM306.374 444.589L290.923 447.803L306.374 444.589ZM303.47 459.209L292.582 458.691L303.47 459.209Z" stroke="#12141D" stroke-width="2.48867" stroke-linecap="round"/>
<path d="M380.755 141.018C380.892 143.449 381.1 148.618 380.836 149.847L380.755 141.018ZM353.73 132.66C352.426 134.893 349.939 140.066 350.42 142.893L353.73 132.66ZM360.979 135.725L361.012 145.041L360.979 135.725ZM371.267 140.227L369.249 146.246L371.267 140.227Z" stroke="#12141D" stroke-width="2.48867" stroke-linecap="round"/>
<path d="M222.381 263.656C219.029 269.705 211.265 283.047 207.034 288.024M113.709 261.167C125.841 265.902 151.723 276.991 158.194 283.461C166.282 291.55 187.228 301.815 190.443 300.156L113.709 261.167Z" stroke="#12141D" stroke-width="2.48867" stroke-linecap="round"/>
<path d="M130.922 254.323C132.996 255.221 137.911 257.6 140.98 259.923C144.817 262.826 148.654 267.285 151.246 269.566" stroke="#12141D" stroke-width="2.48867" stroke-linecap="round"/>
<path d="M214.293 252.664C213.849 253.166 212.796 254.491 212.138 255.787C211.317 257.407 210.494 259.894 209.938 261.167" stroke="#12141D" stroke-width="2.48867" stroke-linecap="round"/>
<path d="M152.801 254.323C156.673 260.891 166.447 275.83 174.577 283.047C182.707 290.264 186.744 292.207 187.746 292.276" stroke="#12141D" stroke-width="2.48867" stroke-linecap="round"/>
<path d="M133.161 208.096C133.161 231.245 151.928 250.009 175.075 250.009C182.952 250.009 193.377 251.569 199.671 247.79C211.876 240.463 216.988 223.368 216.988 208.096C216.988 184.947 198.224 166.183 175.075 166.183C151.928 166.183 133.161 184.947 133.161 208.096Z" fill="#FFC2AE"/>
<path d="M169.185 161.31C192.334 161.31 227.047 140.028 227.047 163.176C227.047 171.959 222.899 186.576 216.485 201.336C215.512 197.603 213.131 189.743 211.389 188.166C209.211 186.196 198.22 201.75 186.606 192.211C174.992 182.671 156.534 185.885 158.09 190.759C159.133 194.025 166.904 221.131 147.72 239.854C138.807 232.168 130.3 219.111 130.3 206.417C130.3 180.68 133.162 161.31 169.185 161.31Z" fill="#12141D"/>
<path d="M155.1 253.621L155.886 241.219L194.66 239.491L196.858 251.109C196.858 266.041 198.013 289.358 191.273 289.995C180.524 291.011 157.61 258.252 155.1 253.621Z" fill="#FFC2AE"/>
<path d="M159.171 224.972C154.955 226.357 150.174 223.329 148.492 218.211C146.811 213.093 148.864 207.821 153.078 206.435C157.294 205.05 162.074 208.078 163.756 213.196C165.438 218.315 163.385 223.586 159.171 224.972Z" fill="#FFC2AE"/>
<path d="M161.619 215.704C160.207 213.35 156.281 210.523 152.672 211.151" stroke="#12141D" stroke-width="1.65912" stroke-linecap="round"/>
<path d="M154.973 211.508C154.548 212.165 153.65 214.322 153.513 215.795" stroke="#12141D" stroke-width="1.65912" stroke-linecap="round"/>
<path d="M202.801 226.668L193.813 213.389L191.231 228.682L202.801 226.668Z" fill="#FFC2AE"/>
<path d="M194.763 214.347L202.887 225.898L192.001 227.584" stroke="#12141D" stroke-width="1.65912" stroke-linecap="round"/>
<path d="M196.873 235.154C195.461 235.206 191.912 234.965 189.025 233.584" stroke="#12141D" stroke-width="1.65912" stroke-linecap="round"/>
<path d="M186.088 201.238C184.676 201.186 181.127 201.427 178.24 202.808" stroke="#12141D" stroke-width="1.65912" stroke-linecap="round"/>
<path d="M204.164 202.275C205.576 202.223 209.123 202.464 212.012 203.845" stroke="#12141D" stroke-width="1.65912" stroke-linecap="round"/>
<path d="M185.258 250.511C181.805 251.14 175.683 251.61 170.973 247.687" stroke="#12141D" stroke-width="1.65912" stroke-linecap="round"/>
<path d="M205.577 214.2C204.102 214.2 202.908 213.005 202.908 211.53C202.908 210.056 204.102 208.861 205.577 208.861C207.052 208.861 208.246 210.056 208.246 211.53C208.246 213.005 207.052 214.2 205.577 214.2Z" fill="#12141D"/>
<path d="M183.419 213.791C181.944 213.791 180.75 212.597 180.75 211.122C180.75 209.648 181.944 208.453 183.419 208.453C184.893 208.453 186.088 209.648 186.088 211.122C186.088 212.597 184.893 213.791 183.419 213.791Z" fill="#12141D"/>
<path d="M182.222 227.006C179.285 227.006 176.904 224.625 176.904 221.689C176.904 218.752 179.285 216.371 182.222 216.371C185.158 216.371 187.539 218.752 187.539 221.689C187.539 224.625 185.158 227.006 182.222 227.006Z" fill="#FFD0C0"/>
<path d="M209.39 225.969C206.453 225.969 204.072 223.588 204.072 220.651C204.072 217.715 206.453 215.334 209.39 215.334C212.326 215.334 214.707 217.715 214.707 220.651C214.707 223.588 212.326 225.969 209.39 225.969Z" fill="#FFD0C0"/>
<rect x="455" y="271" width="158" height="192"/>
<rect x="450" y="450" width="66" height="17" fill="#FAFAFA"/>
</g>
<defs>
<filter id="filter0_d_1_380" x="-0.000488281" y="0.243683" width="617" height="550.756" filterUnits="userSpaceOnUse" color-interpolation-filters="sRGB">
<feFlood flood-opacity="0" result="BackgroundImageFix"/>
<feColorMatrix in="SourceAlpha" type="matrix" values="0 0 0 0 0 0 0 0 0 0 0 0 0 0 0 0 0 0 127 0" result="hardAlpha"/>
<feOffset dy="4"/>
<feGaussianBlur stdDeviation="2"/>
<feComposite in2="hardAlpha" operator="out"/>
<feColorMatrix type="matrix" values="0 0 0 0 0 0 0 0 0 0 0 0 0 0 0 0 0 0 0.25 0"/>
<feBlend mode="normal" in2="BackgroundImageFix" result="effect1_dropShadow_1_380"/>
<feBlend mode="normal" in="SourceGraphic" in2="effect1_dropShadow_1_380" result="shape"/>
</filter>
</defs>
</svg>
