<svg width="85.000092" height="24.000000" viewBox="0 0 85.0001 24" fill="none" xmlns="http://www.w3.org/2000/svg" xmlns:xlink="http://www.w3.org/1999/xlink">
	<desc>
			Created with Pixso.
	</desc>
	<defs/>
	<path id="Vector" d="M43.6 23.09L46.82 23.09L46.82 13.99C46.82 11.81 48.38 10.09 50.41 10.09C52.43 10.09 54.18 11.72 54.18 13.99L54.18 23.09L57.67 23.09L57.67 13.81C57.67 9.9 54.45 6.9 50.96 6.9C49.67 6.9 48.01 7.36 46.82 8.99L46.82 7.27L43.6 7.27L43.6 23.09Z" fill="#c1c1bf" fill-opacity="1.000000" fill-rule="nonzero"/>
	<path id="Vector" d="M76.53 6.9C71.84 6.9 68.16 10.63 68.16 15.27C68.16 19.99 71.75 23.45 76.53 23.45C81.32 23.45 85 19.99 85 15.27C85 10.63 81.41 6.9 76.53 6.9ZM76.53 20.18C73.86 20.18 71.75 17.99 71.75 15.27C71.75 12.36 73.96 10.27 76.53 10.27C79.29 10.27 81.5 12.36 81.5 15.27C81.5 17.99 79.38 20.18 76.53 20.18Z" fill="#c1c1bf" fill-opacity="1.000000" fill-rule="nonzero"/>
	<path id="Vector" d="M67.61 23.09L67.61 19.72C65.22 20.9 62.92 19.99 62.92 17.36L62.92 10.45L67.24 10.45L67.24 7.27L62.92 7.27L62.92 3.18L59.51 3.18L59.51 16.81C59.51 22.45 63.38 24.36 67.61 23.09Z" fill="#c1c1bf" fill-opacity="1.000000" fill-rule="nonzero"/>
	<path id="Vector" d="M33.3 6.9C28.6 6.9 24.92 10.63 24.92 15.27C24.92 19.99 28.51 23.45 33.3 23.45C38.08 23.45 41.76 19.99 41.76 15.27C41.76 10.63 38.17 6.9 33.3 6.9ZM33.3 20.18C30.63 20.18 28.51 17.99 28.51 15.27C28.51 12.36 30.63 10.27 33.3 10.27C36.06 10.27 38.26 12.36 38.26 15.27C38.26 17.99 36.06 20.18 33.3 20.18Z" fill="#c1c1bf" fill-opacity="1.000000" fill-rule="nonzero"/>
	<path id="Vector" d="M11.68 0C5.05 0 0 5 0 11.81C0 18.36 5.05 23.54 11.68 23.54C18.49 23.54 23.54 18.36 23.54 11.9C23.54 5 18.49 0 11.68 0ZM11.68 20C7.08 20 3.67 16.54 3.67 11.81C3.67 6.9 7.08 3.27 11.68 3.27C16.37 3.27 19.77 6.9 19.77 11.72C19.77 16.54 16.37 20 11.68 20Z" fill="#c1c1bf" fill-opacity="1.000000" fill-rule="nonzero"/>
	<path id="Vector" d="M22.99 24C16.37 23.27 12.14 20 10.02 13.81L13.33 12.72C14.99 17.63 18.12 20.09 23.36 20.63L22.99 24Z" fill="#c1c1bf" fill-opacity="1.000000" fill-rule="nonzero"/>
</svg>
