<svg width="60" height="60" viewBox="0 0 60 60" fill="none" xmlns="http://www.w3.org/2000/svg">
<rect width="60" height="60" rx="30" fill="#6A6EFF"/>
<path d="M22.9393 28.9393C22.3536 29.5251 22.3536 30.4749 22.9393 31.0607L32.4853 40.6066C33.0711 41.1924 34.0208 41.1924 34.6066 40.6066C35.1924 40.0208 35.1924 39.0711 34.6066 38.4853L26.1213 30L34.6066 21.5147C35.1924 20.9289 35.1924 19.9792 34.6066 19.3934C34.0208 18.8076 33.0711 18.8076 32.4853 19.3934L22.9393 28.9393ZM25 31.5C25.8284 31.5 26.5 30.8284 26.5 30C26.5 29.1716 25.8284 28.5 25 28.5V31.5ZM24 31.5H25V28.5H24V31.5Z" fill="#FEFEFE"/>
</svg>
