<svg width="60" height="60" viewBox="0 0 60 60" fill="none" xmlns="http://www.w3.org/2000/svg">
<rect x="60" y="60" width="60" height="60" rx="30" transform="rotate(-180 60 60)" fill="#6A6EFF"/>
<path d="M37.0607 31.0607C37.6464 30.4749 37.6464 29.5251 37.0607 28.9393L27.5147 19.3934C26.9289 18.8076 25.9792 18.8076 25.3934 19.3934C24.8076 19.9792 24.8076 20.9289 25.3934 21.5147L33.8787 30L25.3934 38.4853C24.8076 39.0711 24.8076 40.0208 25.3934 40.6066C25.9792 41.1924 26.9289 41.1924 27.5147 40.6066L37.0607 31.0607ZM35 28.5C34.1716 28.5 33.5 29.1716 33.5 30C33.5 30.8284 34.1716 31.5 35 31.5L35 28.5ZM36 28.5L35 28.5L35 31.5L36 31.5L36 28.5Z" fill="#FEFEFE"/>
</svg>
