<svg width="36" height="36" viewBox="0 0 36 36" fill="none" xmlns="http://www.w3.org/2000/svg">
<path d="M18.4419 34.3495C19.5939 33.6167 20.7493 32.8874 21.9013 32.1546C22.4227 31.824 22.951 31.4968 23.4588 31.1424C24.6653 30.3005 25.7969 29.3428 26.8023 28.2658C28.7927 26.1288 30.306 23.5965 31.2637 20.8392C32.0442 18.5864 32.3782 16.2109 32.3782 13.8319C32.3782 12.3595 32.3782 10.8872 32.3782 9.41482C32.3782 9.37392 32.3782 9.33643 32.3782 9.29554C32.3782 8.68546 31.9522 8.15377 31.3762 7.97995C30.9604 7.85385 30.548 7.72434 30.1492 7.55733C30.2583 7.60164 30.3673 7.64935 30.4764 7.69366C29.7641 7.39033 29.0961 7.00179 28.4826 6.53145C28.5746 6.60303 28.6666 6.6746 28.7586 6.74617C28.152 6.27583 27.6067 5.73392 27.1363 5.12726C27.2079 5.21928 27.2795 5.3113 27.351 5.40332C26.8807 4.78984 26.4888 4.11842 26.1854 3.4061C26.2297 3.51516 26.2774 3.62422 26.3217 3.73329C26.2195 3.48789 26.1241 3.23568 26.0423 2.98347C25.8582 2.40748 25.3436 1.98145 24.7267 1.98145C24.2632 1.98145 23.7996 1.98145 23.3361 1.98145C22.225 1.98145 21.1105 1.98145 19.9995 1.98145C18.66 1.98145 17.3206 1.98145 15.9811 1.98145C14.8189 1.98145 13.6567 1.98145 12.4945 1.98145C11.9322 1.98145 11.3664 1.96441 10.804 1.98145C10.7972 1.98145 10.787 1.98145 10.7802 1.98145C10.1599 1.98145 9.64863 2.40748 9.46458 2.98347C9.38279 3.23909 9.29076 3.48789 9.18511 3.73329C9.22941 3.62422 9.27713 3.51516 9.32144 3.4061C9.0181 4.11842 8.62616 4.78643 8.15582 5.40332C8.22739 5.3113 8.29896 5.21928 8.37054 5.12726C7.9002 5.73392 7.35488 6.27583 6.74821 6.74617C6.84024 6.6746 6.93226 6.60303 7.02428 6.53145C6.4108 7.00179 5.73938 7.39033 5.03046 7.69366C5.13952 7.64935 5.24859 7.60164 5.35765 7.55733C4.95548 7.72434 4.54649 7.85385 4.13069 7.97995C3.55469 8.15377 3.12866 8.68546 3.12866 9.29554C3.12866 10.6656 3.12866 12.0358 3.12866 13.4059C3.12866 14.1284 3.12866 14.851 3.17979 15.5735C3.28885 17.0425 3.53765 18.508 3.95005 19.9224C4.76803 22.7308 6.18585 25.3177 8.0672 27.5501C9.52934 29.2849 11.2914 30.6891 13.2 31.899C14.4577 32.6965 15.7153 33.494 16.9729 34.2916C17.0036 34.312 17.0377 34.3325 17.0684 34.3529C17.6716 34.7346 18.5987 34.4995 18.9327 33.8621C19.2871 33.1873 19.0861 32.4068 18.4419 31.9978C17.8284 31.6093 17.2149 31.2207 16.6048 30.8322C15.821 30.3346 15.0405 29.8404 14.2566 29.3428C13.7078 28.9952 13.1728 28.6237 12.6547 28.2283C12.7467 28.2999 12.8387 28.3715 12.9308 28.443C11.6425 27.4444 10.4836 26.2856 9.48503 24.9973C9.55661 25.0893 9.62818 25.1813 9.69975 25.2734C8.6841 23.9544 7.83885 22.5093 7.18788 20.9756C7.23218 21.0846 7.2799 21.1937 7.32421 21.3028C6.6596 19.7248 6.2063 18.0683 5.97795 16.371C5.99499 16.4903 6.01203 16.613 6.02567 16.7323C5.87911 15.628 5.85526 14.5238 5.85526 13.4161C5.85526 12.3391 5.85526 11.2621 5.85526 10.1851C5.85526 9.89198 5.85526 9.60228 5.85526 9.30917C5.52125 9.74883 5.18724 10.1851 4.85323 10.6247C6.02908 10.2703 7.16743 9.79995 8.16604 9.08082C9.3487 8.22876 10.3575 7.17902 11.1074 5.92479C11.5198 5.23632 11.8504 4.48651 12.0957 3.72306C11.6561 4.05707 11.2198 4.39108 10.7802 4.72508C11.2437 4.72508 11.7072 4.72508 12.1707 4.72508C13.2818 4.72508 14.3963 4.72508 15.5074 4.72508C16.8468 4.72508 18.1863 4.72508 19.5257 4.72508C20.6879 4.72508 21.8501 4.72508 23.0123 4.72508C23.5747 4.72508 24.1405 4.73872 24.7028 4.72508C24.7096 4.72508 24.7199 4.72508 24.7267 4.72508C24.287 4.39108 23.8508 4.05707 23.4111 3.72306C24.2666 6.39171 26.2093 8.71273 28.7586 9.91243C29.3721 10.2021 30.0026 10.4271 30.6536 10.6247C30.3196 10.1851 29.9856 9.74883 29.6516 9.30917C29.6516 10.0726 29.6516 10.8361 29.6516 11.5995C29.6516 12.4482 29.6516 13.2968 29.6516 14.1421C29.6516 15.0077 29.5937 15.8734 29.4812 16.7323C29.4982 16.613 29.5153 16.4903 29.5289 16.371C29.2971 18.0649 28.8438 19.7248 28.1826 21.3028C28.227 21.1937 28.2747 21.0846 28.319 20.9756C27.668 22.5093 26.8228 23.9544 25.8071 25.2734C25.8787 25.1813 25.9502 25.0893 26.0218 24.9973C25.0232 26.2856 23.8644 27.4444 22.5761 28.443C22.6681 28.3715 22.7601 28.2999 22.8522 28.2283C22.0887 28.8179 21.2775 29.3258 20.4664 29.8438C19.5666 30.4164 18.6668 30.9856 17.7671 31.5582C17.5353 31.7047 17.3001 31.8547 17.0684 32.0012C16.7719 32.1887 16.5367 32.4716 16.4413 32.8158C16.3526 33.143 16.3935 33.5758 16.5776 33.8655C16.9661 34.4654 17.7977 34.7585 18.4419 34.3495Z" fill="white"/>
<path d="M10.8053 18.1912C11.971 19.3569 13.1366 20.5225 14.3056 21.6915C14.4726 21.8585 14.6396 22.0255 14.8032 22.1891C15.3247 22.7106 16.2108 22.7106 16.7323 22.1891C17.6321 21.2893 18.5352 20.3861 19.435 19.4864C20.8597 18.0617 22.2877 16.6337 23.7124 15.209C24.0396 14.8818 24.3702 14.5512 24.6974 14.224C25.2018 13.7196 25.2393 12.7926 24.6974 12.295C24.152 11.794 23.3068 11.7565 22.7683 12.295C21.8685 13.1947 20.9653 14.0979 20.0656 14.9977C18.6409 16.4224 17.2128 17.8504 15.7882 19.2751C15.461 19.6022 15.1304 19.9328 14.8032 20.26C15.4474 20.26 16.0881 20.26 16.7323 20.26C15.5667 19.0944 14.401 17.9288 13.232 16.7598C13.065 16.5928 12.898 16.4258 12.7344 16.2622C12.23 15.7577 11.303 15.7203 10.8053 16.2622C10.3043 16.8075 10.2668 17.6493 10.8053 18.1912Z" fill="white"/>
</svg>
