<svg width="374" height="239" viewBox="0 0 374 239" fill="none" xmlns="http://www.w3.org/2000/svg">
<g style="mix-blend-mode:multiply" filter="url(#filter0_f_3331_4)">
<path d="M203.251 201.649C297.289 181.025 366.159 130.73 357.075 89.3119C347.991 47.8937 264.395 31.0367 170.356 51.6607C76.3183 72.2847 7.44907 122.58 16.5327 163.998C25.6164 205.416 109.213 222.273 203.251 201.649Z" fill="url(#paint0_radial_3331_4)" style="mix-blend-mode:multiply"/>
</g>
<path d="M299.945 117.721L170.433 192.505V150.123L299.945 75.339V117.721Z" fill="#F0EB6D"/>
<path d="M170.433 192.505L40.9097 117.721V75.339L170.433 150.123V192.505Z" fill="#E7E273"/>
<path d="M170.421 150.123L40.8977 75.339L170.409 0.566895L299.933 75.339L170.421 150.123Z" fill="#FDF777"/>
<path d="M85.755 122.107C85.755 114.419 89.4511 112.189 94.3792 115.047C99.3074 117.905 103.003 124.398 103.003 132.086C103.003 139.774 99.3074 142.016 94.3792 139.146C89.4511 136.275 85.755 129.794 85.755 122.107ZM98.3464 129.376C98.3464 124.078 96.7324 120.961 94.4039 119.606C92.0754 118.25 90.486 119.544 90.486 124.829C90.486 130.115 92.1 133.256 94.4039 134.587C96.7078 135.918 98.3464 134.661 98.3464 129.376Z" fill="white"/>
<path d="M120.659 146.785C120.659 150.702 118.035 152.785 112.306 149.47C109.295 147.706 106.674 145.346 104.606 142.534L106.417 139.454C107.932 141.654 109.897 143.506 112.183 144.887C114.524 146.23 115.965 145.959 115.965 144.062C115.965 142.164 114.832 140.55 112.183 139.023L110.052 137.791V134.23L114.204 131.212L105.579 126.284V121.922L119.698 130.078V133.565L115.14 136.928C116.759 138.033 118.099 139.498 119.057 141.208C120.015 142.918 120.563 144.827 120.659 146.785Z" fill="white"/>
<defs>
<filter id="filter0_f_3331_4" x="2.72803" y="29.8591" width="368.152" height="193.592" filterUnits="userSpaceOnUse" color-interpolation-filters="sRGB">
<feFlood flood-opacity="0" result="BackgroundImageFix"/>
<feBlend mode="normal" in="SourceGraphic" in2="BackgroundImageFix" result="shape"/>
<feGaussianBlur stdDeviation="6.5" result="effect1_foregroundBlur_3331_4"/>
</filter>
<radialGradient id="paint0_radial_3331_4" cx="0" cy="0" r="1" gradientUnits="userSpaceOnUse" gradientTransform="translate(186.823 126.794) rotate(-12.37) scale(129.879 66.2383)">
<stop/>
<stop offset="1" stop-color="white"/>
</radialGradient>
</defs>
</svg>
