<svg width="260" height="193" viewBox="0 0 260 193" fill="none" xmlns="http://www.w3.org/2000/svg">
<path d="M259.308 117.91L129.785 192.682V150.3L259.308 75.5278V117.91Z" fill="#25CE90"/>
<path d="M129.786 192.682L0.274902 117.91V75.5156L129.786 150.3V192.682Z" fill="#32DB9D"/>
<path d="M129.785 150.3L0.26123 75.528L129.773 0.743652L259.296 75.528L129.785 150.3Z" fill="#3CEAAA"/>
<path d="M36.9644 116.531C36.9644 108.843 40.6605 106.613 45.5886 109.471C50.5167 112.329 54.2128 118.822 54.2128 126.51C54.2128 134.198 50.5167 136.44 45.5886 133.57C40.6605 130.699 36.9644 124.218 36.9644 116.531ZM49.5557 123.8C49.5557 118.502 47.9417 115.385 45.6009 114.03C43.26 112.674 41.683 114.03 41.683 119.253C41.683 124.477 43.297 127.68 45.6009 129.011C47.9048 130.342 49.5557 129.085 49.5557 123.8Z" fill="white"/>
<path d="M75.7242 145.656L72.4347 143.759V148.687L67.95 146.025V141.097L57.0835 134.826V131.204L66.5948 121.915L71.5229 124.748L62.7139 133.656L68.1225 136.785V132.436L72.5332 134.974V139.336L75.8227 141.233L75.7242 145.656Z" fill="white"/>
</svg>
