<svg width="29" height="32" viewBox="0 0 29 32" fill="none" xmlns="http://www.w3.org/2000/svg">
<path d="M25.4075 1.48156L2.47752 14.7202C1.54427 15.259 0.78772 16.5694 0.78772 17.647L0.787721 28.6234C0.787721 29.701 1.54427 30.1378 2.47753 29.599L25.4075 16.3604C26.3408 15.8216 27.0973 14.5112 27.0973 13.4336L27.0973 2.45717C27.0973 1.37954 26.3408 0.942742 25.4075 1.48156Z" fill="#1D1D1B" stroke="#1D1D1B" stroke-width="0.8" stroke-linejoin="round"/>
<path d="M26.2917 4.10338L3.36168 17.342C2.42843 17.8808 1.67188 19.1912 1.67188 20.2688L1.67188 29.4547C1.67188 30.5323 2.42843 30.9691 3.36168 30.4303L26.2917 17.1917C27.2249 16.6529 27.9815 15.3425 27.9815 14.2648L27.9815 5.07899C27.9815 4.00136 27.2249 3.56457 26.2917 4.10338Z" fill="#D5C8FB" stroke="#1D1D1B" stroke-width="0.8" stroke-linejoin="round"/>
<path d="M1.67188 18.4138C1.67188 17.3362 2.42843 16.0258 3.36168 15.487L26.2916 2.24837C27.2249 1.70955 27.9815 2.14635 27.9815 3.22398V7.82052L1.67188 23.0104V18.4138Z" fill="#EFE9FE" stroke="#1D1D1B" stroke-width="0.8" stroke-linejoin="round"/>
<path d="M4.1676 26.5856L6.1891 25.4185" stroke="#1D1D1B" stroke-width="0.8" stroke-linejoin="round"/>
<path d="M7.04938 24.9259L9.07091 23.7588" stroke="#1D1D1B" stroke-width="0.8" stroke-linejoin="round"/>
<path d="M9.92889 23.2604L11.9504 22.0933" stroke="#1D1D1B" stroke-width="0.8" stroke-linejoin="round"/>
<path d="M12.8099 21.598L14.8314 20.4309" stroke="#1D1D1B" stroke-width="0.8" stroke-linejoin="round"/>
<path d="M15.6906 19.9325L17.7121 18.7654" stroke="#1D1D1B" stroke-width="0.8" stroke-linejoin="round"/>
<path d="M18.5704 18.2719L20.592 17.1047" stroke="#1D1D1B" stroke-width="0.8" stroke-linejoin="round"/>
</svg>
