<svg width="15" height="21" viewBox="0 0 15 21" fill="none" xmlns="http://www.w3.org/2000/svg">
<path d="M9.83573 20.4551L12.2472 18.9379L1.10988 0.595215L0.56129 1.39258C0.444217 1.56273 0.396217 1.77102 0.427241 1.97521L2.67212 16.7925C2.71885 17.1006 3.08041 17.2437 3.32529 17.0512L6.03719 14.9191L9.27046 20.3199C9.38763 20.5155 9.64275 20.5766 9.83573 20.4551Z" fill="#1D1D1B"/>
<path fill-rule="evenodd" clip-rule="evenodd" d="M1.43414 0.747314L3.97512 15.8445L6.64458 13.7144L10.2827 19.8316L14.0379 17.7332L10.3976 11.6121L13.4989 10.4678L1.43414 0.747314Z" fill="white"/>
<path d="M3.97511 15.8444L3.58564 15.902C3.60857 16.0385 3.70457 16.1538 3.83706 16.2038C3.96955 16.2539 4.11842 16.2312 4.2273 16.1444L3.97511 15.8444ZM1.43413 0.747229L1.68281 0.451035C1.5555 0.348499 1.37754 0.332595 1.23579 0.411132C1.09403 0.489766 1.01794 0.646449 1.04457 0.80479L1.43413 0.747229ZM6.64457 13.7143L6.98525 13.524C6.92671 13.4256 6.82711 13.3566 6.71296 13.3354C6.59881 13.3144 6.48164 13.3432 6.39247 13.4144L6.64457 13.7143ZM10.2827 19.8315L9.94203 20.0219C10.0523 20.2071 10.294 20.2721 10.4822 20.1669L10.2827 19.8315ZM14.0379 17.7331L14.2374 18.0685C14.3278 18.018 14.3934 17.9342 14.4199 17.8356C14.4463 17.737 14.4315 17.6316 14.3786 17.5426L14.0379 17.7331ZM10.3975 11.612L10.2537 11.251C10.1461 11.2906 10.0624 11.3746 10.0246 11.4807C9.98671 11.5867 9.99852 11.7043 10.0569 11.8024L10.3975 11.612ZM13.4989 10.4677L13.6427 10.8287C13.7736 10.7804 13.8674 10.6674 13.889 10.5321C13.9106 10.3968 13.8568 10.2594 13.7476 10.1715L13.4989 10.4677ZM4.36467 15.7868L1.82359 0.689668L1.04457 0.80479L3.58564 15.902L4.36467 15.7868ZM6.39247 13.4144L3.72291 15.5444L4.2273 16.1444L6.89676 14.0144L6.39247 13.4144ZM10.6234 19.6412L6.98525 13.524L6.30398 13.9047L9.94203 20.0219L10.6234 19.6412ZM13.8385 17.3977L10.0833 19.4961L10.4822 20.1669L14.2374 18.0685L13.8385 17.3977ZM10.0569 11.8024L13.6973 17.9234L14.3786 17.5426L10.7382 11.4217L10.0569 11.8024ZM13.3551 10.1066L10.2537 11.251L10.5413 11.9731L13.6427 10.8287L13.3551 10.1066ZM1.18535 1.04342L13.2502 10.7639L13.7476 10.1715L1.68281 0.451035L1.18535 1.04342Z" fill="#1D1D1B"/>
</svg>
