<svg width="18" height="21" viewBox="0 0 18 21" fill="none" xmlns="http://www.w3.org/2000/svg">
<path d="M8.7144 2.30103C12.6246 2.30103 16.1152 3.97439 16.9902 6.22551L17.0072 15.2619C17.0072 18.0927 13.2981 20.3883 8.71459 20.3883C4.13479 20.3883 0.421911 18.0927 0.421911 15.2619L0.421814 6.48493C1.13762 4.10415 4.65537 2.30103 8.7144 2.30103Z" fill="#D5C8FB" stroke="#1D1D1B" stroke-width="0.8" stroke-miterlimit="10"/>
<path d="M8.71469 20.7883C8.9302 20.7883 9.10493 20.6137 9.10493 20.3981C9.10493 20.1826 8.9302 20.0078 8.71469 20.0078V20.7883ZM0.0318604 15.2717C0.0318604 16.8723 1.08015 18.2605 2.64571 19.2284C4.21742 20.2 6.36415 20.7883 8.71469 20.7883V20.0078C6.48542 20.0078 4.48581 19.4484 3.05615 18.5645C1.62035 17.6769 0.812347 16.502 0.812347 15.2717H0.0318604Z" fill="#1D1D1B"/>
<path d="M8.71469 17.6129C8.9302 17.6129 9.10493 17.4381 9.10493 17.2226C9.10493 17.0071 8.9302 16.8324 8.71469 16.8324V17.6129ZM0.0318604 12.0962C0.0318604 13.6968 1.08015 15.085 2.64571 16.0529C4.21742 17.0245 6.36415 17.6129 8.71469 17.6129V16.8324C6.48542 16.8324 4.48581 16.2729 3.05615 15.3891C1.62035 14.5014 0.812347 13.3264 0.812347 12.0962H0.0318604Z" fill="#1D1D1B"/>
<path d="M8.71469 14.4375C8.9302 14.4375 9.10493 14.2628 9.10493 14.0472C9.10493 13.8317 8.9302 13.657 8.71469 13.657V14.4375ZM0.0318604 8.9209C0.0318604 10.5215 1.08015 11.9097 2.64571 12.8775C4.21742 13.8492 6.36415 14.4375 8.71469 14.4375V13.657C6.48542 13.657 4.48581 13.0975 3.05615 12.2137C1.62035 11.3261 0.812347 10.151 0.812347 8.9209H0.0318604Z" fill="#1D1D1B"/>
<path d="M8.7144 11.3686C13.298 11.3686 17.0071 9.07304 17.0071 6.24231C17.0071 3.41148 13.2942 1.11597 8.7144 1.11597C4.13469 1.11597 0.421814 3.41148 0.421814 6.24231C0.421814 9.07304 4.13469 11.3686 8.7144 11.3686Z" fill="#EFE9FE" stroke="#1D1D1B" stroke-width="0.8" stroke-miterlimit="10"/>
<path d="M9.96494 8.73545C9.0102 8.81867 8.04825 8.74501 7.11713 8.51749C7.0504 8.49223 6.97869 8.48276 6.90767 8.48998C6.83674 8.4972 6.76845 8.52091 6.70806 8.55906L5.40328 9.31145L4.54367 8.79252L5.80708 8.06081L4.96825 7.57301L3.69967 8.30462L2.86084 7.81691L4.17606 7.05925C4.22308 7.04081 4.26172 7.00579 4.28484 6.96071C4.29167 6.93945 4.29186 6.91662 4.28542 6.89535C4.27899 6.87398 4.26611 6.85515 4.24855 6.8414C3.93694 6.44588 3.78357 5.94813 3.81879 5.4454C3.88484 4.92237 4.13225 4.43925 4.51781 4.08062C4.99645 3.62091 5.5664 3.26735 6.1903 3.04266C6.92816 2.75545 7.70484 2.58052 8.4945 2.52374L8.85694 2.48218H8.89313L8.42201 3.37476C7.91235 3.43047 7.41255 3.55447 6.93586 3.74335C6.53079 3.90081 6.15986 4.13506 5.84337 4.4334C5.58445 4.6693 5.40377 4.97896 5.32552 5.32081C5.26552 5.6414 5.3225 5.97291 5.48601 6.25486L7.90933 4.85379L8.74299 5.33632L7.70738 5.94881L6.20064 6.82062C6.14884 6.84647 6.10221 6.92959 6.13333 6.95027L6.80123 7.33428C6.83538 7.34189 6.87079 7.34189 6.90484 7.33428C6.93899 7.34208 6.9743 7.34208 7.00835 7.33428L9.59733 5.82423L10.4362 6.31203L8.03362 7.70276C8.56142 7.7973 9.09869 7.82686 9.63362 7.79096C10.1622 7.76237 10.6846 7.66296 11.187 7.49525C11.618 7.35847 12.0213 7.14588 12.3779 6.86735C12.668 6.6492 12.8891 6.35184 13.0148 6.01096L14.5682 5.73076C14.5682 5.73076 13.8433 8.30452 9.96494 8.73545Z" fill="#1D1D1B"/>
</svg>
