<svg width="29" height="20" viewBox="0 0 29 20" fill="none" xmlns="http://www.w3.org/2000/svg">
<path d="M27.7206 8.71885V7.62185C27.7206 7.45391 27.6316 7.29854 27.4867 7.21357L17.5298 1.37349C17.3968 1.29541 17.2318 1.29543 17.0987 1.37354L0.504028 11.112V12.5126C0.504028 12.6805 0.592955 12.8358 0.737736 12.9208L10.1902 18.4696C10.6347 18.7304 11.1857 18.73 11.6298 18.4684L27.4875 9.12668C27.632 9.04159 27.7206 8.88647 27.7206 8.71885Z" fill="#1D1D1B"/>
<path d="M27.7206 8.71885V7.62185C27.7206 7.45391 27.6316 7.29854 27.4867 7.21357L17.5298 1.37349C17.3968 1.29541 17.2318 1.29543 17.0987 1.37354L0.504028 11.112V12.5126C0.504028 12.6805 0.592955 12.8358 0.737736 12.9208L10.1902 18.4696C10.6347 18.7304 11.1857 18.73 11.6298 18.4684L27.4875 9.12668C27.632 9.04159 27.7206 8.88647 27.7206 8.71885Z" stroke="#1D1D1B" stroke-width="0.776249" stroke-linecap="round" stroke-linejoin="round"/>
<path d="M11.3917 16.9778L27.0322 7.7578C27.3421 7.57513 27.3431 7.12727 27.034 6.94331L17.7972 1.44592C17.4995 1.26874 17.1288 1.26833 16.8308 1.44483L1.19261 10.7046C0.882903 10.8881 0.883098 11.3364 1.19298 11.5195L10.4294 16.9773C10.7262 17.1527 11.0948 17.1529 11.3917 16.9778Z" fill="#D5C8FB"/>
<path d="M11.3917 16.9778L27.0322 7.7578C27.3421 7.57513 27.3431 7.12727 27.034 6.94331L17.7972 1.44592C17.4995 1.26874 17.1288 1.26833 16.8308 1.44483L1.19261 10.7046C0.882903 10.8881 0.883098 11.3364 1.19298 11.5195L10.4294 16.9773C10.7262 17.1527 11.0948 17.1529 11.3917 16.9778Z" stroke="#1D1D1B" stroke-width="0.8" stroke-linecap="round" stroke-linejoin="round"/>
<path d="M9.59479 9.58745C9.5903 9.58478 9.58299 9.58478 9.5785 9.58745L6.01986 11.7067C5.97499 11.7336 5.97499 11.7769 6.01986 11.8036L8.24279 13.1275C8.24728 13.1303 8.2546 13.1303 8.25908 13.1275L11.8176 11.0082C11.8626 10.9815 11.8626 10.9381 11.8176 10.9113L9.59479 9.58745Z" fill="white" stroke="#1D1D1B" stroke-width="0.776249"/>
</svg>
