<svg width="38" height="30" viewBox="0 0 38 30" fill="none" xmlns="http://www.w3.org/2000/svg">
<path d="M25.7958 29.0242L37.5832 22.1209L37.5833 19.982C37.5833 18.1049 36.735 15.3414 35.2818 14.1635L19.924 2.20685C18.1316 0.7567 15.6237 0.550554 13.6174 1.70626L2.19666 8.16197L25.7958 29.0242Z" fill="#D5C8FB" stroke="#1D1D1B" stroke-width="0.8" stroke-linejoin="round"/>
<path d="M5.26258 17.2622L25.8139 29.0239V28.1209C25.8139 25.9332 24.7344 23.1225 22.9356 21.885L5.35227 8.99867C4.2211 8.0895 3.01557 7.76423 2.1503 8.26716C0.749179 9.0815 0.77313 11.7598 2.1982 14.2513C3.03818 15.7197 4.17981 16.7942 5.26258 17.2622Z" fill="#EFE9FE" stroke="#1D1D1B" stroke-width="0.8" stroke-linejoin="round"/>
<path fill-rule="evenodd" clip-rule="evenodd" d="M23.1291 9.37834L21.6191 10.2164C21.4269 10.2483 21.2543 10.2995 21.1315 10.3676L21.1258 10.7267C21.1191 10.8803 21.2137 11.0363 21.4105 11.1584L22.2205 11.6455C22.228 11.6502 22.2357 11.655 22.2435 11.6598C22.6454 11.9014 23.3038 11.9129 23.7139 11.6855C23.7329 11.6749 23.7511 11.664 23.7684 11.6529L25.4047 10.7466C25.4194 10.7394 25.4338 10.7319 25.448 10.724C25.6524 10.6107 25.7566 10.4594 25.7599 10.3063L25.7661 9.95268C25.6528 9.88449 25.4949 9.82849 25.3174 9.78829L24.6559 9.38956L24.6413 9.38068C24.2389 9.13873 23.5798 9.12722 23.1691 9.35493C23.1554 9.36254 23.142 9.37034 23.1291 9.37834Z" fill="#1D1D1B"/>
<path d="M21.6192 10.2163L21.7043 10.3773L21.7718 10.3662L21.8221 10.3382L21.6192 10.2163ZM23.1292 9.37828L23.3325 9.50033L23.3431 9.49379L23.1292 9.37828ZM21.1316 10.3675L20.9287 10.2456L20.8429 10.2932L20.8418 10.3627L21.1316 10.3675ZM21.1259 10.7267L21.4157 10.7343V10.7316L21.1259 10.7267ZM21.4106 11.1584L21.6125 11.2807L21.8177 11.1679L21.6208 11.0456L21.4106 11.1584ZM21.4106 11.1584L21.2084 11.036L20.9998 11.1508L21.2035 11.2732L21.4106 11.1584ZM22.2205 11.6454L22.4339 11.5345L22.4276 11.5307L22.2205 11.6454ZM23.7684 11.6528L23.5657 11.5309L23.5579 11.5352L23.5507 11.5398L23.7684 11.6528ZM25.4048 10.7466L25.2135 10.6183L25.2021 10.6246L25.4048 10.7466ZM25.7662 9.95262L26.056 9.95769L26.0571 9.88833L25.9731 9.83779L25.7662 9.95262ZM25.3175 9.78823L25.1103 9.90277L25.1557 9.93008L25.2164 9.94394L25.3175 9.78823ZM24.656 9.3895L24.447 9.50306L24.4487 9.50413L24.656 9.3895ZM24.6414 9.38062L24.8504 9.26706L24.8483 9.26579L24.6414 9.38062ZM21.8221 10.3382L23.3325 9.50033L22.9263 9.25643L21.4163 10.0945L21.8221 10.3382ZM21.3345 10.4895C21.4155 10.4446 21.543 10.4041 21.7043 10.3773L21.534 10.0554C21.311 10.0923 21.0934 10.1544 20.9287 10.2456L21.3345 10.4895ZM21.4157 10.7316L21.4214 10.3725L20.8418 10.3627L20.8362 10.7218L21.4157 10.7316ZM21.6208 11.0456C21.4791 10.9576 21.4109 10.8453 21.4157 10.7343L20.8363 10.7191C20.8276 10.9151 20.9486 11.1149 21.2003 11.2711L21.6208 11.0456ZM22.4276 11.5307L21.6174 11.0436L21.2035 11.2732L22.0136 11.7601L22.4276 11.5307ZM22.4506 11.5449C22.4448 11.5415 22.4394 11.538 22.4339 11.5345L22.0073 11.7562C22.0168 11.7624 22.0267 11.7684 22.0366 11.7745L22.4506 11.5449ZM23.5112 11.5635C23.2154 11.7275 22.7405 11.7192 22.4506 11.5449L22.0366 11.7745C22.5506 12.0834 23.3924 12.0981 23.9168 11.8074L23.5112 11.5635ZM23.5507 11.5398C23.5382 11.5479 23.525 11.5558 23.5112 11.5635L23.9168 11.8074C23.941 11.7939 23.9642 11.78 23.9862 11.7658L23.5507 11.5398ZM25.2021 10.6246L23.5657 11.5309L23.9712 11.7748L25.6076 10.8686L25.2021 10.6246ZM25.2452 10.602C25.235 10.6077 25.2242 10.613 25.2135 10.6183L25.5958 10.8748C25.6145 10.8655 25.6329 10.8558 25.6509 10.8459L25.2452 10.602ZM25.4702 10.3007C25.4678 10.4115 25.3927 10.5202 25.2452 10.602L25.6509 10.8459C25.9122 10.701 26.0454 10.5074 26.0498 10.3117L25.4702 10.3007ZM25.4764 9.94755L25.4702 10.3007L26.0498 10.3117L26.056 9.95769L25.4764 9.94755ZM25.2164 9.94394C25.3654 9.97769 25.4832 10.0217 25.5592 10.0674L25.9731 9.83779C25.8225 9.74725 25.6245 9.67916 25.4187 9.63252L25.2164 9.94394ZM24.4487 9.50413L25.1103 9.90277L25.5247 9.6736L24.8632 9.27496L24.4487 9.50413ZM24.4324 9.49418L24.447 9.50306L24.8649 9.27594L24.8504 9.26706L24.4324 9.49418ZM23.3721 9.47682C23.6683 9.31252 24.1441 9.32082 24.4344 9.49535L24.8483 9.26579C24.3339 8.95662 23.4913 8.94189 22.9664 9.23291L23.3721 9.47682ZM23.3431 9.49379C23.3523 9.48804 23.362 9.48238 23.3721 9.47682L22.9664 9.23291C22.9488 9.24267 22.9319 9.25262 22.9155 9.26277L23.3431 9.49379Z" fill="#1D1D1B"/>
<path fill-rule="evenodd" clip-rule="evenodd" d="M23.1332 9.02767L21.4909 9.93918C21.4726 9.94797 21.4548 9.95714 21.4374 9.9668C21.0272 10.1942 21.0142 10.572 21.416 10.8135C21.4333 10.8239 21.4509 10.8338 21.4692 10.8434L22.2199 11.2947C22.2282 11.3 22.2366 11.3052 22.2453 11.3104C22.6472 11.552 23.3055 11.5635 23.7156 11.3361C23.7347 11.3255 23.7528 11.3147 23.7701 11.3035L25.4207 10.3894C25.4301 10.3846 25.4392 10.3797 25.4483 10.3746C25.8585 10.1472 25.8651 9.76699 25.4631 9.52543C25.4587 9.5227 25.4541 9.51997 25.4495 9.51733L24.6599 9.04153L24.6432 9.03128C24.2408 8.78943 23.5817 8.77782 23.171 9.00553C23.1581 9.01275 23.1454 9.02016 23.1332 9.02767Z" fill="white"/>
<path d="M21.4909 9.93913L21.6791 10.0686L21.6867 10.065L21.6938 10.061L21.4909 9.93913ZM23.1332 9.02762L23.3364 9.14967L23.3464 9.14352L23.1332 9.02762ZM21.4692 10.8433L21.6761 10.7286L21.6691 10.7243L21.6615 10.7203L21.4692 10.8433ZM22.2199 11.2946L22.434 11.1841L22.427 11.1798L22.2199 11.2946ZM23.7701 11.3034L23.5673 11.1815L23.5595 11.1858L23.5523 11.1905L23.7701 11.3034ZM25.4207 10.3894L25.2253 10.2633L25.218 10.2673L25.4207 10.3894ZM25.4495 9.51728L25.2423 9.63191L25.2463 9.63426L25.4495 9.51728ZM24.6599 9.04148L24.4507 9.15484L24.4527 9.15611L24.6599 9.04148ZM24.6433 9.03123L24.8525 8.91787L24.8503 8.9165L24.6433 9.03123ZM21.6938 10.061L23.3364 9.14967L22.9303 8.90577L21.2879 9.81718L21.6938 10.061ZM21.6402 10.0887C21.6529 10.0817 21.6658 10.0749 21.6791 10.0686L21.3027 9.80957C21.2794 9.82079 21.2567 9.8325 21.2346 9.84479L21.6402 10.0887ZM21.6231 10.6987C21.3354 10.5259 21.342 10.2541 21.6402 10.0887L21.2346 9.84479C20.7125 10.1343 20.6928 10.618 21.2091 10.9283L21.6231 10.6987ZM21.6615 10.7203C21.6484 10.7135 21.6355 10.7063 21.6231 10.6987L21.2091 10.9283C21.2311 10.9415 21.2536 10.9542 21.2768 10.9663L21.6615 10.7203ZM22.427 11.1798L21.6761 10.7286L21.2622 10.9581L22.013 11.4094L22.427 11.1798ZM22.4522 11.1956C22.446 11.1918 22.4399 11.188 22.434 11.1841L22.0061 11.4051C22.0166 11.4118 22.0274 11.4185 22.0383 11.4251L22.4522 11.1956ZM23.5128 11.2141C23.217 11.3782 22.7422 11.3699 22.4522 11.1956L22.0383 11.4251C22.5522 11.7341 23.3941 11.7488 23.9186 11.458L23.5128 11.2141ZM23.5523 11.1905C23.5398 11.1985 23.5267 11.2065 23.5128 11.2141L23.9186 11.458C23.9427 11.4445 23.9658 11.4306 23.9879 11.4164L23.5523 11.1905ZM25.218 10.2673L23.5673 11.1815L23.9728 11.4255L25.6234 10.5113L25.218 10.2673ZM25.2455 10.2527C25.2389 10.2563 25.232 10.2598 25.2253 10.2633L25.616 10.5153C25.6279 10.5092 25.6396 10.5029 25.6512 10.4965L25.2455 10.2527ZM25.2562 9.64011C25.5461 9.81435 25.5413 10.0886 25.2455 10.2527L25.6512 10.4965C26.1756 10.2058 26.1841 9.71952 25.6702 9.41055L25.2562 9.64011ZM25.2463 9.63426C25.2496 9.63621 25.2529 9.63816 25.2562 9.64011L25.6702 9.41055C25.6644 9.40713 25.6586 9.40372 25.6528 9.4003L25.2463 9.63426ZM24.4527 9.15611L25.2423 9.63191L25.6568 9.40274L24.8672 8.92684L24.4527 9.15611ZM24.434 9.1446L24.4507 9.15484L24.8692 8.92811L24.8525 8.91787L24.434 9.1446ZM23.3739 9.12743C23.6703 8.96313 24.1459 8.97143 24.4363 9.14596L24.8503 8.9165C24.3357 8.60723 23.4932 8.5925 22.9682 8.88362L23.3739 9.12743ZM23.3464 9.14352C23.3553 9.13806 23.3644 9.1327 23.3739 9.12743L22.9682 8.88362C22.9516 8.89279 22.9355 8.90216 22.9199 8.91182L23.3464 9.14352Z" fill="#1D1D1B"/>
<path fill-rule="evenodd" clip-rule="evenodd" d="M26.3416 11.7447L24.8118 12.5936C24.6195 12.6255 24.4469 12.6768 24.3241 12.7449L24.3183 13.104C24.3116 13.2571 24.4058 13.4128 24.6016 13.5348L25.444 14.0416C25.8465 14.2791 26.4999 14.289 26.9076 14.0629C26.9295 14.0508 26.9501 14.0382 26.9696 14.0253L28.5868 13.1297C28.6055 13.1208 28.6239 13.1114 28.6416 13.1014C28.846 12.9882 28.9502 12.837 28.9535 12.6838L28.9597 12.3301C28.8459 12.2617 28.6874 12.2055 28.5092 12.1652L27.8713 11.7809C27.8597 11.7731 27.8476 11.7655 27.8352 11.7581C27.4328 11.5162 26.7736 11.5047 26.363 11.7324C26.3557 11.7364 26.3486 11.7405 26.3416 11.7447Z" fill="#1D1D1B"/>
<path d="M24.8117 12.5936L24.8968 12.7546L24.9643 12.7434L25.0147 12.7154L24.8117 12.5936ZM26.3415 11.7446L26.5445 11.8665L26.5502 11.8631L26.3415 11.7446ZM24.324 12.7448L24.1212 12.6228L24.0354 12.6705L24.0342 12.7399L24.324 12.7448ZM24.3183 13.1039L24.608 13.1115V13.1089L24.3183 13.1039ZM24.6016 13.5347L24.8036 13.6572L25.0084 13.5445L24.8122 13.4223L24.6016 13.5347ZM24.6016 13.5347L24.3992 13.4126L24.1905 13.5273L24.3942 13.6498L24.6016 13.5347ZM25.4439 14.0416L25.2369 14.1563L25.4397 14.2783L25.6468 14.1634L25.4439 14.0416ZM25.4439 14.0416L25.6492 13.9255L25.4464 13.8058L25.2414 13.9194L25.4439 14.0416ZM26.9696 14.0253L26.767 13.9032L26.7579 13.9082L26.7497 13.9137L26.9696 14.0253ZM28.5868 13.1297L28.3991 13L28.3914 13.0037L28.3841 13.0077L28.5868 13.1297ZM28.9597 12.3301L29.2495 12.3351L29.2507 12.2658L29.1667 12.2152L28.9597 12.3301ZM28.5091 12.1652L28.3018 12.2798L28.3474 12.3072L28.4083 12.321L28.5091 12.1652ZM27.8713 11.7808L27.6542 11.8895L27.664 11.8954L27.8713 11.7808ZM25.0147 12.7154L26.5445 11.8665L26.1386 11.6226L24.6088 12.4717L25.0147 12.7154ZM24.5269 12.8667C24.6078 12.8218 24.7355 12.7814 24.8968 12.7546L24.7267 12.4325C24.5035 12.4696 24.2858 12.5316 24.1212 12.6228L24.5269 12.8667ZM24.608 13.1089L24.6138 12.7498L24.0342 12.7399L24.0285 13.099L24.608 13.1089ZM24.8122 13.4223C24.6712 13.3343 24.6032 13.2224 24.608 13.1115L24.0286 13.0963C24.02 13.2919 24.1405 13.4911 24.3909 13.6472L24.8122 13.4223ZM25.6509 13.9267L24.8081 13.4202L24.3942 13.6498L25.2369 14.1563L25.6509 13.9267ZM26.7047 13.9409C26.4106 14.104 25.9396 14.0968 25.6492 13.9255L25.2392 14.1573C25.754 14.461 26.589 14.4739 27.1104 14.1848L26.7047 13.9409ZM26.7497 13.9137C26.7356 13.923 26.7206 13.9321 26.7047 13.9409L27.1104 14.1848C27.1382 14.1694 27.1646 14.1534 27.1896 14.1369L26.7497 13.9137ZM28.3841 13.0077L26.767 13.9032L27.1723 14.1472L28.7895 13.2517L28.3841 13.0077ZM28.4388 12.9795C28.4258 12.9866 28.4125 12.9935 28.3991 13L28.7746 13.2593C28.7985 13.2479 28.8218 13.2359 28.8444 13.2233L28.4388 12.9795ZM28.6637 12.6782C28.6613 12.7889 28.5862 12.8978 28.4388 12.9795L28.8444 13.2233C29.1057 13.0785 29.239 12.8848 29.2433 12.6892L28.6637 12.6782ZM28.6699 12.325L28.6637 12.6782L29.2433 12.6892L29.2495 12.3351L28.6699 12.325ZM28.4083 12.321C28.558 12.3548 28.6764 12.3989 28.7527 12.4448L29.1667 12.2152C29.0155 12.1244 28.8166 12.0561 28.6099 12.0094L28.4083 12.321ZM27.664 11.8954L28.3018 12.2798L28.7163 12.0506L28.0785 11.6663L27.664 11.8954ZM27.6281 11.8728C27.6372 11.8783 27.6458 11.8838 27.6542 11.8895L28.0881 11.6723C28.0733 11.6625 28.0579 11.6528 28.0421 11.6432L27.6281 11.8728ZM26.5658 11.8543C26.8621 11.69 27.3378 11.6983 27.6281 11.8728L28.0421 11.6432C27.5277 11.3341 26.685 11.3193 26.1601 11.6104L26.5658 11.8543ZM26.5502 11.8631C26.5554 11.8601 26.5605 11.8572 26.5658 11.8543L26.1601 11.6104C26.1509 11.6155 26.1418 11.6207 26.1328 11.626L26.5502 11.8631Z" fill="#1D1D1B"/>
<path fill-rule="evenodd" clip-rule="evenodd" d="M27.8383 11.4085C27.4359 11.1666 26.7763 11.1548 26.3657 11.3825C26.3482 11.3922 26.3315 11.4021 26.3154 11.4124L24.6788 12.3207C24.6639 12.3281 24.6491 12.3358 24.6348 12.3437C24.2246 12.5711 24.2116 12.9489 24.6134 13.1904C24.6276 13.1989 24.642 13.2071 24.6566 13.215L25.4135 13.6699C25.4221 13.6755 25.4309 13.681 25.4399 13.6864C25.8418 13.928 26.5001 13.9395 26.9103 13.7121C26.9198 13.7068 26.9289 13.7016 26.938 13.6962L28.6202 12.7645C28.6284 12.7603 28.6364 12.756 28.6443 12.7516C29.0517 12.5257 29.061 12.1493 28.6676 11.9074L28.666 11.9064C28.6638 11.9051 28.6614 11.9037 28.6592 11.9023C28.6575 11.9014 28.6559 11.9004 28.6543 11.8994L27.8383 11.4085Z" fill="white"/>
<path d="M27.838 11.4082L27.6314 11.5231L27.8333 11.6447L28.0403 11.5308L27.838 11.4082ZM26.3155 11.4124L26.5184 11.5343L26.5255 11.5303L26.5321 11.5261L26.3155 11.4124ZM24.6789 12.3207L24.8699 12.4492L24.8818 12.4426L24.6789 12.3207ZM24.6567 13.215L24.864 13.1001L24.8518 13.0935L24.6567 13.215ZM25.4136 13.6699L25.6279 13.5596L25.6205 13.5552L25.4136 13.6699ZM26.9381 13.6962L26.7353 13.574L26.7277 13.5786L26.9381 13.6962ZM28.6203 12.7645L28.424 12.639L28.4177 12.6425L28.6203 12.7645ZM28.6677 11.9074L28.4648 11.7855L28.2601 11.8989L28.4584 12.0208L28.6677 11.9074ZM28.6677 11.9074L28.8705 12.0294L29.0772 11.9147L28.8749 11.7928L28.6677 11.9074ZM28.6661 11.9064L28.4572 12.0201L28.4584 12.0208L28.6661 11.9064ZM28.6544 11.8994L28.4471 12.0139L28.4487 12.0149L28.6544 11.8994ZM27.8391 11.4081L28.0463 11.2935L27.8443 11.1718L27.6371 11.2856L27.8391 11.4081ZM27.6314 11.5231L28.0463 11.2935H28.045L27.6314 11.5231ZM26.5686 11.5044C26.8649 11.3401 27.3409 11.3485 27.6314 11.5231L28.045 11.2935C27.5306 10.9842 26.6878 10.9695 26.163 11.2606L26.5686 11.5044ZM26.5321 11.5261C26.5438 11.5187 26.5559 11.5115 26.5686 11.5044L26.163 11.2606C26.1406 11.2729 26.1193 11.2856 26.0988 11.2987L26.5321 11.5261ZM24.8818 12.4426L26.5184 11.5343L26.1125 11.2905L24.4759 12.1988L24.8818 12.4426ZM24.8377 12.4656C24.8481 12.4599 24.8591 12.4545 24.8699 12.4492L24.488 12.1925C24.469 12.2018 24.4503 12.2117 24.432 12.2217L24.8377 12.4656ZM24.8205 13.0757C24.533 12.9029 24.5395 12.631 24.8377 12.4656L24.432 12.2217C23.9101 12.5112 23.8903 12.9949 24.4066 13.3053L24.8205 13.0757ZM24.8518 13.0935C24.8412 13.0878 24.8308 13.0818 24.8205 13.0757L24.4066 13.3053C24.4245 13.316 24.4429 13.3264 24.4617 13.3366L24.8518 13.0935ZM25.6205 13.5552L24.864 13.1001L24.4498 13.3298L25.2066 13.7847L25.6205 13.5552ZM25.647 13.5716C25.6404 13.5677 25.6342 13.5636 25.6279 13.5596L25.1994 13.7802C25.2103 13.7873 25.2215 13.7942 25.233 13.8012L25.647 13.5716ZM26.7076 13.5901C26.4118 13.7542 25.9368 13.7459 25.647 13.5716L25.233 13.8012C25.747 14.1101 26.5888 14.1248 27.1132 13.834L26.7076 13.5901ZM26.7277 13.5786C26.7211 13.5825 26.7144 13.5863 26.7076 13.5901L27.1132 13.834C27.1252 13.8273 27.137 13.8206 27.1485 13.8136L26.7277 13.5786ZM28.4177 12.6425L26.7353 13.574L27.1408 13.8181L28.8231 12.8865L28.4177 12.6425ZM28.4416 12.6296C28.4358 12.6329 28.4299 12.636 28.424 12.639L28.8166 12.8899C28.827 12.8846 28.8372 12.8791 28.8473 12.8735L28.4416 12.6296ZM28.4584 12.0208C28.7421 12.1952 28.7354 12.4667 28.4416 12.6296L28.8473 12.8735C29.368 12.5847 29.38 12.1033 28.8768 11.794L28.4584 12.0208ZM28.4584 12.0208L28.4604 12.022L28.8749 11.7928L28.8733 11.7919L28.4584 12.0208ZM28.4523 12.0171C28.454 12.0181 28.4557 12.0191 28.4572 12.0201L28.8749 11.7928C28.8719 11.791 28.8691 11.7894 28.8662 11.7876L28.4523 12.0171ZM28.4487 12.0149C28.4499 12.0157 28.4511 12.0164 28.4523 12.0171L28.8662 11.7876C28.8641 11.7863 28.8621 11.7851 28.8599 11.7838L28.4487 12.0149ZM27.6314 11.5231L28.4471 12.0139L28.8616 11.7848L28.0463 11.2935L27.6314 11.5231Z" fill="#1D1D1B"/>
<path fill-rule="evenodd" clip-rule="evenodd" d="M29.5749 14.124L28.0442 14.9734C27.8523 15.0053 27.6801 15.0565 27.5575 15.1245L27.5518 15.4837C27.5451 15.6371 27.6398 15.7931 27.8363 15.9153L28.6427 16.4002C28.6513 16.4057 28.66 16.4112 28.6691 16.4166C29.0711 16.6582 29.7294 16.6697 30.1396 16.4423C30.1585 16.4318 30.1766 16.4208 30.1939 16.4097L31.8187 15.5099C31.838 15.5007 31.8568 15.491 31.8752 15.4808C32.0796 15.3676 32.1838 15.2163 32.1871 15.0632L32.1933 14.7095C32.0795 14.641 31.9207 14.5848 31.7424 14.5446L31.1038 14.1598C31.0923 14.1522 31.0806 14.1447 31.0685 14.1375C30.6661 13.8956 30.007 13.8841 29.5963 14.1118C29.589 14.1158 29.5819 14.1199 29.5749 14.124Z" fill="#1D1D1B"/>
<path d="M28.0442 14.9734L28.1294 15.1343L28.1969 15.1232L28.2471 15.0953L28.0442 14.9734ZM29.5748 14.1239L29.7778 14.2458L29.7835 14.2425L29.5748 14.1239ZM27.5574 15.1245L27.3546 15.0025L27.2688 15.0501L27.2677 15.1196L27.5574 15.1245ZM27.5518 15.4836L27.8415 15.4912V15.4886L27.5518 15.4836ZM27.8363 15.9152L28.0382 16.0376L28.2434 15.9248L28.0466 15.8024L27.8363 15.9152ZM27.8363 15.9152L27.6341 15.7929L27.4253 15.9076L27.629 16.03L27.8363 15.9152ZM28.6426 16.4001L28.857 16.2897L28.8496 16.2854L28.6426 16.4001ZM30.1938 16.4097L29.9912 16.2877L29.9833 16.292L29.9761 16.2967L30.1938 16.4097ZM31.8186 15.5098L31.6313 15.38L31.6234 15.3838L31.6159 15.3879L31.8186 15.5098ZM32.1932 14.7095L32.483 14.7145L32.4842 14.6452L32.4002 14.5946L32.1932 14.7095ZM31.7423 14.5446L31.5351 14.6591L31.5807 14.6865L31.6416 14.7003L31.7423 14.5446ZM31.1037 14.1597L30.8868 14.2685L30.8965 14.2742L31.1037 14.1597ZM28.2471 15.0953L29.7778 14.2458L29.3719 14.002L27.8412 14.8515L28.2471 15.0953ZM27.7603 15.2464C27.8411 15.2016 27.9685 15.1612 28.1294 15.1343L27.9589 14.8124C27.7362 14.8495 27.519 14.9114 27.3546 15.0025L27.7603 15.2464ZM27.8415 15.4886L27.8473 15.1294L27.2677 15.1196L27.262 15.4787L27.8415 15.4886ZM28.0466 15.8024C27.9049 15.7144 27.8367 15.6022 27.8415 15.4912L27.262 15.476C27.2534 15.672 27.3744 15.8717 27.6259 16.0279L28.0466 15.8024ZM28.8496 16.2854L28.043 15.8005L27.629 16.03L28.4357 16.5148L28.8496 16.2854ZM28.876 16.3017C28.8694 16.2978 28.8632 16.2937 28.857 16.2897L28.4285 16.5103C28.4394 16.5175 28.4506 16.5244 28.462 16.5313L28.876 16.3017ZM29.9366 16.3203C29.6408 16.4844 29.1659 16.476 28.876 16.3017L28.462 16.5313C28.9761 16.8403 29.8178 16.8549 30.3423 16.5642L29.9366 16.3203ZM29.9761 16.2967C29.9636 16.3048 29.9504 16.3127 29.9366 16.3203L30.3423 16.5642C30.3665 16.5507 30.3896 16.5369 30.4117 16.5226L29.9761 16.2967ZM31.6159 15.3879L29.9912 16.2877L30.3966 16.5316L32.0213 15.6319L31.6159 15.3879ZM31.6723 15.3588C31.6589 15.3662 31.6452 15.3733 31.6313 15.38L32.0059 15.6398C32.0306 15.628 32.0546 15.6157 32.0779 15.6027L31.6723 15.3588ZM31.8972 15.0576C31.8948 15.1683 31.8198 15.2771 31.6723 15.3588L32.0779 15.6027C32.3392 15.4578 32.4725 15.2642 32.4768 15.0686L31.8972 15.0576ZM31.9034 14.7044L31.8972 15.0576L32.4768 15.0686L32.483 14.7145L31.9034 14.7044ZM31.6416 14.7003C31.7914 14.7341 31.9098 14.7782 31.9862 14.8242L32.4002 14.5946C32.2489 14.5037 32.0499 14.4354 31.8431 14.3888L31.6416 14.7003ZM30.8965 14.2742L31.5351 14.6591L31.9496 14.4299L31.3109 14.0451L30.8965 14.2742ZM30.8614 14.2522C30.8703 14.2575 30.8785 14.263 30.8868 14.2685L31.3204 14.051C31.3058 14.0414 31.2908 14.0319 31.2754 14.0226L30.8614 14.2522ZM29.7991 14.2337C30.0954 14.0694 30.571 14.0777 30.8614 14.2522L31.2754 14.0226C30.7609 13.7135 29.9183 13.6987 29.3934 13.9897L29.7991 14.2337ZM29.7835 14.2425C29.7886 14.2395 29.7938 14.2366 29.7991 14.2337L29.3934 13.9897C29.3842 13.9949 29.375 14.0001 29.3661 14.0054L29.7835 14.2425Z" fill="#1D1D1B"/>
<path fill-rule="evenodd" clip-rule="evenodd" d="M29.5584 13.7861L27.9206 14.695C27.9014 14.7042 27.8827 14.7138 27.8646 14.7239C27.4544 14.9513 27.4412 15.3291 27.8432 15.5706C27.8614 15.5816 27.8802 15.5921 27.8995 15.6021L28.6447 16.0501C28.6533 16.0556 28.6621 16.0611 28.6712 16.0665C29.0731 16.3081 29.7315 16.3196 30.1416 16.0922C30.151 16.087 30.1603 16.0817 30.1692 16.0763L31.8483 15.1464C31.8576 15.1417 31.8668 15.1368 31.8759 15.1317C32.286 14.9043 32.2926 14.5241 31.8907 14.2824C31.8862 14.2798 31.8816 14.2771 31.877 14.2744L31.0803 13.7943L31.0706 13.7884C30.6682 13.5464 30.009 13.5349 29.5984 13.7626C29.5846 13.7703 29.5713 13.7781 29.5584 13.7861Z" fill="white"/>
<path d="M27.9206 14.695L28.1082 14.8248L28.1162 14.821L28.1236 14.8168L27.9206 14.695ZM29.5585 13.786L29.7617 13.908L29.7724 13.9015L29.5585 13.786ZM27.8996 15.602L28.1065 15.4873L28.099 15.4828L28.091 15.4786L27.8996 15.602ZM28.6448 16.05L28.8592 15.9397L28.8519 15.9353L28.6448 16.05ZM30.1693 16.0762L29.9665 15.9542L29.959 15.9587L30.1693 16.0762ZM31.8484 15.1464L31.6529 15.0203L31.6456 15.0244L31.8484 15.1464ZM31.8771 14.2744L31.6699 14.389L31.6739 14.3914L31.8771 14.2744ZM31.0804 13.7942L30.8721 13.9081L30.8731 13.9088L31.0804 13.7942ZM31.0707 13.7883L31.279 13.6743L31.2776 13.6735L31.0707 13.7883ZM28.1236 14.8168L29.7617 13.908L29.3556 13.6641L27.7177 14.573L28.1236 14.8168ZM28.0675 14.8457C28.0807 14.8384 28.0943 14.8315 28.1082 14.8248L27.7332 14.5651C27.7088 14.5767 27.6849 14.589 27.6618 14.6019L28.0675 14.8457ZM28.0503 15.4558C27.7627 15.283 27.7692 15.0111 28.0675 14.8457L27.6618 14.6019C27.1398 14.8914 27.1201 15.375 27.6364 15.6853L28.0503 15.4558ZM28.091 15.4786C28.0771 15.4714 28.0635 15.4637 28.0503 15.4558L27.6364 15.6853C27.6596 15.6993 27.6835 15.7126 27.7081 15.7254L28.091 15.4786ZM28.8519 15.9353L28.1065 15.4873L27.6925 15.7168L28.4379 16.1648L28.8519 15.9353ZM28.8782 15.9518C28.8717 15.9478 28.8654 15.9438 28.8592 15.9397L28.4307 16.1603C28.4416 16.1674 28.4528 16.1744 28.4643 16.1812L28.8782 15.9518ZM29.9389 15.9703C29.643 16.1343 29.1682 16.126 28.8782 15.9518L28.4643 16.1812C28.9783 16.4902 29.8201 16.5049 30.3445 16.2141L29.9389 15.9703ZM29.959 15.9587C29.9525 15.9626 29.9457 15.9665 29.9389 15.9703L30.3445 16.2141C30.3565 16.2075 30.3683 16.2006 30.3798 16.1938L29.959 15.9587ZM31.6456 15.0244L29.9665 15.9542L30.3721 16.1982L32.0511 15.2684L31.6456 15.0244ZM31.6731 15.0097C31.6665 15.0134 31.6598 15.0169 31.6529 15.0203L32.0437 15.2724C32.0555 15.2663 32.0673 15.26 32.0788 15.2536L31.6731 15.0097ZM31.6838 14.3972C31.9737 14.5715 31.9689 14.8457 31.6731 15.0097L32.0788 15.2536C32.6033 14.9628 32.6118 14.4766 32.0977 14.1677L31.6838 14.3972ZM31.6739 14.3914C31.6772 14.3932 31.6805 14.3952 31.6838 14.3972L32.0977 14.1677C32.092 14.1642 32.0862 14.1608 32.0804 14.1574L31.6739 14.3914ZM30.8731 13.9088L31.6699 14.389L32.0844 14.1598L31.2877 13.6797L30.8731 13.9088ZM30.8624 13.9023L30.8721 13.9081L31.2886 13.6802L31.279 13.6743L30.8624 13.9023ZM29.8013 13.8845C30.0976 13.7201 30.5733 13.7285 30.8637 13.9031L31.2776 13.6735C30.7632 13.3643 29.9205 13.3496 29.3957 13.6406L29.8013 13.8845ZM29.7724 13.9015C29.7816 13.8958 29.7913 13.8901 29.8013 13.8845L29.3957 13.6406C29.3781 13.6504 29.3611 13.6603 29.3447 13.6705L29.7724 13.9015Z" fill="#1D1D1B"/>
<path fill-rule="evenodd" clip-rule="evenodd" d="M18.8174 11.8087L17.3177 12.641C17.1247 12.6729 16.9516 12.7242 16.8284 12.7925L16.8226 13.1516C16.8158 13.3083 16.9145 13.4675 17.1195 13.5908C17.1323 13.5985 17.1453 13.606 17.1586 13.6132L17.8983 14.0578C17.9118 14.0669 17.9258 14.0758 17.9404 14.0846C18.3424 14.3262 19.0006 14.3377 19.4108 14.1103C19.4265 14.1016 19.4416 14.0927 19.4561 14.0835L21.1011 13.1725C21.1165 13.165 21.1317 13.1571 21.1465 13.1488C21.3509 13.0355 21.455 12.8843 21.4584 12.7311L21.4645 12.3775C21.3513 12.3094 21.1935 12.2534 21.0162 12.2131L20.3395 11.8054L20.3384 11.8055C19.936 11.5635 19.2768 11.552 18.8662 11.7797C18.8493 11.7891 18.833 11.7988 18.8174 11.8087Z" fill="#1D1D1B"/>
<path d="M17.3178 12.6409L17.4026 12.802L17.4703 12.7909L17.5207 12.7628L17.3178 12.6409ZM18.8175 11.8086L19.0204 11.9305L19.0274 11.9267L19.0338 11.9226L18.8175 11.8086ZM16.8284 12.7924L16.6256 12.6706L16.5398 12.7182L16.5387 12.7876L16.8284 12.7924ZM16.8227 13.1516L17.1124 13.1592L17.1125 13.1565L16.8227 13.1516ZM17.1587 13.6131L17.3659 13.4982L17.3549 13.4921L17.1587 13.6131ZM17.8984 14.0577L18.1169 13.9503L18.1114 13.9465L18.1054 13.943L17.8984 14.0577ZM19.4561 14.0835L19.2535 13.9615L19.247 13.965L19.2409 13.9689L19.4561 14.0835ZM21.1012 13.1724L20.9105 13.0439L20.8985 13.0505L21.1012 13.1724ZM21.4646 12.3774L21.7545 12.3825L21.7557 12.3131L21.6717 12.2627L21.4646 12.3774ZM21.0162 12.213L20.809 12.3277L20.8544 12.355L20.9151 12.3687L21.0162 12.213ZM20.3396 11.8053L20.5468 11.6907L20.3448 11.5689L20.1376 11.6829L20.3396 11.8053ZM20.3396 11.8053L20.1319 11.9203L20.3338 12.0419L20.5409 11.928L20.3396 11.8053ZM17.5207 12.7628L19.0204 11.9305L18.6146 11.6868L17.1149 12.5191L17.5207 12.7628ZM17.0313 12.9144C17.1125 12.8693 17.2406 12.8287 17.4026 12.802L17.233 12.4799C17.0091 12.5168 16.7907 12.579 16.6256 12.6706L17.0313 12.9144ZM17.1125 13.1565L17.1182 12.7974L16.5387 12.7876L16.5329 13.1467L17.1125 13.1565ZM17.3265 13.476C17.1786 13.3871 17.1075 13.2725 17.1124 13.1592L16.533 13.144C16.5242 13.344 16.6505 13.548 16.9125 13.7055L17.3265 13.476ZM17.3549 13.4921C17.3453 13.487 17.3358 13.4815 17.3265 13.476L16.9125 13.7055C16.9288 13.7153 16.9455 13.7247 16.9625 13.734L17.3549 13.4921ZM18.1054 13.943L17.3659 13.4982L16.9517 13.7279L17.6915 14.1724L18.1054 13.943ZM18.1475 13.9697C18.1368 13.9634 18.1267 13.9569 18.1169 13.9503L17.6798 14.1651C17.6971 14.1767 17.715 14.1881 17.7335 14.1993L18.1475 13.9697ZM19.208 13.9882C18.9122 14.1523 18.4374 14.144 18.1475 13.9697L17.7335 14.1993C18.2475 14.5082 19.0893 14.523 19.6137 14.2321L19.208 13.9882ZM19.2409 13.9689C19.2304 13.9755 19.2195 13.982 19.208 13.9882L19.6137 14.2321C19.6337 14.221 19.6529 14.2097 19.6715 14.198L19.2409 13.9689ZM20.8985 13.0505L19.2535 13.9615L19.6589 14.2054L21.3039 13.2945L20.8985 13.0505ZM20.9438 13.0269C20.9329 13.0328 20.9217 13.0384 20.9105 13.0439L21.2916 13.3009C21.3113 13.2912 21.3306 13.2811 21.3494 13.2707L20.9438 13.0269ZM21.1687 12.7256C21.1663 12.8362 21.0912 12.9451 20.9438 13.0269L21.3494 13.2707C21.6107 13.1258 21.7439 12.9321 21.7482 12.7365L21.1687 12.7256ZM21.1749 12.3723L21.1687 12.7256L21.7482 12.7365L21.7545 12.3825L21.1749 12.3723ZM20.9151 12.3687C21.0639 12.4026 21.1817 12.4465 21.2577 12.4921L21.6717 12.2627C21.521 12.1721 21.3233 12.104 21.1174 12.0574L20.9151 12.3687ZM20.1319 11.9203L20.809 12.3277L21.2235 12.0985L20.5468 11.6907L20.1319 11.9203ZM20.1319 11.9203L20.5468 11.6907H20.5456L20.1319 11.9203ZM19.0691 11.9016C19.3655 11.7373 19.8414 11.7458 20.1319 11.9203L20.5456 11.6907C20.0311 11.3814 19.1884 11.3667 18.6635 11.6577L19.0691 11.9016ZM19.0338 11.9226C19.045 11.9155 19.0568 11.9084 19.0691 11.9016L18.6635 11.6577C18.6419 11.6697 18.6212 11.682 18.6013 11.6947L19.0338 11.9226Z" fill="#1D1D1B"/>
<path fill-rule="evenodd" clip-rule="evenodd" d="M20.3417 11.4561C19.9393 11.2142 19.2798 11.2024 18.8691 11.4301C18.8516 11.4398 18.8348 11.4498 18.8188 11.4601L17.1793 12.3699C17.1655 12.3768 17.1519 12.384 17.1385 12.3913C16.7285 12.6187 16.7153 12.9965 17.1172 13.2381C17.1303 13.2459 17.1436 13.2535 17.1572 13.261L17.9205 13.7197C17.928 13.7246 17.9357 13.7294 17.9435 13.734C18.3455 13.9756 19.0038 13.9871 19.4139 13.7597C19.4244 13.7539 19.4345 13.7481 19.4444 13.7421L21.1204 12.8139C21.1297 12.8092 21.1389 12.8043 21.148 12.7992C21.5581 12.5718 21.5648 12.1916 21.1628 11.9499C21.1583 11.9472 21.1537 11.9446 21.1491 11.9419L20.3417 11.4561Z" fill="white"/>
<path d="M20.3414 11.4558L20.1347 11.5708L20.3367 11.6922L20.5437 11.5785L20.3414 11.4558ZM18.8188 11.46L19.0218 11.5819L19.0289 11.5779L19.0355 11.5737L18.8188 11.46ZM17.1793 12.3699L17.3713 12.4979L17.3822 12.4918L17.1793 12.3699ZM17.1573 13.2609L17.3645 13.146L17.3532 13.1399L17.1573 13.2609ZM17.9205 13.7197L18.1339 13.6088L18.1275 13.6049L17.9205 13.7197ZM19.4444 13.7421L19.2415 13.6199L19.2333 13.625L19.4444 13.7421ZM21.1204 12.8139L20.925 12.6879L20.9178 12.6919L21.1204 12.8139ZM21.1492 11.9419L20.9419 12.0565L20.946 12.0589L21.1492 11.9419ZM20.3424 11.4557L20.5497 11.3411L20.3477 11.2194L20.1405 11.3333L20.3424 11.4557ZM20.1347 11.5708L20.5497 11.3411H20.5484L20.1347 11.5708ZM19.072 11.5519C19.3683 11.3877 19.8444 11.3962 20.1347 11.5708L20.5484 11.3411C20.0339 11.0319 19.1912 11.0171 18.6663 11.3081L19.072 11.5519ZM19.0355 11.5737C19.0471 11.5663 19.0592 11.5591 19.072 11.5519L18.6663 11.3081C18.644 11.3205 18.6226 11.3332 18.6021 11.3463L19.0355 11.5737ZM17.3822 12.4918L19.0218 11.5819L18.6159 11.3381L16.9764 12.248L17.3822 12.4918ZM17.3414 12.5132C17.3511 12.5079 17.3613 12.5029 17.3713 12.4979L16.9877 12.2421C16.97 12.2509 16.9527 12.2599 16.9357 12.2694L17.3414 12.5132ZM17.3242 13.1233C17.0367 12.9505 17.0432 12.6786 17.3414 12.5132L16.9357 12.2694C16.4138 12.5589 16.3939 13.0425 16.9102 13.3528L17.3242 13.1233ZM17.3532 13.1399C17.3433 13.1345 17.3337 13.129 17.3242 13.1233L16.9102 13.3528C16.9269 13.3629 16.9439 13.3725 16.9613 13.3819L17.3532 13.1399ZM18.1275 13.6049L17.3645 13.146L16.9502 13.3757L17.7136 13.8345L18.1275 13.6049ZM18.1505 13.6193C18.1448 13.6158 18.1393 13.6123 18.1339 13.6088L17.7072 13.8306C17.7168 13.8367 17.7266 13.8428 17.7366 13.8487L18.1505 13.6193ZM19.2111 13.6377C18.9153 13.8018 18.4405 13.7935 18.1505 13.6193L17.7366 13.8487C18.2505 14.1577 19.0924 14.1724 19.6168 13.8816L19.2111 13.6377ZM19.2333 13.625C19.226 13.6293 19.2187 13.6336 19.2111 13.6377L19.6168 13.8816C19.63 13.8743 19.643 13.8668 19.6556 13.8592L19.2333 13.625ZM20.9178 12.6919L19.2415 13.6199L19.6471 13.864L21.3231 12.9359L20.9178 12.6919ZM20.9452 12.6772C20.9386 12.6809 20.9317 12.6843 20.925 12.6879L21.3157 12.9399C21.3276 12.9338 21.3393 12.9275 21.3509 12.9211L20.9452 12.6772ZM20.9559 12.0647C21.2459 12.239 21.2411 12.5132 20.9452 12.6772L21.3509 12.9211C21.8753 12.6303 21.8838 12.1441 21.3699 11.8352L20.9559 12.0647ZM20.946 12.0589C20.9493 12.0607 20.9526 12.0627 20.9559 12.0647L21.3699 11.8352C21.3641 11.8317 21.3582 11.8282 21.3525 11.8249L20.946 12.0589ZM20.1347 11.5708L20.9419 12.0565L21.3565 11.8273L20.5497 11.3411L20.1347 11.5708Z" fill="#1D1D1B"/>
<path fill-rule="evenodd" clip-rule="evenodd" d="M22.0386 14.169L20.5083 15.0182C20.3162 15.0501 20.1438 15.1014 20.021 15.1694L20.0153 15.5285C20.0086 15.6821 20.1033 15.8381 20.3 15.9602L21.1064 16.4451C21.1151 16.4506 21.1238 16.4561 21.1328 16.4616C21.5348 16.7031 22.1931 16.7146 22.6033 16.4872C22.6223 16.4767 22.6404 16.4659 22.6577 16.4546L24.2824 15.5548C24.3017 15.5457 24.3205 15.536 24.3389 15.5258C24.5433 15.4125 24.6474 15.2612 24.6509 15.1081L24.657 14.7544C24.5432 14.686 24.3845 14.6298 24.2062 14.5896L23.5674 14.2047C23.5561 14.1971 23.5443 14.1897 23.5322 14.1824C23.1298 13.9405 22.4707 13.929 22.06 14.1567C22.0527 14.1607 22.0456 14.1648 22.0386 14.169Z" fill="#1D1D1B"/>
<path d="M20.5083 15.0182L20.5934 15.1792L20.6608 15.1679L20.7112 15.14L20.5083 15.0182ZM22.0385 14.1689L22.2415 14.2908L22.2472 14.2875L22.0385 14.1689ZM20.0209 15.1693L19.8181 15.0475L19.7323 15.095L19.7312 15.1644L20.0209 15.1693ZM20.0153 15.5284L20.305 15.536V15.5334L20.0153 15.5284ZM20.3 15.9601L20.5019 16.0825L20.7071 15.9697L20.5102 15.8474L20.3 15.9601ZM20.3 15.9601L20.0978 15.8378L19.8891 15.9525L20.0928 16.075L20.3 15.9601ZM21.1063 16.445L21.3206 16.3347L21.3133 16.3303L21.1063 16.445ZM22.6576 16.4546L22.4549 16.3326L22.447 16.3369L22.4398 16.3416L22.6576 16.4546ZM24.2823 15.5548L24.095 15.4249L24.0871 15.4287L24.0797 15.4328L24.2823 15.5548ZM24.6569 14.7544L24.9467 14.7595L24.9479 14.6901L24.8639 14.6396L24.6569 14.7544ZM24.2061 14.5895L23.9989 14.704L24.0444 14.7315L24.1053 14.7452L24.2061 14.5895ZM23.5674 14.2046L23.3505 14.3134L23.3602 14.3192L23.5674 14.2046ZM20.7112 15.14L22.2415 14.2908L21.8356 14.047L20.3053 14.8962L20.7112 15.14ZM20.2239 15.2913C20.3047 15.2464 20.4322 15.2059 20.5934 15.1792L20.423 14.8571C20.2001 14.8942 19.9827 14.9561 19.8181 15.0475L20.2239 15.2913ZM20.305 15.5334L20.3108 15.1743L19.7312 15.1644L19.7255 15.5235L20.305 15.5334ZM20.5102 15.8474C20.3685 15.7594 20.3003 15.6471 20.305 15.536L19.7255 15.5208C19.7169 15.7168 19.838 15.9166 20.0896 16.0728L20.5102 15.8474ZM21.3133 16.3303L20.5068 15.8454L20.0928 16.075L20.8994 16.5597L21.3133 16.3303ZM21.3397 16.3467C21.3331 16.3428 21.3269 16.3387 21.3206 16.3347L20.8922 16.5553C20.9031 16.5624 20.9143 16.5693 20.9258 16.5762L21.3397 16.3467ZM22.4004 16.3652C22.1045 16.5293 21.6296 16.521 21.3397 16.3467L20.9258 16.5762C21.4398 16.8852 22.2815 16.8998 22.806 16.6091L22.4004 16.3652ZM22.4398 16.3416C22.4273 16.3497 22.4141 16.3576 22.4004 16.3652L22.806 16.6091C22.8302 16.5956 22.8533 16.5818 22.8754 16.5676L22.4398 16.3416ZM24.0797 15.4328L22.4549 16.3326L22.8603 16.5766L24.485 15.6768L24.0797 15.4328ZM24.136 15.4038C24.1227 15.4112 24.1089 15.4182 24.095 15.4249L24.4696 15.6847C24.4943 15.6729 24.5183 15.6606 24.5417 15.6476L24.136 15.4038ZM24.3609 15.1025C24.3585 15.2132 24.2835 15.322 24.136 15.4038L24.5417 15.6476C24.8029 15.5028 24.9363 15.3091 24.9405 15.1135L24.3609 15.1025ZM24.3672 14.7493L24.3609 15.1025L24.9405 15.1135L24.9467 14.7595L24.3672 14.7493ZM24.1053 14.7452C24.2552 14.7791 24.3736 14.8233 24.4499 14.8691L24.8639 14.6396C24.7126 14.5486 24.5137 14.4803 24.3068 14.4337L24.1053 14.7452ZM23.3602 14.3192L23.9989 14.704L24.4133 14.4749L23.7747 14.09L23.3602 14.3192ZM23.3251 14.2971C23.334 14.3024 23.3422 14.3079 23.3505 14.3134L23.7841 14.0959C23.7695 14.0863 23.7546 14.0768 23.7391 14.0676L23.3251 14.2971ZM22.2628 14.2786C22.5591 14.1143 23.0348 14.1226 23.3251 14.2971L23.7391 14.0676C23.2246 13.7584 22.382 13.7436 21.8571 14.0347L22.2628 14.2786ZM22.2472 14.2875C22.2524 14.2844 22.2575 14.2815 22.2628 14.2786L21.8571 14.0347C21.8479 14.0398 21.8388 14.045 21.8298 14.0503L22.2472 14.2875Z" fill="#1D1D1B"/>
<path fill-rule="evenodd" clip-rule="evenodd" d="M23.5336 13.833C23.1312 13.5911 22.4716 13.5794 22.061 13.8071C22.0435 13.8168 22.0267 13.8268 22.0107 13.837L20.374 14.7453C20.3591 14.7527 20.3445 14.7603 20.3301 14.7683C19.92 14.9958 19.9068 15.3735 20.3088 15.6151C20.3228 15.6236 20.3372 15.6318 20.352 15.6397L21.1088 16.0946C21.1173 16.1001 21.1261 16.1056 21.1352 16.111C21.5372 16.3526 22.1955 16.3641 22.6056 16.1366C22.615 16.1315 22.6243 16.1261 22.6333 16.1207L24.3156 15.1891C24.3237 15.1849 24.3317 15.1805 24.3397 15.1761C24.7469 14.9503 24.7563 14.5738 24.3628 14.332L24.3613 14.3311C24.359 14.3297 24.3568 14.3283 24.3544 14.3269C24.3529 14.3259 24.3512 14.3249 24.3495 14.324L23.5336 13.833Z" fill="white"/>
<path d="M23.5332 13.8328L23.3266 13.9477L23.5286 14.0693L23.7356 13.9554L23.5332 13.8328ZM22.0107 13.837L22.2137 13.9588L22.2207 13.9549L22.2273 13.9506L22.0107 13.837ZM20.3741 14.7453L20.5652 14.8736L20.577 14.8671L20.3741 14.7453ZM20.352 15.6396L20.5593 15.5247L20.547 15.518L20.352 15.6396ZM21.1088 16.0945L21.3231 15.9842L21.3158 15.9797L21.1088 16.0945ZM22.6333 16.1207L22.4305 15.9986L22.4229 16.0031L22.6333 16.1207ZM24.3156 15.1891L24.1192 15.0635L24.1129 15.067L24.3156 15.1891ZM24.3628 14.3319L24.16 14.21L23.9553 14.3235L24.1536 14.4454L24.3628 14.3319ZM24.3628 14.3319L24.5657 14.4538L24.7724 14.3392L24.5701 14.2174L24.3628 14.3319ZM24.3613 14.331L24.1525 14.4447L24.1536 14.4454L24.3613 14.331ZM24.3496 14.3239L24.1424 14.4385L24.144 14.4395L24.3496 14.3239ZM23.5344 13.8326L23.7416 13.718L23.5395 13.5963L23.3323 13.7102L23.5344 13.8326ZM23.3266 13.9477L23.7416 13.718H23.7403L23.3266 13.9477ZM22.2639 13.929C22.5602 13.7647 23.0361 13.7732 23.3266 13.9477L23.7403 13.718C23.2259 13.4089 22.3831 13.394 21.8582 13.6851L22.2639 13.929ZM22.2273 13.9506C22.2389 13.9432 22.2511 13.936 22.2639 13.929L21.8582 13.6851C21.8359 13.6975 21.8146 13.7101 21.7941 13.7232L22.2273 13.9506ZM20.577 14.8671L22.2137 13.9588L21.8078 13.7151L20.1711 14.6234L20.577 14.8671ZM20.533 14.8901C20.5434 14.8844 20.5544 14.879 20.5652 14.8736L20.1833 14.6171C20.1642 14.6264 20.1456 14.6362 20.1272 14.6463L20.533 14.8901ZM20.5157 15.5003C20.2282 15.3274 20.2347 15.0555 20.533 14.8901L20.1272 14.6463C19.6053 14.9358 19.5855 15.4194 20.1018 15.7297L20.5157 15.5003ZM20.547 15.518C20.5364 15.5124 20.526 15.5064 20.5157 15.5003L20.1018 15.7297C20.1197 15.7406 20.1382 15.751 20.1569 15.7611L20.547 15.518ZM21.3158 15.9797L20.5593 15.5247L20.145 15.7543L20.9019 16.2093L21.3158 15.9797ZM21.3422 15.9962C21.3356 15.9922 21.3294 15.9883 21.3231 15.9842L20.8946 16.2048C20.9056 16.2118 20.9168 16.2188 20.9282 16.2256L21.3422 15.9962ZM22.4027 16.0147C22.1069 16.1787 21.6321 16.1704 21.3422 15.9962L20.9282 16.2256C21.4423 16.5346 22.284 16.5494 22.8085 16.2585L22.4027 16.0147ZM22.4229 16.0031C22.4164 16.007 22.4097 16.0109 22.4027 16.0147L22.8085 16.2585C22.8205 16.2519 22.8322 16.2451 22.8437 16.2382L22.4229 16.0031ZM24.1129 15.067L22.4305 15.9986L22.836 16.2426L24.5184 15.311L24.1129 15.067ZM24.1369 15.0542C24.131 15.0574 24.1252 15.0604 24.1192 15.0635L24.5118 15.3145C24.5222 15.3092 24.5324 15.3036 24.5426 15.298L24.1369 15.0542ZM24.1536 14.4454C24.4374 14.6197 24.4306 14.8913 24.1369 15.0542L24.5426 15.298C25.0633 15.0093 25.0753 14.5278 24.5721 14.2185L24.1536 14.4454ZM24.1536 14.4454L24.1556 14.4465L24.5701 14.2174L24.5685 14.2164L24.1536 14.4454ZM24.1475 14.4416C24.1492 14.4426 24.1508 14.4436 24.1525 14.4447L24.5701 14.2174C24.5671 14.2156 24.5644 14.2138 24.5615 14.2121L24.1475 14.4416ZM24.144 14.4395C24.1452 14.4402 24.1464 14.4409 24.1475 14.4416L24.5615 14.2121C24.5594 14.2108 24.5573 14.2096 24.5552 14.2084L24.144 14.4395ZM23.3266 13.9477L24.1424 14.4385L24.5568 14.2094L23.7416 13.718L23.3266 13.9477Z" fill="#1D1D1B"/>
<path fill-rule="evenodd" clip-rule="evenodd" d="M25.2712 16.5488L23.7409 17.398C23.5488 17.4299 23.3764 17.4812 23.2537 17.5493L23.248 17.9084C23.2413 18.0618 23.3359 18.2179 23.5326 18.34L24.339 18.825C24.3476 18.8304 24.3564 18.836 24.3655 18.8414C24.7674 19.083 25.4258 19.0945 25.8359 18.867C25.8548 18.8565 25.873 18.8457 25.8903 18.8345L27.515 17.9347C27.5344 17.9255 27.5532 17.9158 27.5715 17.9057C27.7759 17.7923 27.8801 17.6411 27.8834 17.4879L27.8897 17.1342C27.7758 17.0658 27.6171 17.0097 27.4387 16.9694L26.8001 16.5845C26.7887 16.577 26.777 16.5696 26.7649 16.5622C26.3625 16.3204 25.7033 16.3089 25.2927 16.5366C25.2854 16.5406 25.2783 16.5447 25.2712 16.5488Z" fill="#1D1D1B"/>
<path d="M23.7408 17.398L23.826 17.559L23.8934 17.5479L23.9438 17.5199L23.7408 17.398ZM25.2712 16.5488L25.4742 16.6707L25.4798 16.6673L25.2712 16.5488ZM23.2536 17.5493L23.0508 17.4273L22.9649 17.4749L22.9638 17.5443L23.2536 17.5493ZM23.2479 17.9084L23.5377 17.916V17.9133L23.2479 17.9084ZM23.5325 18.34L23.7346 18.4624L23.9398 18.3496L23.7429 18.2273L23.5325 18.34ZM23.5325 18.34L23.3304 18.2177L23.1218 18.3325L23.3254 18.4549L23.5325 18.34ZM24.339 18.825L24.5533 18.7146L24.546 18.7101L24.339 18.825ZM25.8902 18.8345L25.6876 18.7125L25.6797 18.7169L25.6724 18.7216L25.8902 18.8345ZM27.515 17.9347L27.3277 17.8048L27.3198 17.8086L27.3122 17.8128L27.515 17.9347ZM27.8896 17.1342L28.1794 17.1393L28.1805 17.07L28.0965 17.0195L27.8896 17.1342ZM27.4387 16.9694L27.2315 17.084L27.277 17.1114L27.338 17.1252L27.4387 16.9694ZM26.8 16.5845L26.5832 16.6933L26.5928 16.6991L26.8 16.5845ZM23.9438 17.5199L25.4742 16.6707L25.0682 16.4269L23.5379 17.2762L23.9438 17.5199ZM23.4564 17.6712C23.5374 17.6262 23.6648 17.5858 23.826 17.559L23.6557 17.2371C23.4327 17.274 23.2154 17.3361 23.0508 17.4273L23.4564 17.6712ZM23.5377 17.9133L23.5434 17.5541L22.9638 17.5443L22.9581 17.9035L23.5377 17.9133ZM23.7429 18.2273C23.601 18.1392 23.5328 18.027 23.5377 17.916L22.9582 17.9008C22.9496 18.0968 23.0707 18.2966 23.3223 18.4528L23.7429 18.2273ZM24.546 18.7101L23.7394 18.2254L23.3254 18.4549L24.132 18.9397L24.546 18.7101ZM24.5723 18.7266C24.5658 18.7226 24.5596 18.7187 24.5533 18.7146L24.1248 18.9352C24.1358 18.9422 24.147 18.9493 24.1584 18.9561L24.5723 18.7266ZM25.633 18.7452C25.3371 18.9092 24.8623 18.9009 24.5723 18.7266L24.1584 18.9561C24.6724 19.2651 25.5142 19.2798 26.0387 18.989L25.633 18.7452ZM25.6724 18.7216C25.6599 18.7296 25.6468 18.7375 25.633 18.7452L26.0387 18.989C26.0629 18.9756 26.086 18.9618 26.108 18.9475L25.6724 18.7216ZM27.3122 17.8128L25.6876 18.7125L26.0929 18.9565L27.7177 18.0567L27.3122 17.8128ZM27.3686 17.7837C27.3553 17.7911 27.3416 17.7981 27.3277 17.8048L27.7023 18.0647C27.727 18.0529 27.751 18.0405 27.7743 18.0275L27.3686 17.7837ZM27.5936 17.4824C27.5912 17.5932 27.5161 17.7019 27.3686 17.7837L27.7743 18.0275C28.0356 17.8827 28.1688 17.689 28.1732 17.4935L27.5936 17.4824ZM27.5998 17.1292L27.5936 17.4824L28.1732 17.4935L28.1794 17.1393L27.5998 17.1292ZM27.338 17.1252C27.4878 17.159 27.6062 17.2031 27.6826 17.2491L28.0965 17.0195C27.9453 16.9286 27.7463 16.8603 27.5395 16.8136L27.338 17.1252ZM26.5928 16.6991L27.2315 17.084L27.646 16.8547L27.0073 16.4698L26.5928 16.6991ZM26.5578 16.6771C26.5667 16.6823 26.5749 16.6878 26.5832 16.6933L27.0167 16.4758C27.0022 16.4662 26.9872 16.4568 26.9718 16.4475L26.5578 16.6771ZM25.4955 16.6584C25.7918 16.4941 26.2675 16.5024 26.5578 16.6771L26.9718 16.4475C26.4573 16.1382 25.6147 16.1235 25.0898 16.4146L25.4955 16.6584ZM25.4798 16.6673C25.4849 16.6644 25.4902 16.6614 25.4955 16.6584L25.0898 16.4146C25.0805 16.4197 25.0714 16.425 25.0625 16.4302L25.4798 16.6673Z" fill="#1D1D1B"/>
<path fill-rule="evenodd" clip-rule="evenodd" d="M26.7639 16.2132C26.3614 15.9713 25.7019 15.9595 25.2913 16.1872C25.2737 16.1969 25.2569 16.2068 25.2409 16.2171L23.6043 17.1254C23.5893 17.1328 23.5747 17.1405 23.5604 17.1484C23.1502 17.3758 23.137 17.7536 23.539 17.9951C23.5531 18.0036 23.5675 18.0118 23.5822 18.0197L24.339 18.4746C24.3477 18.4802 24.3564 18.4857 24.3654 18.4911C24.7674 18.7327 25.4257 18.7442 25.8359 18.5168C25.8453 18.5115 25.8545 18.5062 25.8636 18.5009L27.5458 17.5692C27.5539 17.565 27.562 17.5607 27.5699 17.5563C27.9772 17.3304 27.9866 16.9539 27.593 16.7121L27.5916 16.7111C27.5892 16.7097 27.587 16.7084 27.5847 16.707C27.5831 16.706 27.5814 16.7051 27.5799 16.7041L26.7639 16.2132Z" fill="white"/>
<path d="M26.7636 16.2129L26.5569 16.3278L26.7589 16.4494L26.9659 16.3355L26.7636 16.2129ZM25.241 16.2171L25.444 16.339L25.4511 16.335L25.4577 16.3308L25.241 16.2171ZM23.6043 17.1254L23.7955 17.2538L23.8074 17.2473L23.6043 17.1254ZM23.5823 18.0197L23.7896 17.9048L23.7774 17.8982L23.5823 18.0197ZM24.3391 18.4746L24.5534 18.3643L24.5461 18.3599L24.3391 18.4746ZM25.8637 18.5009L25.6607 18.3787L25.6532 18.3833L25.8637 18.5009ZM27.5459 17.5692L27.3496 17.4437L27.3432 17.4472L27.5459 17.5692ZM27.5931 16.7121L27.3903 16.5901L27.1857 16.7036L27.384 16.8255L27.5931 16.7121ZM27.5931 16.7121L27.7961 16.834L28.0027 16.7194L27.8004 16.5975L27.5931 16.7121ZM27.5917 16.7111L27.3828 16.8248L27.384 16.8255L27.5917 16.7111ZM27.58 16.7041L27.3726 16.8187L27.3743 16.8197L27.58 16.7041ZM26.7646 16.2128L26.9719 16.0981L26.7699 15.9765L26.5627 16.0903L26.7646 16.2128ZM26.5569 16.3278L26.9719 16.0981L26.9706 16.0982L26.5569 16.3278ZM25.4942 16.3091C25.7905 16.1448 26.2666 16.1532 26.5569 16.3278L26.9706 16.0982C26.4562 15.789 25.6134 15.7741 25.0885 16.0653L25.4942 16.3091ZM25.4577 16.3308C25.4693 16.3234 25.4814 16.3162 25.4942 16.3091L25.0885 16.0653C25.0662 16.0776 25.0448 16.0903 25.0243 16.1034L25.4577 16.3308ZM23.8074 17.2473L25.444 16.339L25.0381 16.0952L23.4014 17.0035L23.8074 17.2473ZM23.7633 17.2703C23.7737 17.2646 23.7846 17.2592 23.7955 17.2538L23.4136 16.9972C23.3946 17.0065 23.3759 17.0164 23.3576 17.0265L23.7633 17.2703ZM23.7461 17.8804C23.4585 17.7076 23.465 17.4357 23.7633 17.2703L23.3576 17.0265C22.8356 17.3159 22.8159 17.7996 23.3322 18.1099L23.7461 17.8804ZM23.7774 17.8982C23.7668 17.8925 23.7563 17.8865 23.7461 17.8804L23.3322 18.1099C23.3501 18.1207 23.3684 18.1311 23.3873 18.1413L23.7774 17.8982ZM24.5461 18.3599L23.7896 17.9048L23.3754 18.1345L24.1322 18.5894L24.5461 18.3599ZM24.5724 18.3763C24.5659 18.3724 24.5597 18.3683 24.5534 18.3643L24.1249 18.5849C24.1359 18.592 24.1471 18.5989 24.1586 18.6058L24.5724 18.3763ZM25.6331 18.3948C25.3373 18.5589 24.8624 18.5506 24.5724 18.3763L24.1586 18.6058C24.6725 18.9148 25.5143 18.9295 26.0388 18.6387L25.6331 18.3948ZM25.6532 18.3833C25.6467 18.3872 25.64 18.391 25.6331 18.3948L26.0388 18.6387C26.0508 18.632 26.0626 18.6253 26.074 18.6184L25.6532 18.3833ZM27.3432 17.4472L25.6607 18.3787L26.0663 18.6228L27.7486 17.6912L27.3432 17.4472ZM27.3672 17.4343C27.3614 17.4376 27.3555 17.4407 27.3496 17.4437L27.7422 17.6946C27.7525 17.6893 27.7628 17.6838 27.7728 17.6781L27.3672 17.4343ZM27.384 16.8255C27.6677 16.9999 27.6609 17.2714 27.3672 17.4343L27.7728 17.6781C28.2936 17.3895 28.3056 16.908 27.8024 16.5987L27.384 16.8255ZM27.384 16.8255L27.386 16.8267L27.8004 16.5975L27.7989 16.5966L27.384 16.8255ZM27.3778 16.8218C27.3795 16.8228 27.3811 16.8238 27.3828 16.8248L27.8004 16.5975C27.7976 16.5957 27.7947 16.594 27.7918 16.5923L27.3778 16.8218ZM27.3743 16.8197C27.3755 16.8204 27.3766 16.8211 27.3778 16.8218L27.7918 16.5923C27.7897 16.591 27.7877 16.5897 27.7855 16.5885L27.3743 16.8197ZM26.5569 16.3278L27.3726 16.8187L27.7872 16.5895L26.9719 16.0981L26.5569 16.3278Z" fill="#1D1D1B"/>
<path d="M13.4504 12.0395L21.6616 7.13068C21.9681 6.94746 21.9691 6.50375 21.6633 6.31917L17.0229 3.51848C16.7227 3.33731 16.347 3.33692 16.0465 3.51741L7.83757 8.44668C7.53119 8.63058 7.5314 9.07478 7.83794 9.25839L12.478 12.0389C12.7773 12.2182 13.1508 12.2184 13.4504 12.0395Z" fill="white"/>
<path d="M13.4504 12.0395L21.6616 7.13068C21.9681 6.94746 21.9691 6.50375 21.6633 6.31917L17.0229 3.51848C16.7227 3.33731 16.347 3.33692 16.0465 3.51741L7.83757 8.44668C7.53119 8.63058 7.5314 9.07478 7.83794 9.25839L12.478 12.0389C12.7773 12.2182 13.1508 12.2184 13.4504 12.0395Z" stroke="#1D1D1B" stroke-width="0.8" stroke-linecap="round" stroke-linejoin="round"/>
</svg>
