<svg width="13" height="22" viewBox="0 0 13 22" fill="none" xmlns="http://www.w3.org/2000/svg">
<path d="M9.38383 0.807617C9.46529 0.807617 10.4599 1.06098 10.8753 1.16771C10.9516 1.18732 10.9786 1.2803 10.9188 1.33162C9.86841 2.23191 3.12636 8.00908 2.92558 8.12479L1.78178 9.22723C1.72773 9.27923 1.63758 9.25337 1.61934 9.18059L1.32509 8.00342C1.28285 7.83454 1.34685 7.64781 1.4807 7.5365C2.79758 6.44069 9.28988 0.807617 9.38383 0.807617Z" fill="#1D1D1B"/>
<path d="M9.38383 0.807617C9.46529 0.807617 10.4599 1.06098 10.8753 1.16771C10.9516 1.18732 10.9786 1.2803 10.9188 1.33162C9.86841 2.23191 3.12636 8.00908 2.92558 8.12479L1.78178 9.22723C1.72773 9.27923 1.63758 9.25337 1.61934 9.18059L1.32509 8.00342C1.28285 7.83454 1.34685 7.64781 1.4807 7.5365C2.79758 6.44069 9.28988 0.807617 9.38383 0.807617Z" stroke="#1D1D1B" stroke-width="0.8" stroke-miterlimit="10"/>
<path d="M2.92566 21.1551C2.92566 21.3147 2.74449 21.4068 2.61551 21.3128L1.33405 20.3779C1.28371 20.3413 1.25395 20.2827 1.25386 20.2204L1.25122 7.95208C1.25122 7.80418 1.40927 7.71003 1.53922 7.78037L2.82342 8.47549C2.88634 8.50964 2.92566 8.57549 2.92566 8.6471V21.1551Z" fill="#1D1D1B" stroke="#1D1D1B" stroke-width="0.8" stroke-miterlimit="10" stroke-linejoin="round"/>
<path d="M11.5622 6.03603C11.3974 6.03603 11.2633 5.86793 11.2633 5.66012V3.3051C11.2633 3.0973 11.3968 2.9292 11.5622 2.9292C11.7272 2.9292 11.8613 3.0973 11.8613 3.3051V5.66012C11.8613 5.86793 11.7272 6.03603 11.5622 6.03603Z" fill="white" stroke="#1D1D1B" stroke-width="0.8" stroke-miterlimit="10"/>
<path d="M11.5622 12.0069C11.3974 12.0069 11.2633 11.8388 11.2633 11.631V9.27595C11.2633 9.06815 11.3968 8.90015 11.5622 8.90015C11.7272 8.90015 11.8613 9.06815 11.8613 9.27595V11.631C11.8613 11.8388 11.7272 12.0069 11.5622 12.0069Z" fill="white" stroke="#1D1D1B" stroke-width="0.8" stroke-miterlimit="10"/>
<path d="M10.9001 1.34548C11.1383 1.17183 11.3458 1.21651 11.4495 1.42636C11.5024 1.50656 11.5333 1.62587 11.5339 1.77719L11.5592 12.9888C11.5598 13.1401 11.5289 13.3047 11.4759 13.4623C11.3734 13.8222 11.167 14.1687 10.9293 14.3424L3.336 21.4702C2.99513 21.7191 2.71708 21.5211 2.716 21.0287L2.7161 9.46851C2.71493 8.97612 2.99132 8.37358 3.3322 8.1247L10.9001 1.34548Z" fill="#D5C8FB" stroke="#1D1D1B" stroke-width="0.8" stroke-miterlimit="10"/>
<path d="M9.4522 8.69461C9.30918 8.64846 9.14791 8.64729 8.97415 8.69822C8.88674 8.72378 8.79552 8.76261 8.70147 8.8148C8.63903 8.84992 8.57572 8.89002 8.51142 8.93734C7.62811 9.58183 7.31923 11.3138 7.32206 12.5968C7.32206 12.6295 7.32303 12.6635 7.32401 12.6951C7.32401 12.7157 7.32499 12.7364 7.32694 12.7569C7.32781 12.78 7.32879 12.8031 7.33074 12.8261C7.33269 12.8577 7.33552 12.8881 7.33942 12.9184C7.33942 12.9245 7.3403 12.9293 7.34128 12.9341C7.3442 12.9657 7.34899 12.9961 7.35279 13.0251C7.37777 13.1879 7.41718 13.3311 7.46801 13.4561C7.49455 13.5183 7.58772 13.5695 7.70079 13.6151C7.80186 13.6558 7.79133 13.6816 7.68752 13.6485L6.64411 13.3153C6.35708 13.1041 6.17952 12.6562 6.17757 12.019C6.17474 10.7361 6.49142 9.17519 7.37377 8.5307C7.81825 8.20661 8.37552 8.32222 8.51142 8.38992C8.70147 8.44875 9.4522 8.64875 9.4522 8.69461Z" fill="#1D1D1B"/>
<path d="M9.4522 8.69461C9.30918 8.64846 9.14791 8.64729 8.97415 8.69822C8.88674 8.72378 8.79552 8.76261 8.70147 8.8148C8.63903 8.84992 8.57572 8.89002 8.51142 8.93734C7.62811 9.58182 7.31923 11.3138 7.32206 12.5968C7.32206 12.6295 7.32303 12.6635 7.32401 12.6951C7.32401 12.7157 7.32499 12.7364 7.32694 12.7569C7.32781 12.78 7.32879 12.8031 7.33074 12.8261C7.33269 12.8577 7.33552 12.8881 7.33942 12.9184C7.33942 12.9245 7.3403 12.9293 7.34128 12.9341C7.3442 12.9657 7.34899 12.9961 7.35279 13.0251C7.37777 13.1879 7.41718 13.3311 7.46801 13.4561C7.49455 13.5183 7.58772 13.5695 7.70079 13.6151C7.80186 13.6558 7.79133 13.6816 7.68752 13.6485L6.64411 13.3153C6.35708 13.1041 6.17952 12.6562 6.17757 12.019C6.17474 10.7361 6.49142 9.17519 7.37377 8.5307C7.81825 8.20661 8.37552 8.32222 8.51142 8.38992C8.70147 8.44875 9.4522 8.64875 9.4522 8.69461Z" stroke="#1D1D1B" stroke-width="0.8" stroke-miterlimit="10"/>
<path d="M9.87095 10.0573C9.8732 11.3403 9.3211 12.9023 8.63739 13.5468C8.28666 13.877 7.97008 13.9024 7.74413 13.6742C7.72481 13.6548 7.70627 13.633 7.68842 13.6099C7.67876 13.5978 7.66978 13.5856 7.66169 13.5735C7.65125 13.5577 7.64081 13.5419 7.63047 13.525C7.61554 13.5007 7.60218 13.4752 7.58881 13.4485L7.58735 13.4461C7.58139 13.4339 7.57544 13.4206 7.56949 13.4072C7.55388 13.3732 7.53974 13.3369 7.52637 13.298C7.52042 13.2834 7.51525 13.2677 7.51008 13.2507C7.47066 13.1256 7.44022 12.9824 7.42091 12.8198C7.41788 12.7907 7.41417 12.7604 7.41193 12.7288C7.41125 12.7239 7.41047 12.7191 7.41047 12.713C7.40754 12.6826 7.40598 12.6523 7.40374 12.6208C7.40227 12.5976 7.40159 12.5746 7.40081 12.5516C7.39935 12.5309 7.39857 12.5103 7.39857 12.4896C7.39788 12.4581 7.3971 12.4241 7.3971 12.3914C7.39486 11.1085 7.94627 9.54759 8.62998 8.9031C8.67974 8.85579 8.72881 8.81569 8.7771 8.78047C8.84988 8.72827 8.92052 8.68945 8.98813 8.66398C9.12266 8.61296 9.24754 8.61423 9.35827 8.66037C9.37164 8.66642 9.38501 8.67247 9.39837 8.67979C9.41398 8.68827 9.42881 8.69793 9.44296 8.70769C9.4534 8.71491 9.46452 8.72223 9.47417 8.73071C9.48081 8.73559 9.48754 8.74047 9.49349 8.74652C9.49798 8.75013 9.50237 8.75501 9.50686 8.75862C9.73125 8.96866 9.87027 9.41774 9.87095 10.0573Z" fill="#EFE9FE" stroke="#1D1D1B" stroke-width="0.8" stroke-miterlimit="10"/>
<path d="M8.97437 10.886V8.73438" stroke="#1D1D1B" stroke-width="0.8" stroke-linejoin="round"/>
</svg>
