<svg width="33" height="38" viewBox="0 0 33 38" fill="none" xmlns="http://www.w3.org/2000/svg">
<path d="M31.4238 9.57102C31.6193 9.68575 31.7401 9.92585 31.741 10.2678L31.7868 26.5209C31.7884 27.2136 31.296 28.063 30.6902 28.413L16.4686 36.6245C16.1443 36.8119 15.8515 36.8176 15.6496 36.6768C15.6609 36.6848 15.6721 36.6937 15.6842 36.7009L1.26691 28.4121C1.07061 28.2978 0.94833 28.0557 0.94753 27.713L0.901676 11.4608C0.900067 10.7673 1.39161 9.91853 1.99818 9.5678L16.2199 1.35639C16.5264 1.18021 16.804 1.16332 17.0043 1.27997L31.4216 9.56946L31.4238 9.57102Z" fill="#D5C8FB" stroke="#1D1D1B" stroke-width="0.8" stroke-miterlimit="10"/>
<path d="M30.6481 9.64419C31.2533 9.29473 31.7484 9.57356 31.75 10.2652L31.7958 26.4927C31.7975 27.1843 31.3063 28.0326 30.7004 28.3819L16.4935 36.5809C15.8875 36.9303 15.3924 36.6516 15.3908 35.96L15.345 19.7324C15.3434 19.0408 15.8344 18.1926 16.4404 17.8431L30.6481 9.64419Z" fill="white" stroke="#1D1D1B" stroke-width="0.8" stroke-miterlimit="10"/>
<path d="M15.3457 19.7305L1.00953 11.3585C1.00792 10.6669 1.4814 9.85425 2.08738 9.50488L16.4404 17.8413C15.8352 18.1907 15.3434 19.0389 15.3457 19.7305Z" fill="white" stroke="#1D1D1B" stroke-width="0.8" stroke-miterlimit="10"/>
<path d="M28.8228 13.4411C29.1342 13.2617 29.4051 13.3078 29.5406 13.5246C29.6098 13.6075 29.6502 13.7306 29.651 13.8869L29.684 25.4684C29.6848 25.6247 29.6444 25.7946 29.5753 25.9575C29.4412 26.3292 29.1716 26.6872 28.861 26.8666L18.7207 32.7182C18.2753 32.9753 17.912 32.7707 17.9106 32.2622L17.8782 20.6808C17.8767 20.1722 18.2378 19.5498 18.6833 19.2926L28.8228 13.4411Z" stroke="#1D1D1B" stroke-width="0.8" stroke-miterlimit="10"/>
<mask id="mask0_364_12" style="mask-type:alpha" maskUnits="userSpaceOnUse" x="17" y="13" width="13" height="20">
<path d="M28.8223 13.4427C29.1337 13.2634 29.4046 13.3095 29.5401 13.5264C29.6094 13.6092 29.6497 13.7324 29.6505 13.8887L29.6835 25.4701C29.6843 25.6264 29.6439 25.7964 29.5748 25.9592C29.4407 26.3309 29.1712 26.6889 28.8605 26.8683L18.7202 32.7198C18.2748 32.977 17.9115 32.7724 17.9101 32.2639L17.8777 20.6825C17.8762 20.1739 18.2373 19.5515 18.6828 19.2944L28.8223 13.4427Z" fill="#C4C4C4"/>
</mask>
<g mask="url(#mask0_364_12)">
<path d="M22.1614 24.6914L15.8464 20.7007C15.719 20.6202 15.727 20.4319 15.8607 20.3626L19.4805 18.4851L25.7481 22.4243C25.8747 22.5038 25.8685 22.6903 25.737 22.7613L22.1614 24.6914Z" fill="#EFE9FE"/>
<path d="M22.1614 24.6914L15.8464 20.7007C15.719 20.6202 15.727 20.4319 15.8607 20.3626L19.4805 18.4851L25.7481 22.4243C25.8747 22.5038 25.8685 22.6903 25.737 22.7613L22.1614 24.6914Z" stroke="#1D1D1B" stroke-width="0.8" stroke-linecap="round" stroke-linejoin="round"/>
<path d="M22.1544 24.8367L15.6564 20.4739L15.5534 23.0728L22.0514 27.4357L25.7806 25.2934L25.8836 22.6945L22.1544 24.8367Z" fill="#EFE9FE" stroke="#1D1D1B" stroke-width="0.8" stroke-linejoin="round"/>
<path d="M18.2764 26.7683L11.9613 22.7776C11.8339 22.6971 11.842 22.5088 11.9757 22.4395L15.5955 20.562L21.8631 24.5012C21.9896 24.5807 21.9835 24.7672 21.852 24.8382L18.2764 26.7683Z" fill="#EFE9FE"/>
<path d="M18.2764 26.7683L11.9613 22.7776C11.8339 22.6971 11.842 22.5088 11.9757 22.4395L15.5955 20.562L21.8631 24.5012C21.9896 24.5807 21.9835 24.7672 21.852 24.8382L18.2764 26.7683Z" stroke="#1D1D1B" stroke-width="0.8" stroke-linecap="round" stroke-linejoin="round"/>
<path d="M18.2694 26.9136L11.7714 22.5508L11.6683 25.1497L18.1663 29.5126L21.8956 27.3703L21.9986 24.7714L18.2694 26.9136Z" fill="#EFE9FE" stroke="#1D1D1B" stroke-width="0.8" stroke-linejoin="round"/>
</g>
<path d="M28.8228 13.4411C29.1342 13.2617 29.4051 13.3078 29.5406 13.5246C29.6098 13.6075 29.6502 13.7306 29.651 13.8869L29.684 25.4684C29.6848 25.6247 29.6444 25.7946 29.5753 25.9575C29.4412 26.3292 29.1716 26.6872 28.861 26.8666L18.7207 32.7182C18.2753 32.9753 17.912 32.7707 17.9106 32.2622L17.8782 20.6808C17.8767 20.1722 18.2378 19.5498 18.6833 19.2926L28.8228 13.4411Z" stroke="#1D1D1B" stroke-width="0.8" stroke-miterlimit="10"/>
</svg>
