<svg width="32" height="25" viewBox="0 0 32 25" fill="none" xmlns="http://www.w3.org/2000/svg">
<path d="M0.206701 9.34236L0.203491 7.93437L31.3906 1.12373C31.6948 1.05729 31.9825 1.289 31.9825 1.60032V2.49378C31.9825 2.86373 31.8774 3.22607 31.6792 3.53846L18.537 24.2695C18.1484 24.8824 17.2505 24.8716 16.8767 24.2496L11.2357 14.8624L0.787043 10.232C0.434935 10.076 0.207579 9.72744 0.206701 9.34236Z" fill="#1D1D1B"/>
<path d="M11.5424 12.6665L0.842922 8.26862C0.623351 8.17837 0.64903 7.85945 0.88021 7.8055L30.6399 0.859056C31.2288 0.721495 31.6862 1.37018 31.359 1.87876L18.5564 21.7787C18.161 22.393 17.2556 22.371 16.8907 21.7381L11.7796 12.874C11.7256 12.7805 11.6422 12.7075 11.5424 12.6665Z" fill="#D5C8FB"/>
<path d="M11.5424 12.6665L0.842922 8.26862C0.623351 8.17837 0.64903 7.85945 0.88021 7.8055L30.6399 0.859056C31.2288 0.721495 31.6862 1.37018 31.359 1.87876L18.5564 21.7787C18.161 22.393 17.2556 22.371 16.8907 21.7381L11.7796 12.874C11.7256 12.7805 11.6422 12.7075 11.5424 12.6665Z" stroke="#1D1D1B" stroke-width="0.8"/>
<path d="M11.254 12.7305L21.1569 7.05396" stroke="#1D1D1B" stroke-width="0.8"/>
</svg>
