<svg width="17" height="25" viewBox="0 0 17 25" fill="none" xmlns="http://www.w3.org/2000/svg">
<path d="M12.5364 13.9532C15.0763 9.27415 15.9974 4.88163 13.2767 3.40474C13.1392 3.33015 12.2249 2.89836 12.08 2.84429C9.35646 1.82771 4.91832 4.13897 2.50671 8.5817C0.241145 12.7553 0.398023 17.2409 2.51451 19.3847C2.74817 19.6214 3.01227 19.7825 3.01227 19.7825C4.03968 20.5234 4.82846 20.6741 5.095 20.6724C7.78222 21.2002 10.2796 18.1107 12.5364 13.9532Z" fill="#1D1D1B" stroke="#1D1D1B" stroke-width="0.8" stroke-linecap="round" stroke-linejoin="round"/>
<path d="M9.03066 20.0952C12.8108 17.9127 15.8753 12.605 15.8753 8.23999C15.8753 3.87501 12.8108 2.10575 9.03066 4.28824C5.25048 6.47073 2.18604 11.7785 2.18604 16.1435C2.18604 20.5085 5.25048 22.2777 9.03066 20.0952Z" fill="#EFE9FE" stroke="#1D1D1B" stroke-width="0.8"/>
<path d="M4.39929 16.3608L5.60954 15.7857C5.78456 16.7267 6.20261 17.3506 6.86378 17.6572C7.52924 17.9619 8.40417 17.8565 9.48846 17.3413C9.9068 17.1425 10.3192 16.8899 10.7256 16.5835C11.1317 16.2817 11.5148 15.9343 11.8748 15.5412L11.2679 14.6603C10.7618 15.2362 10.2062 15.6611 9.60115 15.935C8.90066 16.2724 8.33929 16.3601 7.91705 16.1983C7.49939 16.0297 7.21685 15.6609 7.06944 15.0919L10.3736 13.5218L10.4688 12.3346L6.9469 14.0081C6.94495 13.8278 6.95188 13.6387 6.96778 13.4408C6.98329 13.2476 7.00671 13.0575 7.03812 12.8704L10.56 11.1968L10.6552 10.0096L7.34466 11.5827C7.59422 10.8251 7.95871 10.1467 8.43793 9.54735C8.91744 8.94326 9.51354 8.47425 10.226 8.14019C10.516 8.00696 10.7941 7.91784 11.0606 7.87282C11.3312 7.82576 11.5771 7.83126 11.7984 7.8893L12.6077 6.32189C12.2889 6.2513 11.9357 6.25379 11.5477 6.32937C11.164 6.40293 10.7609 6.54012 10.3382 6.74094C9.24544 7.26025 8.319 8.00864 7.559 8.98609C6.79929 9.95887 6.24554 11.0536 5.89744 12.2704L4.68085 12.8485L4.58563 14.0357L5.61656 13.5459C5.58905 13.7357 5.56563 13.9259 5.54622 14.1163C5.53032 14.3142 5.52339 14.5034 5.52534 14.6836L4.49441 15.1735L4.39929 16.3608Z" fill="#1D1D1B"/>
</svg>
