<svg width="13" height="21" viewBox="0 0 13 21" fill="none" xmlns="http://www.w3.org/2000/svg">
<path d="M10.3809 4.53742C10.3809 7.36469 8.89169 16.1761 7.54271 19.5489C7.48818 19.6851 7.36476 19.7692 7.28945 19.7269L5.25481 18.5854C5.25481 18.5854 0.456177 14.4317 0.456177 10.6977C0.456177 6.96371 2.59188 3.20818 5.25481 1.67075C6.43042 0.992012 7.80788 0.984372 8.55471 1.26891C8.87306 1.39227 10.7485 2.35453 10.7485 2.35453C11.3084 2.94069 10.3809 3.33656 10.3809 4.53742Z" fill="#1D1D1B"/>
<path d="M10.3809 4.53742C10.3809 7.36469 8.89169 16.1761 7.54271 19.5489C7.48818 19.6851 7.36476 19.7692 7.28945 19.7269L5.25481 18.5854C5.25481 18.5854 0.456177 14.4317 0.456177 10.6977C0.456177 6.96371 2.59188 3.20818 5.25481 1.67075C6.43042 0.992012 7.80788 0.984372 8.55471 1.26891C8.87306 1.39227 10.7485 2.35453 10.7485 2.35453C11.3084 2.94069 10.3809 3.33656 10.3809 4.53742Z" stroke="#1D1D1B" stroke-width="0.8" stroke-linecap="round" stroke-linejoin="round"/>
<path d="M12.2569 5.5133C12.2569 9.26707 7.86772 18.8663 7.46489 19.7394C7.4484 19.775 7.42157 19.7909 7.4045 19.7753C6.98675 19.3944 2.46411 15.1889 2.46411 11.6275C2.46411 8.5526 4.7724 4.26698 7.43533 2.72956C10.0983 1.19214 12.2569 2.43847 12.2569 5.5133Z" fill="#EFE9FE"/>
<path d="M12.2569 5.51331C12.2569 9.26707 7.86772 18.8663 7.46489 19.7394C7.4484 19.775 7.42157 19.7909 7.4045 19.7753C6.98675 19.3944 2.46411 15.1889 2.46411 11.6275C2.46411 8.5526 4.7724 4.26698 7.43533 2.72956C10.0983 1.19214 12.2569 2.43847 12.2569 5.51331Z" stroke="#1D1D1B" stroke-width="0.8" stroke-linecap="round"/>
<path d="M7.65766 11.0252C8.90034 10.3077 9.90773 8.56285 9.90773 7.12793C9.90773 5.69301 8.90034 5.11139 7.65766 5.82885C6.41498 6.54631 5.40759 8.29116 5.40759 9.72609C5.40759 11.161 6.41498 11.7426 7.65766 11.0252Z" fill="white" stroke="#1D1D1B" stroke-width="0.8" stroke-linecap="round" stroke-linejoin="round"/>
</svg>
