<svg width="19" height="20" viewBox="0 0 19 20" fill="none" xmlns="http://www.w3.org/2000/svg">
<path d="M-5.0152e-07 7.61341C1.50671 7.61341 2.99867 7.91018 4.39069 8.48677C5.78271 9.06336 7.04753 9.90849 8.11294 10.9739C9.17835 12.0393 10.0235 13.3041 10.6001 14.6961C11.1767 16.0882 11.4734 17.5801 11.4734 19.0868L7.47642 19.0868C7.47642 18.105 7.28303 17.1328 6.90731 16.2257C6.53158 15.3187 5.98087 14.4945 5.28662 13.8002C4.59237 13.106 3.76818 12.5553 2.8611 12.1795C1.95402 11.8038 0.981817 11.6104 -3.26805e-07 11.6104L-5.0152e-07 7.61341Z" fill="#016BFF"/>
<path d="M18.9999 7.61341C17.4932 7.61341 16.0012 7.91018 14.6092 8.48677C13.2172 9.06336 11.9523 9.90849 10.8869 10.9739C9.82153 12.0393 8.97641 13.3041 8.39981 14.6961C7.82322 16.0882 7.52645 17.5801 7.52645 19.0868L11.5235 19.0868C11.5235 18.105 11.7168 17.1328 12.0926 16.2257C12.4683 15.3187 13.019 14.4945 13.7133 13.8002C14.4075 13.106 15.2317 12.5553 16.1388 12.1795C17.0459 11.8038 18.0181 11.6104 18.9999 11.6104L18.9999 7.61341Z" fill="#016BFF"/>
<circle cx="9.49762" cy="5.04352" r="4.13043" fill="#016BFF"/>
</svg>
