<svg width="35" height="44" viewBox="0 0 35 44" fill="none" xmlns="http://www.w3.org/2000/svg">
<path d="M30.0785 26.3979C32.7969 26.3979 35.0005 28.6141 35.0005 31.3478V33.3389C35.0005 35.745 33.9561 38.0309 32.1409 39.5984C28.7163 42.5549 23.8154 44 17.4934 44C11.1723 44 6.27475 42.5555 2.85586 39.5995C1.04319 38.0322 0.000488281 35.7478 0.000488281 33.3438V31.3478C0.000488281 28.6141 2.20416 26.3979 4.92252 26.3979H30.0785ZM30.0785 29.6978H4.92252C4.01639 29.6978 3.28185 30.4365 3.28185 31.3478V33.3438C3.28185 34.7862 3.90747 36.1568 4.99506 37.0971C7.74723 39.4767 11.8949 40.7001 17.4934 40.7001C23.0935 40.7001 27.2451 39.4758 30.0034 37.0944C31.0926 36.1542 31.7191 34.7825 31.7191 33.3389V31.3478C31.7191 30.4365 30.9845 29.6978 30.0785 29.6978ZM17.2713 0.0150475L17.494 0C18.3246 0 19.0111 0.620711 19.1198 1.42606L19.1347 1.64995L19.1329 3.2977L26.7905 3.2988C29.5088 3.2988 31.7126 5.51492 31.7126 8.24864V18.1585C31.7126 20.8921 29.5088 23.1083 26.7905 23.1083H8.19614C5.47777 23.1083 3.2741 20.8921 3.2741 18.1585V8.24864C3.2741 5.51492 5.47777 3.2988 8.19614 3.2988L15.8516 3.2977L15.8533 1.64995C15.8533 0.814635 16.4707 0.124318 17.2713 0.0150475L17.494 0L17.2713 0.0150475ZM26.7905 6.5987H8.19614C7.29 6.5987 6.55546 7.33741 6.55546 8.24864V18.1585C6.55546 19.0697 7.29 19.8085 8.19614 19.8085H26.7905C27.6966 19.8085 28.4312 19.0697 28.4312 18.1585V8.24864C28.4312 7.33741 27.6966 6.5987 26.7905 6.5987ZM12.5697 9.89859C14.079 9.89859 15.3027 11.1291 15.3027 12.6469C15.3027 14.1648 14.079 15.3953 12.5697 15.3953C11.0604 15.3953 9.83681 14.1648 9.83681 12.6469C9.83681 11.1291 11.0604 9.89859 12.5697 9.89859ZM22.3979 9.89859C23.9073 9.89859 25.1308 11.1291 25.1308 12.6469C25.1308 14.1648 23.9073 15.3953 22.3979 15.3953C20.8885 15.3953 19.665 14.1648 19.665 12.6469C19.665 11.1291 20.8885 9.89859 22.3979 9.89859Z" fill="#F48352"/>
</svg>
