<svg width="511" height="440" viewBox="0 0 511 440" fill="none" xmlns="http://www.w3.org/2000/svg">
<path d="M480.431 214.583C479.971 212.666 479.477 210.736 478.928 208.8C477.566 204.03 458.838 142.052 402.374 118.07C370.969 104.729 342.903 109.514 316.116 116.132C281.433 124.702 248.891 136.347 214.034 115.712C181.376 96.3765 182.134 69.6832 152.56 65.4622C108.834 59.219 69.2647 112.168 60.6039 124.565C58.0145 128.278 8.93973 200.232 35.1839 245.275C36.1644 246.961 37.1893 248.495 38.2592 249.904C53.8928 270.44 79.896 263.445 143.007 293.709C167.995 305.692 162.802 306.252 234.221 350.222C282.406 379.889 309.066 394.585 325.882 401.69C340.45 407.845 347.637 408.29 355.022 407.82C401.346 404.853 433.262 367.156 443.043 355.606C447.748 350.049 498.132 288.54 480.431 214.583Z" fill="#F48352"/>
<path d="M242.161 354.895V318.876L195.876 325.557V364.04L242.161 354.895Z" fill="#FD8753"/>
<path d="M251.753 404.053C249.961 407.263 228.014 404.65 226.11 405.173C224.207 405.695 218.645 393.042 214.912 395.02C211.18 396.999 207.074 403.008 201.811 405.845C196.548 408.682 115.738 409.316 99.9861 407.413C99.3498 407.294 98.7857 406.93 98.4155 406.4C98.0453 405.869 97.8989 405.214 98.0078 404.576C98.8793 398.772 100.33 393.07 102.338 387.555C104.318 381.405 107.915 375.901 112.751 371.617C125.181 361.838 151.496 357.62 160.977 351.088C170.457 344.556 180.946 328.991 186.694 331.828C192.442 334.664 203.453 347.915 219.018 345.75C234.583 343.585 241.675 339.666 245.93 343.436C248.618 345.825 250.857 368.071 251.716 384.942C252.401 391.294 252.414 397.699 251.753 404.053Z" fill="#39E0A3"/>
<path d="M162.993 360.719C160.679 360.719 139.814 360.719 135.446 354.112C134.95 353.392 134.651 352.555 134.579 351.684C134.507 350.813 134.665 349.939 135.036 349.147C135.323 348.416 135.771 347.758 136.345 347.222C136.92 346.685 137.608 346.285 138.358 346.049C142.46 345.461 146.644 346.193 150.302 348.14C147.351 345.86 145.333 342.582 144.629 338.92C144.644 338.114 144.873 337.326 145.293 336.638C145.713 335.949 146.308 335.384 147.018 335.001C147.724 334.548 148.522 334.256 149.354 334.146C150.186 334.037 151.033 334.112 151.832 334.366C159.298 336.531 166.539 351.798 166.763 352.432C166.819 352.547 166.852 352.673 166.86 352.801C166.868 352.929 166.851 353.057 166.81 353.178C166.768 353.299 166.703 353.411 166.618 353.508C166.533 353.604 166.43 353.682 166.315 353.739C166.2 353.795 166.075 353.828 165.947 353.836C165.819 353.844 165.69 353.827 165.569 353.785C165.448 353.744 165.336 353.679 165.24 353.594C165.143 353.509 165.065 353.406 165.008 353.291C165.008 353.291 157.767 338.174 151.198 336.27C150.666 336.093 150.102 336.038 149.546 336.109C148.99 336.18 148.458 336.376 147.988 336.681C147.556 336.89 147.19 337.212 146.927 337.613C146.664 338.014 146.514 338.478 146.495 338.958C146.495 343.362 155.826 350.566 159.41 352.955C159.627 353.093 159.781 353.313 159.837 353.565C159.893 353.817 159.847 354.081 159.708 354.298C159.57 354.516 159.35 354.67 159.098 354.726C158.846 354.782 158.582 354.736 158.364 354.597C154.632 352.208 143.807 346.348 138.88 347.916C138.401 348.057 137.961 348.31 137.598 348.654C137.235 348.998 136.958 349.423 136.79 349.894C136.55 350.389 136.441 350.937 136.474 351.486C136.506 352.035 136.68 352.567 136.977 353.029C140.262 357.844 156.984 358.815 163.105 358.778C163.362 358.778 163.609 358.88 163.791 359.062C163.973 359.244 164.075 359.491 164.075 359.748C164.081 359.877 164.059 360.005 164.012 360.126C163.965 360.246 163.894 360.355 163.803 360.446C163.712 360.537 163.603 360.608 163.482 360.655C163.362 360.702 163.234 360.724 163.105 360.719H162.993Z" fill="white"/>
<path d="M100.437 394.759C100.189 394.759 99.9517 394.661 99.7767 394.486C99.6017 394.311 99.5034 394.073 99.5034 393.826C99.5034 393.578 99.6017 393.341 99.7767 393.166C99.9517 392.991 100.189 392.893 100.437 392.893L252.017 387.555C252.264 387.555 252.502 387.653 252.677 387.828C252.852 388.003 252.95 388.241 252.95 388.488C252.95 388.736 252.852 388.973 252.677 389.148C252.502 389.323 252.264 389.421 252.017 389.421L100.437 394.759Z" fill="black"/>
<path d="M120.405 331.455L100.436 369.975L144.443 384.868L162.845 381.994L171.84 355.082L120.405 331.455Z" fill="#FD8753"/>
<path d="M183 419.656C181.619 423.052 159.484 422.94 157.655 423.687C155.827 424.433 148.847 412.489 145.525 414.803C142.203 417.117 138.619 423.649 133.73 427.046C128.84 430.443 48.5893 440.147 32.7258 439.998C32.4037 439.984 32.0877 439.906 31.7963 439.768C31.5048 439.63 31.2438 439.436 31.0283 439.196C30.8128 438.956 30.6473 438.676 30.5415 438.371C30.4356 438.067 30.3913 437.744 30.4115 437.423C30.6406 431.561 31.4407 425.735 32.8004 420.029C34.0971 413.693 37.0606 407.817 41.3853 403.008C52.5831 391.81 78.3007 384.793 86.9603 377.216C95.6199 369.639 104.354 352.992 110.401 355.156C116.448 357.321 128.84 369.303 143.994 365.384C159.149 361.464 165.83 356.836 170.495 360.083C173.407 362.136 177.961 384.009 180.872 400.657C182.276 406.892 182.989 413.264 183 419.656Z" fill="#3CEAAA"/>
<path d="M79.1201 387.256C72.4387 387.256 64.7123 386.473 61.8755 383.188C61.3132 382.529 60.9289 381.737 60.759 380.888C60.5891 380.039 60.6394 379.16 60.905 378.336C61.1077 377.579 61.4779 376.877 61.9883 376.283C62.4987 375.688 63.1363 375.216 63.8538 374.902C67.9411 373.844 72.2605 374.132 76.1713 375.723C72.7746 373.147 69.602 370.012 69.3033 367.101C69.2323 366.304 69.3705 365.503 69.7044 364.776C70.0383 364.049 70.5563 363.422 71.207 362.957C71.857 362.429 72.6157 362.052 73.4288 361.852C74.2419 361.652 75.0893 361.634 75.91 361.8C83.3752 363.107 92.4453 377.44 92.8186 378.037C92.9463 378.251 92.9866 378.507 92.931 378.75C92.8754 378.993 92.7282 379.206 92.52 379.343C92.4182 379.411 92.3036 379.456 92.1834 379.478C92.0632 379.499 91.9399 379.496 91.8211 379.468C91.7022 379.44 91.5903 379.388 91.4922 379.315C91.3942 379.242 91.3121 379.15 91.251 379.045C91.251 379.045 82.3674 364.824 75.5741 363.629C75.0204 363.511 74.4471 363.52 73.8974 363.655C73.3478 363.791 72.8361 364.05 72.4013 364.413C71.987 364.677 71.653 365.05 71.4358 365.491C71.2187 365.932 71.1266 366.424 71.1696 366.914C71.6175 371.281 81.7328 377.402 85.6147 379.418C85.8032 379.547 85.9378 379.741 85.993 379.962C86.0483 380.184 86.0205 380.418 85.9147 380.62C85.8089 380.823 85.6325 380.979 85.419 381.06C85.2056 381.141 84.9697 381.141 84.7562 381.06C80.7623 379.119 69.3407 374.491 64.6376 376.619C64.1659 376.804 63.7463 377.102 63.4148 377.485C63.0832 377.869 62.8496 378.327 62.734 378.821C62.5347 379.345 62.4816 379.914 62.5802 380.466C62.6788 381.018 62.9254 381.533 63.2938 381.956C67.0264 386.398 83.8231 385.689 89.9445 384.793C90.1662 384.801 90.3777 384.888 90.541 385.038C90.7043 385.189 90.8088 385.392 90.8358 385.612C90.8627 385.832 90.8103 386.055 90.688 386.24C90.5658 386.425 90.3816 386.56 90.1685 386.622C86.501 387.047 82.8121 387.258 79.1201 387.256Z" fill="black"/>
<path d="M31.4915 427.531C31.2721 427.533 31.0598 427.454 30.8946 427.31C30.7295 427.165 30.6232 426.965 30.5957 426.748C30.5746 426.627 30.5784 426.503 30.6069 426.384C30.6354 426.265 30.6879 426.153 30.7614 426.055C30.8348 425.957 30.9276 425.876 31.0339 425.815C31.1403 425.754 31.2579 425.716 31.3795 425.702L181.392 403.307C181.617 403.307 181.834 403.388 182.004 403.535C182.173 403.682 182.284 403.886 182.316 404.108C182.348 404.33 182.298 404.557 182.177 404.746C182.055 404.934 181.869 405.073 181.654 405.136L31.6409 427.531H31.4915Z" fill="black"/>
<path d="M268.848 53.0036L299.605 70.7708V35.4605L268.848 17.6934V53.0036Z" fill="#3CEAAA"/>
<path d="M299.495 35.4222L330.289 17.6551L299.719 0L268.925 17.767L299.495 35.4222Z" fill="#FFFBA1"/>
<path d="M299.605 70.7708L330.362 53.0036V17.6934L299.605 35.4605V70.7708Z" fill="#CCBAFB"/>
<path d="M458.354 326.155H299.868C291.272 326.155 284.303 333.124 284.303 341.72V405.286C284.303 413.882 291.272 420.851 299.868 420.851H458.354C466.95 420.851 473.919 413.882 473.919 405.286V341.72C473.919 333.124 466.95 326.155 458.354 326.155Z" fill="#2E2865"/>
<path d="M369.778 90.9639C369.778 90.9639 346.599 86.2609 330.288 100.221C313.976 114.181 304.719 220.746 304.719 220.746C304.719 220.746 359.476 250.383 406.171 250.383C452.866 250.383 448.723 248.255 448.723 248.255L459.622 204.994L369.778 90.9639Z" fill="black"/>
<path d="M444.057 326.155H285.572C276.975 326.155 270.007 333.124 270.007 341.72V405.286C270.007 413.882 276.975 420.851 285.572 420.851H444.057C452.654 420.851 459.622 413.882 459.622 405.286V341.72C459.622 333.124 452.654 326.155 444.057 326.155Z" fill="#3E3789"/>
<path d="M239.924 35.6464C239.924 35.6464 233.243 18.5885 229.659 23.4409C226.076 28.2932 232.72 53.8614 232.72 53.8614C232.72 53.8614 247.837 56.3249 239.924 35.6464Z" fill="#FD8753"/>
<path d="M252.201 94.6585C252.201 94.6585 266.46 81.2958 265.788 74.2412C265.116 67.1866 261.794 51.2485 261.794 51.2485C261.794 51.2485 275.791 36.6914 275.119 33.556C274.447 30.4207 263.66 35.3477 263.66 35.3477C263.66 35.3477 275.156 24.1499 275.156 19.5588C275.156 14.9677 269.11 17.3566 269.11 17.3566C269.11 17.3566 270.005 12.243 266.459 12.6909C262.914 13.1388 240.667 28.4424 234.21 36.6914C227.753 44.9404 234.658 65.9549 234.21 68.8663C233.057 72.0891 231.408 75.1118 229.32 77.8246L252.201 94.6585Z" fill="#FD8753"/>
<path d="M222.604 71.1431L271.613 95.6288C271.613 95.6288 264.969 114.852 280.31 120.488C295.651 126.124 313.492 101.004 333.947 94.6583C345.846 90.84 358.513 90.0699 370.788 92.4187L361.046 177.41C361.046 177.41 269.261 226.195 224.843 194.02C180.426 161.845 222.604 71.1431 222.604 71.1431Z" fill="black"/>
<path d="M232.305 43.746C232.173 43.7365 232.044 43.701 231.925 43.6414C231.806 43.5818 231.7 43.4994 231.614 43.3988C231.527 43.2982 231.461 43.1814 231.42 43.0552C231.378 42.9291 231.362 42.7959 231.372 42.6635C231.982 38.5219 233.755 34.6386 236.486 31.4657C236.573 31.3754 236.677 31.3036 236.793 31.2546C236.908 31.2055 237.032 31.1802 237.158 31.1802C237.283 31.1802 237.407 31.2055 237.523 31.2546C237.638 31.3036 237.742 31.3754 237.83 31.4657C237.919 31.5495 237.99 31.6507 238.039 31.7631C238.087 31.8754 238.112 31.9965 238.112 32.1189C238.112 32.2413 238.087 32.3625 238.039 32.4749C237.99 32.5872 237.919 32.6884 237.83 32.7722C235.404 35.6139 233.826 39.0802 233.276 42.7755C233.281 42.9043 233.26 43.0329 233.213 43.153C233.166 43.2731 233.094 43.3822 233.003 43.4734C232.912 43.5646 232.803 43.6359 232.683 43.6828C232.563 43.7297 232.434 43.7513 232.305 43.746Z" fill="black"/>
<path d="M250.186 33.1835C250.04 33.19 249.895 33.1591 249.764 33.0938C249.634 33.0285 249.522 32.9308 249.44 32.8103C249.35 32.7265 249.279 32.6253 249.23 32.5129C249.182 32.4006 249.157 32.2795 249.157 32.1571C249.157 32.0347 249.182 31.9136 249.23 31.8012C249.279 31.6889 249.35 31.5877 249.44 31.5039L268.102 16.9468C268.3 16.7983 268.549 16.7345 268.794 16.7695C269.039 16.8045 269.26 16.9355 269.409 17.1335C269.498 17.2172 269.569 17.3184 269.618 17.4308C269.666 17.5431 269.692 17.6642 269.692 17.7866C269.692 17.909 269.666 18.0302 269.618 18.1426C269.569 18.2549 269.498 18.3561 269.409 18.4399L250.746 32.997C250.579 33.1081 250.386 33.1725 250.186 33.1835Z" fill="black"/>
<path d="M258.362 38.1854C258.207 38.1907 258.053 38.1556 257.916 38.0837C257.779 38.0117 257.662 37.9053 257.578 37.7749C257.508 37.6723 257.46 37.5569 257.435 37.4353C257.41 37.3137 257.41 37.1884 257.435 37.0668C257.459 36.9452 257.507 36.8296 257.577 36.7269C257.646 36.6242 257.736 36.5363 257.839 36.4684L264.857 31.8401C265.071 31.7123 265.327 31.672 265.57 31.7276C265.813 31.7832 266.026 31.9304 266.163 32.1386C266.232 32.2382 266.28 32.3508 266.304 32.4694C266.329 32.5881 266.329 32.7104 266.304 32.829C266.28 32.9477 266.231 33.0601 266.162 33.1596C266.093 33.2591 266.005 33.3434 265.902 33.4077L258.847 38.0362C258.705 38.136 258.536 38.1881 258.362 38.1854Z" fill="black"/>
<path d="M331.223 197.193C331.223 197.193 256.31 130.006 213.31 140.756C170.311 151.506 167.026 196.371 159.374 246.948C151.722 297.525 149.296 334.477 149.296 334.477L252.241 336.53L258.362 248.18L368.325 213.952L331.223 197.193Z" fill="#9364ED"/>
<path d="M237.161 336.009C237.031 336.009 236.904 335.983 236.785 335.931C236.667 335.88 236.561 335.804 236.473 335.709C236.385 335.615 236.318 335.503 236.276 335.381C236.234 335.259 236.217 335.129 236.227 335.001L238.915 305.924C238.924 305.803 238.958 305.684 239.014 305.577C239.07 305.469 239.148 305.374 239.242 305.297C239.336 305.22 239.446 305.163 239.563 305.13C239.679 305.096 239.802 305.087 239.923 305.103C240.045 305.112 240.165 305.146 240.275 305.202C240.384 305.257 240.482 305.334 240.561 305.428C240.641 305.522 240.702 305.63 240.739 305.747C240.777 305.864 240.791 305.988 240.781 306.11L238.094 335.187C238.075 335.418 237.967 335.633 237.793 335.786C237.619 335.939 237.392 336.019 237.161 336.009Z" fill="#D7CAFF"/>
<path d="M448.721 248.255C448.721 248.255 435.247 302.527 412.478 318.875C389.709 335.224 357.385 330.857 319.163 310.104C281.837 289.686 270.64 282.109 266.459 282.109C262.279 282.109 188.075 384.867 188.075 384.867L101.479 339.628C101.479 339.628 167.471 180.172 222.154 168.377C275.082 156.956 393.852 231.831 393.852 231.831L448.721 248.255Z" fill="#AE8FF9"/>
<path d="M406.168 27.5102C406.168 27.5102 437.186 19.1865 448.421 40.201C459.656 61.2155 449.989 146.505 449.989 146.505L402.323 115.189L403.331 72.8985L406.168 27.5102Z" fill="white"/>
<path d="M343.538 138.032L307.369 170.282C307.369 170.282 359.028 251.391 432.56 238.476C506.092 225.562 473.618 157.405 461.525 139.04C442.451 110.449 419.085 94.2492 398.071 92.6442C377.056 91.0392 343.538 138.032 343.538 138.032Z" fill="black"/>
<path d="M397.997 76.2576L397.437 98.877C397.437 98.877 393.182 105.26 379.931 106.006C370.077 106.566 367.091 101.415 367.091 101.415L369.965 81.7071L393.965 77.0414L397.997 76.2576Z" fill="#FD8753"/>
<path d="M393.965 76.8552C393.841 77.6089 393.602 78.339 393.256 79.0201C387.918 90.2178 374.033 92.2709 368.322 92.6441L369.965 81.4463L393.965 76.8552Z" fill="black"/>
<path d="M366.231 29.8983C366.231 29.8983 353.652 57.9301 357.945 73.7936C362.237 89.6571 376.608 87.2683 385.305 84.3195C390.197 82.7548 394.579 79.9061 397.995 76.0705C400.442 76.8248 403.065 76.7829 405.487 75.9512C407.908 75.1194 410.003 73.5406 411.47 71.4421C416.92 63.9769 413.71 55.3919 409.118 53.3764C407.442 52.8779 405.681 52.7333 403.946 52.9518C402.211 53.1703 400.541 53.747 399.04 54.6454L403.408 46.5084C403.408 46.5084 385.753 4.74071 366.231 29.8983Z" fill="#FD8753"/>
<path d="M382.993 44.9785C382.821 44.9745 382.653 44.9282 382.503 44.8435C382.353 44.7589 382.227 44.6386 382.134 44.4933C381.875 43.9397 381.502 43.4473 381.038 43.0484C380.575 42.6496 380.033 42.3533 379.447 42.1791C378.167 41.9539 376.848 42.1781 375.714 42.8137C375.531 42.9176 375.32 42.9592 375.111 42.9323C374.902 42.9053 374.708 42.8113 374.557 42.6643C374.427 42.4442 374.386 42.183 374.442 41.9335C374.497 41.684 374.645 41.465 374.856 41.3207C376.44 40.3835 378.314 40.0644 380.119 40.4248C380.929 40.6846 381.677 41.1065 382.319 41.6648C382.96 42.223 383.482 42.906 383.851 43.6721C383.974 43.901 384.004 44.1686 383.935 44.419C383.865 44.6694 383.702 44.8832 383.478 45.0159C383.316 45.0418 383.149 45.029 382.993 44.9785Z" fill="black"/>
<path d="M362.239 42.3283C362.105 42.3667 361.963 42.3667 361.829 42.3283C361.598 42.2224 361.417 42.0301 361.327 41.7929C361.236 41.5556 361.242 41.2922 361.343 41.0593C361.504 40.6754 361.748 40.3321 362.058 40.0545C362.368 39.7768 362.736 39.5719 363.135 39.4543C364.737 39.2711 366.349 39.6974 367.651 40.6486C367.758 40.7194 367.848 40.8113 367.917 40.9185C367.987 41.0257 368.034 41.146 368.055 41.272C368.076 41.3979 368.07 41.5269 368.04 41.6508C368.009 41.7747 367.953 41.891 367.875 41.9924C367.731 42.2047 367.509 42.3514 367.257 42.4003C367.005 42.4493 366.744 42.3966 366.531 42.2537C365.703 41.6379 364.689 41.322 363.657 41.3578C363.535 41.3941 363.421 41.4562 363.325 41.5399C363.228 41.6236 363.151 41.727 363.097 41.8431C363.014 41.9961 362.889 42.1226 362.738 42.2084C362.586 42.2942 362.413 42.3357 362.239 42.3283Z" fill="black"/>
<path d="M382.018 50.9509C381.857 50.9424 381.699 50.8978 381.557 50.8203C381.415 50.7427 381.292 50.6343 381.197 50.503C381.069 50.2478 380.885 50.0247 380.659 49.8502C380.433 49.6758 380.17 49.5544 379.891 49.4952C378.721 49.5191 377.598 49.9554 376.718 50.727C376.628 50.8184 376.52 50.8909 376.402 50.9404C376.283 50.99 376.156 51.0155 376.028 51.0155C375.899 51.0155 375.772 50.99 375.653 50.9404C375.535 50.8909 375.427 50.8184 375.337 50.727C375.247 50.6399 375.175 50.5355 375.126 50.4201C375.077 50.3047 375.051 50.1806 375.051 50.0551C375.051 49.9297 375.077 49.8055 375.126 49.6901C375.175 49.5746 375.247 49.4702 375.337 49.3832C376.636 48.2533 378.32 47.6654 380.04 47.7408C380.6 47.8274 381.133 48.0405 381.599 48.3639C382.065 48.6873 382.451 49.1124 382.728 49.6071C382.797 49.7148 382.843 49.8352 382.866 49.9612C382.888 50.0871 382.885 50.2163 382.858 50.3412C382.83 50.466 382.778 50.5842 382.704 50.6888C382.63 50.7935 382.537 50.8826 382.429 50.9509C382.294 50.9841 382.153 50.9841 382.018 50.9509Z" fill="black"/>
<path d="M366.009 50.1295C365.827 50.1318 365.647 50.0843 365.489 49.9923C365.331 49.9002 365.201 49.767 365.113 49.6069C364.967 49.2633 364.754 48.952 364.487 48.6909C364.22 48.4297 363.904 48.2238 363.557 48.0851C363.211 47.9464 362.84 47.8775 362.466 47.8824C362.093 47.8874 361.724 47.9661 361.381 48.1139C361.142 48.2032 360.879 48.199 360.644 48.1021C360.408 48.0051 360.218 47.8227 360.112 47.5914C360.023 47.353 360.027 47.0896 360.124 46.8542C360.221 46.6188 360.403 46.4288 360.635 46.3223C361.779 45.832 363.07 45.8115 364.23 46.2655C365.389 46.7195 366.323 47.6114 366.831 48.7485C366.936 48.9824 366.949 49.2477 366.866 49.4905C366.782 49.7333 366.61 49.9351 366.383 50.0549L366.009 50.1295Z" fill="black"/>
<path d="M367.093 63.9035C366.861 63.9139 366.635 63.8341 366.461 63.681C366.287 63.5279 366.179 63.3133 366.16 63.0823C366.102 58.7167 367.06 54.3974 368.959 50.4661C369.071 50.2511 369.262 50.0881 369.492 50.0115C369.722 49.9349 369.973 49.9507 370.191 50.0556C370.304 50.1036 370.406 50.1744 370.491 50.2636C370.576 50.3528 370.641 50.4584 370.683 50.574C370.725 50.6895 370.743 50.8125 370.735 50.9352C370.728 51.0579 370.695 51.1778 370.639 51.2873C368.901 54.9091 368.007 58.8784 368.026 62.8957C368.036 63.0183 368.022 63.1417 367.984 63.2588C367.947 63.376 367.886 63.4845 367.807 63.5781C367.727 63.6718 367.629 63.7487 367.52 63.8046C367.41 63.8604 367.29 63.894 367.168 63.9035H367.093Z" fill="black"/>
<path d="M373.959 72.0767C373.754 72.0685 373.557 71.9954 373.396 71.8679C373.235 71.7405 373.118 71.5653 373.063 71.3675C373.036 71.2474 373.032 71.123 373.053 71.0015C373.074 70.8801 373.119 70.7639 373.184 70.6598C373.25 70.5557 373.336 70.4657 373.437 70.395C373.538 70.3242 373.652 70.2743 373.772 70.2478C373.772 70.2478 378.849 69.016 380.267 65.4327C380.366 65.2042 380.549 65.0225 380.778 64.9253C381.008 64.828 381.266 64.8225 381.499 64.9101C381.615 64.9552 381.721 65.0233 381.811 65.1101C381.9 65.197 381.971 65.3008 382.02 65.4156C382.069 65.5305 382.094 65.6539 382.094 65.7787C382.094 65.9034 382.07 66.0269 382.021 66.1419C381.219 67.6367 380.103 68.9407 378.75 69.965C377.397 70.9892 375.84 71.7095 374.183 72.0767H373.959Z" fill="black"/>
<path d="M399.899 66.7023C399.763 66.7012 399.63 66.6706 399.507 66.6125C399.385 66.5545 399.276 66.4705 399.19 66.3664C399.019 66.192 398.923 65.9574 398.923 65.7131C398.923 65.4689 399.019 65.2344 399.19 65.06L408.297 57.5948C408.49 57.4364 408.738 57.3611 408.987 57.3856C409.235 57.4101 409.464 57.5324 409.622 57.7254C409.781 57.9185 409.856 58.1665 409.831 58.415C409.807 58.6635 409.685 58.8922 409.491 59.0505L400.384 66.5157C400.239 66.6151 400.073 66.679 399.899 66.7023Z" fill="black"/>
<path d="M409.008 66.7018C408.874 66.7402 408.732 66.7402 408.598 66.7018L402.924 63.9023C402.707 63.7834 402.543 63.5856 402.466 63.3495C402.39 63.1135 402.407 62.8572 402.514 62.6333C402.625 62.4183 402.817 62.2553 403.047 62.1787C403.276 62.102 403.527 62.1177 403.745 62.2226L409.419 65.0221C409.634 65.1339 409.797 65.3249 409.874 65.5548C409.95 65.7847 409.934 66.0354 409.83 66.2539C409.747 66.3969 409.627 66.5144 409.482 66.5934C409.337 66.6725 409.173 66.71 409.008 66.7018Z" fill="black"/>
<path d="M399.041 54.6462C392.717 53.6898 386.986 50.3844 382.991 45.3894C379.226 40.3248 376.185 34.7592 373.959 28.854C371.296 29.3801 368.881 30.771 367.09 32.8105C365.112 35.2367 362.761 38.7827 362.761 38.7827C362.761 38.7827 362.761 27.585 368.397 21.8368C374.033 16.0886 379.109 18.2908 379.109 18.2908C383.274 16.3315 387.942 15.7032 392.477 16.4913C397.012 17.2794 401.194 19.4456 404.454 22.6952C417.144 34.1543 410.986 54.6462 410.986 54.6462C407.145 53.1507 402.882 53.1507 399.041 54.6462Z" fill="white"/>
<path d="M338.014 87.2313C338.014 87.2313 338.35 78.8703 335.662 76.0336C332.975 73.1968 330.922 77.4892 330.922 77.4892C330.922 77.4892 328.57 69.3522 325.883 71.8157C323.944 74.1522 322.656 76.9591 322.15 79.9528C322.15 79.9528 317.447 76.4442 315.655 83.4241C313.864 90.4041 313.565 100.631 306.772 107.089C302.468 111.521 299.47 117.054 298.107 123.079C296.744 129.104 297.068 135.389 299.045 141.242C304.084 153.858 313.565 154.343 313.565 154.343L331.37 135.68C331.37 135.68 327.973 123.736 333.311 119.406C338.648 115.076 344.508 112.314 345.553 102.46C346.076 98.653 338.014 87.2313 338.014 87.2313ZM334.766 106.753L336.483 97.8692C341.821 104.961 334.766 106.753 334.766 106.753Z" fill="#FD8753"/>
<path d="M336.486 98.6525H336.188C336.07 98.6153 335.96 98.5539 335.867 98.4723C335.774 98.3906 335.698 98.2904 335.646 98.1782C335.593 98.0659 335.564 97.944 335.561 97.82C335.558 97.6961 335.581 97.5727 335.628 97.458C338.353 89.6942 337.27 87.6787 337.27 87.6787C337.182 87.5982 337.112 87.5002 337.063 87.3909C337.015 87.2817 336.99 87.1636 336.99 87.0442C336.99 86.9247 337.015 86.8066 337.063 86.6973C337.112 86.5881 337.182 86.4901 337.27 86.4096C337.451 86.2362 337.692 86.1394 337.942 86.1394C338.193 86.1394 338.433 86.2362 338.614 86.4096C338.913 86.7829 340.294 89.1344 337.233 97.9433C337.188 98.1196 337.093 98.2797 336.961 98.4051C336.829 98.5305 336.665 98.6162 336.486 98.6525Z" fill="black"/>
<path d="M327.041 104.812C326.894 104.849 326.74 104.849 326.593 104.812C326.485 104.753 326.39 104.674 326.312 104.578C326.235 104.482 326.178 104.373 326.143 104.255C326.108 104.137 326.097 104.013 326.11 103.891C326.124 103.769 326.161 103.65 326.22 103.542C331.894 93.4645 329.953 77.825 329.953 77.6757C329.915 77.5459 329.906 77.4095 329.927 77.276C329.947 77.1424 329.996 77.0149 330.071 76.9022C330.145 76.7895 330.243 76.6944 330.358 76.6233C330.473 76.5522 330.601 76.5069 330.736 76.4905C330.87 76.474 331.006 76.4869 331.134 76.5282C331.263 76.5695 331.381 76.6383 331.481 76.7297C331.58 76.8211 331.658 76.9329 331.71 77.0576C331.762 77.1823 331.787 77.3168 331.781 77.4517C331.781 78.1236 333.722 93.8377 327.788 104.438C327.703 104.556 327.591 104.652 327.461 104.717C327.331 104.782 327.187 104.815 327.041 104.812Z" fill="black"/>
<path d="M317.596 104.812C317.472 104.818 317.348 104.797 317.232 104.752C317.117 104.707 317.012 104.639 316.924 104.551C316.833 104.464 316.762 104.36 316.713 104.244C316.664 104.129 316.638 104.005 316.638 103.879C316.638 103.754 316.664 103.63 316.713 103.514C316.762 103.399 316.833 103.295 316.924 103.207C321.925 98.2058 321.403 80.14 321.366 79.9534C321.366 79.7059 321.464 79.4686 321.639 79.2936C321.814 79.1186 322.051 79.0203 322.299 79.0203C322.546 79.0203 322.783 79.1186 322.958 79.2936C323.133 79.4686 323.232 79.7059 323.232 79.9534C323.232 80.7373 323.829 99.027 318.23 104.626C318.143 104.699 318.042 104.754 317.933 104.786C317.823 104.818 317.709 104.827 317.596 104.812Z" fill="black"/>
<path d="M162.846 224.479C162.688 224.528 162.518 224.528 162.36 224.479C162.148 224.354 161.994 224.151 161.931 223.913C161.869 223.676 161.902 223.423 162.024 223.21C162.248 222.874 183.188 188.086 212.004 171.289C243.731 152.85 318.756 190.512 321.929 192.117C322.146 192.236 322.31 192.434 322.386 192.67C322.463 192.906 322.446 193.162 322.339 193.386C322.22 193.604 322.022 193.768 321.786 193.844C321.55 193.92 321.294 193.903 321.07 193.797C320.323 193.386 243.805 154.941 212.825 172.894C184.42 189.43 163.704 223.807 163.48 224.18C163.313 224.355 163.087 224.462 162.846 224.479Z" fill="white"/>
<path d="M266.61 283.042H266.311C266.165 283.001 266.031 282.926 265.92 282.822C265.81 282.718 265.726 282.588 265.677 282.445C265.08 280.877 259.966 266.805 265.677 262.587C265.887 262.343 266.148 262.146 266.441 262.012C266.734 261.877 267.052 261.808 267.375 261.808C267.697 261.808 268.016 261.877 268.309 262.012C268.603 262.146 268.863 262.343 269.073 262.587C271.611 265.76 269.82 280.541 267.319 282.669C267.233 282.776 267.125 282.865 267.003 282.929C266.881 282.993 266.747 283.031 266.61 283.042ZM267.244 263.744C267.244 263.744 266.983 263.744 266.684 264.043C263.437 266.506 265.266 274.942 266.684 279.757C267.953 275.801 269.073 266.021 267.356 263.894C267.339 263.832 267.299 263.779 267.244 263.744Z" fill="white"/>
<path d="M280.309 143.63C279.867 143.639 279.43 143.542 279.034 143.347C278.638 143.152 278.294 142.865 278.032 142.51C274.822 138.33 278.928 122.093 279.413 120.115C279.486 119.938 279.611 119.787 279.77 119.68C279.93 119.574 280.117 119.517 280.309 119.517C280.5 119.517 280.688 119.574 280.847 119.68C281.006 119.787 281.131 119.938 281.204 120.115C281.69 121.981 285.795 138.218 282.585 142.51C282.319 142.861 281.974 143.144 281.579 143.339C281.184 143.533 280.749 143.633 280.309 143.63ZM280.309 124.556C278.928 131.051 277.845 139.225 279.525 141.353C279.602 141.493 279.716 141.61 279.854 141.691C279.991 141.772 280.149 141.815 280.309 141.815C280.469 141.815 280.626 141.772 280.764 141.691C280.901 141.61 281.015 141.493 281.093 141.353C282.772 139.225 281.69 131.051 280.309 124.556Z" fill="#FFB700"/>
<path d="M379.632 117.054C378.499 117.091 377.37 116.887 376.322 116.456C375.273 116.025 374.328 115.377 373.548 114.554C372.185 112.875 371.376 110.814 371.233 108.656C368.77 110.41 364.067 113.135 361.566 110.896C358.244 107.872 363.432 100.93 364.03 100.146C364.206 99.9508 364.442 99.8195 364.701 99.7725C364.837 99.7635 364.973 99.7821 365.101 99.827C365.23 99.8719 365.348 99.9422 365.448 100.034C366.045 100.556 380.378 112.799 396.764 97.9436C396.886 97.8516 397.024 97.7845 397.171 97.7461C397.319 97.7077 397.472 97.6987 397.623 97.7197C397.772 97.751 397.911 97.8184 398.028 97.916C398.145 98.0136 398.237 98.1384 398.295 98.2795C399.041 99.8845 402.475 107.947 398.295 109.813C396.9 110.189 395.438 110.239 394.021 109.961C392.604 109.683 391.269 109.083 390.12 108.208C388.926 110.746 385.081 117.054 379.632 117.054ZM372.764 105.857C372.884 105.955 372.977 106.081 373.036 106.225C373.094 106.368 373.116 106.524 373.1 106.678C372.965 108.974 373.639 111.246 375.003 113.098C375.586 113.704 376.289 114.183 377.066 114.504C377.843 114.826 378.679 114.982 379.52 114.964C385.044 114.964 388.926 106.305 389.001 106.193C389.061 106.062 389.15 105.947 389.261 105.855C389.371 105.763 389.501 105.697 389.64 105.661C389.779 105.625 389.925 105.621 390.066 105.648C390.207 105.676 390.341 105.734 390.456 105.819C391.651 106.753 395.271 108.955 397.585 107.872C399.079 107.2 398.258 103.244 397.063 100.146C393.92 103.228 390.006 105.408 385.731 106.458C381.456 107.509 376.978 107.391 372.764 106.118V105.857ZM365 102.124C363.47 104.401 361.491 108.171 362.872 109.589C364.254 111.008 369.405 107.91 371.532 106.155C371.67 106.015 371.858 105.934 372.055 105.931C369.529 105.017 367.151 103.734 365 102.124Z" fill="#FFB700"/>
<path d="M412.477 161.359H412.179C392.583 154.902 349.397 138.964 348.949 138.964C348.722 138.872 348.538 138.698 348.435 138.477C348.331 138.255 348.314 138.003 348.389 137.77C348.473 137.537 348.646 137.347 348.87 137.242C349.094 137.137 349.351 137.126 349.583 137.21C350.031 137.21 393.18 153.11 412.776 159.605C413.009 159.69 413.202 159.861 413.313 160.083C413.424 160.306 413.446 160.562 413.373 160.8C413.29 160.967 413.163 161.108 413.004 161.206C412.846 161.305 412.664 161.358 412.477 161.359Z" fill="#FFB700"/>
<path d="M430.544 166.885C423.49 166.885 410.426 160.913 408.746 160.129C408.561 160.031 408.412 159.877 408.318 159.69C408.224 159.503 408.191 159.291 408.224 159.084C408.277 158.882 408.392 158.702 408.553 158.568C408.713 158.434 408.911 158.354 409.119 158.337C412.852 158.337 431.813 158.076 434.762 162.294C435.012 162.633 435.171 163.031 435.223 163.449C435.275 163.868 435.22 164.292 435.061 164.683C434.887 165.092 434.632 165.462 434.312 165.77C433.991 166.078 433.611 166.318 433.195 166.475C432.345 166.776 431.446 166.915 430.544 166.885ZM413.599 160.204C419.795 162.779 429.201 166.064 432.485 164.757C432.668 164.699 432.835 164.602 432.977 164.473C433.118 164.344 433.231 164.187 433.306 164.011C433.371 163.918 433.405 163.807 433.405 163.694C433.405 163.58 433.371 163.47 433.306 163.376C431.552 161.174 421.549 160.316 413.449 160.204H413.599Z" fill="#FFB700"/>
<path d="M428.118 268.188C410.537 267.852 405.312 250.794 405.274 250.644C405.205 250.407 405.233 250.151 405.352 249.934C405.471 249.717 405.672 249.557 405.909 249.487C406.027 249.447 406.151 249.433 406.275 249.443C406.398 249.454 406.518 249.491 406.627 249.55C406.736 249.61 406.831 249.692 406.907 249.79C406.982 249.888 407.037 250.001 407.066 250.122C408.463 254.671 411.24 258.674 415.011 261.576C418.783 264.478 423.363 266.136 428.118 266.321C428.369 266.331 428.606 266.437 428.78 266.618C428.954 266.799 429.051 267.041 429.051 267.292C429.033 267.53 428.928 267.752 428.756 267.918C428.583 268.083 428.356 268.179 428.118 268.188Z" fill="white"/>
<path d="M399.228 63.9036C398.105 63.8705 396.991 63.7076 395.906 63.4183C390.195 61.9626 381.871 57.6702 374.705 57.1849C369.327 56.8206 363.925 57.2101 358.655 58.342C358.655 58.342 352.533 59.1258 352.384 51.1381C352.235 43.1503 353.989 32.4752 366.68 30.3476C379.045 28.9522 391.52 31.7521 402.102 38.298C402.958 38.8522 403.725 39.5316 404.379 40.3136C409.567 46.3977 404.64 63.7916 399.228 63.9036Z" fill="black"/>
<path d="M359.623 56.2136C359.623 56.2136 354.808 57.0348 354.547 51.1C354.285 45.1652 355.405 37.4014 365.408 35.3111C375.412 33.2209 391.126 37.1027 395.269 41.4699C399.412 45.837 395.903 58.7891 391.536 59.0504C387.169 59.3117 378.958 55.0565 372.052 54.8698C367.869 54.7922 363.693 55.2437 359.623 56.2136Z" fill="white"/>
<path d="M402.628 46.8068C406.462 47.9221 409.837 50.2378 412.258 53.4135C413.724 56.6981 414.438 60.2688 414.348 63.8647C413.551 60.4415 411.601 57.3969 408.824 55.2424C406.078 54.1553 403.022 54.1553 400.276 55.2424L402.628 46.8068Z" fill="black"/>
<path d="M399.08 63.9027C397.933 63.8701 396.793 63.7073 395.683 63.4175C398.87 60.9025 401.15 57.4167 402.178 53.4888C403.432 48.5026 403.432 43.2833 402.178 38.2971C403.038 38.8596 403.817 39.5379 404.492 40.3127C409.643 46.3969 404.417 63.7908 399.08 63.9027Z" fill="#4A1799"/>
<path d="M171.839 375.424C171.655 375.472 171.462 375.472 171.279 375.424C171.178 375.354 171.092 375.264 171.026 375.159C170.96 375.055 170.915 374.939 170.895 374.818C170.874 374.696 170.877 374.572 170.905 374.452C170.932 374.332 170.983 374.218 171.055 374.118C174.377 369.378 252.351 257.213 265.228 255.086C271.461 254.115 284.376 263.036 300.874 274.346C319.537 287.074 342.418 302.9 361.267 307.939C392.061 315.927 409.791 304.02 423.154 266.881C423.231 266.65 423.395 266.459 423.611 266.347C423.827 266.235 424.078 266.213 424.311 266.284C424.429 266.321 424.539 266.383 424.633 266.464C424.728 266.545 424.805 266.644 424.861 266.755C424.917 266.866 424.95 266.987 424.958 267.112C424.966 267.236 424.949 267.36 424.908 267.478C415.465 294.166 400.422 320.033 360.82 309.731C341.634 304.766 318.417 288.828 299.792 276.137C284.301 265.5 270.827 256.28 265.526 257.213C255.486 258.856 195.055 343.063 172.585 375.462C172.465 375.51 172.337 375.531 172.208 375.525C172.079 375.518 171.953 375.484 171.839 375.424Z" fill="white"/>
<path d="M150.601 364.562C150.428 364.595 150.251 364.595 150.078 364.562C149.883 364.413 149.749 364.199 149.701 363.958C149.653 363.718 149.694 363.468 149.817 363.256C153.177 358.254 232.27 240.603 253.844 231.495C266.461 226.158 289.976 242.394 314.872 259.602C333.05 272.18 351.862 285.17 364.702 287.82C393.518 293.829 411.322 260.684 411.509 260.348C411.556 260.225 411.628 260.113 411.721 260.02C411.815 259.926 411.927 259.854 412.05 259.807C412.173 259.76 412.305 259.74 412.436 259.748C412.568 259.756 412.697 259.791 412.814 259.852C412.93 259.914 413.033 259.999 413.114 260.102C413.196 260.206 413.255 260.326 413.287 260.454C413.319 260.582 413.323 260.715 413.3 260.845C413.276 260.974 413.226 261.098 413.151 261.207C413.151 261.58 394.488 295.92 364.329 289.649C351.116 286.924 332.154 273.785 313.79 261.132C290.424 244.97 266.274 228.248 254.591 233.212C233.502 242.133 152.206 363.069 151.385 364.301C151.282 364.399 151.158 364.474 151.022 364.519C150.887 364.564 150.743 364.579 150.601 364.562Z" fill="white"/>
<path d="M311.735 170.505C308.003 170.505 303.71 165.69 303.225 165.093C303.134 165.003 303.061 164.895 303.011 164.777C302.962 164.658 302.936 164.531 302.936 164.403C302.936 164.274 302.962 164.147 303.011 164.028C303.061 163.91 303.134 163.802 303.225 163.712C303.412 163.536 303.659 163.438 303.915 163.438C304.172 163.438 304.419 163.536 304.606 163.712C305.838 165.205 309.682 169.012 312.071 168.34C312.174 168.33 312.272 168.289 312.352 168.222C312.432 168.156 312.49 168.067 312.519 167.967C312.567 164.71 311.672 161.509 309.944 158.748C309.852 158.538 309.831 158.304 309.885 158.081C309.939 157.859 310.064 157.66 310.242 157.516C310.419 157.364 310.644 157.28 310.877 157.28C311.11 157.28 311.335 157.364 311.511 157.516C313.676 159.569 320.619 164.981 323.605 162.966C323.81 162.828 323.98 162.646 324.103 162.432C324.226 162.219 324.298 161.98 324.314 161.734C324.874 158.486 320.582 151.88 318.902 149.603C318.761 149.403 318.7 149.157 318.732 148.914C318.765 148.671 318.888 148.45 319.077 148.294C319.265 148.138 319.506 148.06 319.751 148.074C319.995 148.088 320.225 148.194 320.395 148.371C320.395 148.371 325.322 153.373 329.764 150.947C330.098 150.764 330.39 150.514 330.621 150.212C330.853 149.91 331.018 149.562 331.107 149.192C331.3 145.534 330.347 141.907 328.383 138.816C328.264 138.646 328.2 138.444 328.2 138.237C328.2 138.03 328.264 137.828 328.383 137.659C328.524 137.499 328.714 137.391 328.923 137.351C329.132 137.31 329.349 137.34 329.54 137.435C333.795 139.637 341.484 142.25 343.835 139.898C344.017 139.736 344.155 139.533 344.24 139.305C344.324 139.077 344.352 138.833 344.321 138.592C344.097 135.643 338.722 131.126 336.632 129.521C336.429 129.36 336.296 129.126 336.261 128.868C336.226 128.611 336.292 128.35 336.445 128.14C336.626 127.967 336.866 127.87 337.117 127.87C337.367 127.87 337.608 127.967 337.789 128.14C338.647 128.775 345.926 134.299 346.262 138.666C346.295 139.186 346.219 139.707 346.039 140.195C345.859 140.684 345.579 141.129 345.217 141.503C342.118 144.564 335.064 142.175 331.182 140.533C332.686 143.41 333.26 146.684 332.824 149.901C332.668 150.523 332.385 151.106 331.993 151.613C331.601 152.12 331.109 152.541 330.547 152.85C329.394 153.449 328.114 153.762 326.815 153.762C325.516 153.762 324.235 153.449 323.082 152.85C325.019 155.607 326.073 158.887 326.106 162.256C326.028 162.758 325.849 163.238 325.579 163.668C325.31 164.098 324.955 164.469 324.538 164.757C321.365 166.922 316.513 164.197 313.34 161.846C314.422 164.03 314.738 166.515 314.236 168.9C314.083 169.266 313.843 169.59 313.537 169.843C313.232 170.097 312.87 170.273 312.482 170.356C312.237 170.424 311.987 170.474 311.735 170.505Z" fill="#FFB700"/>
<path d="M264.667 103.469C264.235 103.463 263.81 103.348 263.435 103.133C262.01 102.36 260.875 101.145 260.201 99.67C259.528 98.1952 259.353 96.5414 259.703 94.9583C256.866 97.2352 252.462 100.035 249.662 98.6909C246.863 97.3472 247.423 91.4496 248.393 88.1276C245.292 89.8516 241.853 90.8831 238.315 91.151C234.844 90.8151 234.246 85.5895 234.209 82.3048C231.036 85.3655 224.952 90.4792 221.854 87.9411C218.122 84.9923 220.958 73.1973 221.518 70.8831C221.549 70.7573 221.604 70.6389 221.681 70.5348C221.758 70.4306 221.855 70.343 221.966 70.2769C222.077 70.2108 222.201 70.1677 222.329 70.15C222.457 70.1323 222.588 70.1404 222.713 70.1739C222.837 70.2 222.955 70.2512 223.059 70.3244C223.163 70.3976 223.25 70.4912 223.317 70.5996C223.383 70.7079 223.427 70.8286 223.445 70.9544C223.463 71.0802 223.455 71.2083 223.422 71.331C222.078 76.6313 221.108 84.843 223.086 86.448C225.064 88.0531 230.999 82.9767 234.545 79.2068C234.69 79.0649 234.873 78.9681 235.072 78.9283C235.27 78.8885 235.477 78.9075 235.665 78.9829C235.847 79.0669 235.999 79.2054 236.099 79.3792C236.199 79.553 236.243 79.7535 236.225 79.9533C236.001 82.902 236.225 88.9862 238.464 89.2101C242.412 88.7404 246.222 87.4704 249.662 85.4775C249.83 85.3713 250.024 85.3149 250.222 85.3149C250.42 85.3149 250.614 85.3713 250.782 85.4775C250.931 85.6093 251.036 85.7839 251.083 85.9776C251.13 86.1712 251.116 86.3746 251.043 86.56C249.923 89.5088 248.318 95.9661 250.521 96.9738C252.723 97.9816 258.284 93.9878 261.158 91.1884C261.341 91.0491 261.564 90.9737 261.793 90.9737C262.022 90.9737 262.245 91.0491 262.428 91.1884C262.61 91.3291 262.737 91.5304 262.785 91.7561C262.833 91.9818 262.799 92.2172 262.689 92.4201C262.689 92.6814 259.441 98.6162 264.406 101.528C265.451 102.162 268.624 98.7282 270.751 95.2195C270.885 94.9968 271.102 94.8363 271.354 94.7733C271.606 94.7103 271.872 94.75 272.095 94.8836C272.318 95.0173 272.478 95.234 272.541 95.486C272.604 95.738 272.565 96.0047 272.431 96.2274C271.311 98.019 267.728 103.469 264.667 103.469Z" fill="#FFB700"/>
</svg>
