<svg width="48" height="47" viewBox="0 0 48 47" fill="none" xmlns="http://www.w3.org/2000/svg">
<path fill-rule="evenodd" clip-rule="evenodd" d="M33.6002 9.51233C36.801 9.99703 38.401 12.0484 38.401 15.6664C38.401 19.8444 36.2678 21.9331 32.001 21.9331H25.601V34.4666H32.001V29.7665C32.001 26.6332 34.6678 25.0665 40.001 25.0665C45.3342 25.0665 48.001 26.6332 48.001 29.7665V42.3C48.001 45.4333 45.3342 47 40.001 47C34.6678 47 32.001 45.4333 32.001 42.3V37.5999H24.001H23.9738H16.001V42.3C16.001 45.4333 13.3342 47 8.00098 47C2.66777 47 0.000976562 45.4333 0.000976562 42.3V29.7665C0.000976562 26.6332 2.66777 25.0665 8.00098 25.0665C11.9224 25.0665 14.4024 25.9138 15.4406 27.6078C15.8142 28.2177 16.001 28.9371 16.001 29.7665V34.4666H22.401V21.9331H16.001C13.7917 21.9331 11.9063 21.1687 10.3442 19.6391C8.78204 18.1095 8.00097 16.263 8.00097 14.0997C8.00097 11.9368 8.78204 10.0904 10.3442 8.56078C11.6381 7.29383 13.1542 6.55176 14.892 6.33422C16.1624 2.11117 19.1988 0 24.001 0C26.652 0 28.9149 0.917626 30.7892 2.75324C32.6638 4.58849 33.601 6.80422 33.601 9.40007C33.601 9.43749 33.601 9.47491 33.6003 9.51233L33.6002 9.51233ZM32.001 18.7996H24.001H23.9738H16.001C12.801 18.7996 11.201 17.2329 11.201 14.0996C11.201 10.9666 12.801 9.39989 16.001 9.39989C16.041 9.39989 16.0813 9.40024 16.1213 9.40129L17.4624 9.43346L17.7288 8.14619C18.4206 4.80406 20.5114 3.13318 24.001 3.13318C26.1342 3.13318 27.7342 3.65529 28.801 4.69986C29.8678 5.74407 30.401 7.31075 30.401 9.39989C30.401 9.82548 30.3582 10.2444 30.2725 10.6567L29.8689 12.6L31.8932 12.535C31.9289 12.5336 31.965 12.5332 32.0011 12.5332C34.1343 12.5332 35.2011 13.5775 35.2011 15.6662C35.2011 17.7554 34.1343 18.7996 32.0011 18.7996L32.001 18.7996ZM44.801 29.7664C44.801 28.7218 43.201 28.1997 40.001 28.1997C36.801 28.1997 35.201 28.7218 35.201 29.7664C35.201 30.8106 36.801 31.333 40.001 31.333C43.201 31.333 44.801 30.8106 44.801 29.7664ZM12.801 29.7664C12.8006 28.7221 11.2006 28.1997 8.00097 28.1997C6.48563 28.1997 5.2156 28.4508 4.19096 28.9522C3.53132 29.2754 3.20133 29.5467 3.20097 29.7664C3.20132 30.8109 4.80133 31.333 8.00097 31.333C11.2006 31.333 12.8006 30.8109 12.801 29.7664ZM44.801 33.8313V36.0331C44.801 37.0776 43.201 37.5997 40.001 37.5997C36.801 37.5997 35.201 37.0776 35.201 36.0331V33.8313C36.4409 34.2544 38.0409 34.4664 40.001 34.4664C41.961 34.4664 43.561 34.2544 44.801 33.8313ZM12.801 33.8313V36.0331C12.801 37.0776 11.201 37.5997 8.00097 37.5997C4.80206 37.5997 3.20206 37.078 3.20097 36.0341V33.8314C4.44065 34.2549 6.04065 34.4665 8.00097 34.4665C9.96129 34.4665 11.5613 34.2549 12.801 33.8314V33.8313ZM40.001 40.7331C38.0409 40.7331 36.4409 40.5215 35.201 40.098V42.2998C35.201 43.3444 36.801 43.8665 40.001 43.8665C43.201 43.8665 44.801 43.3444 44.801 42.2998V40.098C43.561 40.5215 41.961 40.7331 40.001 40.7331ZM3.20097 42.2998V40.0984C4.44065 40.5215 6.04065 40.7331 8.00097 40.7331C9.96129 40.7331 11.5613 40.5215 12.801 40.0984V42.2998C12.801 43.3444 11.201 43.8665 8.00097 43.8665C4.80097 43.8665 3.20097 43.3444 3.20097 42.2998Z" fill="#F48352"/>
</svg>
