<svg width="47" height="47" viewBox="0 0 47 47" fill="none" xmlns="http://www.w3.org/2000/svg">
<path d="M23.5007 17.2596C20.0594 17.2596 17.2598 20.0593 17.2598 23.5006C17.2598 26.9419 20.0594 29.7415 23.5007 29.7415C26.942 29.7415 29.7416 26.9419 29.7416 23.5006C29.7416 20.0593 26.942 17.2596 23.5007 17.2596ZM23.5007 27.3919C21.3554 27.3919 19.6097 25.6466 19.6097 23.5009C19.6097 21.3556 21.3551 19.6099 23.5007 19.6099C25.646 19.6099 27.3917 21.3553 27.3917 23.5009C27.3917 25.6462 25.646 27.3919 23.5007 27.3919Z" fill="#F48352"/>
<path d="M18.8689 8.10702H19.5669V14.1864C19.5669 14.8355 20.0927 15.3614 20.7418 15.3614H26.2613C26.9104 15.3614 27.4362 14.8355 27.4362 14.1864V8.10702H28.1345C28.1375 8.10669 28.1411 8.10702 28.144 8.10702C28.7931 8.10702 29.319 7.58117 29.319 6.93206C29.319 6.60587 29.1865 6.31082 28.9718 6.09773L24.4175 0.438644C24.1942 0.161296 23.8582 0 23.5019 0C23.1462 0 22.8095 0.161296 22.5862 0.438644L17.9533 6.19575C17.6701 6.54817 17.6137 7.03172 17.8091 7.43986C18.0045 7.84769 18.4165 8.107 18.869 8.107L18.8689 8.10702ZM23.5018 3.04951L25.7682 5.86529C25.3659 6.0515 25.0866 6.45932 25.0866 6.93206V13.0114H21.9171V6.93206C21.9171 6.45933 21.6378 6.05185 21.2355 5.86529L23.5018 3.04951Z" fill="#F48352"/>
<path d="M28.1341 38.8941H27.4368V32.8141C27.4368 32.165 26.911 31.6392 26.2619 31.6392H20.7419C20.0928 31.6392 19.5669 32.165 19.5669 32.8141V38.8941H18.869C18.4169 38.8941 18.0048 39.1541 17.8091 39.5615C17.6137 39.9694 17.6701 40.4533 17.9533 40.8057L22.5859 46.5614C22.8092 46.8388 23.1455 47.0001 23.5015 47.0001C23.8572 47.0001 24.1939 46.8388 24.4172 46.5614L29.0494 40.8057C29.3333 40.4532 29.3897 39.9697 29.1943 39.5615C28.9983 39.1541 28.5862 38.8941 28.1341 38.8941H28.1341ZM23.5016 43.9513L21.2352 41.1361C21.6375 40.9496 21.9168 40.5421 21.9168 40.0694V33.9891H25.0869V40.069C25.0869 40.5414 25.3662 40.9489 25.7678 41.1355L23.5016 43.9513Z" fill="#F48352"/>
<path d="M14.187 19.5661H8.10763V18.8681C8.10763 18.4161 7.84832 18.004 7.44017 17.8082C7.03169 17.6129 6.54812 17.6696 6.19606 17.9525L0.439621 22.5851C0.162273 22.8083 0.000976562 23.1447 0.000976562 23.5007C0.000976562 23.8564 0.162273 24.1931 0.439621 24.4157L6.19606 29.0486C6.40883 29.2201 6.66977 29.3086 6.93302 29.3086C7.10546 29.3086 7.27856 29.2705 7.44018 29.1935C7.84801 28.9981 8.10765 28.5857 8.10765 28.1336V27.4353H14.187C14.8361 27.4353 15.362 26.9095 15.362 26.2604V20.7409C15.362 20.0918 14.8361 19.566 14.187 19.566L14.187 19.5661ZM13.0121 25.0855H6.93268C6.45994 25.0855 6.05247 25.3648 5.8659 25.7671L3.05013 23.5008L5.8659 21.2345C6.05244 21.6367 6.45994 21.916 6.93268 21.916H13.0121V25.0855Z" fill="#F48352"/>
<path d="M46.562 22.5847L40.8056 17.9521C40.4531 17.6688 39.9696 17.6128 39.5615 17.8078C39.154 18.0032 38.894 18.415 38.894 18.8677V19.5657L32.8146 19.5653C32.1655 19.5653 31.6396 20.0912 31.6396 20.7403V26.2597C31.6396 26.9088 32.1655 27.4347 32.8146 27.4347H38.8942V28.1326C38.8942 28.5847 39.1542 28.9968 39.5617 29.1925C39.7233 29.2696 39.8967 29.3076 40.0692 29.3076C40.3324 29.3076 40.5927 29.2191 40.8055 29.0476L46.5619 24.415C46.8393 24.1918 47.0006 23.8558 47.0006 23.5001C47.0003 23.1444 46.8393 22.808 46.5619 22.5848L46.562 22.5847ZM41.1357 25.7663C40.9495 25.364 40.5417 25.0847 40.0689 25.0847L33.9896 25.085V21.9155H40.0692C40.5419 21.9155 40.9494 21.6362 41.136 21.234L43.9517 23.5003L41.1357 25.7663Z" fill="#F48352"/>
</svg>
