<svg width="320" height="189" viewBox="0 0 320 189" fill="none" xmlns="http://www.w3.org/2000/svg">
<g clip-path="url(#clip0_1_274)">
<mask id="mask0_1_274" style="mask-type:luminance" maskUnits="userSpaceOnUse" x="0" y="0" width="320" height="189">
<path d="M320 0H0V189H320V0Z" fill="white"/>
</mask>
<g mask="url(#mask0_1_274)">
<mask id="mask1_1_274" style="mask-type:luminance" maskUnits="userSpaceOnUse" x="25" y="-32" width="270" height="277">
<path d="M25.8385 -31.1597H294.161V244.678H25.8385V-31.1597Z" fill="white"/>
</mask>
<g mask="url(#mask1_1_274)">
<path d="M269.934 105.858C279.54 111.563 279.591 120.821 270.044 126.529L177.808 181.689C168.264 187.399 152.735 187.399 143.129 181.689L50.2634 126.526C40.6577 120.821 40.606 111.563 50.1497 105.858L142.386 50.6944C151.933 44.9853 167.462 44.9853 177.068 50.6944L269.934 105.858Z" fill="#FFBC90"/>
<path d="M269.934 105.858C279.54 111.563 279.591 120.821 270.044 126.529L177.808 181.689C168.264 187.399 152.735 187.399 143.129 181.689L50.2634 126.526C40.6577 120.821 40.606 111.563 50.1497 105.858L142.386 50.6944C151.933 44.9853 167.462 44.9853 177.068 50.6944L269.934 105.858Z" stroke="#1D1D1B" stroke-width="0.675" stroke-miterlimit="10"/>
<mask id="mask2_1_274" style="mask-type:alpha" maskUnits="userSpaceOnUse" x="24" y="-35" width="248" height="202">
<path d="M271.622 -34.4697L119.215 -12.4027L24.7653 51.5917L65.282 92.8984V111.448C65.282 111.448 65.198 114.138 67.9148 116.327C70.6316 118.517 95.8708 133.516 95.8708 133.516L146.986 163.996C146.986 163.996 157.25 170.547 172.544 164.134C172.745 164.065 194.211 151.238 194.211 151.238C194.211 151.238 249.377 118.05 251.096 117.103C253.309 115.448 254.026 113.704 254.204 111.68C254.241 111.263 254.248 102.07 254.322 90.1844C258.923 51.6344 271.622 -34.4697 271.622 -34.4697Z" fill="#1C1C1A"/>
</mask>
<g mask="url(#mask2_1_274)">
<path d="M71.4843 104.535L146.096 148.864C146.33 149.002 146.567 149.137 146.808 149.265L147.056 149.392L147.545 149.644L147.844 149.782C147.996 149.856 148.151 149.926 148.305 149.994L148.632 150.136C148.77 150.192 148.908 150.253 149.049 150.305C149.393 150.443 149.737 150.578 150.081 150.698L150.246 150.756C150.556 150.858 150.866 150.957 151.179 151.052L151.523 151.151L152.122 151.315L152.487 151.41L153.151 151.567L153.468 151.637L154.08 151.758L154.425 151.822L155.23 151.952L155.378 151.974C155.691 152.02 156.008 152.062 156.324 152.098H156.514C156.768 152.126 157.019 152.155 157.274 152.176L157.618 152.2C157.821 152.2 158.021 152.232 158.224 152.242L158.623 152.26C158.813 152.26 158.999 152.26 159.188 152.281H159.552H160.169H160.575H161.15H161.525L162.192 152.246L162.592 152.219L163.228 152.165L163.603 152.126C163.947 152.091 164.264 152.052 164.591 152.005L164.746 151.984C165.125 151.931 165.496 151.867 165.865 151.8L166.264 151.725L166.781 151.62C166.921 151.591 167.063 151.556 167.199 151.524C167.338 151.492 167.544 151.447 167.702 151.408L168.119 151.297L168.611 151.163L169.02 151.042L169.503 150.89L169.847 150.773C170.135 150.674 170.421 150.572 170.703 150.461L170.883 150.398C171.227 150.266 171.543 150.128 171.867 149.984L172.119 149.866C172.366 149.753 172.611 149.632 172.848 149.512L173.12 149.374C173.426 149.212 173.732 149.045 174.028 148.868L248.368 104.41C248.526 104.315 248.674 104.219 248.825 104.124L249.17 103.89L249.483 103.67L249.827 103.426L250.12 103.199L250.433 102.951L250.701 102.718L250.991 102.463L251.335 102.137L251.413 102.059C251.559 101.914 251.693 101.765 251.827 101.616C251.858 101.584 251.888 101.546 251.92 101.51C252.03 101.383 252.136 101.255 252.24 101.124L252.308 101.039L252.439 100.855C252.535 100.724 252.632 100.593 252.721 100.462C252.77 100.391 252.812 100.316 252.859 100.242C252.908 100.168 253.007 100.005 253.076 99.888L253.207 99.6401C253.262 99.5374 253.313 99.4381 253.362 99.3355C253.41 99.2326 253.44 99.1653 253.478 99.0771C253.516 98.9885 253.565 98.8716 253.603 98.769C253.641 98.6661 253.671 98.5952 253.699 98.5066C253.726 98.4184 253.764 98.3119 253.796 98.2129C253.826 98.1136 253.847 98.0322 253.871 97.9436C253.895 97.8551 253.919 97.7453 253.94 97.646C253.961 97.547 253.981 97.4689 253.995 97.3771C254.008 97.2849 254.029 97.1752 254.044 97.0726C254.057 96.9697 254.067 96.8952 254.074 96.8069C254.082 96.7184 254.074 96.6014 254.099 96.4988C254.122 96.3959 254.099 96.2616 254.099 96.1446L254.057 110.58V110.757V110.937C254.057 110.998 254.057 111.143 254.036 111.246C254.016 111.349 254.016 111.423 254.002 111.511C253.987 111.6 253.974 111.713 253.957 111.816V111.925C253.957 111.962 253.93 112.032 253.919 112.085C253.909 112.139 253.874 112.283 253.851 112.382C253.826 112.481 253.798 112.563 253.771 112.652C253.743 112.74 253.713 112.847 253.679 112.946C253.679 112.989 253.654 113.028 253.637 113.07L253.582 113.208C253.541 113.31 253.499 113.413 253.455 113.516C253.41 113.619 253.379 113.689 253.338 113.775C253.296 113.86 253.238 113.977 253.186 114.08C253.135 114.181 253.138 114.179 253.111 114.228C253.083 114.278 253.069 114.292 253.052 114.327C252.984 114.447 252.91 114.564 252.835 114.681L252.698 114.901C252.607 115.032 252.515 115.164 252.418 115.294C252.384 115.344 252.354 115.389 252.316 115.439L252.284 115.478L252.215 115.563C252.113 115.694 252.006 115.821 251.896 115.949L251.803 116.055C251.672 116.204 251.534 116.353 251.39 116.498L251.311 116.575L251.089 116.795L250.974 116.902L250.688 117.157L250.415 117.39L250.107 117.639C250.01 117.717 249.913 117.79 249.81 117.865C249.707 117.94 249.59 118.028 249.465 118.106L249.149 118.325C249.032 118.407 248.912 118.485 248.805 118.559L248.588 118.701L248.347 118.85L174.008 163.306C173.712 163.481 173.409 163.66 173.099 163.813L172.83 163.952C172.59 164.072 172.346 164.192 172.098 164.306L171.846 164.422C171.523 164.564 171.195 164.702 170.862 164.833L170.686 164.901C170.404 165.01 170.116 165.113 169.826 165.212L169.678 165.265L169.468 165.329L168.986 165.481L168.577 165.601L168.085 165.737L167.672 165.842L167.165 165.963L166.749 166.058L166.23 166.161L165.937 166.221H165.834C165.462 166.289 165.09 166.353 164.716 166.406L164.557 166.427C164.212 166.472 163.903 166.511 163.572 166.548H163.418L163.194 166.569L162.557 166.622L162.158 166.649L161.494 166.686H161.225H161.108H160.53H160.124H159.508H159.143L158.582 166.665H158.183L157.574 166.622L157.23 166.597H157.209C156.957 166.575 156.703 166.548 156.452 166.519H156.259C155.942 166.484 155.629 166.441 155.316 166.394L155.178 166.371C154.906 166.332 154.638 166.289 154.37 166.239L154.025 166.175C153.819 166.136 153.616 166.101 153.413 166.058H153.344L153.093 165.998L152.432 165.846L152.064 165.751L151.465 165.587L151.282 165.538L151.127 165.488C150.811 165.393 150.501 165.294 150.195 165.191L150.03 165.134C149.685 165.01 149.341 164.879 148.997 164.741L148.897 164.706L148.581 164.57L148.236 164.43C148.082 164.362 147.93 164.288 147.775 164.216L147.479 164.078C147.311 163.997 147.135 163.912 146.987 163.827L146.743 163.7C146.502 163.569 146.264 163.438 146.03 163.3L71.202 118.843C67.306 116.526 65.3512 113.487 65.3684 110.453L65.4062 96.0205C65.4062 99.052 67.3441 102.091 71.2398 104.407L71.4843 104.535Z" fill="#1D1D1B"/>
<path d="M71.4843 104.535L146.096 148.864C146.33 149.002 146.567 149.137 146.808 149.265L147.056 149.392L147.545 149.644L147.844 149.782C147.996 149.856 148.151 149.926 148.305 149.994L148.632 150.136C148.77 150.192 148.908 150.253 149.049 150.305C149.393 150.443 149.737 150.578 150.081 150.698L150.246 150.756C150.556 150.858 150.866 150.957 151.179 151.052L151.523 151.151L152.122 151.315L152.487 151.41L153.151 151.567L153.468 151.637L154.08 151.758L154.425 151.822L155.23 151.952L155.378 151.974C155.691 152.02 156.008 152.062 156.324 152.098H156.514C156.768 152.126 157.019 152.155 157.274 152.176L157.618 152.2C157.821 152.2 158.021 152.232 158.224 152.242L158.623 152.26C158.813 152.26 158.999 152.26 159.188 152.281H159.552H160.169H160.575H161.15H161.525L162.192 152.246L162.592 152.219L163.228 152.165L163.603 152.126C163.947 152.091 164.264 152.052 164.591 152.005L164.746 151.984C165.125 151.931 165.496 151.867 165.865 151.8L166.264 151.725L166.781 151.62C166.921 151.591 167.063 151.556 167.199 151.524C167.338 151.492 167.544 151.447 167.702 151.408L168.119 151.297L168.611 151.163L169.02 151.042L169.503 150.89L169.847 150.773C170.135 150.674 170.421 150.572 170.703 150.461L170.883 150.398C171.227 150.267 171.543 150.128 171.867 149.984L172.119 149.866C172.366 149.753 172.611 149.632 172.848 149.512L173.12 149.374C173.426 149.212 173.732 149.045 174.028 148.868L248.368 104.41C248.526 104.315 248.674 104.219 248.825 104.124L249.17 103.89L249.483 103.67L249.827 103.426L250.12 103.199L250.433 102.951L250.701 102.718L250.991 102.463L251.335 102.137L251.413 102.059C251.559 101.914 251.693 101.765 251.827 101.616C251.858 101.584 251.888 101.546 251.92 101.51C252.03 101.383 252.136 101.255 252.24 101.124L252.308 101.039L252.439 100.855C252.535 100.724 252.632 100.593 252.721 100.462C252.77 100.391 252.812 100.316 252.859 100.242C252.908 100.168 253.007 100.005 253.076 99.888L253.207 99.6401C253.262 99.5374 253.313 99.4381 253.362 99.3355C253.41 99.2326 253.44 99.1653 253.478 99.0771C253.516 98.9885 253.565 98.8716 253.603 98.769C253.641 98.6661 253.671 98.5952 253.699 98.5066C253.726 98.4184 253.764 98.3119 253.796 98.2129C253.826 98.1136 253.847 98.0322 253.871 97.9436C253.895 97.8551 253.919 97.7453 253.94 97.646C253.961 97.547 253.981 97.4689 253.995 97.3771C254.008 97.2849 254.029 97.1752 254.044 97.0726C254.057 96.9697 254.067 96.8952 254.074 96.8069C254.082 96.7184 254.074 96.6014 254.099 96.4988C254.122 96.3959 254.099 96.2616 254.099 96.1446L254.057 110.58V110.757V110.937C254.057 110.998 254.057 111.143 254.036 111.246C254.016 111.349 254.016 111.423 254.002 111.511C253.987 111.6 253.974 111.713 253.957 111.816V111.925C253.957 111.962 253.93 112.032 253.919 112.085C253.909 112.139 253.874 112.283 253.851 112.382C253.826 112.481 253.798 112.563 253.771 112.652C253.743 112.74 253.713 112.847 253.679 112.946C253.679 112.989 253.654 113.028 253.637 113.07L253.582 113.208C253.541 113.31 253.499 113.413 253.455 113.516C253.41 113.619 253.379 113.689 253.338 113.775C253.296 113.86 253.238 113.977 253.186 114.08C253.135 114.181 253.138 114.179 253.111 114.228C253.083 114.278 253.069 114.292 253.052 114.327C252.984 114.447 252.91 114.564 252.835 114.681L252.698 114.901C252.607 115.032 252.515 115.164 252.418 115.294C252.384 115.344 252.354 115.389 252.316 115.439L252.284 115.478L252.215 115.563C252.113 115.694 252.006 115.821 251.896 115.949L251.803 116.055C251.672 116.204 251.534 116.353 251.39 116.498L251.311 116.575L251.089 116.795L250.974 116.902L250.688 117.157L250.415 117.39L250.107 117.639C250.01 117.717 249.913 117.79 249.81 117.865C249.707 117.94 249.59 118.028 249.465 118.106L249.149 118.325C249.032 118.407 248.912 118.485 248.805 118.559L248.588 118.701L248.347 118.85L174.008 163.306C173.712 163.481 173.409 163.66 173.099 163.813L172.83 163.952C172.59 164.072 172.346 164.192 172.098 164.306L171.846 164.422C171.523 164.564 171.195 164.702 170.862 164.833L170.686 164.901C170.404 165.01 170.116 165.113 169.826 165.212L169.678 165.265L169.468 165.329L168.986 165.481L168.577 165.601L168.085 165.737L167.672 165.842L167.165 165.963L166.749 166.058L166.23 166.161L165.937 166.221H165.834C165.462 166.289 165.09 166.353 164.716 166.406L164.557 166.427C164.212 166.472 163.903 166.511 163.572 166.548H163.418L163.194 166.569L162.557 166.622L162.158 166.649L161.494 166.686H161.225H161.108H160.53H160.124H159.508H159.143L158.582 166.665H158.183L157.574 166.622L157.23 166.597H157.209C156.957 166.575 156.703 166.548 156.452 166.519H156.259C155.942 166.484 155.629 166.441 155.316 166.394L155.178 166.371C154.906 166.332 154.638 166.289 154.37 166.239L154.025 166.175C153.819 166.136 153.616 166.101 153.413 166.058H153.344L153.093 165.998L152.432 165.846L152.064 165.751L151.465 165.587L151.282 165.538L151.127 165.488C150.811 165.393 150.501 165.294 150.195 165.191L150.03 165.134C149.685 165.01 149.341 164.879 148.997 164.741L148.897 164.706L148.581 164.57L148.236 164.43C148.082 164.362 147.93 164.288 147.775 164.216L147.479 164.078C147.311 163.997 147.135 163.912 146.987 163.827L146.743 163.7C146.502 163.569 146.264 163.438 146.03 163.3L71.202 118.843C67.306 116.526 65.3512 113.487 65.3684 110.453L65.4062 96.0205C65.4062 99.052 67.3441 102.091 71.2398 104.407L71.4843 104.535Z" stroke="#1D1D1B" stroke-width="0.05859" stroke-miterlimit="10"/>
<path d="M248.271 88.8291C256.015 93.4331 256.052 100.871 248.36 105.475L174.021 149.931C166.329 154.536 153.815 154.536 146.071 149.931L71.2567 105.489C63.5164 100.885 63.4753 93.4475 71.1674 88.8432L145.507 44.3861C153.199 39.7821 165.716 39.7821 173.457 44.3861L248.271 88.8291Z" fill="white"/>
<path d="M248.271 88.8291C256.015 93.4331 256.052 100.871 248.36 105.475L174.021 149.931C166.329 154.536 153.815 154.536 146.071 149.931L71.2567 105.489C63.5164 100.885 63.4753 93.4475 71.1674 88.8432L145.507 44.3861C153.199 39.7821 165.716 39.7821 173.457 44.3861L248.271 88.8291Z" stroke="#1D1D1B" stroke-width="0.675" stroke-miterlimit="10"/>
</g>
<mask id="mask3_1_274" style="mask-type:luminance" maskUnits="userSpaceOnUse" x="25" y="-32" width="270" height="277">
<path d="M25.8385 -31.1597H294.161V244.678H25.8385V-31.1597Z" fill="white"/>
</mask>
<g mask="url(#mask3_1_274)">
<path d="M187.54 77.197C191.534 79.5635 194.573 82.454 196.386 85.6206C198.482 89.2845 198.924 93.1714 197.706 97.1829C197.6 97.5335 197.262 97.7486 196.908 97.705C196.423 97.6452 196.118 97.1387 196.252 96.656C197.288 92.9289 196.829 89.3229 194.885 85.9212C193.154 82.8906 190.245 80.1259 186.423 77.8613C185.946 77.5791 185.455 77.3027 184.948 77.0365C175.397 71.9972 162.332 70.4142 149.929 72.7839C149.731 72.822 149.53 72.7279 149.429 72.5481C149.266 72.2579 149.43 71.8885 149.751 71.8287C162.599 69.4388 176.102 71.111 185.998 76.3337C186.526 76.6139 187.041 76.9024 187.54 77.197Z" fill="#1D1D1B"/>
<path d="M163.787 93.0124C169.213 96.2279 167.821 100.573 166.584 104.438C165.684 107.252 164.906 109.681 166.858 111.14C166.969 111.222 167.087 111.302 167.215 111.377C168.518 112.151 170.734 112.581 173.951 112.69C174.212 112.699 174.416 112.925 174.4 113.192C174.384 113.445 174.176 113.639 173.931 113.632C170.274 113.511 167.7 112.991 166.103 112.045C165.931 111.943 165.771 111.837 165.621 111.725C163.215 109.927 164.097 107.174 165.028 104.26C166.246 100.461 167.502 96.5431 162.659 93.6708C162.316 93.4675 161.944 93.2706 161.54 93.0797C156.54 90.7114 149.315 90.6523 143.966 92.9396C135.892 96.3906 132.301 101.182 130.71 104.594C128.941 108.389 128.799 112.386 130.28 115.513C130.497 115.972 130.261 116.544 129.776 116.65C129.485 116.713 129.185 116.585 129.039 116.319C127.19 112.95 127.234 108.517 129.183 104.339C130.842 100.782 134.593 95.7835 143.038 92.1739C148.957 89.6428 156.972 89.712 162.522 92.3443C162.982 92.5598 163.401 92.7829 163.787 93.0124Z" fill="#1D1D1B"/>
<path d="M154.628 99.1117C155.183 99.4408 155.587 99.8551 155.788 100.326C156.614 102.25 155.885 104.531 155.181 106.739C154.135 110.006 153.134 113.137 156.719 115.262C157.948 115.989 159.712 116.598 162.199 117.054C162.506 117.11 162.681 117.452 162.547 117.742C162.457 117.935 162.254 118.044 162.049 118.009C159.096 117.494 157.011 116.777 155.569 115.922C151.414 113.461 152.572 109.849 153.623 106.559C154.328 104.356 154.993 102.276 154.254 100.556C154.126 100.255 153.866 99.9892 153.51 99.7779C153.181 99.5831 152.77 99.4347 152.303 99.3514C151.321 99.1768 150.289 99.3147 149.539 99.7191C146.083 101.594 143.175 105.092 141.761 109.079C140.452 112.769 140.664 116.156 142.319 118.556C142.598 118.962 142.447 119.561 141.987 119.711C141.75 119.789 141.488 119.723 141.325 119.529C139.136 116.922 138.728 113.07 140.212 108.882C141.692 104.709 144.778 101.025 148.47 99.0243C149.634 98.3945 151.234 98.1794 152.754 98.4516C153.48 98.5796 154.118 98.8091 154.628 99.1117Z" fill="#1D1D1B"/>
<path d="M149.33 104.765C149.818 104.863 150.064 105.43 149.835 105.883C146.441 112.597 148.858 116.637 151.175 118.733C151.516 119.042 151.457 119.626 151.044 119.821C150.849 119.914 150.619 119.891 150.449 119.757C147.773 117.646 146.478 114.957 146.595 111.758C146.687 109.217 147.669 106.819 148.571 105.125C148.719 104.846 149.027 104.704 149.33 104.765Z" fill="#1D1D1B"/>
<path d="M177.319 83.9448C187.702 90.0955 186.343 95.9148 185.349 100.162C184.753 102.722 184.486 104.288 186.069 105.224C186.201 105.303 186.347 105.377 186.507 105.446C186.835 105.591 186.961 106.024 186.728 106.303C186.602 106.452 186.402 106.514 186.218 106.452C185.724 106.286 185.307 106.099 184.957 105.892C182.723 104.57 183.221 102.439 183.784 100.03C184.729 95.9777 186.025 90.4265 176.206 84.6091C170.382 81.16 162.985 79.4495 154.809 79.663C147.323 79.858 139.276 81.6984 132.143 84.8427C125.67 87.6976 120.554 91.9014 116.93 97.3428C116.764 97.5914 116.47 97.7144 116.184 97.649C115.699 97.5387 115.473 96.9627 115.76 96.5462C119.475 91.1574 124.663 86.9677 131.195 84.0869C138.686 80.7843 146.824 78.9296 154.732 78.7224C163.363 78.497 171.172 80.3027 177.319 83.9448Z" fill="#1D1D1B"/>
<path d="M173.384 87.5839C176.804 89.6091 178.742 91.8944 179.306 94.5494C179.834 97.0336 179.072 99.4179 178.402 101.522C177.673 103.795 177.045 105.76 178.411 106.951C178.546 107.069 178.702 107.181 178.876 107.285C179.614 107.721 180.71 108.038 182.199 108.244C182.49 108.284 182.679 108.583 182.589 108.871C182.522 109.085 182.317 109.222 182.098 109.194C180.186 108.95 178.757 108.541 177.764 107.953C177.516 107.808 177.296 107.648 177.102 107.48C175.364 105.965 176.049 103.824 176.841 101.344C178.09 97.4399 179.63 92.6155 172.245 88.2401C171.952 88.0655 171.645 87.8931 171.322 87.7202C166.591 85.1894 160.445 83.7591 154.018 83.6963C147.626 83.6312 141.365 84.9133 136.38 87.3081C130.303 90.2267 125.79 93.6799 122.967 97.5698C120.504 100.968 119.382 104.606 119.63 108.401C119.661 108.874 119.316 109.294 118.856 109.313C118.446 109.329 118.09 109.02 118.059 108.601C117.421 100.061 123.541 92.2624 135.383 86.5746C140.654 84.0438 147.277 82.687 154.039 82.7559C160.849 82.8249 167.362 84.3401 172.377 87.0234C172.728 87.2041 173.062 87.393 173.384 87.5839Z" fill="#1D1D1B"/>
<path d="M168.605 90.0117C175.123 93.8731 173.641 98.7665 172.434 102.756C171.63 105.415 170.935 107.713 172.685 109.077C172.804 109.168 172.934 109.258 173.075 109.34C174.133 109.967 175.831 110.355 178.237 110.519C178.506 110.538 178.706 110.788 178.665 111.063C178.631 111.303 178.424 111.477 178.188 111.461C175.349 111.276 173.299 110.8 171.964 110.007C171.773 109.894 171.594 109.771 171.43 109.645C169.255 107.952 170.005 105.465 170.878 102.587C172.073 98.6324 173.42 94.1901 167.485 90.6739C167.016 90.3959 166.501 90.1234 165.936 89.8572C159.009 86.5951 149.068 86.506 141.763 89.6423C134.415 92.7968 129.085 96.9139 126.345 101.551C124.157 105.251 123.664 109.225 124.92 112.849C125.086 113.329 124.802 113.864 124.313 113.938C123.983 113.988 123.659 113.808 123.535 113.49C122.018 109.579 122.476 105.249 124.848 101.236C127.699 96.4183 133.224 92.1447 140.833 88.8785C148.709 85.4965 159.434 85.596 166.917 89.1224C167.53 89.4106 168.093 89.7069 168.605 90.0117Z" fill="#1D1D1B"/>
<path d="M159.553 95.7534C163.518 98.1017 162.19 101.689 160.901 105.17C159.791 108.167 158.746 110.999 160.909 112.956C161.163 113.186 161.456 113.399 161.792 113.598C163.104 114.377 165.059 114.929 167.719 115.278C168.009 115.317 168.197 115.619 168.104 115.906C168.035 116.118 167.831 116.254 167.613 116.226C164.536 115.841 162.248 115.194 160.68 114.264C160.266 114.019 159.904 113.754 159.589 113.471C157.057 111.179 158.227 108.019 159.357 104.963C160.602 101.6 161.782 98.4045 158.399 96.3997C158.053 96.1945 157.661 96.0011 157.213 95.8224C154.763 94.8393 150.764 94.2261 145.633 96.8949C141.486 99.0522 137.878 102.772 135.981 106.848C134.147 110.79 134.171 114.584 136.009 117.437C136.279 117.856 136.104 118.452 135.634 118.59C135.382 118.663 135.11 118.582 134.949 118.37C132.551 115.232 132.372 111.07 134.453 106.595C136.429 102.349 140.217 98.4594 144.588 96.1865C149.181 93.7978 153.979 93.3914 158.094 95.0429C158.645 95.2663 159.13 95.5016 159.553 95.7534Z" fill="#1D1D1B"/>
<path d="M182.695 80.2521C183.664 80.8247 184.608 81.4545 185.52 82.1432C191.978 87.0223 191.774 92.0373 191.609 96.0695C191.534 97.8754 191.47 99.4838 192.004 100.792C192.195 101.259 191.995 101.855 191.519 101.982C191.255 102.052 190.97 101.957 190.824 101.719C189.86 100.151 189.938 98.2356 190.026 96.043C190.184 92.1633 190.38 87.3351 184.277 82.7242C183.422 82.0781 182.522 81.4749 181.577 80.9163C178.454 79.0657 174.85 77.6926 170.824 76.8234C166.385 75.8624 161.432 75.5091 156.105 75.7733C146.051 76.266 137.775 78.7471 134.519 80.0965C134.342 80.1699 134.14 80.1415 133.991 80.0196C133.679 79.7658 133.746 79.2646 134.117 79.1181C138.746 77.2924 147.207 75.265 155.97 74.8346C163.619 74.457 174.116 75.1679 182.695 80.2521Z" fill="#1D1D1B"/>
<path d="M192.001 74.1235C195.558 76.3605 198.173 78.7239 199.815 81.1734C200.097 81.594 199.851 82.1575 199.362 82.2544C199.063 82.3142 198.76 82.1722 198.595 81.9076C197.054 79.4359 194.469 77.0454 190.9 74.7979C186.237 72.1995 181.231 70.4921 176.01 69.7175C175.712 69.6731 175.529 69.3562 175.637 69.0671C175.715 68.8613 175.919 68.7364 176.131 68.7667C181.717 69.5636 187.054 71.3637 192.001 74.1235Z" fill="#1D1D1B"/>
</g>
<mask id="mask4_1_274" style="mask-type:alpha" maskUnits="userSpaceOnUse" x="54" y="92" width="119" height="72">
<path d="M65.0472 92.5537L54.8174 99.1738L161.04 162.72L171.404 156.41L65.0472 92.5537Z" fill="#FFBC90"/>
<path d="M65.0472 92.5537L54.8174 99.1738L161.04 162.72L171.404 156.41L65.0472 92.5537Z" stroke="#1C1C1A" stroke-width="0.675"/>
</mask>
<g mask="url(#mask4_1_274)">
<path d="M187.541 77.1976C191.533 79.5643 194.573 82.4523 196.387 85.6189C198.483 89.2848 198.923 93.1713 197.707 97.182C197.6 97.5323 197.262 97.7475 196.908 97.7034C196.422 97.6454 196.119 97.1379 196.253 96.6552C197.289 92.9286 196.83 89.3234 194.885 85.9196C193.154 82.8909 190.245 80.1242 186.422 77.8596C185.947 77.5782 185.456 77.3024 184.949 77.0348C175.396 71.998 162.332 70.4147 149.93 72.7842C149.731 72.8228 149.53 72.729 149.431 72.5469C149.267 72.2573 149.431 71.8877 149.753 71.827C162.6 69.4382 176.102 71.1098 185.998 76.3342C186.526 76.6128 187.042 76.9024 187.541 77.1976ZM163.786 93.0114C169.214 96.2276 167.822 100.572 166.585 104.439C165.683 107.253 164.905 109.68 166.858 111.139C166.968 111.222 167.086 111.302 167.215 111.377C168.519 112.152 170.733 112.582 173.953 112.69C174.21 112.698 174.414 112.924 174.401 113.192C174.385 113.445 174.175 113.639 173.931 113.633C170.274 113.512 167.701 112.99 166.102 112.044C165.93 111.942 165.772 111.837 165.621 111.724C163.214 109.926 164.097 107.173 165.028 104.26C166.246 100.462 167.502 96.5421 162.659 93.6706C162.316 93.4665 161.945 93.2706 161.54 93.0803C156.541 90.7109 149.315 90.6529 143.965 92.9396C135.891 96.3904 132.301 101.182 130.71 104.594C128.942 108.389 128.799 112.386 130.28 115.511C130.498 115.972 130.262 116.543 129.776 116.651C129.486 116.711 129.186 116.584 129.038 116.32C127.189 112.949 127.235 108.516 129.183 104.34C130.841 100.782 134.592 95.7835 143.037 92.1728C148.956 89.6434 156.971 89.7123 162.522 92.3438C162.981 92.559 163.402 92.7824 163.786 93.0114ZM154.628 99.1129C155.184 99.4411 155.586 99.8549 155.787 100.327C156.614 102.249 155.887 104.53 155.181 106.74C154.134 110.006 153.134 113.136 156.718 115.263C157.947 115.989 159.713 116.598 162.197 117.053C162.506 117.111 162.68 117.451 162.546 117.74C162.458 117.936 162.254 118.044 162.05 118.008C159.096 117.495 157.011 116.778 155.567 115.922C151.414 113.462 152.573 109.848 153.622 106.558C154.328 104.357 154.993 102.277 154.255 100.556C154.126 100.255 153.866 99.99 153.509 99.7777C153.182 99.5818 152.769 99.4356 152.302 99.3501C151.32 99.1763 150.289 99.3142 149.538 99.7197C146.082 101.593 143.176 105.093 141.762 109.079C140.453 112.77 140.665 116.157 142.317 118.557C142.597 118.962 142.446 119.561 141.987 119.712C141.749 119.79 141.488 119.723 141.325 119.53C139.135 116.921 138.727 113.07 140.211 108.883C141.692 104.71 144.778 101.024 148.47 99.0246C149.635 98.3957 151.234 98.1806 152.753 98.4509C153.48 98.5805 154.118 98.8095 154.628 99.1129ZM149.329 104.765C149.817 104.861 150.064 105.43 149.836 105.882C146.442 112.596 148.859 116.637 151.175 118.733C151.516 119.042 151.457 119.627 151.043 119.82C150.85 119.914 150.619 119.892 150.45 119.757C147.772 117.646 146.479 114.957 146.595 111.757C146.686 109.217 147.67 106.817 148.572 105.123C148.72 104.845 149.028 104.704 149.329 104.765ZM177.317 83.9446C187.702 90.0957 186.344 95.9159 185.348 100.161C184.753 102.721 184.484 104.288 186.07 105.225C186.202 105.303 186.347 105.377 186.508 105.446C186.835 105.59 186.961 106.023 186.728 106.301C186.601 106.453 186.403 106.514 186.218 106.453C185.724 106.287 185.308 106.1 184.957 105.893C182.724 104.569 183.221 102.439 183.784 100.031C184.729 95.9766 186.025 90.4268 176.207 84.6093C170.381 81.1586 162.984 79.4484 154.811 79.6636C147.322 79.8566 139.275 81.6992 132.143 84.8438C125.671 87.6987 120.554 91.9025 116.929 97.342C116.765 97.5903 116.47 97.7144 116.183 97.6482C115.7 97.5379 115.472 96.9613 115.762 96.5448C119.475 91.1577 124.664 86.9677 131.195 84.088C138.687 80.7835 146.825 78.9298 154.733 78.7229C163.362 78.4968 171.173 80.3035 177.317 83.9446ZM173.384 87.5829C176.805 89.6103 178.742 91.8942 179.306 94.5505C179.834 97.0331 179.072 99.4191 178.402 101.521C177.672 103.794 177.044 105.761 178.412 106.952C178.546 107.068 178.702 107.181 178.876 107.286C179.614 107.722 180.709 108.039 182.198 108.243C182.491 108.284 182.679 108.582 182.59 108.872C182.523 109.084 182.316 109.222 182.099 109.195C180.186 108.949 178.756 108.541 177.763 107.953C177.516 107.807 177.296 107.647 177.103 107.479C175.364 105.965 176.048 103.824 176.84 101.344C178.09 97.4385 179.63 92.6141 172.246 88.2394C171.954 88.0656 171.645 87.8918 171.323 87.7208C166.593 85.1886 160.445 83.7598 154.019 83.6963C147.625 83.6301 141.365 84.9128 136.379 87.307C130.305 90.2254 125.789 93.6789 122.966 97.571C120.503 100.967 119.381 104.605 119.631 108.4C119.66 108.875 119.317 109.294 118.855 109.313C118.447 109.33 118.091 109.021 118.058 108.602C117.422 100.062 123.54 92.2611 135.384 86.5733C140.654 84.0439 147.279 82.6867 154.04 82.7557C160.848 82.8247 167.363 84.339 172.378 87.0229C172.729 87.205 173.062 87.3925 173.384 87.5829ZM168.605 90.013C175.123 93.872 173.641 98.7653 172.434 102.757C171.629 105.416 170.934 107.714 172.686 109.076C172.804 109.167 172.933 109.258 173.075 109.341C174.132 109.967 175.831 110.356 178.238 110.519C178.506 110.538 178.705 110.789 178.664 111.062C178.632 111.302 178.423 111.476 178.187 111.459C175.348 111.277 173.298 110.8 171.964 110.008C171.774 109.895 171.594 109.771 171.43 109.644C169.254 107.951 170.006 105.465 170.878 102.588C172.072 98.6329 173.419 94.1892 167.486 90.675C167.017 90.3964 166.501 90.1233 165.935 89.8585C159.01 86.5954 149.068 86.5071 141.762 89.6434C134.415 92.7962 129.084 96.9145 126.344 101.551C124.157 105.25 123.664 109.225 124.919 112.85C125.086 113.33 124.801 113.865 124.313 113.939C123.983 113.989 123.658 113.81 123.535 113.49C122.019 109.578 122.475 105.25 124.847 101.237C127.699 96.418 133.224 92.1452 140.834 88.8793C148.709 85.4975 159.434 85.5968 166.917 89.122C167.529 89.4117 168.093 89.7068 168.605 90.013ZM159.552 95.7532C163.518 98.1006 162.189 101.689 160.901 105.17C159.791 108.166 158.744 110.999 160.91 112.957C161.162 113.186 161.454 113.399 161.792 113.6C163.104 114.378 165.058 114.929 167.72 115.28C168.009 115.318 168.197 115.619 168.103 115.906C168.034 116.118 167.83 116.253 167.612 116.226C164.535 115.84 162.248 115.194 160.679 114.265C160.266 114.019 159.903 113.754 159.589 113.47C157.056 111.181 158.226 108.02 159.356 104.963C160.601 101.601 161.782 98.404 158.398 96.3986C158.052 96.1945 157.66 96.0014 157.212 95.8221C154.762 94.8402 150.764 94.225 145.634 96.8951C141.486 99.0522 137.877 102.77 135.982 106.847C134.147 110.792 134.171 114.585 136.009 117.437C136.277 117.856 136.103 118.452 135.634 118.59C135.381 118.662 135.11 118.582 134.949 118.372C132.55 115.233 132.371 111.07 134.453 106.596C136.428 102.348 140.216 98.4592 144.587 96.1862C149.181 93.7975 153.979 93.392 158.095 95.0443C158.645 95.2677 159.131 95.5022 159.552 95.7532ZM182.695 80.2511C183.663 80.8248 184.608 81.4537 185.52 82.1433C191.979 87.0229 191.775 92.0376 191.608 96.0704C191.533 97.8744 191.469 99.4825 192.006 100.793C192.196 101.259 191.995 101.855 191.517 101.982C191.254 102.053 190.97 101.957 190.822 101.72C189.859 100.15 189.937 98.2357 190.025 96.0428C190.184 92.1645 190.379 87.3346 184.278 82.7254C183.422 82.0771 182.523 81.4758 181.576 80.9159C178.455 79.065 174.849 77.6913 170.824 76.8224C166.386 75.8625 161.433 75.5094 156.104 75.7742C146.05 76.2652 137.775 78.7478 134.52 80.0966C134.343 80.1711 134.139 80.1408 133.991 80.0194C133.68 79.7656 133.745 79.2636 134.117 79.1174C138.746 77.2914 147.206 75.2639 155.97 74.8336C163.62 74.4557 174.116 75.1674 182.695 80.2511ZM192 74.122C195.558 76.359 198.172 78.7229 199.816 81.1724C200.098 81.5944 199.851 82.1571 199.363 82.2537C199.062 82.3144 198.759 82.1709 198.596 81.9061C197.055 79.4346 194.469 77.0459 190.9 74.7978C186.237 72.1994 181.232 70.4919 176.011 69.7168C175.713 69.6727 175.53 69.3555 175.638 69.0659C175.716 68.8618 175.92 68.7349 176.132 68.7652C181.718 69.5624 187.055 71.3636 192 74.122Z" stroke="#FFBC90" stroke-width="0.27"/>
<path d="M187.54 77.1966C191.534 79.563 194.573 82.4535 196.386 85.6201C198.482 89.284 198.924 93.1709 197.706 97.1824C197.6 97.533 197.262 97.7481 196.908 97.7045C196.423 97.6447 196.118 97.1383 196.252 96.6555C197.288 92.9284 196.829 89.3224 194.885 85.9208C193.154 82.8901 190.245 80.1254 186.423 77.8608C185.946 77.5786 185.455 77.3022 184.948 77.036C175.397 71.9967 162.332 70.4137 149.929 72.7834C149.731 72.8215 149.53 72.7274 149.429 72.5476C149.266 72.2574 149.43 71.8881 149.751 71.8282C162.599 69.4383 176.102 71.1105 185.998 76.3332C186.526 76.6134 187.041 76.902 187.54 77.1966Z" fill="#FFBC90"/>
<path d="M163.787 93.0124C169.213 96.2279 167.821 100.573 166.584 104.438C165.684 107.252 164.906 109.681 166.858 111.14C166.969 111.222 167.087 111.302 167.215 111.377C168.518 112.151 170.734 112.581 173.951 112.69C174.212 112.699 174.416 112.925 174.4 113.192C174.384 113.445 174.176 113.639 173.931 113.632C170.274 113.511 167.7 112.991 166.103 112.045C165.931 111.943 165.771 111.837 165.621 111.725C163.215 109.927 164.097 107.174 165.028 104.26C166.246 100.461 167.502 96.5431 162.659 93.6708C162.316 93.4675 161.944 93.2706 161.54 93.0797C156.54 90.7114 149.315 90.6523 143.966 92.9396C135.892 96.3906 132.301 101.182 130.71 104.594C128.941 108.389 128.799 112.386 130.28 115.513C130.497 115.972 130.261 116.544 129.776 116.65C129.485 116.713 129.185 116.585 129.039 116.319C127.19 112.95 127.234 108.517 129.183 104.339C130.842 100.782 134.593 95.7835 143.038 92.1739C148.957 89.6428 156.972 89.712 162.522 92.3443C162.982 92.5598 163.401 92.7829 163.787 93.0124Z" fill="#FFBC90"/>
<path d="M154.628 99.1117C155.183 99.4408 155.587 99.8551 155.788 100.326C156.614 102.25 155.885 104.531 155.181 106.739C154.135 110.006 153.134 113.137 156.719 115.262C157.948 115.989 159.712 116.598 162.199 117.054C162.506 117.11 162.681 117.452 162.547 117.742C162.457 117.935 162.254 118.044 162.049 118.009C159.096 117.494 157.011 116.777 155.569 115.922C151.414 113.461 152.572 109.849 153.623 106.559C154.328 104.356 154.993 102.276 154.254 100.556C154.126 100.255 153.866 99.9892 153.51 99.7779C153.181 99.5831 152.77 99.4347 152.303 99.3514C151.321 99.1768 150.289 99.3147 149.539 99.7191C146.083 101.594 143.175 105.092 141.761 109.079C140.452 112.769 140.664 116.156 142.319 118.556C142.598 118.962 142.447 119.561 141.987 119.711C141.75 119.789 141.488 119.723 141.325 119.529C139.136 116.922 138.728 113.07 140.212 108.882C141.692 104.709 144.778 101.025 148.47 99.0243C149.634 98.3945 151.234 98.1794 152.754 98.4516C153.48 98.5796 154.118 98.8091 154.628 99.1117Z" fill="#FFBC90"/>
<path d="M149.33 104.765C149.818 104.863 150.064 105.43 149.835 105.883C146.441 112.597 148.858 116.637 151.175 118.733C151.516 119.042 151.457 119.626 151.044 119.821C150.849 119.914 150.619 119.891 150.449 119.757C147.773 117.646 146.478 114.957 146.595 111.758C146.687 109.217 147.669 106.819 148.571 105.125C148.719 104.846 149.027 104.704 149.33 104.765Z" fill="#FFBC90"/>
<path d="M177.319 83.9444C187.702 90.095 186.343 95.9143 185.349 100.162C184.753 102.721 184.486 104.287 186.069 105.224C186.201 105.303 186.347 105.377 186.507 105.446C186.835 105.59 186.961 106.024 186.728 106.302C186.602 106.452 186.402 106.513 186.218 106.452C185.724 106.286 185.307 106.099 184.957 105.892C182.723 104.57 183.221 102.439 183.784 100.03C184.729 95.9772 186.025 90.426 176.206 84.6086C170.382 81.1595 162.985 79.449 154.809 79.6625C147.323 79.8575 139.276 81.6979 132.143 84.8422C125.67 87.6971 120.554 91.9009 116.93 97.3423C116.764 97.5909 116.47 97.7139 116.184 97.6485C115.699 97.5382 115.473 96.9622 115.76 96.5457C119.475 91.157 124.663 86.9673 131.195 84.0864C138.686 80.7838 146.824 78.9291 154.732 78.7219C163.363 78.4966 171.172 80.3022 177.319 83.9444Z" fill="#FFBC90"/>
<path d="M173.384 87.5839C176.804 89.6091 178.742 91.8944 179.306 94.5494C179.834 97.0336 179.072 99.4179 178.402 101.522C177.673 103.795 177.045 105.76 178.411 106.951C178.546 107.069 178.702 107.181 178.876 107.285C179.614 107.721 180.71 108.038 182.199 108.244C182.49 108.284 182.679 108.583 182.589 108.871C182.522 109.085 182.317 109.222 182.098 109.194C180.186 108.95 178.757 108.541 177.764 107.953C177.516 107.808 177.296 107.648 177.102 107.48C175.364 105.965 176.049 103.824 176.841 101.344C178.09 97.4399 179.63 92.6155 172.245 88.2401C171.952 88.0655 171.645 87.8931 171.322 87.7202C166.591 85.1894 160.445 83.7591 154.018 83.6963C147.626 83.6312 141.365 84.9133 136.38 87.3081C130.303 90.2267 125.79 93.6799 122.967 97.5698C120.504 100.968 119.382 104.606 119.63 108.401C119.661 108.874 119.316 109.294 118.856 109.313C118.446 109.329 118.09 109.02 118.059 108.601C117.421 100.061 123.541 92.2624 135.383 86.5746C140.654 84.0438 147.277 82.687 154.039 82.7559C160.849 82.8249 167.362 84.3401 172.377 87.0234C172.728 87.2041 173.062 87.393 173.384 87.5839Z" fill="#FFBC90"/>
<path d="M168.605 90.0117C175.123 93.8731 173.641 98.7665 172.434 102.756C171.63 105.415 170.935 107.713 172.685 109.077C172.804 109.168 172.934 109.258 173.075 109.34C174.133 109.967 175.831 110.355 178.237 110.519C178.506 110.538 178.706 110.788 178.665 111.063C178.631 111.303 178.424 111.477 178.188 111.461C175.349 111.276 173.299 110.8 171.964 110.007C171.773 109.894 171.594 109.771 171.43 109.645C169.255 107.952 170.005 105.465 170.878 102.587C172.073 98.6324 173.42 94.1901 167.485 90.6739C167.016 90.3959 166.501 90.1234 165.936 89.8572C159.009 86.5951 149.068 86.506 141.763 89.6423C134.415 92.7968 129.085 96.9139 126.345 101.551C124.157 105.251 123.664 109.225 124.92 112.849C125.086 113.329 124.802 113.864 124.313 113.938C123.983 113.988 123.659 113.808 123.535 113.49C122.018 109.579 122.476 105.249 124.848 101.236C127.699 96.4183 133.224 92.1447 140.833 88.8785C148.709 85.4965 159.434 85.596 166.917 89.1224C167.53 89.4106 168.093 89.7069 168.605 90.0117Z" fill="#FFBC90"/>
<path d="M159.553 95.7534C163.518 98.1017 162.19 101.689 160.901 105.17C159.791 108.167 158.746 110.999 160.909 112.956C161.163 113.186 161.456 113.399 161.792 113.598C163.104 114.377 165.059 114.929 167.719 115.278C168.009 115.317 168.197 115.619 168.104 115.906C168.035 116.118 167.831 116.254 167.613 116.226C164.536 115.841 162.248 115.194 160.68 114.264C160.266 114.019 159.904 113.754 159.589 113.471C157.057 111.179 158.227 108.019 159.357 104.963C160.602 101.6 161.782 98.4045 158.399 96.3997C158.053 96.1945 157.661 96.0011 157.213 95.8224C154.763 94.8393 150.764 94.2261 145.633 96.8949C141.486 99.0522 137.878 102.772 135.981 106.848C134.147 110.79 134.171 114.584 136.009 117.437C136.279 117.856 136.104 118.452 135.634 118.59C135.382 118.663 135.11 118.582 134.949 118.37C132.551 115.232 132.372 111.07 134.453 106.595C136.429 102.349 140.217 98.4594 144.588 96.1865C149.181 93.7978 153.979 93.3914 158.094 95.0429C158.645 95.2663 159.13 95.5016 159.553 95.7534Z" fill="#FFBC90"/>
<path d="M182.695 80.2521C183.664 80.8247 184.608 81.4545 185.52 82.1432C191.978 87.0223 191.774 92.0373 191.609 96.0695C191.534 97.8754 191.47 99.4838 192.004 100.792C192.195 101.259 191.995 101.855 191.519 101.982C191.255 102.052 190.97 101.957 190.824 101.719C189.86 100.151 189.938 98.2356 190.026 96.043C190.184 92.1633 190.38 87.3351 184.277 82.7242C183.422 82.0781 182.522 81.4749 181.577 80.9163C178.454 79.0657 174.85 77.6926 170.824 76.8234C166.385 75.8624 161.432 75.5091 156.105 75.7733C146.051 76.266 137.775 78.7471 134.519 80.0965C134.342 80.1699 134.14 80.1415 133.991 80.0196C133.679 79.7658 133.746 79.2646 134.117 79.1181C138.746 77.2924 147.207 75.265 155.97 74.8346C163.619 74.457 174.116 75.1679 182.695 80.2521Z" fill="#FFBC90"/>
</g>
</g>
</g>
</g>
<defs>
<clipPath id="clip0_1_274">
<rect width="320" height="189" fill="white"/>
</clipPath>
</defs>
</svg>
