<svg width="24" height="24" viewBox="0 0 24 24" fill="none" xmlns="http://www.w3.org/2000/svg">
<path d="M20.0475 17.0025C19.7775 16.5975 19.53 16.2225 19.275 15.8475C19.14 15.66 19.155 15.495 19.245 15.285C19.5 14.7075 19.74 14.13 19.965 13.5375C20.055 13.305 20.175 13.1775 20.4225 13.1325C20.8575 13.0575 21.2925 12.9675 21.735 12.8775C21.735 12.795 21.75 12.7275 21.75 12.66C21.75 11.7225 21.75 10.785 21.75 9.84754C21.75 9.68254 21.7125 9.61504 21.54 9.59254C21.165 9.53254 20.79 9.44254 20.415 9.37504C20.1675 9.33004 20.0475 9.20254 19.965 8.97004C19.7475 8.38504 19.515 7.80754 19.2525 7.24504C19.1475 7.02004 19.14 6.84754 19.29 6.63754C19.545 6.27754 19.785 5.90254 20.0175 5.55004C19.2525 4.77754 18.495 4.02004 17.715 3.24004C17.37 3.47254 16.9875 3.72004 16.62 3.97504C16.425 4.11004 16.2525 4.11004 16.035 4.00504C15.4575 3.75004 14.8725 3.51004 14.2875 3.28504C14.0775 3.20254 13.9425 3.10504 13.8975 2.87254C13.815 2.42254 13.7175 1.97254 13.62 1.51504H10.38C10.29 1.94254 10.1925 2.37754 10.1175 2.81254C10.0725 3.07504 9.94496 3.20254 9.68996 3.30004C9.11996 3.50254 8.55746 3.74254 8.00996 3.99004C7.76996 4.10254 7.58246 4.11004 7.36496 3.95254C7.01246 3.69754 6.63746 3.46504 6.29996 3.24754C5.52746 4.02004 4.76996 4.77754 3.99746 5.55004C4.21496 5.88004 4.45496 6.25504 4.70996 6.61504C4.85996 6.82504 4.85246 7.00504 4.74746 7.24504C4.48496 7.80754 4.25246 8.38504 4.03496 8.97004C3.95246 9.19504 3.83246 9.32254 3.59996 9.36754C3.20246 9.44254 2.80496 9.51754 2.40746 9.60754C2.34746 9.62254 2.25746 9.70504 2.25746 9.75004C2.24996 10.7775 2.25746 11.8125 2.25746 12.8625C2.69246 12.9525 3.11996 13.05 3.54746 13.1175C3.82496 13.1625 3.96746 13.305 4.06496 13.575C4.26746 14.145 4.50746 14.7075 4.76246 15.255C4.86746 15.48 4.87496 15.66 4.73246 15.8625C4.47746 16.2225 4.23746 16.5975 4.00496 16.9425C4.76996 17.715 5.53496 18.4725 6.30746 19.2525C6.65246 19.0275 7.02746 18.78 7.40246 18.525C7.59746 18.39 7.77746 18.375 7.98746 18.495C8.20496 18.6225 8.42996 18.72 8.65496 18.8325C8.87246 18.945 8.94746 19.1325 8.85746 19.335C8.76746 19.53 8.57246 19.5975 8.33996 19.5075C8.30246 19.4925 8.26496 19.4775 8.23496 19.455C7.88246 19.1925 7.55996 19.23 7.22996 19.5225C7.00496 19.725 6.72746 19.8675 6.47246 20.0325C6.23996 20.1825 6.09746 20.1675 5.90996 19.98C5.03246 19.1025 4.15496 18.225 3.27746 17.3475C3.08246 17.1525 3.06746 17.0025 3.22496 16.7625C3.45746 16.4025 3.69746 16.0425 3.93746 15.69C4.01996 15.5775 4.02746 15.4875 3.96746 15.3525C3.77246 14.91 3.59246 14.46 3.41246 14.01C3.36746 13.89 3.31496 13.8225 3.17996 13.7925C2.74496 13.7175 2.30996 13.6125 1.87496 13.53C1.63496 13.485 1.52246 13.3425 1.52246 13.11C1.52246 11.85 1.52246 10.5975 1.52246 9.33754C1.52246 9.10504 1.64246 8.97004 1.88246 8.92504C2.32496 8.84254 2.76746 8.75254 3.20996 8.64754C3.28496 8.63254 3.36746 8.55004 3.39746 8.48254C3.59996 8.01004 3.80246 7.53754 3.98996 7.05754C4.01996 6.99004 4.00496 6.87754 3.95996 6.81004C3.72746 6.44254 3.47996 6.08254 3.23996 5.71504C3.06746 5.45254 3.07496 5.32504 3.29996 5.10004C4.16246 4.23754 5.02496 3.37504 5.88746 2.51254C6.11996 2.28004 6.24746 2.27254 6.52496 2.45254C6.87746 2.68504 7.22996 2.91754 7.57496 3.15754C7.67996 3.23254 7.76246 3.24004 7.88996 3.18754C8.33246 2.99254 8.77496 2.80504 9.23246 2.63254C9.37496 2.58004 9.43496 2.50504 9.46496 2.35504C9.53996 1.93504 9.62996 1.51504 9.71246 1.09504C9.76496 0.832539 9.88496 0.727539 10.1475 0.727539C11.4 0.727539 12.645 0.727539 13.8975 0.727539C14.13 0.727539 14.2725 0.840039 14.325 1.07254C14.4075 1.50754 14.505 1.94254 14.5875 2.37754C14.61 2.51254 14.67 2.56504 14.7975 2.61754C15.255 2.79754 15.705 2.98504 16.155 3.18004C16.2675 3.23254 16.35 3.23254 16.4475 3.15754C16.8 2.91754 17.16 2.67754 17.52 2.44504C17.79 2.26504 17.9175 2.27254 18.1425 2.49754C19.0125 3.36004 19.875 4.23004 20.745 5.10004C20.9625 5.31754 20.97 5.45254 20.7975 5.72254C20.565 6.07504 20.3325 6.42754 20.0925 6.77254C20.01 6.88504 20.0025 6.97504 20.0625 7.11004C20.2575 7.55254 20.445 7.99504 20.6175 8.44504C20.6625 8.56504 20.715 8.63254 20.85 8.65504C21.285 8.73004 21.72 8.82754 22.155 8.91754C22.425 8.97754 22.5075 9.09004 22.5075 9.36004C22.5075 10.605 22.5075 11.8425 22.5075 13.0875C22.5075 13.3725 22.4175 13.4775 22.1325 13.5375C21.705 13.6275 21.2775 13.71 20.85 13.8075C20.7675 13.83 20.6625 13.9125 20.6325 13.995C20.43 14.4525 20.2425 14.91 20.0625 15.375C20.0325 15.4575 20.04 15.585 20.085 15.66C20.3175 16.0275 20.565 16.3875 20.805 16.755C20.9625 16.995 20.955 17.1375 20.7525 17.34C19.8825 18.2175 19.0125 19.0875 18.135 19.9575C17.925 20.1675 17.7825 20.175 17.535 20.0175C17.1675 19.7775 16.8075 19.5375 16.4475 19.29C16.3425 19.215 16.26 19.215 16.155 19.275C15.9975 19.365 15.8325 19.44 15.6675 19.5075C15.4575 19.59 15.2625 19.5075 15.1725 19.3275C15.0825 19.14 15.1575 18.9375 15.36 18.8325C15.6075 18.705 15.8625 18.5775 16.11 18.4575C16.2675 18.375 16.4175 18.3825 16.575 18.4875C16.92 18.7275 17.2725 18.96 17.6325 19.185C17.685 19.2225 17.8125 19.2375 17.8425 19.2C18.585 18.4725 19.3125 17.7375 20.0625 16.995L20.0475 17.0025Z" fill="#F26334"/>
<path d="M11.9852 23.2425C11.0252 23.2425 10.0652 23.2425 9.10519 23.2425C8.41519 23.2425 7.91269 22.8075 7.87519 22.185C7.83769 21.5475 8.29519 21.0675 8.98519 20.985C9.05269 20.9775 9.14269 20.88 9.17269 20.805C9.56269 19.7925 9.78019 18.7425 9.92269 17.67C10.0052 17.0775 10.0427 16.4775 10.1102 15.8775C10.1252 15.7425 10.0952 15.66 9.96019 15.585C9.31519 15.2325 9.18019 14.4375 9.65269 13.89C9.75019 13.7775 9.74269 13.71 9.68269 13.59C9.15769 12.585 9.30769 11.4225 10.0652 10.59C10.8002 9.78749 11.9777 9.52499 12.9827 9.93749C14.0102 10.3575 14.6777 11.3775 14.6027 12.495C14.5802 12.8625 14.4227 13.23 14.3027 13.59C14.2652 13.71 14.2277 13.7775 14.3327 13.89C14.8127 14.4375 14.6702 15.225 14.0402 15.5925C13.9427 15.6525 13.8677 15.6825 13.8752 15.8325C13.9952 17.5275 14.2202 19.2 14.8052 20.805C14.8577 20.94 14.9177 20.9925 15.0677 21C15.6752 21.0375 16.1402 21.555 16.1177 22.155C16.0952 22.7475 15.6152 23.2275 15.0077 23.235C14.0027 23.2425 12.9902 23.235 11.9852 23.235V23.2425ZM9.92269 20.985H14.0627C13.4702 19.2825 13.2302 17.535 13.1177 15.765H10.8602C10.7477 17.55 10.5002 19.29 9.91519 20.985H9.92269ZM11.9927 13.5C12.4277 13.5 12.8702 13.5 13.3052 13.5C13.4402 13.5 13.5152 13.4625 13.5902 13.35C14.0702 12.5775 13.9127 11.55 13.2152 10.95C12.5177 10.35 11.4902 10.35 10.7852 10.95C10.0802 11.55 9.92269 12.57 10.4027 13.35C10.4702 13.4625 10.5452 13.5075 10.6802 13.5075C11.1152 13.5 11.5577 13.5075 11.9927 13.5075V13.5ZM11.9927 22.5C12.5027 22.5 13.0052 22.5 13.5152 22.5C14.0027 22.5 14.4827 22.5 14.9702 22.5C15.2102 22.5 15.3677 22.335 15.3677 22.125C15.3677 21.915 15.2102 21.765 14.9702 21.75C14.9102 21.75 14.8427 21.75 14.7827 21.75C13.0577 21.75 11.3327 21.75 9.60769 21.75C9.39769 21.75 9.18019 21.72 8.97769 21.765C8.85019 21.795 8.69269 21.9225 8.65519 22.035C8.61769 22.14 8.70769 22.32 8.79019 22.4175C8.85019 22.485 9.00769 22.5 9.11269 22.5C10.0727 22.5 11.0327 22.5 11.9927 22.5ZM11.9702 15C12.4577 15 12.9377 15 13.4252 15C13.6952 15 13.8677 14.85 13.8677 14.625C13.8677 14.4 13.6952 14.2575 13.4177 14.2575C12.4652 14.2575 11.5127 14.2575 10.5602 14.2575C10.2827 14.2575 10.1177 14.4075 10.1177 14.6325C10.1177 14.8575 10.2902 15 10.5677 15C11.0327 15 11.5052 15 11.9702 15Z" fill="#F26334"/>
<path d="M6.36719 11.2501C6.36719 8.32505 8.57219 5.92505 11.5347 5.64005C14.3172 5.37005 16.9572 7.34255 17.5047 10.1551C17.8797 12.0751 17.3547 13.7701 15.9897 15.1876C15.8922 15.2851 15.7197 15.3676 15.5847 15.3526C15.2847 15.3226 15.2022 14.9701 15.4122 14.7226C15.6297 14.4601 15.8772 14.2126 16.0647 13.9276C18.0597 10.9126 16.1622 6.84005 12.5697 6.41255C10.5222 6.17255 8.56469 7.22255 7.64219 9.06755C6.71969 10.8976 7.04219 13.0876 8.45219 14.5876C8.48969 14.6251 8.52719 14.6626 8.56469 14.7076C8.74469 14.9026 8.75219 15.1126 8.59469 15.2701C8.43719 15.4276 8.21969 15.4201 8.03969 15.2326C7.50719 14.7076 7.09469 14.0926 6.80969 13.3951C6.52469 12.7126 6.38969 11.9926 6.38969 11.2501H6.36719Z" fill="#F26334"/>
</svg>
