<svg width="24" height="24" viewBox="0 0 24 24" fill="none" xmlns="http://www.w3.org/2000/svg">
<path d="M13.2153 22.7175C13.0728 22.665 12.9228 22.6275 12.7878 22.56C12.2928 22.305 12.0378 21.8925 12.0078 21.3375C12.0003 21.15 12.0078 20.9625 12.0078 20.7375C11.5503 21 11.0703 20.925 10.6053 20.925C8.00283 20.925 5.40032 20.925 2.80532 20.925C2.01782 20.925 1.45532 20.4675 1.32032 19.725C1.30532 19.62 1.29782 19.515 1.29782 19.41C1.29782 18.69 1.31282 17.97 1.29782 17.2575C1.26782 15.915 1.95032 15.03 3.10532 14.4825C3.45032 14.3175 3.84783 14.2725 4.22283 14.1675C4.32032 14.1375 4.42532 14.115 4.50782 14.055C4.82282 13.83 5.13783 13.59 5.44532 13.3575C5.67782 13.185 5.64032 12.84 5.38532 12.7125C4.13282 12.105 3.37532 11.115 3.14282 9.73496C3.11282 9.54746 3.05282 9.44246 2.86532 9.36746C2.32532 9.13496 2.03282 8.69246 2.02532 8.10746C2.01032 6.96746 2.01032 5.83496 2.02532 4.69496C2.03282 3.97496 2.22782 3.31496 2.82032 2.83496C3.11282 2.59496 3.45033 2.45996 3.81783 2.38496C3.87783 2.36996 3.94532 2.35496 3.98282 2.31746C4.43282 1.76246 5.05532 1.52996 5.72283 1.40996C6.72783 1.22246 7.73283 1.23746 8.73033 1.50746C9.23283 1.64246 9.69032 1.87496 10.0353 2.29496C10.0653 2.33246 10.1178 2.36996 10.1703 2.38496C11.4078 2.70746 11.9853 3.37496 12.0153 4.61996C12.0453 5.79746 12.0453 6.97496 12.0153 8.15246C12.0003 8.75246 11.6628 9.17996 11.1003 9.40496C10.9953 9.44996 10.9428 9.49496 10.9203 9.61496C10.7028 11.07 9.93033 12.1125 8.59532 12.7425C8.43033 12.8175 8.38532 13.1925 8.53533 13.305C8.88783 13.5825 9.24783 13.845 9.60783 14.1075C9.64533 14.1375 9.69783 14.1525 9.74282 14.1525C10.6278 14.2275 11.3703 14.595 12.0153 15.2475C12.0153 15.15 12.0303 15.09 12.0303 15.0225C12.0303 14.16 12.0303 13.29 12.0303 12.4275C12.0303 11.535 12.6303 10.92 13.5228 10.92C16.0953 10.92 18.6678 10.92 21.2403 10.92C22.0053 10.92 22.5078 11.325 22.7103 12.0675C22.7103 12.09 22.7328 12.105 22.7403 12.12V21.495C22.6428 21.705 22.5753 21.9375 22.4478 22.125C22.2378 22.455 21.8928 22.605 21.5253 22.7025H13.2378L13.2153 22.7175ZM22.0053 16.83C22.0053 15.3825 22.0053 13.9275 22.0053 12.48C22.0053 11.925 21.7278 11.6475 21.1728 11.6475C18.6378 11.6475 16.0953 11.6475 13.5603 11.6475C12.9978 11.6475 12.7278 11.925 12.7278 12.48C12.7278 15.375 12.7278 18.27 12.7278 21.165C12.7278 21.7425 12.9978 22.0125 13.5753 22.0125C16.1028 22.0125 18.6378 22.0125 21.1653 22.0125C21.7428 22.0125 22.0128 21.7425 22.0128 21.1725C22.0128 19.7325 22.0128 18.285 22.0128 16.845L22.0053 16.83ZM11.2878 7.57496C11.2878 7.39496 11.2878 7.21496 11.2878 7.03496C11.2878 6.81746 11.1453 6.66746 10.9503 6.65246C10.7553 6.63746 10.6128 6.77246 10.5753 6.98996C10.5378 7.23746 10.4028 7.36496 10.2003 7.35746C9.99783 7.35746 9.87033 7.21496 9.85533 6.95996C9.81033 6.16496 9.36783 5.65496 8.68533 5.30996C8.63282 5.28746 8.52782 5.30246 8.49783 5.33996C7.73282 6.13496 6.27033 6.12746 5.50532 5.33996C5.46782 5.30246 5.36282 5.27996 5.31782 5.30996C4.63532 5.64746 4.18532 6.14996 4.14032 6.95246C4.12532 7.20746 4.00533 7.34246 3.80282 7.35746C3.60032 7.37246 3.46532 7.23746 3.42032 6.97496C3.38282 6.76496 3.24032 6.63746 3.05282 6.64496C2.85782 6.65246 2.71532 6.80246 2.70782 7.01996C2.70782 7.37246 2.70032 7.73246 2.70782 8.08496C2.71532 8.43746 2.97032 8.71496 3.30032 8.77496C3.72782 8.84246 3.77283 8.89496 3.78783 9.32246C3.85532 11.1825 5.65532 12.645 7.49283 12.3225C9.06032 12.0525 10.1253 10.8375 10.2078 9.22496C10.2228 8.92496 10.3278 8.81246 10.6203 8.78246C11.0028 8.74496 11.2728 8.45996 11.2803 8.07747C11.2803 7.91246 11.2803 7.73996 11.2803 7.57496H11.2878ZM3.63033 6.01496C4.11033 5.22746 4.47782 4.87496 5.11532 4.61246C5.55032 4.43246 5.67782 4.46246 5.99282 4.80746C6.50282 5.36246 7.46282 5.37746 7.98782 4.83746C8.37032 4.44746 8.49032 4.41746 8.99283 4.65746C9.17282 4.73996 9.34533 4.85246 9.51033 4.96496C9.90033 5.24246 10.1853 5.62496 10.3728 6.01496C10.6878 5.98496 10.9803 5.96246 11.2878 5.93246C11.2878 5.90996 11.2878 5.84996 11.2878 5.78246C11.2803 5.32496 11.2878 4.85996 11.2503 4.40246C11.1753 3.59996 10.6953 3.15746 9.90032 3.07496C9.78032 3.05996 9.62283 2.99246 9.57032 2.90246C9.38282 2.58746 9.11282 2.38496 8.77532 2.29496C8.35532 2.17496 7.92782 2.07746 7.49283 2.03246C6.75032 1.95746 6.01533 2.00996 5.30282 2.25746C4.99532 2.36246 4.69532 2.50496 4.52283 2.78996C4.38782 3.01496 4.22283 3.08246 3.97533 3.09746C3.40532 3.13496 2.87282 3.57746 2.79782 4.13996C2.71532 4.73996 2.71532 5.35496 2.67782 5.92496C3.02282 5.95496 3.31532 5.98496 3.62282 6.01496H3.63033ZM8.23532 20.205C8.31032 20.205 8.36282 20.2125 8.40782 20.2125C9.34533 20.2125 10.2903 20.2125 11.2278 20.2125C11.7228 20.2125 12.0003 19.9275 12.0003 19.4325C12.0003 18.6525 12.0078 17.8725 12.0003 17.0925C12.0003 16.8825 11.9703 16.6575 11.8953 16.4625C11.5653 15.5775 10.8678 15.135 9.98283 14.925C9.96783 14.925 9.94532 14.94 9.93032 14.9475C10.0728 16.6575 9.60783 18.6 8.23532 20.2125V20.205ZM5.79032 20.2125C4.47782 18.6525 3.92282 16.905 4.08032 14.91C3.66782 14.9775 3.31532 15.1425 2.98532 15.3675C2.32532 15.8175 1.98782 16.425 2.00282 17.2425C2.01782 17.97 2.00282 18.69 2.00282 19.4175C2.00282 19.9425 2.28032 20.22 2.79782 20.22C3.51032 20.22 4.22282 20.22 4.92782 20.22C5.19782 20.22 5.46782 20.22 5.78282 20.22L5.79032 20.2125ZM7.38783 17.0175H6.60783C6.53282 17.8425 6.48032 18.645 6.37532 19.4475C6.33782 19.755 6.46532 19.92 6.66033 20.085C6.83283 20.235 7.05783 20.265 7.26032 20.1225C7.44033 19.995 7.68033 19.8825 7.62783 19.5825C7.59032 19.365 7.58283 19.14 7.56783 18.915C7.50782 18.285 7.45532 17.655 7.39532 17.025L7.38783 17.0175ZM8.28032 18.855C8.93283 17.865 9.23282 16.785 9.24032 15.615C9.21032 15.615 9.20283 15.615 9.20283 15.615C9.10533 15.75 9.02283 15.9 8.91033 16.02C8.80533 16.125 8.67032 16.23 8.52782 16.275C8.32533 16.3425 8.07783 16.5975 8.10033 16.8225C8.16033 17.505 8.22032 18.18 8.28783 18.8625L8.28032 18.855ZM5.73032 18.84C5.79032 18.1575 5.85782 17.4825 5.91782 16.8C5.93282 16.5975 5.67032 16.3275 5.49032 16.2675C5.34783 16.2225 5.21282 16.125 5.10782 16.0125C4.98782 15.8925 4.91282 15.735 4.81532 15.6C4.79282 16.7775 5.09282 17.85 5.73032 18.84ZM7.00532 15.03C6.81782 15.2325 6.63783 15.4125 6.47283 15.5925C6.18783 15.9075 6.21032 15.765 6.40532 16.14C6.45782 16.245 6.52532 16.29 6.64532 16.29C6.88532 16.2825 7.13282 16.29 7.38033 16.29C7.44033 16.29 7.52282 16.26 7.55282 16.215C7.63532 16.1025 7.69533 15.975 7.76283 15.8475C7.50783 15.5775 7.26032 15.315 6.99782 15.03H7.00532ZM5.59532 15.48C5.91033 15.1425 6.20283 14.8275 6.47283 14.5425C6.26283 14.325 6.07533 14.13 5.87282 13.92C5.58782 14.1375 5.29532 14.355 4.98782 14.58C5.19032 14.88 5.38532 15.165 5.59532 15.48ZM8.40782 15.48C8.61783 15.1725 8.81283 14.88 9.01533 14.58C8.70033 14.3475 8.40782 14.1225 8.14532 13.9275C7.92782 14.13 7.72533 14.325 7.51533 14.52C7.80783 14.835 8.10033 15.15 8.41533 15.48H8.40782ZM6.27782 13.05C6.29282 13.14 6.27782 13.26 6.33032 13.3125C6.54032 13.545 6.77282 13.7625 7.02032 14.01C7.22282 13.8 7.40282 13.59 7.59783 13.41C7.71782 13.29 7.74033 13.17 7.70283 13.05H6.27782Z" fill="#F26334"/>
<path d="M18.7726 14.145C18.2101 14.145 17.6401 14.145 17.0776 14.145C16.8001 14.145 16.6501 14.0175 16.6426 13.8C16.6426 13.575 16.8001 13.4325 17.0776 13.4325C18.2176 13.4325 19.3501 13.4325 20.4901 13.4325C20.7751 13.4325 20.9251 13.5675 20.9176 13.8C20.9176 14.025 20.7676 14.145 20.4826 14.145C19.9126 14.145 19.3426 14.145 18.7651 14.145H18.7726Z" fill="#F26334"/>
<path d="M18.8029 19.8674C19.3654 19.8674 19.9354 19.8674 20.4979 19.8674C20.7754 19.8674 20.9254 19.9874 20.9254 20.2124C20.9254 20.4449 20.7754 20.5799 20.4904 20.5799C19.3504 20.5799 18.2179 20.5799 17.0779 20.5799C16.8154 20.5799 16.6504 20.4449 16.6504 20.2274C16.6504 20.0024 16.8079 19.8674 17.0929 19.8674C17.6629 19.8674 18.2329 19.8674 18.8104 19.8674H18.8029Z" fill="#F26334"/>
<path d="M18.7798 17.7225C19.3573 17.7225 19.9348 17.7225 20.5123 17.7225C20.7898 17.7225 20.9473 17.895 20.9173 18.135C20.8873 18.3225 20.7448 18.435 20.5048 18.435C20.1523 18.435 19.7923 18.435 19.4398 18.435C18.6823 18.435 17.9173 18.435 17.1598 18.435C17.0848 18.435 17.0023 18.435 16.9348 18.42C16.7548 18.3825 16.6423 18.24 16.6498 18.06C16.6498 17.8875 16.7773 17.7375 16.9648 17.73C17.2348 17.715 17.5048 17.7225 17.7823 17.7225C18.1198 17.7225 18.4498 17.7225 18.7873 17.7225H18.7798Z" fill="#F26334"/>
<path d="M18.7879 16.2825C18.2029 16.2825 17.6179 16.2825 17.0329 16.2825C16.8754 16.2825 16.7254 16.23 16.6879 16.0725C16.6579 15.9675 16.6729 15.8175 16.7329 15.7275C16.7854 15.645 16.9279 15.5775 17.0329 15.5775C18.2029 15.57 19.3729 15.57 20.5429 15.5775C20.7829 15.5775 20.9254 15.72 20.9254 15.93C20.9254 16.1475 20.7829 16.2825 20.5279 16.2825C19.9504 16.2825 19.3729 16.2825 18.7954 16.2825H18.7879Z" fill="#F26334"/>
<path d="M14.5123 13.6425C14.7673 13.38 15.0148 13.1325 15.2623 12.885C15.4648 12.6825 15.6673 12.6675 15.8323 12.8325C15.9898 12.99 15.9673 13.1925 15.7798 13.3875C15.4648 13.71 15.1423 14.0325 14.8198 14.3475C14.6023 14.565 14.4298 14.5575 14.2048 14.3475C14.1223 14.265 14.0323 14.1825 13.9498 14.0925C13.7773 13.9125 13.7548 13.71 13.8973 13.5525C14.0473 13.395 14.2423 13.395 14.4373 13.5675C14.4598 13.5825 14.4748 13.605 14.5198 13.6425H14.5123Z" fill="#F26334"/>
<path d="M14.5201 20.07C14.7826 19.8075 15.0376 19.5375 15.3001 19.2825C15.4576 19.125 15.6601 19.1175 15.8026 19.245C15.9601 19.38 15.9826 19.5975 15.8176 19.7625C15.4726 20.1225 15.1126 20.475 14.7526 20.8275C14.6026 20.9775 14.4076 20.97 14.2426 20.8275C14.1301 20.7225 14.0251 20.6175 13.9201 20.505C13.7626 20.34 13.7551 20.13 13.8901 19.98C14.0326 19.8375 14.2276 19.8375 14.4151 19.9875C14.4451 20.01 14.4676 20.0325 14.5201 20.07Z" fill="#F26334"/>
<path d="M14.5204 15.7875C14.7829 15.5175 15.0379 15.255 15.3004 14.9925C15.4654 14.835 15.6604 14.82 15.8029 14.955C15.9529 15.0825 15.9754 15.3075 15.8329 15.4575C15.4729 15.8325 15.1129 16.1925 14.7379 16.5525C14.5879 16.695 14.4079 16.68 14.2504 16.5375C14.1454 16.44 14.0404 16.335 13.9354 16.23C13.7629 16.05 13.7479 15.8475 13.8979 15.6975C14.0404 15.5475 14.2354 15.555 14.4229 15.7125C14.4454 15.735 14.4754 15.7575 14.5204 15.795V15.7875Z" fill="#F26334"/>
<path d="M14.5279 17.9325C14.7904 17.6625 15.0379 17.3925 15.3004 17.1375C15.4579 16.98 15.6679 16.9725 15.8029 17.1C15.9604 17.235 15.9754 17.46 15.8179 17.6175C15.4729 17.9775 15.1129 18.33 14.7529 18.6825C14.5954 18.8325 14.4079 18.825 14.2504 18.6825C14.1454 18.585 14.0404 18.48 13.9354 18.375C13.7629 18.195 13.7479 17.985 13.8979 17.8425C14.0404 17.7 14.2354 17.7 14.4229 17.85C14.4454 17.8725 14.4754 17.895 14.5279 17.94V17.9325Z" fill="#F26334"/>
<path d="M6.89241 11.2875C6.32241 11.265 5.76741 11.01 5.33991 10.4925C5.17491 10.29 5.18241 10.0725 5.35491 9.93746C5.51991 9.80996 5.72241 9.83996 5.88741 10.0275C6.52491 10.755 7.47741 10.755 8.12241 10.0275C8.29491 9.83246 8.50491 9.80246 8.66991 9.93746C8.83491 10.08 8.82741 10.29 8.66991 10.4925C8.27241 10.98 7.64991 11.28 6.90741 11.2725L6.89241 11.2875Z" fill="#F26334"/>
</svg>
