<svg width="24" height="24" viewBox="0 0 24 24" fill="none" xmlns="http://www.w3.org/2000/svg">
<path d="M20.6325 13.8075C20.4675 16.2975 19.2825 18.375 16.9575 19.755C15.435 20.655 13.89 21.51 12.36 22.395C12.1125 22.5375 11.9025 22.5375 11.6475 22.395C10.1325 21.5175 8.60247 20.6625 7.08747 19.785C4.95747 18.54 3.72747 16.68 3.41247 14.235C3.25497 13.0125 3.46497 11.835 3.89997 10.68C4.23747 9.78752 4.43247 8.85752 4.28997 7.89752C4.24497 7.59752 4.10997 7.31252 4.00497 7.02752C3.83247 6.54752 3.65247 6.06002 3.46497 5.58752C3.36747 5.34752 3.39747 5.14502 3.56997 4.95002C4.49997 3.87752 5.41497 2.79752 6.33747 1.72502C6.56247 1.46252 6.74997 1.44752 7.10997 1.64252C8.47497 2.37752 9.88497 2.46002 11.2725 1.79252C11.805 1.53752 12.195 1.54502 12.72 1.80752C14.085 2.47502 15.4725 2.40002 16.8225 1.69502C17.295 1.44752 17.4075 1.46252 17.76 1.86752C18.645 2.89502 19.5225 3.93002 20.415 4.95752C20.595 5.16002 20.6325 5.36252 20.535 5.61752C20.3325 6.12752 20.175 6.66002 19.9425 7.16252C19.59 7.92752 19.5825 8.71502 19.7775 9.50252C19.95 10.215 20.19 10.9125 20.3925 11.625C20.58 12.285 20.64 12.96 20.6325 13.8225V13.8075ZM6.87747 2.59502C6.87747 2.59502 6.79497 2.65502 6.75747 2.70002C6.01497 3.56252 5.26497 4.43252 4.52997 5.30252C4.47747 5.36252 4.45497 5.49752 4.48497 5.57252C4.67247 6.12002 4.90497 6.66002 5.07747 7.20752C5.20497 7.62752 5.31747 8.05502 5.36247 8.49002C5.45997 9.36752 5.18247 10.17 4.82247 10.965C3.61497 13.6575 4.55997 17.0025 7.04247 18.6075C8.60997 19.62 10.275 20.49 11.895 21.42C11.955 21.45 12.0675 21.435 12.135 21.3975C13.6275 20.55 15.12 19.7175 16.605 18.8475C17.7975 18.15 18.66 17.1525 19.185 15.8775C19.8825 14.175 19.8825 12.4725 19.095 10.8C18.5475 9.63752 18.435 8.47502 18.87 7.26752C19.0725 6.69752 19.29 6.13502 19.5075 5.57252C19.5525 5.45252 19.545 5.37752 19.4625 5.27252C18.72 4.41752 17.9775 3.55502 17.25 2.69252C17.16 2.58752 17.1 2.60252 16.9875 2.64002C16.6725 2.75252 16.3575 2.88002 16.035 2.94752C14.775 3.21002 13.545 3.02252 12.3375 2.61752C12.105 2.54252 11.91 2.53502 11.6775 2.61752C10.11 3.12752 8.53497 3.30752 6.95997 2.61752C6.93747 2.61002 6.92247 2.60252 6.87747 2.58002V2.59502Z" fill="#F26334"/>
<path d="M6.75 9.59998C6.75 6.71248 9.105 4.35748 11.9925 4.35748C14.9025 4.35748 17.25 6.71248 17.25 9.62998C17.25 12.525 14.895 14.8725 12.0075 14.865C9.09 14.865 6.75 12.5175 6.75 9.59248V9.59998ZM11.9925 5.32498C9.645 5.32498 7.7175 7.23748 7.71 9.58498C7.7025 11.97 9.63 13.92 11.9925 13.92C14.3775 13.92 16.2975 12 16.305 9.60748C16.305 7.24498 14.3775 5.32498 11.9925 5.32498Z" fill="#F26334"/>
<path d="M12.0004 15.825C13.0804 15.825 14.1604 15.825 15.2479 15.825C15.5929 15.825 15.7954 15.99 15.8179 16.2675C15.8329 16.5225 15.6904 16.7175 15.4354 16.77C15.3379 16.7925 15.2404 16.785 15.1429 16.785C13.0504 16.785 10.9504 16.785 8.85787 16.785C8.76787 16.785 8.67787 16.785 8.58787 16.77C8.33287 16.725 8.17537 16.5375 8.18287 16.2825C8.18287 16.05 8.34787 15.87 8.59537 15.8325C8.67787 15.8175 8.76037 15.825 8.84287 15.825C9.89287 15.825 10.9429 15.825 12.0004 15.825Z" fill="#F26334"/>
<path d="M11.9775 18.69C11.205 18.69 10.425 18.69 9.65246 18.69C9.33746 18.69 9.12746 18.48 9.13496 18.2025C9.14246 17.9325 9.35246 17.745 9.66746 17.745C10.41 17.745 11.16 17.745 11.9025 17.745C12.72 17.745 13.545 17.745 14.3625 17.745C14.595 17.745 14.76 17.85 14.8425 18.075C14.9175 18.285 14.8575 18.4725 14.685 18.585C14.58 18.6525 14.4375 18.69 14.31 18.69C13.5375 18.6975 12.7575 18.69 11.985 18.69H11.9775Z" fill="#F26334"/>
<path d="M9.93035 8.18998C10.2078 8.18998 10.4853 8.18248 10.7553 8.18998C10.9053 8.18998 10.9803 8.15248 11.0253 8.00248C11.1903 7.48498 11.3703 6.97498 11.5503 6.45748C11.6478 6.17998 11.8128 6.04498 12.0453 6.05248C12.2703 6.05248 12.4203 6.19498 12.5103 6.46498C12.6603 6.95248 12.8178 7.44748 12.9603 7.94248C13.0128 8.12998 13.0878 8.20498 13.2978 8.19748C13.8228 8.18248 14.3403 8.18998 14.8653 8.19748C15.1503 8.19748 15.3078 8.30998 15.3828 8.53498C15.4503 8.75248 15.3828 8.93248 15.1578 9.08998C14.7228 9.40498 14.2953 9.72748 13.8528 10.035C13.7253 10.125 13.7028 10.2075 13.7553 10.35C13.9278 10.86 14.0928 11.37 14.2578 11.88C14.3478 12.1575 14.2953 12.36 14.1153 12.4875C13.9503 12.6075 13.6953 12.5925 13.4853 12.45C13.0428 12.135 12.5928 11.82 12.1578 11.4975C12.0453 11.415 11.9703 11.4225 11.8653 11.4975C11.4228 11.82 10.9803 12.135 10.5378 12.4425C10.2978 12.6075 10.1028 12.6225 9.91535 12.4875C9.73535 12.3525 9.68285 12.1575 9.77285 11.8875C9.93785 11.37 10.1028 10.8525 10.2678 10.335C10.3053 10.215 10.2903 10.155 10.1853 10.08C9.73535 9.76498 9.29285 9.43498 8.84285 9.10498C8.61785 8.93998 8.54285 8.75248 8.60285 8.52748C8.67035 8.30998 8.84285 8.19748 9.12785 8.19748C9.39785 8.19748 9.66785 8.19748 9.93035 8.19748V8.18998ZM13.4103 9.18748C13.4103 9.18748 13.3953 9.15748 13.3878 9.14248C13.1853 9.14248 12.9828 9.14248 12.7878 9.14248C12.4503 9.14248 12.3153 9.04498 12.2103 8.72998C12.1428 8.54248 12.0828 8.34748 11.9928 8.09248C11.9028 8.35498 11.8428 8.55748 11.7753 8.75248C11.6778 9.03748 11.5353 9.14248 11.2278 9.14248C11.0178 9.14248 10.8078 9.14248 10.5303 9.14248C10.7478 9.30748 10.9053 9.42748 11.0628 9.54748C11.3553 9.77248 11.4003 9.91498 11.2878 10.26C11.2278 10.4475 11.1753 10.635 11.0928 10.8825C11.3103 10.7175 11.4753 10.59 11.6403 10.4625C11.9178 10.2525 12.0603 10.2525 12.3378 10.4625C12.5028 10.59 12.6678 10.71 12.8328 10.8375C12.8028 10.62 12.7503 10.44 12.6903 10.2525C12.5853 9.91498 12.6303 9.76498 12.9003 9.55498C13.0653 9.42748 13.2303 9.30748 13.3953 9.17998L13.4103 9.18748Z" fill="#F26334"/>
</svg>
