<svg width="24" height="24" viewBox="0 0 24 24" fill="none" xmlns="http://www.w3.org/2000/svg">
<path d="M20.8423 9.90751C21.2923 10.08 21.7123 10.2525 22.1398 10.41C22.3573 10.485 22.4398 10.62 22.4323 10.845C22.4323 11.6175 22.4248 12.3825 22.4323 13.155C22.4323 13.3875 22.3498 13.5225 22.1323 13.605C21.4798 13.845 20.8348 14.1075 20.1823 14.355C20.0548 14.4075 19.9798 14.475 19.9348 14.61C19.7773 15.0225 19.6123 15.4275 19.4248 15.8325C19.3648 15.96 19.3648 16.05 19.4248 16.17C19.7098 16.8075 19.9873 17.445 20.2798 18.0825C20.3848 18.3075 20.3473 18.465 20.1748 18.63C19.6273 19.1625 19.0873 19.7025 18.5548 20.25C18.3823 20.43 18.2173 20.445 17.9998 20.3475C17.3623 20.055 16.7248 19.7775 16.0873 19.5075C15.9973 19.47 15.8698 19.4775 15.7723 19.5075C15.3523 19.665 14.9473 19.8525 14.5273 20.01C14.3998 20.055 14.3323 20.1225 14.2873 20.25C14.0398 20.9025 13.7848 21.5475 13.5373 22.2C13.4548 22.4175 13.3273 22.5075 13.0873 22.5075C12.3148 22.5 11.5498 22.5 10.7773 22.5075C10.5448 22.5075 10.4098 22.425 10.3273 22.2075C10.0798 21.5475 9.8248 20.895 9.5623 20.235C9.5248 20.1525 9.4423 20.0625 9.3598 20.025C8.9473 19.8375 8.5273 19.665 8.0998 19.5075C8.0098 19.47 7.8748 19.4625 7.7848 19.5075C7.1398 19.785 6.4948 20.07 5.8498 20.3625C5.6398 20.46 5.4823 20.43 5.3173 20.265C4.7773 19.71 4.2373 19.17 3.6823 18.63C3.5098 18.465 3.4873 18.3075 3.5848 18.0975C3.8773 17.46 4.1623 16.815 4.4398 16.1625C4.4773 16.0725 4.4623 15.945 4.4323 15.855C4.2748 15.4425 4.0873 15.045 3.9298 14.6325C3.8773 14.4975 3.8173 14.4225 3.6823 14.37C3.0223 14.1225 2.3698 13.86 1.7098 13.6125C1.5073 13.5375 1.4248 13.41 1.4248 13.1925C1.4323 12.405 1.4323 11.625 1.4248 10.8375C1.4248 10.62 1.5073 10.5 1.7098 10.425C2.3698 10.1775 3.0223 9.91502 3.6823 9.66751C3.8023 9.62252 3.8698 9.55501 3.9223 9.42751C4.0873 9.00001 4.2748 8.58752 4.4398 8.16752C4.4698 8.08502 4.4773 7.97251 4.4398 7.89751C4.1623 7.24501 3.8773 6.59251 3.5773 5.94751C3.4798 5.73751 3.5098 5.58001 3.6748 5.41501C4.2223 4.87501 4.7698 4.33501 5.3098 3.78001C5.4748 3.60751 5.6323 3.58501 5.8423 3.68251C6.4723 3.96751 7.1023 4.23751 7.7323 4.52251C7.8748 4.59001 7.9873 4.57501 8.1298 4.50751C8.5123 4.33501 8.8948 4.17001 9.2923 4.02751C9.4423 3.97501 9.52481 3.89251 9.5773 3.75001C9.8173 3.10501 10.0798 2.46001 10.3198 1.81501C10.3948 1.60501 10.5223 1.51501 10.7473 1.51501C11.5273 1.52251 12.2998 1.52251 13.0798 1.51501C13.3198 1.51501 13.4398 1.60501 13.5223 1.82251C13.7698 2.48251 14.0248 3.14251 14.2873 3.79501C14.3248 3.87751 14.4148 3.96001 14.4973 3.99751C14.7073 4.08751 14.9398 4.15501 15.1573 4.23001C16.7023 2.10001 19.6723 1.98001 21.3898 3.74251C23.0698 5.46751 22.9498 8.34752 20.8273 9.91502L20.8423 9.90751ZM18.1873 10.695C18.8248 13.965 17.0023 16.6425 14.7073 17.7525C12.2473 18.9375 9.2698 18.42 7.3798 16.4625C5.4298 14.445 5.0023 11.4825 6.3073 9.01501C6.9523 7.80001 7.8973 6.88501 9.1348 6.28501C10.8823 5.43751 12.6598 5.43001 14.4223 6.12751C14.5573 5.66251 14.6923 5.21251 14.8273 4.74751C14.6173 4.68001 14.3848 4.59001 14.1448 4.52251C13.9723 4.47001 13.8673 4.37251 13.8073 4.20001C13.5673 3.57001 13.3198 2.94001 13.0798 2.31001C13.0273 2.16751 12.9673 2.10751 12.8098 2.11501C12.2248 2.12251 11.6398 2.12251 11.0548 2.11501C10.9123 2.11501 10.8448 2.16001 10.7923 2.29501C10.5523 2.93251 10.2973 3.57001 10.0573 4.20751C9.9898 4.38001 9.8848 4.46251 9.7198 4.52251C9.2173 4.71751 8.7148 4.92001 8.2273 5.13751C8.0473 5.22001 7.8973 5.23501 7.7248 5.15251C7.1098 4.87501 6.4873 4.60501 5.8723 4.32751C5.7373 4.26751 5.6623 4.28251 5.5648 4.38751C5.1598 4.80751 4.7473 5.22001 4.3273 5.62501C4.2148 5.73751 4.2148 5.82001 4.2748 5.95501C4.5523 6.57001 4.8223 7.19251 5.0998 7.80751C5.1823 7.98001 5.1598 8.12252 5.0773 8.28752C4.8598 8.76002 4.6498 9.23251 4.4773 9.72001C4.3948 9.95251 4.2748 10.08 4.0423 10.17C3.4273 10.395 2.8198 10.635 2.2123 10.875C2.1448 10.905 2.0548 10.9875 2.0548 11.0475C2.0398 11.715 2.0548 12.39 2.0548 13.065C2.1298 13.095 2.2048 13.125 2.2723 13.155C2.8948 13.395 3.5173 13.6425 4.1473 13.875C4.3198 13.9425 4.3948 14.0475 4.4623 14.22C4.6573 14.73 4.8673 15.2325 5.0923 15.735C5.1673 15.9 5.1823 16.035 5.1073 16.2C4.8223 16.83 4.5523 17.46 4.2673 18.09C4.2148 18.2025 4.2223 18.2775 4.3123 18.3675C4.7398 18.7875 5.1673 19.2075 5.5798 19.635C5.6773 19.7325 5.7523 19.74 5.8723 19.6875C6.4948 19.4025 7.1248 19.1325 7.7473 18.855C7.9198 18.78 8.0623 18.795 8.2348 18.87C8.7298 19.0875 9.2248 19.2975 9.7348 19.485C9.9073 19.5525 10.0198 19.6425 10.0873 19.815C10.3273 20.445 10.5748 21.075 10.8148 21.705C10.8673 21.855 10.9423 21.8925 11.0923 21.8925C11.6698 21.885 12.2473 21.885 12.8248 21.8925C12.9748 21.8925 13.0498 21.8475 13.1023 21.705C13.3348 21.075 13.5898 20.46 13.8223 19.83C13.8973 19.635 14.0173 19.545 14.2048 19.47C14.6998 19.29 15.1873 19.0875 15.6598 18.87C15.8473 18.7875 15.9973 18.765 16.1848 18.8475C16.8073 19.1325 17.4373 19.4025 18.0598 19.68C18.1648 19.725 18.2323 19.7175 18.3148 19.635C18.7348 19.2 19.1698 18.7725 19.5973 18.3525C19.6948 18.2625 19.6948 18.1875 19.6423 18.075C19.3573 17.445 19.0873 16.8075 18.8023 16.185C18.7273 16.02 18.7423 15.885 18.8173 15.72C19.0123 15.315 19.2298 14.9175 19.3498 14.49C19.4623 14.0775 19.6873 13.8675 20.0848 13.74C20.6848 13.545 21.2698 13.29 21.8623 13.0575C21.8623 12.375 21.8623 11.7075 21.8623 11.0325C21.8623 10.98 21.7948 10.8975 21.7348 10.875C21.4198 10.74 21.0898 10.6425 20.7823 10.4925C20.4148 10.3125 20.0773 10.305 19.6723 10.4325C19.2148 10.5825 18.7123 10.5975 18.2173 10.6725L18.1873 10.695ZM7.7173 15.96C7.6048 13.6875 8.5948 12.345 10.8223 11.97C10.2898 11.61 9.9448 11.115 9.8548 10.4625C9.7723 9.81001 9.9523 9.23251 10.4023 8.75251C11.1748 7.92001 12.4798 7.86001 13.3273 8.62501C13.7473 9.00001 13.9873 9.48001 14.0173 10.05C14.0623 10.8825 13.7023 11.5125 13.0498 11.97C13.3948 12.06 13.7548 12.1125 14.0848 12.24C15.3298 12.7125 16.1323 13.905 16.1473 15.24C16.1473 15.465 16.1473 15.6825 16.1473 15.9375C16.1998 15.9 16.2148 15.885 16.2298 15.87C17.5423 14.355 17.9773 12.615 17.5423 10.6575C17.5273 10.59 17.4523 10.515 17.3848 10.4925C15.6748 9.92251 14.6998 8.75251 14.4523 6.96751C14.4373 6.83251 14.3848 6.77251 14.2648 6.72001C13.1923 6.26251 12.0898 6.12001 10.9423 6.31501C6.6373 7.04251 4.6723 12.1875 7.4023 15.5925C7.4923 15.6975 7.5823 15.8025 7.7173 15.96ZM18.4948 10.035C20.4073 10.035 21.9598 8.48251 21.9598 6.57001C21.9598 4.66501 20.4073 3.11251 18.5098 3.10501C16.5973 3.10501 15.0373 4.65001 15.0298 6.55501C15.0298 8.46751 16.5748 10.0275 18.4873 10.0275L18.4948 10.035ZM11.9548 12.57C11.9548 12.57 11.9548 12.5925 11.9548 12.6075C11.6023 12.6075 11.2423 12.6075 10.8898 12.6075C9.6673 12.63 8.5573 13.56 8.3848 14.7675C8.3098 15.315 8.3398 15.8775 8.3398 16.4325C8.3398 16.4925 8.4073 16.5675 8.4598 16.6125C10.4623 18.18 13.4173 18.18 15.4273 16.6125C15.4948 16.56 15.5548 16.44 15.5548 16.3575C15.5698 15.9825 15.5623 15.6 15.5548 15.225C15.5398 14.025 14.7148 12.9525 13.5448 12.705C13.0273 12.5925 12.4873 12.615 11.9548 12.5775V12.57ZM11.9398 11.6775C12.7648 11.6775 13.4323 11.01 13.4323 10.185C13.4323 9.36001 12.7723 8.69251 11.9473 8.68501C11.1223 8.67751 10.4323 9.36751 10.4398 10.1925C10.4398 11.0175 11.1148 11.685 11.9398 11.685V11.6775Z" fill="#F26334"/>
<path d="M18.0076 7.16245C18.5776 6.58495 19.1251 6.03745 19.6726 5.48995C19.7251 5.43745 19.7851 5.34745 19.8451 5.33995C19.9651 5.32495 20.1151 5.30995 20.2126 5.36995C20.3476 5.45245 20.3401 5.60995 20.2501 5.75245C20.2351 5.77495 20.2126 5.79745 20.1976 5.81995C19.5451 6.47245 18.9001 7.11745 18.2476 7.76995C18.0976 7.91995 17.9326 7.91995 17.7751 7.76995C17.4526 7.44745 17.1301 7.12495 16.8076 6.80245C16.6726 6.65995 16.6651 6.48745 16.7776 6.36745C16.8976 6.23995 17.0851 6.24745 17.2276 6.38995C17.4826 6.64495 17.7376 6.90745 18.0001 7.17745L18.0076 7.16245Z" fill="#F26334"/>
</svg>
