<svg width="24" height="24" viewBox="0 0 24 24" fill="none" xmlns="http://www.w3.org/2000/svg">
<path d="M16.5526 22.485V21.8025H19.6951V17.9625H20.3926V21.735C21.0076 21.675 21.6226 21.09 21.7426 20.43C21.7951 20.1525 21.7876 19.8675 21.7876 19.5825C21.7876 19.1475 21.8101 18.705 21.7501 18.2775C21.5851 17.1225 20.6326 16.2525 19.4626 16.215C18.4801 16.1775 17.4976 16.2075 16.5151 16.2075C16.4701 16.2075 16.4326 16.2225 16.4026 16.2225C16.6726 17.6475 16.4926 19.08 16.5376 20.4975C16.5376 20.7 16.5376 20.91 16.5001 21.105C16.3501 21.885 15.6601 22.47 14.8651 22.4925C14.5051 22.5 14.1376 22.4925 13.7626 22.4925V16.9125H14.4376V21.7725C15.2926 21.915 15.8401 21.4575 15.8401 20.6175C15.8401 19.5225 15.8401 18.435 15.8401 17.34C15.8401 15.87 14.7751 14.805 13.2976 14.805C12.4276 14.805 11.5651 14.805 10.6951 14.805C9.19507 14.805 8.14507 15.8625 8.13757 17.37C8.13757 18.4275 8.16757 19.485 8.13007 20.5425C8.10007 21.3 8.58007 21.93 9.53257 21.7875V16.92H10.2226V22.4625C9.75007 22.4625 9.27007 22.5225 8.81257 22.4475C8.02507 22.32 7.45507 21.6075 7.44757 20.805C7.44007 19.59 7.44007 18.3675 7.44757 17.1525C7.44757 16.8525 7.53007 16.5525 7.58257 16.2225C7.52257 16.2225 7.44007 16.2075 7.35757 16.2075C6.46507 16.2075 5.58007 16.2075 4.68757 16.2075C3.26257 16.215 2.19007 17.2875 2.19757 18.72C2.19757 19.29 2.16757 19.86 2.25007 20.4225C2.34757 21.0975 2.80507 21.525 3.45007 21.735C3.48757 21.75 3.53257 21.75 3.59257 21.7575V17.9775H4.29007V21.8025H7.43257V22.5C7.36507 22.5 7.29757 22.5075 7.22257 22.5075C6.15007 22.5075 5.07757 22.5075 4.01257 22.5075C2.56507 22.5075 1.50007 21.4425 1.50007 19.995C1.50007 19.4025 1.47007 18.81 1.54507 18.225C1.73257 16.7025 3.00007 15.555 4.53007 15.5175C5.62507 15.4875 6.72757 15.5325 7.83007 15.54C7.89757 15.54 7.98757 15.5025 8.02507 15.45C8.70757 14.52 9.63007 14.0925 10.7701 14.1075C11.6101 14.115 12.4426 14.1075 13.2826 14.1075C14.3926 14.1075 15.2851 14.535 15.9526 15.4275C15.9976 15.4875 16.1176 15.525 16.2001 15.5325C17.3701 15.5325 18.5476 15.4725 19.7176 15.555C21.2101 15.66 22.4101 16.965 22.4776 18.465C22.5076 19.125 22.5151 19.7925 22.4401 20.4525C22.2976 21.615 21.2701 22.4925 20.1001 22.5C18.9601 22.515 17.8276 22.5 16.6876 22.5C16.6426 22.5 16.6051 22.5 16.5451 22.4925L16.5526 22.485Z" fill="#F26334"/>
<path d="M6.41973 7.35003C5.99973 8.01003 5.69973 8.69253 5.52723 9.42753C5.49723 9.56253 5.40723 9.54753 5.31723 9.54753C4.78473 9.54753 4.25223 9.54753 3.71973 9.54753C3.36723 9.54753 3.25473 9.66753 3.25473 10.02C3.25473 10.6425 3.25473 11.2575 3.25473 11.88C3.25473 12.1875 3.30723 12.255 3.59973 12.3675V13.0125C3.11973 13.095 2.58723 12.6375 2.56473 12.09C2.54223 11.325 2.54223 10.56 2.56473 9.79503C2.57973 9.26253 3.05223 8.85753 3.60723 8.85003C3.98973 8.84253 4.37973 8.85003 4.76223 8.85003C4.89723 8.85003 4.96473 8.82003 5.00973 8.67753C5.14473 8.31753 5.29473 7.96503 5.45223 7.61253C5.50473 7.49253 5.50473 7.42503 5.40723 7.33503C5.12973 7.07253 4.86723 6.80253 4.60473 6.53253C4.13973 6.06003 4.13973 5.45253 4.60473 4.98003C5.06973 4.50753 5.54223 4.03503 6.01473 3.57003C6.48723 3.10503 7.11723 3.11253 7.58973 3.57003C7.85973 3.83253 8.12973 4.10253 8.39223 4.37253C8.47473 4.45503 8.53473 4.45503 8.63973 4.41003C9.00723 4.24503 9.37473 4.08753 9.74223 3.94503C9.86223 3.90003 9.89973 3.84753 9.89973 3.72753C9.89973 3.34503 9.89973 2.95503 9.89973 2.57253C9.89973 1.94253 10.3422 1.49253 10.9722 1.49253C11.6547 1.49253 12.3447 1.48503 13.0272 1.49253C13.6497 1.49253 14.0922 1.95003 14.0922 2.58003C14.0922 2.96253 14.0922 3.33753 14.0922 3.72003C14.0922 3.84753 14.1222 3.90753 14.2497 3.95253C14.6247 4.09503 14.9922 4.25253 15.3522 4.41753C15.4572 4.46253 15.5172 4.45503 15.5922 4.37253C15.8547 4.10253 16.1247 3.83253 16.3947 3.57003C16.8672 3.10503 17.4972 3.10503 17.9697 3.57003C18.4422 4.03503 18.9147 4.50753 19.3797 4.98003C19.8372 5.44503 19.8372 6.05253 19.3797 6.51753C19.1097 6.79503 18.8397 7.06503 18.5622 7.33503C18.4722 7.41753 18.4647 7.47753 18.5172 7.59753C18.6822 7.95753 18.8397 8.33253 18.9822 8.70003C19.0197 8.80503 19.0722 8.85003 19.1847 8.84253C19.5597 8.84253 19.9272 8.84253 20.3022 8.84253C20.9997 8.84253 21.4347 9.27753 21.4422 9.97503C21.4422 10.65 21.4422 11.3325 21.4422 12.0075C21.4422 12.5925 20.9622 13.05 20.4072 13.0275V12.36C20.6997 12.315 20.7522 12.105 20.7522 11.835C20.7447 11.22 20.7522 10.6125 20.7522 9.99753C20.7522 9.67503 20.6322 9.54753 20.3022 9.54753C19.7622 9.54753 19.2222 9.54753 18.6822 9.54753C18.6147 9.54753 18.5022 9.48753 18.4872 9.44253C18.2997 8.70003 18.0072 8.01003 17.5797 7.35003C17.9922 6.93753 18.4047 6.53253 18.8097 6.12753C19.1022 5.83503 19.1022 5.69253 18.8097 5.40003C18.3822 4.97253 17.9547 4.54503 17.5272 4.11753C17.2797 3.87003 17.1147 3.87003 16.8597 4.11753C16.4847 4.49253 16.1022 4.86753 15.7347 5.25003C15.6447 5.34753 15.5697 5.35503 15.4572 5.28753C14.8722 4.92003 14.2422 4.65753 13.5747 4.50003C13.4322 4.46253 13.3947 4.40253 13.3947 4.26003C13.4022 3.72003 13.3947 3.18003 13.3947 2.64003C13.3947 2.33253 13.2672 2.20503 12.9522 2.20503C12.3072 2.20503 11.6697 2.20503 11.0247 2.20503C10.7172 2.20503 10.5897 2.33253 10.5897 2.64753C10.5897 3.18003 10.5897 3.71253 10.5897 4.24503C10.5897 4.39503 10.5597 4.46253 10.4022 4.50003C9.72723 4.65753 9.08973 4.93503 8.49723 5.29503C8.45973 5.31753 8.42223 5.33253 8.36223 5.36253C7.95723 4.95753 7.55223 4.54503 7.14723 4.14003C6.86223 3.85503 6.71223 3.85503 6.43473 4.14003C5.99973 4.57503 5.55723 5.01753 5.12223 5.45253C4.89723 5.67753 4.89723 5.84253 5.12223 6.06753C5.54223 6.48753 5.96973 6.90753 6.40473 7.35003H6.41973Z" fill="#F26334"/>
<path d="M16.8754 10.9425H16.2079C16.1479 9.49498 15.5554 8.31748 14.3554 7.48498C13.5529 6.92998 12.6604 6.69748 11.6854 6.76498C9.66789 6.89998 7.85289 8.54998 7.78539 10.9275H7.08789C7.14039 9.29248 7.77789 7.94248 9.12039 6.99748C10.8229 5.79748 12.6304 5.70748 14.4529 6.71998C16.2304 7.70998 16.9354 9.58498 16.8754 10.9425Z" fill="#F26334"/>
<path d="M11.9854 13.7475C10.8304 13.7475 9.89294 12.795 9.90044 11.64C9.90044 10.4925 10.8604 9.53998 12.0154 9.55498C13.1704 9.56248 14.1079 10.515 14.1004 11.67C14.1004 12.825 13.1479 13.755 11.9854 13.755V13.7475ZM12.0004 13.05C12.7804 13.05 13.4029 12.4275 13.3954 11.6475C13.3954 10.8825 12.7729 10.26 12.0079 10.2525C11.2429 10.2525 10.5979 10.8825 10.5979 11.6475C10.5979 12.42 11.2204 13.05 11.9929 13.05H12.0004Z" fill="#F26334"/>
<path d="M6.04469 15.15C4.88969 15.15 3.94469 14.2125 3.95219 13.05C3.95219 11.895 4.90469 10.95 6.05219 10.95C7.20719 10.95 8.15219 11.9025 8.15219 13.05C8.15219 14.205 7.20719 15.1425 6.05219 15.1425L6.04469 15.15ZM6.05969 14.445C6.83219 14.445 7.45469 13.815 7.44719 13.035C7.44719 12.2775 6.80969 11.6475 6.05219 11.6475C5.28719 11.6475 4.64969 12.2775 4.64969 13.05C4.64969 13.8225 5.27969 14.445 6.05969 14.445Z" fill="#F26334"/>
<path d="M17.9327 15.15C16.7777 15.15 15.8402 14.205 15.8477 13.0425C15.8477 11.8875 16.8077 10.9425 17.9552 10.9575C19.1102 10.965 20.0477 11.9175 20.0402 13.0725C20.0402 14.2275 19.0877 15.1575 17.9327 15.1575V15.15ZM17.9402 14.445C18.7202 14.445 19.3427 13.8225 19.3427 13.05C19.3427 12.2775 18.7052 11.6475 17.9402 11.6475C17.1752 11.6475 16.5527 12.2775 16.5527 13.0425C16.5527 13.815 17.1752 14.445 17.9477 14.445H17.9402Z" fill="#F26334"/>
<path d="M13.3873 21.81V22.485H10.6123V21.81H13.3873Z" fill="#F26334"/>
</svg>
