<svg width="43" height="43" viewBox="0 0 43 43" fill="none" xmlns="http://www.w3.org/2000/svg">
<rect width="43" height="43" rx="21.5" fill="white"/>
<g clip-path="url(#clip0_49_1499)">
<path d="M24.6463 34C24.9759 33.8746 25.2487 33.6935 25.3494 33.335C25.5077 32.7745 25.1217 32.2196 24.5274 32.189C24.0957 32.1664 23.6622 32.1805 23.2293 32.178C23.1405 32.178 23.051 32.178 22.949 32.178V29.932C23.6303 29.7381 24.3078 29.5986 24.944 29.3551C26.7908 28.6478 28.1633 27.4034 29.0929 25.6922C29.8343 24.3303 30.052 22.8643 29.99 21.3446C29.9694 20.8466 29.5703 20.4691 29.0723 20.4654C28.5574 20.4617 28.1627 20.835 28.1358 21.3495C28.1064 21.9093 28.1264 22.4777 28.0369 23.0283C27.7135 25.0081 26.6287 26.4979 24.8133 27.4101C22.3973 28.6234 19.751 28.2361 17.7704 26.4227C16.625 25.374 16.0025 24.0586 15.8981 22.5211C15.8724 22.14 15.8768 21.757 15.863 21.3746C15.8443 20.8515 15.462 20.4722 14.9515 20.466C14.4392 20.4599 14.0276 20.8374 14.0088 21.3452C13.9631 22.6086 14.0876 23.8475 14.5912 25.029C15.3432 26.7934 16.5787 28.1296 18.3034 29.0284C19.1555 29.4726 20.0657 29.743 21.0423 29.8617V32.1792C20.548 32.1792 20.0595 32.1774 19.5703 32.1792C19.143 32.1811 18.8358 32.3756 18.675 32.7617C18.4905 33.2053 18.7038 33.7039 19.1505 33.9107C19.2174 33.9419 19.285 33.97 19.3525 34H24.6469H24.6463Z" fill="#038B09"/>
<path d="M17.5153 17.6926C17.5153 19.0931 17.5066 20.4929 17.5178 21.8934C17.5316 23.5912 18.2717 24.9035 19.7668 25.7766C22.5476 27.3997 26.2467 25.4951 26.4537 22.3388C26.4837 21.8848 26.4819 21.4278 26.4825 20.9726C26.485 18.4898 26.4825 16.0071 26.4844 13.5237C26.485 12.327 26.1021 11.2778 25.2714 10.3851C23.2107 8.17096 19.3771 8.69161 18.0139 11.3726C17.6692 12.0505 17.516 12.7651 17.516 13.5164C17.5153 14.9083 17.516 16.3001 17.516 17.6926H17.5153ZM19.3946 17.6933C19.3946 17.6933 19.3946 17.6933 19.3952 17.6933C19.3952 16.2206 19.3752 14.7474 19.4009 13.2753C19.4246 11.9177 20.5982 10.825 21.9889 10.8134C23.374 10.8018 24.5876 11.9177 24.5976 13.2796C24.6182 16.2084 24.6126 19.1377 24.5995 22.0671C24.5945 23.0944 23.8869 24.0182 22.8979 24.3779C21.2476 24.9775 19.4359 23.8071 19.4009 22.0867C19.3708 20.6226 19.3946 19.1579 19.3946 17.6933Z" fill="#038B09"/>
<path d="M19.3945 17.6933C19.3945 19.158 19.3707 20.6227 19.4007 22.0867C19.4357 23.8066 21.2474 24.9776 22.8977 24.378C23.8874 24.0182 24.595 23.0944 24.5993 22.0672C24.6131 19.1384 24.6181 16.209 24.5975 13.2797C24.5881 11.9178 23.3738 10.8024 21.9888 10.8134C20.5981 10.8251 19.4245 11.9178 19.4007 13.2754C19.3751 14.7474 19.3951 16.2207 19.3951 17.6933C19.3951 17.6933 19.3951 17.6933 19.3945 17.6933Z" fill="#038B09"/>
</g>
<defs>
<clipPath id="clip0_49_1499">
<rect width="16" height="25" fill="white" transform="matrix(-1 0 0 1 30 9)"/>
</clipPath>
</defs>
</svg>
