<svg width="77" height="77" viewBox="0 0 77 77" fill="none" xmlns="http://www.w3.org/2000/svg">
<rect x="0.5" y="0.5" width="76" height="76" rx="38" fill="white"/>
<rect x="0.5" y="0.5" width="76" height="76" rx="38" stroke="white"/>
<path d="M46.6083 50.0876L46.6008 30.3253H26.7106L20 36.8613H39.8902V56.6236L46.6083 50.0876Z" fill="#4CAF50"/>
<path d="M57.2226 39.7623L57.215 20H37.3249L30.6143 26.5287H50.5045V46.2983L57.2226 39.7623Z" fill="#4CAF50"/>
<path d="M28.2127 56.6238C32.7485 56.6238 36.4255 53.0465 36.4255 48.6337C36.4255 44.2208 32.7485 40.6436 28.2127 40.6436C23.677 40.6436 20 44.2208 20 48.6337C20 53.0465 23.677 56.6238 28.2127 56.6238Z" fill="#4CAF50"/>
</svg>
