<svg width="214" height="130" viewBox="0 0 214 130" fill="none" xmlns="http://www.w3.org/2000/svg">
<g clip-path="url(#clip0_1_964)">
<mask id="mask0_1_964" style="mask-type:luminance" maskUnits="userSpaceOnUse" x="0" y="0" width="214" height="130">
<path d="M213.11 0H0.000244141V130H213.11V0Z" fill="white"/>
</mask>
<g mask="url(#mask0_1_964)">
<path d="M82.3945 94.1771L140.242 125.136C136.999 123.453 134.84 120.764 134.848 116.528L77 85.576C76.9925 89.8121 79.144 92.5011 82.3945 94.1771Z" fill="white"/>
<path d="M82.3945 94.1771L140.242 125.136C136.999 123.453 134.84 120.764 134.848 116.528L77 85.576C76.9925 89.8121 79.144 92.5011 82.3945 94.1771Z" stroke="#1D1D1B" stroke-linejoin="round"/>
<path d="M155.889 130L156.18 33.805L93.9207 0L92.9682 0.545998L95.1488 96.884L155.889 130Z" fill="#1D1D1B"/>
<path d="M155.889 130L156.18 33.805L93.9207 0L92.9682 0.545998L95.1488 96.884L155.889 130Z" stroke="#1D1D1B" stroke-width="0.5" stroke-linejoin="round"/>
<path d="M85.744 92.712C85.8301 92.668 85.9151 92.623 86.0012 92.579L85.744 92.712ZM86.6567 92.255C86.774 92.189 86.8827 92.115 87 92.049C86.8827 92.115 86.7665 92.189 86.6567 92.255ZM155.01 34.498L155.197 113.517L155.19 113.672L155.182 113.664C155.12 117.776 152.755 121.631 149.353 123.79L149.494 123.717C149.362 123.805 149.212 123.886 149.072 123.967C148.962 124.033 148.862 124.1 148.752 124.159C148.526 124.284 148.292 124.402 148.058 124.513C147.981 124.542 147.91 124.587 147.84 124.616C147.832 124.616 147.824 124.624 147.808 124.631L147.832 124.616C146.865 125.043 145.842 125.345 144.781 125.485C142.814 125.75 141.428 125.882 139.452 124.687C139.452 124.687 139.334 124.638 139.232 124.586L138.905 124.417L81.8273 93.626C82.077 93.641 82.3504 93.633 82.6776 93.589C83.7388 93.449 84.7613 93.146 85.7289 92.719L87.2659 91.879C90.7069 89.69 93.1727 85.814 93.1802 81.65L92.9929 0.686035L155.01 34.498Z" fill="white"/>
<path d="M85.744 92.712C85.8301 92.668 85.9151 92.623 86.0012 92.579M86.6567 92.255C86.774 92.189 86.8827 92.115 87 92.049C86.8827 92.115 86.7665 92.189 86.6567 92.255ZM155.01 34.498L155.197 113.517L155.19 113.672L155.182 113.664C155.12 117.776 152.755 121.631 149.353 123.79L149.494 123.717C149.362 123.805 149.212 123.886 149.072 123.967C148.962 124.033 148.862 124.1 148.752 124.159C148.526 124.284 148.292 124.402 148.058 124.513C147.981 124.542 147.91 124.587 147.84 124.616C147.832 124.616 147.824 124.624 147.808 124.631L147.832 124.616C146.865 125.043 145.842 125.345 144.781 125.485C142.814 125.75 141.428 125.882 139.452 124.687C139.452 124.687 139.334 124.638 139.232 124.586L138.905 124.417L81.8273 93.626C82.077 93.641 82.3504 93.633 82.6776 93.589C83.7388 93.449 84.7613 93.146 85.7289 92.719L87.2659 91.879C90.7069 89.69 93.1727 85.814 93.1802 81.65L92.9929 0.686035L155.01 34.498Z" stroke="#1D1D1B" stroke-linejoin="round"/>
<path d="M82.3945 94.1771L140.242 125.136C136.999 123.453 134.84 120.764 134.848 116.528L77 85.576C76.9925 89.8121 79.144 92.5011 82.3945 94.1771Z" fill="#FCFFD0"/>
<path d="M82.3945 94.1771L140.242 125.136C136.999 123.453 134.84 120.764 134.848 116.528L77 85.576C76.9925 89.8121 79.144 92.5011 82.3945 94.1771Z" stroke="#1D1D1B" stroke-width="0.5" stroke-linejoin="round"/>
<path d="M142.19 94.972C142.19 94.33 141.708 93.554 141.115 93.226L123.312 83.515C122.719 83.187 122.237 83.447 122.237 84.089L122.205 93.144C122.205 93.786 122.68 94.569 123.273 94.89L141.091 104.601C141.684 104.929 142.167 104.669 142.167 104.027L142.19 94.972Z" fill="#FCFFD0"/>
<path d="M142.19 94.972C142.19 94.33 141.708 93.554 141.115 93.226L123.312 83.515C122.719 83.187 122.237 83.447 122.237 84.089L122.205 93.144C122.205 93.786 122.68 94.569 123.273 94.89L141.091 104.601C141.684 104.929 142.167 104.669 142.167 104.027L142.19 94.972Z" stroke="#1D1D1B" stroke-width="0.5" stroke-linecap="round" stroke-linejoin="round"/>
<path d="M123.857 83.2109L141.676 92.9219C142.269 93.2429 142.743 94.0269 142.751 94.6689L142.727 103.723C142.727 104.044 142.609 104.268 142.419 104.372L141.858 104.678C142.047 104.574 142.167 104.35 142.167 104.029L142.19 94.9749C142.19 94.3329 141.708 93.5559 141.115 93.2279L123.297 83.5169C123.004 83.3599 122.736 83.3459 122.538 83.4499L123.099 83.1439C123.288 83.0319 123.557 83.0469 123.857 83.2109Z" fill="#1D1D1B"/>
<path d="M123.857 83.2109L141.676 92.9219C142.269 93.2429 142.743 94.0269 142.751 94.6689L142.727 103.723C142.727 104.044 142.609 104.268 142.419 104.372L141.858 104.678C142.047 104.574 142.167 104.35 142.167 104.029L142.19 94.9749C142.19 94.3329 141.708 93.5559 141.115 93.2279L123.297 83.5169C123.004 83.3599 122.736 83.3459 122.538 83.4499L123.099 83.1439C123.288 83.0319 123.557 83.0469 123.857 83.2109Z" stroke="#1D1D1B" stroke-width="0.5" stroke-linecap="round" stroke-linejoin="round"/>
<path d="M121.676 31.794C121.676 31.152 121.202 30.369 120.609 30.048L102.782 20.337C102.189 20.009 101.707 20.269 101.707 20.911L101.676 29.966C101.676 30.608 102.158 31.384 102.751 31.712L120.577 41.423C121.17 41.751 121.652 41.491 121.652 40.849L121.676 31.794Z" fill="white"/>
<path d="M121.676 31.794C121.676 31.152 121.202 30.369 120.609 30.048L102.782 20.337C102.189 20.009 101.707 20.269 101.707 20.911L101.676 29.966C101.676 30.608 102.158 31.384 102.751 31.712L120.577 41.423C121.17 41.751 121.652 41.491 121.652 40.849L121.676 31.794Z" stroke="#1D1D1B" stroke-width="0.5" stroke-linecap="round" stroke-linejoin="round"/>
<path d="M103.34 20.032L121.158 29.743C121.751 30.064 122.233 30.848 122.233 31.497L122.202 40.551C122.202 40.872 122.084 41.097 121.894 41.201L121.332 41.507C121.53 41.403 121.649 41.178 121.649 40.857L121.672 31.803C121.672 31.161 121.198 30.378 120.605 30.057L102.786 20.338C102.486 20.174 102.209 20.159 102.02 20.263L102.573 19.957C102.771 19.853 103.039 19.868 103.34 20.032Z" fill="#1D1D1B"/>
<path d="M103.34 20.032L121.158 29.743C121.751 30.064 122.233 30.848 122.233 31.497L122.202 40.551C122.202 40.872 122.084 41.097 121.894 41.201L121.332 41.507C121.53 41.403 121.649 41.178 121.649 40.857L121.672 31.803C121.672 31.161 121.198 30.378 120.605 30.057L102.786 20.338C102.486 20.174 102.209 20.159 102.02 20.263L102.573 19.957C102.771 19.853 103.039 19.868 103.34 20.032Z" stroke="#1D1D1B" stroke-width="0.5" stroke-linecap="round" stroke-linejoin="round"/>
<path d="M143.068 65.175C143.068 64.533 142.595 63.749 142.002 63.428L102.617 41.953C102.024 41.625 101.542 41.886 101.542 42.528L101.503 55.665C101.503 56.307 101.977 57.091 102.57 57.412L141.954 78.887C142.547 79.215 143.03 78.954 143.03 78.312L143.068 65.175Z" fill="white"/>
<path d="M143.068 65.175C143.068 64.533 142.595 63.749 142.002 63.428L102.617 41.953C102.024 41.625 101.542 41.886 101.542 42.528L101.503 55.665C101.503 56.307 101.977 57.091 102.57 57.412L141.954 78.887C142.547 79.215 143.03 78.954 143.03 78.312L143.068 65.175Z" stroke="#1D1D1B" stroke-width="0.5" stroke-linecap="round" stroke-linejoin="round"/>
<path d="M103.168 41.65L142.56 63.124C143.153 63.445 143.628 64.222 143.636 64.871L143.596 78.008C143.588 78.329 143.469 78.554 143.279 78.658L142.719 78.964C142.917 78.86 143.034 78.635 143.034 78.314L143.074 65.177C143.074 64.535 142.6 63.752 142.007 63.431L102.614 41.956C102.321 41.799 102.053 41.785 101.855 41.889L102.409 41.583C102.598 41.471 102.868 41.486 103.168 41.65Z" fill="#1D1D1B"/>
<path d="M103.168 41.65L142.56 63.124C143.153 63.445 143.628 64.222 143.636 64.871L143.596 78.008C143.588 78.329 143.469 78.554 143.279 78.658L142.719 78.964C142.917 78.86 143.034 78.635 143.034 78.314L143.074 65.177C143.074 64.535 142.6 63.752 142.007 63.431L102.614 41.956C102.321 41.799 102.053 41.785 101.855 41.889L102.409 41.583C102.598 41.471 102.868 41.486 103.168 41.65Z" stroke="#1D1D1B" stroke-width="0.5" stroke-linecap="round" stroke-linejoin="round"/>
<path d="M128.059 55.635L128.036 63.211V63.517L128.012 71.101" fill="#1D1D1B"/>
<path d="M128.059 55.635L128.036 63.211V63.517L128.012 71.101" stroke="#1D1D1B" stroke-width="0.5"/>
<path d="M143.439 72L101.462 49L143.439 72Z" fill="#1D1D1B"/>
<path d="M143.439 72L101.462 49" stroke="#1D1D1B" stroke-width="0.5"/>
<path d="M140.829 93.1387C141.43 93.466 141.92 94.2413 141.92 94.8832L141.896 103.926C141.896 104.567 141.407 104.828 140.805 104.5L122.719 94.8004C122.118 94.4806 121.635 93.6978 121.635 93.0567L121.667 84.0138C121.667 83.3719 122.157 83.1117 122.759 83.4398L140.829 93.1387Z" fill="#FDFFD0"/>
<path d="M140.829 93.1387C141.43 93.466 141.92 94.2413 141.92 94.8832L141.896 103.926C141.896 104.567 141.407 104.828 140.805 104.5L122.719 94.8004C122.118 94.4806 121.635 93.6978 121.635 93.0567L121.667 84.0138C121.667 83.3719 122.157 83.1117 122.759 83.4398L140.829 93.1387Z" stroke="#1D1D1B" stroke-width="0.37275" stroke-linecap="round" stroke-linejoin="round"/>
<path d="M141.398 92.8331L123.312 83.1342C123.007 82.9701 122.735 82.9552 122.542 83.0671L121.972 83.3727C122.173 83.2683 122.446 83.2825 122.743 83.4398L140.828 93.1388C141.43 93.4668 141.92 94.2421 141.92 94.8832L141.896 103.926C141.896 104.247 141.776 104.47 141.583 104.575L142.152 104.269C142.346 104.165 142.465 103.941 142.465 103.62L142.489 94.5776C142.482 93.9357 142 93.1537 141.398 92.8331Z" fill="#1D1D1B"/>
<path d="M141.398 92.8331L123.312 83.1342C123.007 82.9701 122.735 82.9552 122.542 83.0671L121.972 83.3727C122.173 83.2683 122.446 83.2825 122.743 83.4398L140.828 93.1388C141.43 93.4668 141.92 94.2421 141.92 94.8832L141.896 103.926C141.896 104.247 141.776 104.47 141.583 104.575L142.152 104.269C142.346 104.165 142.465 103.941 142.465 103.62L142.489 94.5776C142.482 93.9357 142 93.1537 141.398 92.8331Z" stroke="#1D1D1B" stroke-width="0.37275" stroke-linecap="round" stroke-linejoin="round"/>
<path d="M137.794 98.8579L138.341 99.7406C137.98 99.9009 137.536 99.9046 137.055 99.7503C135.699 99.3149 134.411 97.8895 133.871 96.2263C133.851 96.163 133.823 96.0608 133.823 96.0608C133.823 96.0608 133.726 96.0086 133.673 95.9803C133.363 95.8208 133.051 95.6501 132.726 95.4756V94.8173L133.664 95.3198V94.6503L132.724 94.1456V93.4769C133.033 93.6432 133.338 93.799 133.642 93.9734C133.693 93.9995 133.815 94.0703 133.815 94.0703C133.815 94.0703 133.853 93.9965 133.885 93.9287C134.596 92.4862 136.744 93.0401 138.199 95.0343C138.245 95.0991 138.289 95.1655 138.326 95.2177L137.777 95.5062C137.213 94.7316 136.562 94.2239 135.843 94.08C135.327 93.9764 134.945 94.1277 134.666 94.5124L136.457 95.4741V96.1361L134.458 95.0633V95.735L136.454 96.8063V97.4653L134.692 96.5208C134.884 97.2037 135.537 98.0289 136.097 98.4293C136.73 98.884 137.299 99.0294 137.794 98.8579Z" fill="#1D1D1B"/>
<path d="M58.5753 23.3149C58.5753 34.9369 68.7755 53.5339 79.4342 59.3449C85.0579 62.4099 89.9821 60.3929 93.5092 58.1319C96.6681 56.1069 98.5969 52.1579 98.5969 46.6669C98.5969 35.0449 89.9562 20.9129 79.2964 15.1019C74.0795 12.2579 69.347 11.9349 65.8727 13.7079C62.2487 15.5579 58.5753 17.3809 58.5753 23.3149Z" fill="#1D1D1B"/>
<path d="M58.5753 23.3149C58.5753 34.9369 68.7755 53.5339 79.4342 59.3449C85.0579 62.4099 89.9821 60.3929 93.5092 58.1319C96.6681 56.1069 98.5969 52.1579 98.5969 46.6669C98.5969 35.0449 89.9562 20.9129 79.2964 15.1019C74.0795 12.2579 69.347 11.9349 65.8727 13.7079C62.2487 15.5579 58.5753 17.3809 58.5753 23.3149Z" stroke="#1D1D1B" stroke-width="0.929"/>
<path d="M76.7741 16.6232C66.1143 10.7392 57.4726 15.3322 57.4726 26.8822C57.4726 38.4312 66.1143 52.5632 76.7741 58.4472C87.4339 64.3302 96.0756 59.7372 96.0756 48.1882C96.0756 36.6392 87.4339 22.5072 76.7741 16.6232Z" fill="white"/>
<mask id="mask1_1_964" style="mask-type:alpha" maskUnits="userSpaceOnUse" x="57" y="14" width="40" height="48">
<path d="M76.7741 16.6232C66.1143 10.7392 57.4726 15.3322 57.4726 26.8822C57.4726 38.4312 66.1143 52.5632 76.7741 58.4472C87.4339 64.3302 96.0756 59.7372 96.0756 48.1882C96.0756 36.6392 87.4339 22.5072 76.7741 16.6232Z" fill="white"/>
</mask>
<g mask="url(#mask1_1_964)">
<path d="M76.7741 16.6232C66.1143 10.7392 57.4726 15.3322 57.4726 26.8822C57.4726 38.4312 66.1143 52.5632 76.7741 58.4472C87.4339 64.3302 96.0756 59.7372 96.0756 48.1882C96.0756 36.6392 87.4339 22.5072 76.7741 16.6232Z" fill="#F4F8AC"/>
</g>
<path d="M76.7741 16.6232C66.1143 10.7392 57.4726 15.3322 57.4726 26.8822C57.4726 38.4312 66.1143 52.5632 76.7741 58.4472C87.4339 64.3302 96.0756 59.7372 96.0756 48.1882C96.0756 36.6392 87.4339 22.5072 76.7741 16.6232Z" stroke="#1D1D1B"/>
<path d="M76.6632 45.5828L74.9315 46.4998C75.0262 46.4488 75.1112 46.3828 75.1822 46.3048L76.914 45.3878C76.843 45.4658 76.758 45.5318 76.6632 45.5828Z" fill="white"/>
<path d="M76.6632 45.5828L74.9315 46.4998C75.0262 46.4488 75.1112 46.3828 75.1822 46.3048L76.914 45.3878C76.843 45.4658 76.758 45.5318 76.6632 45.5828Z" stroke="#1D1D1B" stroke-width="0.464" stroke-miterlimit="10"/>
<path d="M71.8532 34.8368C71.4733 34.2238 70.9749 33.7488 70.4755 33.4768C69.9761 33.2048 69.4767 33.1348 69.0957 33.3328L67.3639 34.2498C67.746 34.0518 68.2454 34.1188 68.7448 34.3908C69.2442 34.6638 69.7425 35.1388 70.1225 35.7528L73.3977 41.0438L75.1284 40.1278L71.8532 34.8368Z" fill="#1D1D1B"/>
<path d="M71.8532 34.8368C71.4733 34.2238 70.9749 33.7488 70.4755 33.4768C69.9761 33.2048 69.4767 33.1348 69.0957 33.3328L67.3639 34.2498C67.746 34.0518 68.2454 34.1188 68.7448 34.3908C69.2442 34.6638 69.7425 35.1388 70.1225 35.7528L73.3977 41.0438L75.1284 40.1278L71.8532 34.8368Z" stroke="#1D1D1B" stroke-width="0.464" stroke-miterlimit="10"/>
<path d="M83.3601 34.3588C83.7809 34.5878 84.205 34.9628 84.5602 35.4538C85.3986 36.6158 85.5385 37.9908 84.8712 38.5248L75.1822 46.2388C75.1101 46.3188 75.0229 46.3858 74.925 46.4368C74.5429 46.6348 74.0435 46.5678 73.5441 46.2968C73.0458 46.0258 72.5463 45.5538 72.1686 44.9428L67.3553 37.1918C66.5954 35.9708 66.5986 34.6568 67.3639 34.2618C67.7449 34.0638 68.2443 34.1308 68.7448 34.4018C69.2442 34.6728 69.7415 35.1448 70.1214 35.7568L73.3966 41.0308L81.8339 34.3178C82.2181 34.0088 82.7864 34.0478 83.3601 34.3588Z" fill="white"/>
<path d="M83.3601 34.3588C83.7809 34.5878 84.205 34.9628 84.5602 35.4538C85.3986 36.6158 85.5385 37.9908 84.8712 38.5248L75.1822 46.2388C75.1101 46.3188 75.0229 46.3858 74.925 46.4368C74.5429 46.6348 74.0435 46.5678 73.5441 46.2968C73.0458 46.0258 72.5463 45.5538 72.1686 44.9428L67.3553 37.1918C66.5954 35.9708 66.5986 34.6568 67.3639 34.2618C67.7449 34.0638 68.2443 34.1308 68.7448 34.4018C69.2442 34.6728 69.7415 35.1448 70.1214 35.7568L73.3966 41.0308L81.8339 34.3178C82.2181 34.0088 82.7864 34.0478 83.3601 34.3588Z" stroke="#1D1D1B" stroke-width="0.5" stroke-miterlimit="10"/>
<path d="M86.2984 34.4788C85.9432 33.9858 85.5203 33.6078 85.0983 33.3788C84.5935 33.1028 84.0931 33.0388 83.7174 33.2378L81.9867 34.1528C82.3613 33.9548 82.8628 34.0188 83.3676 34.2948C83.7885 34.5248 84.2125 34.9018 84.5677 35.3948C85.4062 36.5628 85.545 37.9418 84.8788 38.4768L75.1887 46.1968L76.9194 45.2808L86.6095 37.5618C87.2757 37.0258 87.1369 35.6468 86.2984 34.4788Z" fill="#1D1D1B"/>
<path d="M86.2984 34.4788C85.9432 33.9858 85.5203 33.6078 85.0983 33.3788C84.5935 33.1028 84.0931 33.0388 83.7174 33.2378L81.9867 34.1528C82.3613 33.9548 82.8628 34.0188 83.3676 34.2948C83.7885 34.5248 84.2125 34.9018 84.5677 35.3948C85.4062 36.5628 85.545 37.9418 84.8788 38.4768L75.1887 46.1968L76.9194 45.2808L86.6095 37.5618C87.2757 37.0258 87.1369 35.6468 86.2984 34.4788Z" stroke="#1D1D1B" stroke-width="0.464" stroke-miterlimit="10"/>
</g>
</g>
<defs>
<clipPath id="clip0_1_964">
<rect width="213.11" height="130" fill="white" transform="translate(0.000244141)"/>
</clipPath>
</defs>
</svg>
