<svg width="44" height="50" viewBox="0 0 44 50" fill="none" xmlns="http://www.w3.org/2000/svg">
<path d="M2.57526 11.3149C2.57526 22.9369 12.7755 41.5339 23.4342 47.3449C29.0579 50.4099 33.9821 48.3929 37.5092 46.1319C40.6681 44.1069 42.5969 40.1579 42.5969 34.6669C42.5969 23.0449 33.9562 8.91286 23.2964 3.10186C18.0795 0.257864 13.347 -0.0651354 9.87266 1.70786C6.24871 3.55786 2.57526 5.38086 2.57526 11.3149Z" fill="#1D1D1B"/>
<path d="M2.57526 11.3149C2.57526 22.9369 12.7755 41.5339 23.4342 47.3449C29.0579 50.4099 33.9821 48.3929 37.5092 46.1319C40.6681 44.1069 42.5969 40.1579 42.5969 34.6669C42.5969 23.0449 33.9562 8.91286 23.2964 3.10186C18.0795 0.257864 13.347 -0.0651354 9.87266 1.70786C6.24871 3.55786 2.57526 5.38086 2.57526 11.3149Z" stroke="#1D1D1B" stroke-width="0.929"/>
<path d="M20.7741 4.62322C10.1143 -1.26078 1.4726 3.33222 1.4726 14.8822C1.4726 26.4312 10.1143 40.5632 20.7741 46.4472C31.4339 52.3302 40.0756 47.7372 40.0756 36.1882C40.0756 24.6392 31.4339 10.5072 20.7741 4.62322Z" fill="white"/>
<mask id="mask0_63_3" style="mask-type:alpha" maskUnits="userSpaceOnUse" x="1" y="2" width="40" height="48">
<path d="M20.7741 4.62322C10.1143 -1.26078 1.4726 3.33222 1.4726 14.8822C1.4726 26.4312 10.1143 40.5632 20.7741 46.4472C31.4339 52.3302 40.0756 47.7372 40.0756 36.1882C40.0756 24.6392 31.4339 10.5072 20.7741 4.62322Z" fill="white"/>
</mask>
<g mask="url(#mask0_63_3)">
<path d="M20.7741 4.62322C10.1143 -1.26078 1.4726 3.33222 1.4726 14.8822C1.4726 26.4312 10.1143 40.5632 20.7741 46.4472C31.4339 52.3302 40.0756 47.7372 40.0756 36.1882C40.0756 24.6392 31.4339 10.5072 20.7741 4.62322Z" fill="#F4F8AC"/>
</g>
<path d="M20.7741 4.62322C10.1143 -1.26078 1.4726 3.33222 1.4726 14.8822C1.4726 26.4312 10.1143 40.5632 20.7741 46.4472C31.4339 52.3302 40.0756 47.7372 40.0756 36.1882C40.0756 24.6392 31.4339 10.5072 20.7741 4.62322Z" stroke="#1D1D1B"/>
<path d="M20.6632 33.5828L18.9315 34.4998C19.0262 34.4488 19.1112 34.3828 19.1822 34.3048L20.914 33.3878C20.843 33.4658 20.758 33.5318 20.6632 33.5828Z" fill="white"/>
<path d="M20.6632 33.5828L18.9315 34.4998C19.0262 34.4488 19.1112 34.3828 19.1822 34.3048L20.914 33.3878C20.843 33.4658 20.758 33.5318 20.6632 33.5828Z" stroke="#1D1D1B" stroke-width="0.464" stroke-miterlimit="10"/>
<path d="M15.8532 22.8368C15.4733 22.2238 14.9749 21.7488 14.4755 21.4768C13.9761 21.2048 13.4767 21.1348 13.0957 21.3328L11.3639 22.2498C11.746 22.0518 12.2454 22.1188 12.7448 22.3908C13.2442 22.6638 13.7425 23.1388 14.1225 23.7528L17.3977 29.0438L19.1284 28.1278L15.8532 22.8368Z" fill="#1D1D1B"/>
<path d="M15.8532 22.8368C15.4733 22.2238 14.9749 21.7488 14.4755 21.4768C13.9761 21.2048 13.4767 21.1348 13.0957 21.3328L11.3639 22.2498C11.746 22.0518 12.2454 22.1188 12.7448 22.3908C13.2442 22.6638 13.7425 23.1388 14.1225 23.7528L17.3977 29.0438L19.1284 28.1278L15.8532 22.8368Z" stroke="#1D1D1B" stroke-width="0.464" stroke-miterlimit="10"/>
<path d="M27.3601 22.3588C27.7809 22.5878 28.205 22.9628 28.5602 23.4538C29.3986 24.6158 29.5385 25.9908 28.8712 26.5248L19.1822 34.2388C19.1101 34.3188 19.0229 34.3858 18.925 34.4368C18.5429 34.6348 18.0435 34.5678 17.5441 34.2968C17.0458 34.0258 16.5463 33.5538 16.1686 32.9428L11.3553 25.1918C10.5954 23.9708 10.5986 22.6568 11.3639 22.2618C11.7449 22.0638 12.2443 22.1308 12.7448 22.4018C13.2442 22.6728 13.7415 23.1448 14.1214 23.7568L17.3966 29.0308L25.8339 22.3178C26.2181 22.0088 26.7864 22.0478 27.3601 22.3588Z" fill="white"/>
<path d="M27.3601 22.3588C27.7809 22.5878 28.205 22.9628 28.5602 23.4538C29.3986 24.6158 29.5385 25.9908 28.8712 26.5248L19.1822 34.2388C19.1101 34.3188 19.0229 34.3858 18.925 34.4368C18.5429 34.6348 18.0435 34.5678 17.5441 34.2968C17.0458 34.0258 16.5463 33.5538 16.1686 32.9428L11.3553 25.1918C10.5954 23.9708 10.5986 22.6568 11.3639 22.2618C11.7449 22.0638 12.2443 22.1308 12.7448 22.4018C13.2442 22.6728 13.7415 23.1448 14.1214 23.7568L17.3966 29.0308L25.8339 22.3178C26.2181 22.0088 26.7864 22.0478 27.3601 22.3588Z" stroke="#1D1D1B" stroke-width="0.5" stroke-miterlimit="10"/>
<path d="M30.2984 22.4788C29.9432 21.9858 29.5203 21.6078 29.0983 21.3788C28.5935 21.1028 28.0931 21.0388 27.7174 21.2378L25.9867 22.1528C26.3613 21.9548 26.8628 22.0188 27.3676 22.2948C27.7885 22.5248 28.2125 22.9018 28.5677 23.3948C29.4062 24.5628 29.545 25.9418 28.8788 26.4768L19.1887 34.1968L20.9194 33.2808L30.6095 25.5618C31.2757 25.0258 31.1369 23.6468 30.2984 22.4788Z" fill="#1D1D1B"/>
<path d="M30.2984 22.4788C29.9432 21.9858 29.5203 21.6078 29.0983 21.3788C28.5935 21.1028 28.0931 21.0388 27.7174 21.2378L25.9867 22.1528C26.3613 21.9548 26.8628 22.0188 27.3676 22.2948C27.7885 22.5248 28.2125 22.9018 28.5677 23.3948C29.4062 24.5628 29.545 25.9418 28.8788 26.4768L19.1887 34.1968L20.9194 33.2808L30.6095 25.5618C31.2757 25.0258 31.1369 23.6468 30.2984 22.4788Z" stroke="#1D1D1B" stroke-width="0.464" stroke-miterlimit="10"/>
</svg>
