<svg width="81" height="130" viewBox="0 0 81 130" fill="none" xmlns="http://www.w3.org/2000/svg">
<path d="M6.3945 94.1771L64.242 125.136C60.9991 123.453 58.84 120.764 58.8475 116.528L1.00002 85.576C0.992486 89.8121 3.14404 92.5011 6.3945 94.1771Z" fill="white"/>
<path d="M6.3945 94.1771L64.242 125.136C60.9991 123.453 58.84 120.764 58.8475 116.528L1.00002 85.576C0.992486 89.8121 3.14404 92.5011 6.3945 94.1771Z" stroke="#1D1D1B" stroke-linejoin="round"/>
<path d="M79.8895 130L80.1801 33.805L17.9207 0L16.9682 0.545998L19.1488 96.884L79.8895 130Z" fill="#1D1D1B"/>
<path d="M79.8895 130L80.1801 33.805L17.9207 0L16.9682 0.545998L19.1488 96.884L79.8895 130Z" stroke="#1D1D1B" stroke-width="0.5" stroke-linejoin="round"/>
<path d="M9.74397 92.712C9.83008 92.668 9.91511 92.623 10.0012 92.579L9.74397 92.712ZM10.6567 92.255C10.774 92.189 10.8827 92.115 11 92.049C10.8827 92.115 10.7665 92.189 10.6567 92.255ZM79.0101 34.498L79.1974 113.517L79.1898 113.672L79.1823 113.664C79.1199 117.776 76.7552 121.631 73.353 123.79L73.494 123.717C73.3616 123.805 73.212 123.886 73.0721 123.967C72.9623 124.033 72.8622 124.1 72.7524 124.159C72.5264 124.284 72.2918 124.402 72.0582 124.513C71.9807 124.542 71.9097 124.587 71.8397 124.616C71.8322 124.616 71.8236 124.624 71.8085 124.631L71.8322 124.616C70.8646 125.043 69.8421 125.345 68.7808 125.485C66.8144 125.75 65.4281 125.882 63.452 124.687C63.452 124.687 63.3336 124.638 63.2324 124.586L62.9052 124.417L5.82727 93.626C6.07697 93.641 6.35036 93.633 6.67756 93.589C7.7388 93.449 8.7613 93.146 9.72891 92.719L11.2659 91.879C14.7069 89.69 17.1727 85.814 17.1802 81.65L16.9929 0.686035L79.0101 34.498Z" fill="white"/>
<path d="M9.74397 92.712C9.83008 92.668 9.91511 92.623 10.0012 92.579M10.6567 92.255C10.774 92.189 10.8827 92.115 11 92.049C10.8827 92.115 10.7665 92.189 10.6567 92.255ZM79.0101 34.498L79.1974 113.517L79.1898 113.672L79.1823 113.664C79.1199 117.776 76.7552 121.631 73.353 123.79L73.494 123.717C73.3616 123.805 73.212 123.886 73.0721 123.967C72.9623 124.033 72.8622 124.1 72.7524 124.159C72.5264 124.284 72.2918 124.402 72.0582 124.513C71.9807 124.542 71.9097 124.587 71.8397 124.616C71.8322 124.616 71.8236 124.624 71.8085 124.631L71.8322 124.616C70.8646 125.043 69.8421 125.345 68.7808 125.485C66.8144 125.75 65.4281 125.882 63.452 124.687C63.452 124.687 63.3336 124.638 63.2324 124.586L62.9052 124.417L5.82727 93.626C6.07697 93.641 6.35036 93.633 6.67756 93.589C7.7388 93.449 8.7613 93.146 9.72891 92.719L11.2659 91.879C14.7069 89.69 17.1727 85.814 17.1802 81.65L16.9929 0.686035L79.0101 34.498Z" stroke="#1D1D1B" stroke-linejoin="round"/>
<path d="M6.3945 94.1771L64.242 125.136C60.9991 123.453 58.84 120.764 58.8475 116.528L1.00002 85.576C0.992486 89.8121 3.14404 92.5011 6.3945 94.1771Z" fill="#FCFFD0"/>
<path d="M6.3945 94.1771L64.242 125.136C60.9991 123.453 58.84 120.764 58.8475 116.528L1.00002 85.576C0.992486 89.8121 3.14404 92.5011 6.3945 94.1771Z" stroke="#1D1D1B" stroke-width="0.5" stroke-linejoin="round"/>
<path d="M66.1902 94.972C66.1902 94.33 65.708 93.554 65.1149 93.226L47.3117 83.515C46.7186 83.187 46.2375 83.447 46.2375 84.089L46.2052 93.144C46.2052 93.786 46.6799 94.569 47.2729 94.89L65.0913 104.601C65.6843 104.929 66.1665 104.669 66.1665 104.027L66.1902 94.972Z" fill="#FCFFD0"/>
<path d="M66.1902 94.972C66.1902 94.33 65.708 93.554 65.1149 93.226L47.3117 83.515C46.7186 83.187 46.2375 83.447 46.2375 84.089L46.2052 93.144C46.2052 93.786 46.6799 94.569 47.2729 94.89L65.0913 104.601C65.6843 104.929 66.1665 104.669 66.1665 104.027L66.1902 94.972Z" stroke="#1D1D1B" stroke-width="0.5" stroke-linecap="round" stroke-linejoin="round"/>
<path d="M47.8573 83.2109L65.6757 92.9219C66.2688 93.2429 66.7434 94.0269 66.7509 94.6689L66.7273 103.723C66.7273 104.044 66.6089 104.268 66.4194 104.372L65.8576 104.678C66.047 104.574 66.1665 104.35 66.1665 104.029L66.1902 94.9749C66.1902 94.3329 65.708 93.5559 65.1149 93.2279L47.2966 83.5169C47.0038 83.3599 46.7358 83.3459 46.5378 83.4499L47.0985 83.1439C47.288 83.0319 47.557 83.0469 47.8573 83.2109Z" fill="#1D1D1B"/>
<path d="M47.8573 83.2109L65.6757 92.9219C66.2688 93.2429 66.7434 94.0269 66.7509 94.6689L66.7273 103.723C66.7273 104.044 66.6089 104.268 66.4194 104.372L65.8576 104.678C66.047 104.574 66.1665 104.35 66.1665 104.029L66.1902 94.9749C66.1902 94.3329 65.708 93.5559 65.1149 93.2279L47.2966 83.5169C47.0038 83.3599 46.7358 83.3459 46.5378 83.4499L47.0985 83.1439C47.288 83.0319 47.557 83.0469 47.8573 83.2109Z" stroke="#1D1D1B" stroke-width="0.5" stroke-linecap="round" stroke-linejoin="round"/>
<path d="M45.6756 31.794C45.6756 31.152 45.2021 30.369 44.609 30.048L26.782 20.337C26.189 20.009 25.7068 20.269 25.7068 20.911L25.6756 29.966C25.6756 30.608 26.1578 31.384 26.7508 31.712L44.5767 41.423C45.1698 41.751 45.652 41.491 45.652 40.849L45.6756 31.794Z" fill="white"/>
<path d="M45.6756 31.794C45.6756 31.152 45.2021 30.369 44.609 30.048L26.782 20.337C26.189 20.009 25.7068 20.269 25.7068 20.911L25.6756 29.966C25.6756 30.608 26.1578 31.384 26.7508 31.712L44.5767 41.423C45.1698 41.751 45.652 41.491 45.652 40.849L45.6756 31.794Z" stroke="#1D1D1B" stroke-width="0.5" stroke-linecap="round" stroke-linejoin="round"/>
<path d="M27.3396 20.032L45.1579 29.743C45.751 30.064 46.2332 30.848 46.2332 31.497L46.202 40.551C46.202 40.872 46.0836 41.097 45.8941 41.201L45.3323 41.507C45.5303 41.403 45.6487 41.178 45.6487 40.857L45.6724 31.803C45.6724 31.161 45.1978 30.378 44.6047 30.057L26.7864 20.338C26.4861 20.174 26.2095 20.159 26.02 20.263L26.5732 19.957C26.7713 19.853 27.0393 19.868 27.3396 20.032Z" fill="#1D1D1B"/>
<path d="M27.3396 20.032L45.1579 29.743C45.751 30.064 46.2332 30.848 46.2332 31.497L46.202 40.551C46.202 40.872 46.0836 41.097 45.8941 41.201L45.3323 41.507C45.5303 41.403 45.6487 41.178 45.6487 40.857L45.6724 31.803C45.6724 31.161 45.1978 30.378 44.6047 30.057L26.7864 20.338C26.4861 20.174 26.2095 20.159 26.02 20.263L26.5732 19.957C26.7713 19.853 27.0393 19.868 27.3396 20.032Z" stroke="#1D1D1B" stroke-width="0.5" stroke-linecap="round" stroke-linejoin="round"/>
<path d="M67.0684 65.175C67.0684 64.533 66.5948 63.749 66.0018 63.428L26.6173 41.953C26.0243 41.625 25.5421 41.886 25.5421 42.528L25.5034 55.665C25.5034 56.307 25.9769 57.091 26.57 57.412L65.9544 78.887C66.5475 79.215 67.0297 78.954 67.0297 78.312L67.0684 65.175Z" fill="white"/>
<path d="M67.0684 65.175C67.0684 64.533 66.5948 63.749 66.0018 63.428L26.6173 41.953C26.0243 41.625 25.5421 41.886 25.5421 42.528L25.5034 55.665C25.5034 56.307 25.9769 57.091 26.57 57.412L65.9544 78.887C66.5475 79.215 67.0297 78.954 67.0297 78.312L67.0684 65.175Z" stroke="#1D1D1B" stroke-width="0.5" stroke-linecap="round" stroke-linejoin="round"/>
<path d="M27.1684 41.65L66.5604 63.124C67.1535 63.445 67.6281 64.222 67.6357 64.871L67.5958 78.008C67.5883 78.329 67.4688 78.554 67.2794 78.658L66.7187 78.964C66.9167 78.86 67.034 78.635 67.034 78.314L67.0738 65.177C67.0738 64.535 66.6003 63.752 66.0072 63.431L26.6141 41.956C26.3214 41.799 26.0534 41.785 25.8553 41.889L26.4086 41.583C26.598 41.471 26.8682 41.486 27.1684 41.65Z" fill="#1D1D1B"/>
<path d="M27.1685 41.65L66.5604 63.124C67.1535 63.445 67.6281 64.222 67.6357 64.871L67.5958 78.008C67.5883 78.329 67.4688 78.554 67.2794 78.658L66.7187 78.964C66.9167 78.86 67.034 78.635 67.034 78.314L67.0738 65.177C67.0738 64.535 66.6003 63.752 66.0072 63.431L26.6141 41.956C26.3214 41.799 26.0534 41.785 25.8553 41.889L26.4086 41.583C26.598 41.471 26.8682 41.486 27.1685 41.65Z" stroke="#1D1D1B" stroke-width="0.5" stroke-linecap="round" stroke-linejoin="round"/>
<path d="M52.0593 55.635L52.0356 63.211V63.517L52.0119 71.101" fill="#1D1D1B"/>
<path d="M52.0593 55.635L52.0356 63.211V63.517L52.0119 71.101" stroke="#1D1D1B" stroke-width="0.5"/>
<path d="M67.4387 72L25.4625 49L67.4387 72Z" fill="#1D1D1B"/>
<path d="M67.4387 72L25.4625 49" stroke="#1D1D1B" stroke-width="0.5"/>
<path d="M64.8286 93.1387C65.4304 93.466 65.9198 94.2413 65.9198 94.8832L65.8958 103.926C65.8958 104.567 65.4071 104.828 64.8053 104.5L46.7194 94.8004C46.1176 94.4806 45.6354 93.6978 45.6354 93.0567L45.6675 84.0138C45.6675 83.3719 46.1569 83.1117 46.7587 83.4398L64.8286 93.1387Z" fill="#FDFFD0"/>
<path d="M64.8286 93.1387C65.4304 93.466 65.9198 94.2413 65.9198 94.8832L65.8958 103.926C65.8958 104.567 65.4071 104.828 64.8053 104.5L46.7194 94.8004C46.1176 94.4806 45.6354 93.6978 45.6354 93.0567L45.6675 84.0138C45.6675 83.3719 46.1569 83.1117 46.7587 83.4398L64.8286 93.1387Z" stroke="#1D1D1B" stroke-width="0.37275" stroke-linecap="round" stroke-linejoin="round"/>
<path d="M65.3981 92.8331L47.3122 83.1342C47.0073 82.9701 46.7345 82.9552 46.5419 83.0671L45.9722 83.3727C46.1728 83.2683 46.4464 83.2825 46.7425 83.4398L64.8284 93.1388C65.4302 93.4668 65.9197 94.2421 65.9197 94.8832L65.8956 103.926C65.8956 104.247 65.7761 104.47 65.5827 104.575L66.1524 104.269C66.3458 104.165 66.4653 103.941 66.4653 103.62L66.4894 94.5776C66.4822 93.9357 65.9999 93.1537 65.3981 92.8331Z" fill="#1D1D1B"/>
<path d="M65.3981 92.8331L47.3122 83.1342C47.0073 82.9701 46.7345 82.9552 46.5419 83.0671L45.9722 83.3727C46.1728 83.2683 46.4464 83.2825 46.7425 83.4398L64.8284 93.1388C65.4302 93.4668 65.9197 94.2421 65.9197 94.8832L65.8956 103.926C65.8956 104.247 65.7761 104.47 65.5827 104.575L66.1524 104.269C66.3458 104.165 66.4653 103.941 66.4653 103.62L66.4894 94.5776C66.4822 93.9357 65.9999 93.1537 65.3981 92.8331Z" stroke="#1D1D1B" stroke-width="0.37275" stroke-linecap="round" stroke-linejoin="round"/>
<path d="M61.7936 98.8579L62.3408 99.7406C61.9797 99.9009 61.536 99.9046 61.0554 99.7503C59.6993 99.3149 58.4107 97.8895 57.8707 96.2263C57.8514 96.163 57.8233 96.0608 57.8233 96.0608C57.8233 96.0608 57.7262 96.0086 57.6733 95.9803C57.3628 95.8208 57.0514 95.6501 56.7265 95.4756V94.8173L57.6645 95.3198V94.6503L56.7241 94.1456V93.4769C57.033 93.6432 57.3379 93.799 57.642 93.9734C57.6925 93.9995 57.8153 94.0703 57.8153 94.0703C57.8153 94.0703 57.853 93.9965 57.8851 93.9287C58.596 92.4862 60.744 93.0401 62.1988 95.0343C62.2453 95.0991 62.2886 95.1655 62.3256 95.2177L61.7767 95.5062C61.2134 94.7316 60.5619 94.2239 59.843 94.08C59.327 93.9764 58.9451 94.1277 58.6658 94.5124L60.4568 95.4741V96.1361L58.458 95.0633V95.735L60.4544 96.8063V97.4653L58.6923 96.5208C58.8841 97.2037 59.5372 98.0289 60.0965 98.4293C60.7304 98.884 61.2993 99.0294 61.7936 98.8579Z" fill="#1D1D1B"/>
</svg>
