<svg width="349" height="130" viewBox="0 0 349 130" fill="none" xmlns="http://www.w3.org/2000/svg">
<mask id="mask0_1_950" style="mask-type:luminance" maskUnits="userSpaceOnUse" x="0" y="0" width="349" height="130">
<path d="M348.66 0H0V130H348.66V0Z" fill="white"/>
</mask>
<g mask="url(#mask0_1_950)">
<path d="M258.568 79.3594L258.581 79.3634C258.581 79.3634 258.555 81.6214 258.514 82.2944C258.478 82.9154 257.871 83.5354 256.691 84.0184L234.333 93.1694C231.876 94.1754 227.86 94.2074 225.366 93.2404L213.996 88.8304C212.775 88.3574 212.145 87.7324 212.108 87.1004C212.074 86.5224 212.158 84.3134 212.174 84.0044C212.16 83.3564 212.767 82.7034 213.998 82.1984L236.358 73.0464C238.815 72.0404 242.83 72.0084 245.323 72.9754L256.695 77.3854C258.072 77.9194 258.697 78.6464 258.568 79.3594Z" fill="#D5C8FB"/>
<path d="M258.568 79.3594L258.581 79.3634C258.581 79.3634 258.555 81.6214 258.514 82.2944C258.478 82.9154 257.871 83.5354 256.691 84.0184L234.333 93.1694C231.876 94.1754 227.86 94.2074 225.366 93.2404L213.996 88.8304C212.775 88.3574 212.145 87.7324 212.108 87.1004C212.074 86.5224 212.158 84.3134 212.174 84.0044C212.16 83.3564 212.767 82.7034 213.998 82.1984L236.358 73.0464C238.815 72.0404 242.83 72.0084 245.323 72.9754L256.695 77.3854C258.072 77.9194 258.697 78.6464 258.568 79.3594Z" stroke="#1D1D1B"/>
<path d="M214.063 85.7724C211.569 84.8054 211.542 83.2054 214 82.1994L236.358 73.0474C238.817 72.0414 242.83 72.0094 245.326 72.9764L256.698 77.3864C259.191 78.3534 259.22 79.9534 256.761 80.9594L234.403 90.1114C231.945 91.1174 227.929 91.1494 225.435 90.1824L214.063 85.7724Z" fill="white"/>
<path d="M214.063 85.7724C211.569 84.8054 211.542 83.2054 214 82.1994L236.358 73.0474C238.817 72.0414 242.83 72.0094 245.326 72.9764L256.698 77.3864C259.191 78.3534 259.22 79.9534 256.761 80.9594L234.403 90.1114C231.945 91.1174 227.929 91.1494 225.435 90.1824L214.063 85.7724Z" stroke="#1D1D1B" stroke-width="0.5"/>
<path d="M231.665 68.7554L231.675 68.7594C231.675 68.7594 231.652 71.0174 231.611 71.6904C231.575 72.3114 230.966 72.9314 229.787 73.4144L207.429 82.5664C204.971 83.5724 200.957 83.6044 198.463 82.6374L187.091 78.2274C185.872 77.7544 185.241 77.1294 185.204 76.4974C185.171 75.9194 185.255 73.7094 185.271 73.4004C185.256 72.7524 185.864 72.0994 187.095 71.5944L209.453 62.4424C211.912 61.4364 215.924 61.4044 218.419 62.3714L229.792 66.7814C231.168 67.3154 231.794 68.0424 231.665 68.7554Z" fill="#D5C8FB"/>
<path d="M231.665 68.7554L231.675 68.7594C231.675 68.7594 231.652 71.0174 231.611 71.6904C231.575 72.3114 230.966 72.9314 229.787 73.4144L207.429 82.5664C204.971 83.5724 200.957 83.6044 198.463 82.6374L187.091 78.2274C185.872 77.7544 185.241 77.1294 185.204 76.4974C185.171 75.9194 185.255 73.7094 185.271 73.4004C185.256 72.7524 185.864 72.0994 187.095 71.5944L209.453 62.4424C211.912 61.4364 215.924 61.4044 218.419 62.3714L229.792 66.7814C231.169 67.3154 231.794 68.0424 231.665 68.7554Z" stroke="#1D1D1B"/>
<path d="M187.16 75.1684C184.666 74.2014 184.638 72.6014 187.095 71.5954L209.453 62.4434C211.912 61.4374 215.927 61.4054 218.42 62.3724L229.792 66.7824C232.286 67.7494 232.314 69.3484 229.857 70.3554L207.499 79.5074C205.04 80.5134 201.026 80.5454 198.532 79.5784L187.16 75.1684Z" fill="#EFE9FE"/>
<path d="M187.16 75.1684C184.666 74.2014 184.638 72.6014 187.095 71.5954L209.453 62.4434C211.912 61.4374 215.927 61.4054 218.42 62.3724L229.792 66.7824C232.286 67.7494 232.314 69.3484 229.857 70.3554L207.499 79.5074C205.04 80.5134 201.026 80.5454 198.532 79.5784L187.16 75.1684Z" stroke="#1D1D1B" stroke-width="0.5"/>
<path d="M204.759 58.1503L204.772 58.1543C204.772 58.1543 204.746 60.4123 204.705 61.0853C204.669 61.7063 204.062 62.3263 202.882 62.8093L180.524 71.9603C178.067 72.9663 174.052 72.9983 171.557 72.0313L160.187 67.6223C158.966 67.1493 158.337 66.5233 158.299 65.8913C158.265 65.3133 158.349 63.1043 158.365 62.7953C158.351 62.1473 158.958 61.4943 160.189 60.9893L182.549 51.8373C185.006 50.8313 189.021 50.7993 191.514 51.7663L202.886 56.1763C204.263 56.7103 204.888 57.4373 204.759 58.1503Z" fill="#D5C8FB"/>
<path d="M204.759 58.1503L204.772 58.1543C204.772 58.1543 204.746 60.4123 204.705 61.0853C204.669 61.7063 204.062 62.3263 202.882 62.8093L180.524 71.9603C178.067 72.9663 174.052 72.9983 171.557 72.0313L160.187 67.6223C158.966 67.1493 158.337 66.5233 158.299 65.8913C158.265 65.3133 158.349 63.1043 158.365 62.7953C158.351 62.1473 158.958 61.4943 160.189 60.9893L182.549 51.8373C185.006 50.8313 189.021 50.7993 191.514 51.7663L202.886 56.1763C204.263 56.7103 204.888 57.4373 204.759 58.1503Z" stroke="#1D1D1B"/>
<path d="M160.256 64.5642C157.761 63.5972 157.733 61.9972 160.191 60.9912L182.549 51.8392C185.008 50.8332 189.021 50.8012 191.517 51.7682L202.889 56.1782C205.382 57.1452 205.411 58.7452 202.952 59.7512L180.595 68.9032C178.136 69.9092 174.122 69.9412 171.628 68.9742L160.256 64.5642Z" fill="#EFE9FE"/>
<path d="M160.256 64.5642C157.761 63.5972 157.733 61.9972 160.191 60.9912L182.549 51.8392C185.008 50.8332 189.021 50.8012 191.517 51.7682L202.889 56.1782C205.382 57.1452 205.411 58.7452 202.952 59.7512L180.595 68.9032C178.136 69.9092 174.122 69.9412 171.628 68.9742L160.256 64.5642Z" stroke="#1D1D1B" stroke-width="0.5"/>
<path d="M218.852 95.7724L218.863 95.7764C218.863 95.7764 218.839 98.0344 218.798 98.7074C218.762 99.3284 218.154 99.9474 216.975 100.429L194.617 109.582C192.159 110.589 188.144 110.621 185.65 109.653L174.279 105.244C173.059 104.771 172.428 104.146 172.391 103.514C172.356 102.936 172.44 100.726 172.457 100.417C172.443 99.7694 173.051 99.1164 174.282 98.6114L196.64 89.4594C199.099 88.4534 203.113 88.4214 205.607 89.3884L216.979 93.7984C218.355 94.3324 218.981 95.0594 218.852 95.7724Z" fill="#D5C8FB"/>
<path d="M218.852 95.7724L218.863 95.7764C218.863 95.7764 218.839 98.0344 218.798 98.7074C218.762 99.3284 218.154 99.9474 216.975 100.429L194.617 109.582C192.159 110.589 188.144 110.621 185.65 109.653L174.279 105.244C173.059 104.771 172.428 104.146 172.391 103.514C172.356 102.936 172.44 100.726 172.457 100.417C172.443 99.7694 173.051 99.1164 174.282 98.6114L196.64 89.4594C199.099 88.4534 203.113 88.4214 205.607 89.3884L216.979 93.7984C218.355 94.3324 218.981 95.0594 218.852 95.7724Z" stroke="#1D1D1B"/>
<path d="M174.347 102.184C171.853 101.217 171.825 99.6184 174.282 98.6114L196.64 89.4594C199.099 88.4534 203.113 88.4214 205.607 89.3884L216.979 93.7984C219.473 94.7654 219.501 96.3654 217.044 97.3714L194.686 106.523C192.227 107.529 188.213 107.561 185.719 106.594L174.347 102.184Z" fill="white"/>
<path d="M174.347 102.184C171.853 101.217 171.825 99.6184 174.282 98.6114L196.64 89.4594C199.099 88.4534 203.113 88.4214 205.607 89.3884L216.979 93.7984C219.473 94.7654 219.501 96.3654 217.044 97.3714L194.686 106.523C192.227 107.529 188.213 107.561 185.719 106.594L174.347 102.184Z" stroke="#1D1D1B" stroke-width="0.5"/>
<path d="M190.592 85.1523L190.604 85.1573C190.604 85.1573 190.578 87.4153 190.537 88.0883C190.5 88.7093 189.893 89.3283 188.713 89.8113L166.356 98.9633C163.898 99.9693 159.884 100.001 157.39 99.0343L146.018 94.6243C144.798 94.1513 144.169 93.5263 144.131 92.8943C144.098 92.3163 144.182 90.1063 144.197 89.7973C144.183 89.1493 144.791 88.4963 146.022 87.9913L168.38 78.8403C170.838 77.8343 174.853 77.8023 177.345 78.7693L188.719 83.1783C190.095 83.7123 190.721 84.4393 190.592 85.1523Z" fill="#D5C8FB"/>
<path d="M190.592 85.1523L190.604 85.1573C190.604 85.1573 190.578 87.4153 190.537 88.0883C190.5 88.7093 189.893 89.3283 188.713 89.8113L166.356 98.9633C163.898 99.9693 159.884 100.001 157.39 99.0343L146.018 94.6243C144.798 94.1513 144.169 93.5263 144.131 92.8943C144.098 92.3163 144.182 90.1063 144.197 89.7973C144.183 89.1493 144.791 88.4963 146.022 87.9913L168.38 78.8403C170.838 77.8343 174.853 77.8023 177.345 78.7693L188.719 83.1783C190.095 83.7123 190.721 84.4393 190.592 85.1523Z" stroke="#1D1D1B"/>
<path d="M146.086 91.5663C143.592 90.5993 143.565 88.9993 146.022 87.9933L168.38 78.8413C170.839 77.8353 174.853 77.8033 177.348 78.7703L188.719 83.1803C191.212 84.1473 191.243 85.7473 188.784 86.7533L166.426 95.9053C163.967 96.9113 159.952 96.9433 157.458 95.9763L146.086 91.5663Z" fill="#EFE9FE"/>
<path d="M146.086 91.5663C143.592 90.5993 143.565 88.9993 146.022 87.9933L168.38 78.8413C170.839 77.8353 174.853 77.8033 177.348 78.7703L188.719 83.1803C191.212 84.1473 191.243 85.7473 188.784 86.7533L166.426 95.9053C163.967 96.9113 159.952 96.9433 157.458 95.9763L146.086 91.5663Z" stroke="#1D1D1B" stroke-width="0.5"/>
<path d="M163.684 74.5474L163.697 74.5514C163.697 74.5514 163.672 76.8094 163.631 77.4824C163.595 78.1034 162.987 78.7234 161.808 79.2064L139.45 88.3574C136.992 89.3634 132.977 89.3954 130.483 88.4284L119.112 84.0184C117.892 83.5454 117.262 82.9204 117.224 82.2884C117.19 81.7104 117.275 79.5014 117.29 79.1924C117.276 78.5444 117.884 77.8914 119.115 77.3864L141.474 68.2344C143.932 67.2284 147.947 67.1964 150.44 68.1634L161.812 72.5734C163.188 73.1074 163.814 73.8344 163.684 74.5474Z" fill="#D5C8FB"/>
<path d="M163.684 74.5474L163.697 74.5514C163.697 74.5514 163.672 76.8094 163.631 77.4824C163.595 78.1034 162.987 78.7234 161.808 79.2064L139.45 88.3574C136.992 89.3634 132.977 89.3954 130.483 88.4284L119.112 84.0184C117.892 83.5454 117.262 82.9204 117.224 82.2884C117.19 81.7104 117.275 79.5014 117.29 79.1924C117.276 78.5444 117.884 77.8914 119.115 77.3864L141.474 68.2344C143.932 67.2284 147.947 67.1964 150.44 68.1634L161.812 72.5734C163.188 73.1074 163.814 73.8344 163.684 74.5474Z" stroke="#1D1D1B"/>
<path d="M119.18 80.9604C116.686 79.9934 116.658 78.3934 119.115 77.3874L141.473 68.2354C143.932 67.2294 147.946 67.1974 150.441 68.1644L161.813 72.5744C164.306 73.5414 164.335 75.1414 161.877 76.1474L139.519 85.2994C137.06 86.3054 133.046 86.3374 130.552 85.3704L119.18 80.9604Z" fill="white"/>
<path d="M119.18 80.9604C116.686 79.9934 116.658 78.3934 119.115 77.3874L141.473 68.2354C143.932 67.2294 147.946 67.1974 150.441 68.1644L161.813 72.5744C164.306 73.5414 164.335 75.1414 161.877 76.1474L139.519 85.2994C137.06 86.3054 133.046 86.3374 130.552 85.3704L119.18 80.9604Z" stroke="#1D1D1B" stroke-width="0.5"/>
<path d="M179.135 112.183L179.148 112.187C179.148 112.187 179.121 114.445 179.08 115.118C179.044 115.739 178.438 116.359 177.26 116.842L154.899 125.993C152.442 126.999 148.426 127.031 145.934 126.064L134.562 121.655C133.341 121.182 132.713 120.556 132.675 119.924C132.641 119.346 132.724 117.137 132.741 116.828C132.725 116.18 133.334 115.527 134.566 115.022L156.924 105.871C159.381 104.865 163.396 104.832 165.889 105.799L177.263 110.209C178.64 110.743 179.265 111.47 179.135 112.183Z" fill="#D5C8FB"/>
<path d="M179.135 112.183L179.148 112.187C179.148 112.187 179.121 114.445 179.08 115.118C179.044 115.739 178.438 116.359 177.26 116.842L154.899 125.993C152.442 126.999 148.426 127.031 145.934 126.064L134.562 121.655C133.341 121.182 132.713 120.556 132.675 119.924C132.641 119.346 132.724 117.137 132.741 116.828C132.725 116.18 133.334 115.527 134.566 115.022L156.924 105.871C159.381 104.865 163.396 104.832 165.889 105.799L177.263 110.209C178.64 110.743 179.265 111.47 179.135 112.183Z" stroke="#1D1D1B"/>
<path d="M134.63 118.597C132.136 117.63 132.108 116.03 134.566 115.024L156.924 105.872C159.382 104.865 163.396 104.833 165.89 105.8L177.263 110.21C179.755 111.177 179.785 112.777 177.326 113.783L154.969 122.935C152.51 123.942 148.497 123.973 146.003 123.006L134.63 118.597Z" fill="#EFE9FE"/>
<path d="M134.63 118.597C132.136 117.63 132.108 116.03 134.566 115.024L156.924 105.872C159.382 104.865 163.396 104.833 165.89 105.8L177.263 110.21C179.755 111.177 179.785 112.777 177.326 113.783L154.969 122.935C152.51 123.942 148.497 123.973 146.003 123.006L134.63 118.597Z" stroke="#1D1D1B" stroke-width="0.5"/>
<path d="M150.874 101.563L150.885 101.567C150.885 101.567 150.861 103.826 150.821 104.499C150.784 105.119 150.177 105.738 148.997 106.221L126.639 115.373C124.182 116.379 120.167 116.411 117.673 115.444L106.3 111.034C105.081 110.561 104.45 109.936 104.414 109.304C104.379 108.726 104.463 106.517 104.48 106.209C104.466 105.56 105.073 104.907 106.305 104.403L128.662 95.2513C131.121 94.2443 135.135 94.2133 137.629 95.1803L149.001 99.5893C150.378 100.123 151.003 100.85 150.874 101.563Z" fill="#D5C8FB"/>
<path d="M150.874 101.563L150.885 101.567C150.885 101.567 150.861 103.826 150.821 104.499C150.784 105.119 150.177 105.738 148.997 106.221L126.639 115.373C124.182 116.379 120.167 116.411 117.673 115.444L106.3 111.034C105.081 110.561 104.45 109.936 104.414 109.304C104.379 108.726 104.463 106.517 104.48 106.209C104.466 105.56 105.073 104.907 106.305 104.403L128.662 95.2513C131.121 94.2443 135.135 94.2133 137.629 95.1803L149.001 99.5893C150.378 100.123 151.003 100.85 150.874 101.563Z" stroke="#1D1D1B"/>
<path d="M106.369 107.975C103.875 107.008 103.847 105.409 106.305 104.402L128.662 95.2504C131.121 94.2444 135.135 94.2124 137.629 95.1794L149.001 99.5894C151.495 100.556 151.524 102.156 149.066 103.162L126.708 112.314C124.249 113.321 120.236 113.352 117.741 112.385L106.369 107.975Z" fill="white"/>
<path d="M106.369 107.975C103.875 107.008 103.847 105.409 106.305 104.402L128.662 95.2504C131.121 94.2444 135.135 94.2124 137.629 95.1794L149.001 99.5894C151.495 100.556 151.524 102.156 149.066 103.162L126.708 112.314C124.249 113.321 120.236 113.352 117.741 112.385L106.369 107.975Z" stroke="#1D1D1B" stroke-width="0.5"/>
<path d="M123.97 90.9583L123.981 90.9623C123.981 90.9623 123.957 93.2203 123.916 93.8933C123.88 94.5143 123.272 95.1343 122.093 95.6173L99.7349 104.769C97.2774 105.775 93.2622 105.807 90.7681 104.84L79.3973 100.43C78.177 99.9573 77.5458 99.3323 77.5092 98.7003C77.4741 98.1223 77.5584 95.9123 77.5753 95.6033C77.5612 94.9553 78.1686 94.3023 79.4001 93.7973L101.758 84.6453C104.217 83.6393 108.231 83.6073 110.725 84.5743L122.097 88.9843C123.473 89.5183 124.099 90.2453 123.97 90.9583Z" fill="#D5C8FB"/>
<path d="M123.97 90.9583L123.981 90.9623C123.981 90.9623 123.957 93.2203 123.916 93.8933C123.88 94.5143 123.272 95.1343 122.093 95.6173L99.7349 104.769C97.2774 105.775 93.2622 105.807 90.7681 104.84L79.3973 100.43C78.177 99.9573 77.5458 99.3323 77.5092 98.7003C77.4741 98.1223 77.5584 95.9123 77.5753 95.6033C77.5612 94.9553 78.1686 94.3023 79.4001 93.7973L101.758 84.6453C104.217 83.6393 108.231 83.6073 110.725 84.5743L122.097 88.9843C123.473 89.5183 124.099 90.2453 123.97 90.9583Z" stroke="#1D1D1B"/>
<path d="M79.4648 97.3722C76.9707 96.4052 76.9426 94.8052 79.4001 93.7992L101.758 84.6472C104.217 83.6412 108.231 83.6092 110.725 84.5762L122.097 88.9862C124.591 89.9532 124.619 91.5522 122.162 92.5592L99.8038 101.711C97.3449 102.717 93.3311 102.749 90.837 101.782L79.4648 97.3722Z" fill="#EFE9FE"/>
<path d="M79.4648 97.3722C76.9707 96.4052 76.9426 94.8052 79.4001 93.7992L101.758 84.6472C104.217 83.6412 108.231 83.6092 110.725 84.5762L122.097 88.9862C124.591 89.9532 124.619 91.5522 122.162 92.5592L99.8038 101.711C97.3449 102.717 93.3311 102.749 90.837 101.782L79.4648 97.3722Z" stroke="#1D1D1B" stroke-width="0.5"/>
<path d="M37 97.5944L214.614 24.6564" stroke="black"/>
<path d="M152.8 0.168324L42.8569 45.3003C41.9572 45.6703 41.5495 46.4213 41.8728 47.1083L51.4244 66.8303C51.5467 67.0883 51.7815 67.2943 52.0767 67.4353C52.6068 67.6903 55.4424 68.6013 55.4424 68.6013C55.9879 68.7873 56.3675 68.6293 56.7837 68.4593L165.616 23.9463C166.294 23.6693 166.614 23.1093 166.392 22.5873L157.541 1.75932C157.416 1.46132 157.14 1.22933 156.794 1.08233C156.045 0.764325 155.203 0.364323 154.403 0.110326C153.911 -0.0466758 153.315 -0.0436775 152.8 0.168324Z" fill="#EFE9FE"/>
<path d="M152.8 0.168324L42.8569 45.3003C41.9572 45.6703 41.5495 46.4213 41.8728 47.1083L51.4244 66.8303C51.5467 67.0883 51.7815 67.2943 52.0767 67.4353C52.6068 67.6903 55.4424 68.6013 55.4424 68.6013C55.9879 68.7873 56.3675 68.6293 56.7837 68.4593L165.616 23.9463C166.294 23.6693 166.614 23.1093 166.392 22.5873L157.541 1.75932C157.416 1.46132 157.14 1.22933 156.794 1.08233C156.045 0.764325 155.203 0.364323 154.403 0.110326C153.911 -0.0466758 153.315 -0.0436775 152.8 0.168324Z" stroke="#1D1D1B"/>
<path d="M45.9766 46.1944L155.183 1.28936C155.962 0.969364 156.956 1.24736 157.205 1.83236L166.055 22.6604C166.228 23.0684 165.982 23.5084 165.44 23.7294L56.6079 68.2424C55.8431 68.5554 54.8689 68.2944 54.6003 67.7264L45.15 47.7054C44.88 47.1344 45.2174 46.5064 45.9766 46.1944Z" fill="#D5C8FB"/>
<path d="M155.183 1.28936L45.9766 46.1944C45.2174 46.5064 44.88 47.1344 45.15 47.7054L54.6003 67.7264C54.8689 68.2944 55.8431 68.5554 56.6079 68.2424L165.44 23.7294C165.982 23.5084 166.228 23.0684 166.055 22.6604L157.205 1.83236C156.956 1.24736 155.962 0.969364 155.183 1.28936ZM155.183 1.28936L155.007 1.07336" stroke="#1D1D1B" stroke-width="0.5"/>
<path d="M57.4978 50.9494C57.3333 50.6364 57.6694 50.1034 58.1572 49.9024L150.482 11.9734C151.091 11.7234 151.637 11.8174 151.843 12.2074L154.379 17.0354C154.708 17.6604 154.036 18.7234 153.062 19.1234L61.7296 56.6474C61.1208 56.8974 60.5739 56.8014 60.3687 56.4124L57.4978 50.9494Z" fill="#1D1D1B"/>
<path d="M57.4978 50.9494C57.3333 50.6364 57.6694 50.1034 58.1572 49.9024L150.482 11.9734C151.091 11.7234 151.637 11.8174 151.843 12.2074L154.379 17.0354C154.708 17.6604 154.036 18.7234 153.062 19.1234L61.7296 56.6474C61.1208 56.8974 60.5739 56.8014 60.3687 56.4124L57.4978 50.9494Z" stroke="#1D1D1B"/>
<path d="M57.4978 50.9494C57.3334 50.6364 57.6694 50.1034 58.1572 49.9024L150.482 11.9734C151.091 11.7234 151.637 11.8174 151.843 12.2074" fill="#1D1D1B"/>
<path d="M57.4978 50.9494C57.3334 50.6364 57.6694 50.1034 58.1572 49.9024L150.482 11.9734C151.091 11.7234 151.637 11.8174 151.843 12.2074" stroke="#1D1D1B"/>
</g>
</svg>
