<svg width="347" height="130" viewBox="0 0 347 130" fill="none" xmlns="http://www.w3.org/2000/svg">
<mask id="mask0_1_950" style="mask-type:luminance" maskUnits="userSpaceOnUse" x="0" y="0" width="349" height="130">
<path d="M348.66 0H0V130H348.66V0Z" fill="white"/>
</mask>
<g mask="url(#mask0_1_950)">
<path d="M258.568 79.3594L258.581 79.3634C258.581 79.3634 258.555 81.6214 258.514 82.2944C258.478 82.9154 257.871 83.5354 256.691 84.0184L234.333 93.1694C231.876 94.1754 227.86 94.2074 225.366 93.2404L213.996 88.8304C212.775 88.3574 212.145 87.7324 212.108 87.1004C212.074 86.5224 212.158 84.3134 212.174 84.0044C212.16 83.3564 212.767 82.7034 213.998 82.1984L236.358 73.0464C238.815 72.0404 242.83 72.0084 245.323 72.9754L256.695 77.3854C258.072 77.9194 258.697 78.6464 258.568 79.3594Z" fill="#D5C8FB"/>
<path d="M258.568 79.3594L258.581 79.3634C258.581 79.3634 258.555 81.6214 258.514 82.2944C258.478 82.9154 257.871 83.5354 256.691 84.0184L234.333 93.1694C231.876 94.1754 227.86 94.2074 225.366 93.2404L213.996 88.8304C212.775 88.3574 212.145 87.7324 212.108 87.1004C212.074 86.5224 212.158 84.3134 212.174 84.0044C212.16 83.3564 212.767 82.7034 213.998 82.1984L236.358 73.0464C238.815 72.0404 242.83 72.0084 245.323 72.9754L256.695 77.3854C258.072 77.9194 258.697 78.6464 258.568 79.3594Z" stroke="#1D1D1B"/>
<path d="M214.063 85.7724C211.569 84.8054 211.542 83.2054 214 82.1994L236.358 73.0474C238.817 72.0414 242.83 72.0094 245.326 72.9764L256.698 77.3864C259.191 78.3534 259.22 79.9534 256.761 80.9594L234.403 90.1114C231.945 91.1174 227.929 91.1494 225.435 90.1824L214.063 85.7724Z" fill="white"/>
<path d="M214.063 85.7724C211.569 84.8054 211.542 83.2054 214 82.1994L236.358 73.0474C238.817 72.0414 242.83 72.0094 245.326 72.9764L256.698 77.3864C259.191 78.3534 259.22 79.9534 256.761 80.9594L234.403 90.1114C231.945 91.1174 227.929 91.1494 225.435 90.1824L214.063 85.7724Z" stroke="#1D1D1B" stroke-width="0.5"/>
<path d="M231.665 68.7554L231.675 68.7594C231.675 68.7594 231.652 71.0174 231.611 71.6904C231.575 72.3114 230.966 72.9314 229.787 73.4144L207.429 82.5664C204.971 83.5724 200.957 83.6044 198.463 82.6374L187.091 78.2274C185.872 77.7544 185.241 77.1294 185.204 76.4974C185.171 75.9194 185.255 73.7094 185.271 73.4004C185.256 72.7524 185.864 72.0994 187.095 71.5944L209.453 62.4424C211.912 61.4364 215.924 61.4044 218.419 62.3714L229.792 66.7814C231.168 67.3154 231.794 68.0424 231.665 68.7554Z" fill="#D5C8FB"/>
<path d="M231.665 68.7554L231.675 68.7594C231.675 68.7594 231.652 71.0174 231.611 71.6904C231.575 72.3114 230.966 72.9314 229.787 73.4144L207.429 82.5664C204.971 83.5724 200.957 83.6044 198.463 82.6374L187.091 78.2274C185.872 77.7544 185.241 77.1294 185.204 76.4974C185.171 75.9194 185.255 73.7094 185.271 73.4004C185.256 72.7524 185.864 72.0994 187.095 71.5944L209.453 62.4424C211.912 61.4364 215.924 61.4044 218.419 62.3714L229.792 66.7814C231.169 67.3154 231.794 68.0424 231.665 68.7554Z" stroke="#1D1D1B"/>
<path d="M187.16 75.1684C184.666 74.2014 184.638 72.6014 187.095 71.5954L209.453 62.4434C211.912 61.4374 215.927 61.4054 218.42 62.3724L229.792 66.7824C232.286 67.7494 232.314 69.3484 229.857 70.3554L207.499 79.5074C205.04 80.5134 201.026 80.5454 198.532 79.5784L187.16 75.1684Z" fill="#EFE9FE"/>
<path d="M187.16 75.1684C184.666 74.2014 184.638 72.6014 187.095 71.5954L209.453 62.4434C211.912 61.4374 215.927 61.4054 218.42 62.3724L229.792 66.7824C232.286 67.7494 232.314 69.3484 229.857 70.3554L207.499 79.5074C205.04 80.5134 201.026 80.5454 198.532 79.5784L187.16 75.1684Z" stroke="#1D1D1B" stroke-width="0.5"/>
<path d="M204.759 58.1503L204.772 58.1543C204.772 58.1543 204.746 60.4123 204.705 61.0853C204.669 61.7063 204.062 62.3263 202.882 62.8093L180.524 71.9603C178.067 72.9663 174.052 72.9983 171.557 72.0313L160.187 67.6223C158.966 67.1493 158.337 66.5233 158.299 65.8913C158.265 65.3133 158.349 63.1043 158.365 62.7953C158.351 62.1473 158.958 61.4943 160.189 60.9893L182.549 51.8373C185.006 50.8313 189.021 50.7993 191.514 51.7663L202.886 56.1763C204.263 56.7103 204.888 57.4373 204.759 58.1503Z" fill="#D5C8FB"/>
<path d="M204.759 58.1503L204.772 58.1543C204.772 58.1543 204.746 60.4123 204.705 61.0853C204.669 61.7063 204.062 62.3263 202.882 62.8093L180.524 71.9603C178.067 72.9663 174.052 72.9983 171.557 72.0313L160.187 67.6223C158.966 67.1493 158.337 66.5233 158.299 65.8913C158.265 65.3133 158.349 63.1043 158.365 62.7953C158.351 62.1473 158.958 61.4943 160.189 60.9893L182.549 51.8373C185.006 50.8313 189.021 50.7993 191.514 51.7663L202.886 56.1763C204.263 56.7103 204.888 57.4373 204.759 58.1503Z" stroke="#1D1D1B"/>
<path d="M160.256 64.5642C157.761 63.5972 157.733 61.9972 160.191 60.9912L182.549 51.8392C185.008 50.8332 189.021 50.8012 191.517 51.7682L202.889 56.1782C205.382 57.1452 205.411 58.7452 202.952 59.7512L180.595 68.9032C178.136 69.9092 174.122 69.9412 171.628 68.9742L160.256 64.5642Z" fill="#EFE9FE"/>
<path d="M160.256 64.5642C157.761 63.5972 157.733 61.9972 160.191 60.9912L182.549 51.8392C185.008 50.8332 189.021 50.8012 191.517 51.7682L202.889 56.1782C205.382 57.1452 205.411 58.7452 202.952 59.7512L180.595 68.9032C178.136 69.9092 174.122 69.9412 171.628 68.9742L160.256 64.5642Z" stroke="#1D1D1B" stroke-width="0.5"/>
<path d="M218.852 95.7724L218.863 95.7764C218.863 95.7764 218.839 98.0344 218.798 98.7074C218.762 99.3284 218.154 99.9474 216.975 100.429L194.617 109.582C192.159 110.589 188.144 110.621 185.65 109.653L174.279 105.244C173.059 104.771 172.428 104.146 172.391 103.514C172.356 102.936 172.44 100.726 172.457 100.417C172.443 99.7694 173.051 99.1164 174.282 98.6114L196.64 89.4594C199.099 88.4534 203.113 88.4214 205.607 89.3884L216.979 93.7984C218.355 94.3324 218.981 95.0594 218.852 95.7724Z" fill="#D5C8FB"/>
<path d="M218.852 95.7724L218.863 95.7764C218.863 95.7764 218.839 98.0344 218.798 98.7074C218.762 99.3284 218.154 99.9474 216.975 100.429L194.617 109.582C192.159 110.589 188.144 110.621 185.65 109.653L174.279 105.244C173.059 104.771 172.428 104.146 172.391 103.514C172.356 102.936 172.44 100.726 172.457 100.417C172.443 99.7694 173.051 99.1164 174.282 98.6114L196.64 89.4594C199.099 88.4534 203.113 88.4214 205.607 89.3884L216.979 93.7984C218.355 94.3324 218.981 95.0594 218.852 95.7724Z" stroke="#1D1D1B"/>
<path d="M174.347 102.184C171.853 101.217 171.825 99.6184 174.282 98.6114L196.64 89.4594C199.099 88.4534 203.113 88.4214 205.607 89.3884L216.979 93.7984C219.473 94.7654 219.501 96.3654 217.044 97.3714L194.686 106.523C192.227 107.529 188.213 107.561 185.719 106.594L174.347 102.184Z" fill="white"/>
<path d="M174.347 102.184C171.853 101.217 171.825 99.6184 174.282 98.6114L196.64 89.4594C199.099 88.4534 203.113 88.4214 205.607 89.3884L216.979 93.7984C219.473 94.7654 219.501 96.3654 217.044 97.3714L194.686 106.523C192.227 107.529 188.213 107.561 185.719 106.594L174.347 102.184Z" stroke="#1D1D1B" stroke-width="0.5"/>
<path d="M190.592 85.1523L190.604 85.1573C190.604 85.1573 190.578 87.4153 190.537 88.0883C190.5 88.7093 189.893 89.3283 188.713 89.8113L166.356 98.9633C163.898 99.9693 159.884 100.001 157.39 99.0343L146.018 94.6243C144.798 94.1513 144.169 93.5263 144.131 92.8943C144.098 92.3163 144.182 90.1063 144.197 89.7973C144.183 89.1493 144.791 88.4963 146.022 87.9913L168.38 78.8403C170.838 77.8343 174.853 77.8023 177.345 78.7693L188.719 83.1783C190.095 83.7123 190.721 84.4393 190.592 85.1523Z" fill="#D5C8FB"/>
<path d="M190.592 85.1523L190.604 85.1573C190.604 85.1573 190.578 87.4153 190.537 88.0883C190.5 88.7093 189.893 89.3283 188.713 89.8113L166.356 98.9633C163.898 99.9693 159.884 100.001 157.39 99.0343L146.018 94.6243C144.798 94.1513 144.169 93.5263 144.131 92.8943C144.098 92.3163 144.182 90.1063 144.197 89.7973C144.183 89.1493 144.791 88.4963 146.022 87.9913L168.38 78.8403C170.838 77.8343 174.853 77.8023 177.345 78.7693L188.719 83.1783C190.095 83.7123 190.721 84.4393 190.592 85.1523Z" stroke="#1D1D1B"/>
<path d="M146.086 91.5663C143.592 90.5993 143.565 88.9993 146.022 87.9933L168.38 78.8413C170.839 77.8353 174.853 77.8033 177.348 78.7703L188.719 83.1803C191.212 84.1473 191.243 85.7473 188.784 86.7533L166.426 95.9053C163.967 96.9113 159.952 96.9433 157.458 95.9763L146.086 91.5663Z" fill="#EFE9FE"/>
<path d="M146.086 91.5663C143.592 90.5993 143.565 88.9993 146.022 87.9933L168.38 78.8413C170.839 77.8353 174.853 77.8033 177.348 78.7703L188.719 83.1803C191.212 84.1473 191.243 85.7473 188.784 86.7533L166.426 95.9053C163.967 96.9113 159.952 96.9433 157.458 95.9763L146.086 91.5663Z" stroke="#1D1D1B" stroke-width="0.5"/>
<path d="M163.684 74.5474L163.697 74.5514C163.697 74.5514 163.672 76.8094 163.631 77.4824C163.595 78.1034 162.987 78.7234 161.808 79.2064L139.45 88.3574C136.992 89.3634 132.977 89.3954 130.483 88.4284L119.112 84.0184C117.892 83.5454 117.262 82.9204 117.224 82.2884C117.19 81.7104 117.275 79.5014 117.29 79.1924C117.276 78.5444 117.884 77.8914 119.115 77.3864L141.474 68.2344C143.932 67.2284 147.947 67.1964 150.44 68.1634L161.812 72.5734C163.188 73.1074 163.814 73.8344 163.684 74.5474Z" fill="#D5C8FB"/>
<path d="M163.684 74.5474L163.697 74.5514C163.697 74.5514 163.672 76.8094 163.631 77.4824C163.595 78.1034 162.987 78.7234 161.808 79.2064L139.45 88.3574C136.992 89.3634 132.977 89.3954 130.483 88.4284L119.112 84.0184C117.892 83.5454 117.262 82.9204 117.224 82.2884C117.19 81.7104 117.275 79.5014 117.29 79.1924C117.276 78.5444 117.884 77.8914 119.115 77.3864L141.474 68.2344C143.932 67.2284 147.947 67.1964 150.44 68.1634L161.812 72.5734C163.188 73.1074 163.814 73.8344 163.684 74.5474Z" stroke="#1D1D1B"/>
<path d="M119.18 80.9604C116.686 79.9934 116.658 78.3934 119.115 77.3874L141.473 68.2354C143.932 67.2294 147.946 67.1974 150.441 68.1644L161.813 72.5744C164.306 73.5414 164.335 75.1414 161.877 76.1474L139.519 85.2994C137.06 86.3054 133.046 86.3374 130.552 85.3704L119.18 80.9604Z" fill="white"/>
<path d="M119.18 80.9604C116.686 79.9934 116.658 78.3934 119.115 77.3874L141.473 68.2354C143.932 67.2294 147.946 67.1974 150.441 68.1644L161.813 72.5744C164.306 73.5414 164.335 75.1414 161.877 76.1474L139.519 85.2994C137.06 86.3054 133.046 86.3374 130.552 85.3704L119.18 80.9604Z" stroke="#1D1D1B" stroke-width="0.5"/>
<path d="M179.135 112.183L179.148 112.187C179.148 112.187 179.121 114.445 179.08 115.118C179.044 115.739 178.438 116.359 177.26 116.842L154.899 125.993C152.442 126.999 148.426 127.031 145.934 126.064L134.562 121.655C133.341 121.182 132.713 120.556 132.675 119.924C132.641 119.346 132.724 117.137 132.741 116.828C132.725 116.18 133.334 115.527 134.566 115.022L156.924 105.871C159.381 104.865 163.396 104.832 165.889 105.799L177.263 110.209C178.64 110.743 179.265 111.47 179.135 112.183Z" fill="#D5C8FB"/>
<path d="M179.135 112.183L179.148 112.187C179.148 112.187 179.121 114.445 179.08 115.118C179.044 115.739 178.438 116.359 177.26 116.842L154.899 125.993C152.442 126.999 148.426 127.031 145.934 126.064L134.562 121.655C133.341 121.182 132.713 120.556 132.675 119.924C132.641 119.346 132.724 117.137 132.741 116.828C132.725 116.18 133.334 115.527 134.566 115.022L156.924 105.871C159.381 104.865 163.396 104.832 165.889 105.799L177.263 110.209C178.64 110.743 179.265 111.47 179.135 112.183Z" stroke="#1D1D1B"/>
<path d="M134.63 118.597C132.136 117.63 132.108 116.03 134.566 115.024L156.924 105.872C159.382 104.865 163.396 104.833 165.89 105.8L177.263 110.21C179.755 111.177 179.785 112.777 177.326 113.783L154.969 122.935C152.51 123.942 148.497 123.973 146.003 123.006L134.63 118.597Z" fill="#EFE9FE"/>
<path d="M134.63 118.597C132.136 117.63 132.108 116.03 134.566 115.024L156.924 105.872C159.382 104.865 163.396 104.833 165.89 105.8L177.263 110.21C179.755 111.177 179.785 112.777 177.326 113.783L154.969 122.935C152.51 123.942 148.497 123.973 146.003 123.006L134.63 118.597Z" stroke="#1D1D1B" stroke-width="0.5"/>
<path d="M150.874 101.563L150.885 101.567C150.885 101.567 150.861 103.826 150.821 104.499C150.784 105.119 150.177 105.738 148.997 106.221L126.639 115.373C124.182 116.379 120.167 116.411 117.673 115.444L106.3 111.034C105.081 110.561 104.45 109.936 104.414 109.304C104.379 108.726 104.463 106.517 104.48 106.209C104.466 105.56 105.073 104.907 106.305 104.403L128.662 95.2513C131.121 94.2443 135.135 94.2133 137.629 95.1803L149.001 99.5893C150.378 100.123 151.003 100.85 150.874 101.563Z" fill="#D5C8FB"/>
<path d="M150.874 101.563L150.885 101.567C150.885 101.567 150.861 103.826 150.821 104.499C150.784 105.119 150.177 105.738 148.997 106.221L126.639 115.373C124.182 116.379 120.167 116.411 117.673 115.444L106.3 111.034C105.081 110.561 104.45 109.936 104.414 109.304C104.379 108.726 104.463 106.517 104.48 106.209C104.466 105.56 105.073 104.907 106.305 104.403L128.662 95.2513C131.121 94.2443 135.135 94.2133 137.629 95.1803L149.001 99.5893C150.378 100.123 151.003 100.85 150.874 101.563Z" stroke="#1D1D1B"/>
<path d="M106.369 107.975C103.875 107.008 103.847 105.409 106.305 104.402L128.662 95.2504C131.121 94.2444 135.135 94.2124 137.629 95.1794L149.001 99.5894C151.495 100.556 151.524 102.156 149.066 103.162L126.708 112.314C124.249 113.321 120.236 113.352 117.741 112.385L106.369 107.975Z" fill="white"/>
<path d="M106.369 107.975C103.875 107.008 103.847 105.409 106.305 104.402L128.662 95.2504C131.121 94.2444 135.135 94.2124 137.629 95.1794L149.001 99.5894C151.495 100.556 151.524 102.156 149.066 103.162L126.708 112.314C124.249 113.321 120.236 113.352 117.741 112.385L106.369 107.975Z" stroke="#1D1D1B" stroke-width="0.5"/>
<path d="M123.97 90.9583L123.981 90.9623C123.981 90.9623 123.957 93.2203 123.916 93.8933C123.88 94.5143 123.272 95.1343 122.093 95.6173L99.7349 104.769C97.2774 105.775 93.2622 105.807 90.7681 104.84L79.3973 100.43C78.177 99.9573 77.5458 99.3323 77.5092 98.7003C77.4741 98.1223 77.5584 95.9123 77.5753 95.6033C77.5612 94.9553 78.1686 94.3023 79.4001 93.7973L101.758 84.6453C104.217 83.6393 108.231 83.6073 110.725 84.5743L122.097 88.9843C123.473 89.5183 124.099 90.2453 123.97 90.9583Z" fill="#D5C8FB"/>
<path d="M123.97 90.9583L123.981 90.9623C123.981 90.9623 123.957 93.2203 123.916 93.8933C123.88 94.5143 123.272 95.1343 122.093 95.6173L99.7349 104.769C97.2774 105.775 93.2622 105.807 90.7681 104.84L79.3973 100.43C78.177 99.9573 77.5458 99.3323 77.5092 98.7003C77.4741 98.1223 77.5584 95.9123 77.5753 95.6033C77.5612 94.9553 78.1686 94.3023 79.4001 93.7973L101.758 84.6453C104.217 83.6393 108.231 83.6073 110.725 84.5743L122.097 88.9843C123.473 89.5183 124.099 90.2453 123.97 90.9583Z" stroke="#1D1D1B"/>
<path d="M79.4648 97.3722C76.9707 96.4052 76.9426 94.8052 79.4001 93.7992L101.758 84.6472C104.217 83.6412 108.231 83.6092 110.725 84.5762L122.097 88.9862C124.591 89.9532 124.619 91.5522 122.162 92.5592L99.8038 101.711C97.3449 102.717 93.3311 102.749 90.837 101.782L79.4648 97.3722Z" fill="#EFE9FE"/>
<path d="M79.4648 97.3722C76.9707 96.4052 76.9426 94.8052 79.4001 93.7992L101.758 84.6472C104.217 83.6412 108.231 83.6092 110.725 84.5762L122.097 88.9862C124.591 89.9532 124.619 91.5522 122.162 92.5592L99.8038 101.711C97.3449 102.717 93.3311 102.749 90.837 101.782L79.4648 97.3722Z" stroke="#1D1D1B" stroke-width="0.5"/>
<path d="M37 97.5944L214.614 24.6564" stroke="black"/>
<path d="M152.8 0.168324L42.8569 45.3003C41.9572 45.6703 41.5495 46.4213 41.8728 47.1083L51.4244 66.8303C51.5467 67.0883 51.7815 67.2943 52.0767 67.4353C52.6068 67.6903 55.4424 68.6013 55.4424 68.6013C55.9879 68.7873 56.3675 68.6293 56.7837 68.4593L165.616 23.9463C166.294 23.6693 166.614 23.1093 166.392 22.5873L157.541 1.75932C157.416 1.46132 157.14 1.22933 156.794 1.08233C156.045 0.764325 155.203 0.364323 154.403 0.110326C153.911 -0.0466758 153.315 -0.0436775 152.8 0.168324Z" fill="#EFE9FE"/>
<path d="M152.8 0.168324L42.8569 45.3003C41.9572 45.6703 41.5495 46.4213 41.8728 47.1083L51.4244 66.8303C51.5467 67.0883 51.7815 67.2943 52.0767 67.4353C52.6068 67.6903 55.4424 68.6013 55.4424 68.6013C55.9879 68.7873 56.3675 68.6293 56.7837 68.4593L165.616 23.9463C166.294 23.6693 166.614 23.1093 166.392 22.5873L157.541 1.75932C157.416 1.46132 157.14 1.22933 156.794 1.08233C156.045 0.764325 155.203 0.364323 154.403 0.110326C153.911 -0.0466758 153.315 -0.0436775 152.8 0.168324Z" stroke="#1D1D1B"/>
<path d="M45.9766 46.1944L155.183 1.28936C155.962 0.969364 156.956 1.24736 157.205 1.83236L166.055 22.6604C166.228 23.0684 165.982 23.5084 165.44 23.7294L56.6079 68.2424C55.8431 68.5554 54.8689 68.2944 54.6003 67.7264L45.15 47.7054C44.88 47.1344 45.2174 46.5064 45.9766 46.1944Z" fill="#D5C8FB"/>
<path d="M155.183 1.28936L45.9766 46.1944C45.2174 46.5064 44.88 47.1344 45.15 47.7054L54.6003 67.7264C54.8689 68.2944 55.8431 68.5554 56.6079 68.2424L165.44 23.7294C165.982 23.5084 166.228 23.0684 166.055 22.6604L157.205 1.83236C156.956 1.24736 155.962 0.969364 155.183 1.28936ZM155.183 1.28936L155.007 1.07336" stroke="#1D1D1B" stroke-width="0.5"/>
<path d="M57.4978 50.9494C57.3333 50.6364 57.6694 50.1034 58.1572 49.9024L150.482 11.9734C151.091 11.7234 151.637 11.8174 151.843 12.2074L154.379 17.0354C154.708 17.6604 154.036 18.7234 153.062 19.1234L61.7296 56.6474C61.1208 56.8974 60.5739 56.8014 60.3687 56.4124L57.4978 50.9494Z" fill="#1D1D1B"/>
<path d="M57.4978 50.9494C57.3333 50.6364 57.6694 50.1034 58.1572 49.9024L150.482 11.9734C151.091 11.7234 151.637 11.8174 151.843 12.2074L154.379 17.0354C154.708 17.6604 154.036 18.7234 153.062 19.1234L61.7296 56.6474C61.1208 56.8974 60.5739 56.8014 60.3687 56.4124L57.4978 50.9494Z" stroke="#1D1D1B"/>
<mask id="mask1_1_950" style="mask-type:alpha" maskUnits="userSpaceOnUse" x="60" y="12" width="255" height="162">
<path d="M61.0422 52.1147C60.8778 51.8017 61.2138 51.2687 61.7016 51.0677L154.026 13.1387C154.635 12.8887 155.182 12.9827 155.387 13.3727L314.341 67.5797C314.668 68.2037 313.998 69.2677 313.024 69.6687L274.602 172.621C273.993 172.871 273.446 172.777 273.241 172.387L61.0422 52.1147Z" fill="#1D1D1B"/>
<path d="M61.0422 52.1147C60.8778 51.8017 61.2138 51.2687 61.7016 51.0677L154.026 13.1387C154.635 12.8887 155.182 12.9827 155.387 13.3727L314.341 67.5797C314.668 68.2037 313.998 69.2677 313.024 69.6687L274.602 172.621C273.993 172.871 273.446 172.777 273.241 172.387L61.0422 52.1147Z" stroke="#1D1D1B"/>
</mask>
<g mask="url(#mask1_1_950)">
<path d="M283.445 70.2447C283.436 70.5667 283.424 71.2237 283.452 71.8067C283.49 72.6487 282.707 73.4937 281.1 74.1337L203.994 104.857C200.846 106.115 195.716 106.108 192.535 104.84L62.3932 52.9877C60.7807 52.3447 59.9822 51.5017 60.0004 50.6627C60.0131 50.0037 60.0047 49.2547 60.0018 48.9957C59.9568 48.1507 60.7399 47.3027 62.3525 46.6597L139.458 15.9378C142.612 14.6808 147.742 14.6888 150.918 15.9538L281.059 67.8067C282.615 68.4267 283.414 69.2347 283.452 70.0447V70.0467C283.455 70.1127 283.452 70.1787 283.445 70.2447Z" fill="#1D1D1B"/>
<path d="M283.445 70.2447C283.436 70.5667 283.424 71.2237 283.452 71.8067C283.49 72.6487 282.707 73.4937 281.1 74.1337L203.994 104.857C200.846 106.115 195.716 106.108 192.535 104.84L62.3933 52.9877C60.7807 52.3447 59.9822 51.5017 60.0004 50.6627C60.0131 50.0037 60.0047 49.2547 60.0018 48.9957C59.9568 48.1507 60.7399 47.3027 62.3525 46.6597L139.458 15.9378C142.612 14.6808 147.742 14.6888 150.918 15.9538L281.059 67.8067C282.615 68.4267 283.414 69.2347 283.452 70.0447V70.0467C283.455 70.1127 283.452 70.1787 283.445 70.2447Z" stroke="#1D1D1B" stroke-width="0.973" stroke-miterlimit="10"/>
<path d="M62.3944 51.2257L192.534 103.079C195.715 104.347 200.846 104.354 203.992 103.095L281.1 72.3727C284.252 71.1167 284.235 69.0727 281.059 67.8077L150.919 15.9538C147.743 14.6888 142.613 14.6818 139.459 15.9388L62.3537 46.6607C59.2003 47.9167 59.2185 49.9607 62.3944 51.2257Z" fill="white"/>
<path d="M62.3944 51.2257L192.534 103.079C195.715 104.347 200.846 104.354 203.992 103.095L281.1 72.3727C284.252 71.1167 284.235 69.0727 281.059 67.8077L150.919 15.9538C147.743 14.6888 142.613 14.6818 139.459 15.9388L62.3537 46.6607C59.2003 47.9167 59.2185 49.9607 62.3944 51.2257Z" stroke="#1D1D1B" stroke-miterlimit="10"/>
<path d="M226.845 55.7678C230.203 54.4308 235.141 54.4308 238.362 55.7148C241.661 57.0288 241.661 58.9958 238.31 60.3358C236.734 60.9638 234.738 61.2898 232.725 61.3058C233.027 61.5428 233.425 61.7808 233.908 62.0198L232.029 62.6198C231.043 62.1288 230.349 61.6338 229.94 61.1268C228.801 60.9658 227.727 60.7008 226.788 60.3268C223.565 59.0428 223.623 57.0518 226.845 55.7678ZM236.723 56.3678C234.486 55.4768 231.071 55.5308 228.662 56.4918C226.314 57.4268 226.256 58.7608 228.486 59.6498C228.814 59.7798 229.158 59.8898 229.514 59.9798C229.536 59.3708 229.964 58.7448 230.769 58.0988L232.923 58.5238C232.129 59.1618 231.801 59.7478 231.953 60.3148C233.536 60.3688 235.164 60.1338 236.483 59.6078C238.894 58.6478 239.017 57.2818 236.723 56.3678ZM258.112 67.7078L254.714 69.0618C253.412 69.5798 254.049 70.2108 255.829 70.4458L254.183 71.1018C251.54 70.5178 250.605 69.3918 253.355 68.2968L260.068 65.6218L261.708 66.2748L259.694 67.0778L261.807 67.9198L260.225 68.5498L258.112 67.7078ZM266.511 69.6508C264.217 68.7368 260.639 68.7628 258.35 69.6738C255.998 70.6118 256.055 71.9888 258.35 72.9028C260.702 73.8398 264.158 73.8628 266.511 72.9258C268.805 72.0118 268.863 70.5878 266.511 69.6508ZM259.99 72.2488C258.706 71.7368 258.7 70.8878 260.048 70.3508C261.467 69.7858 263.58 69.7908 264.87 70.3048C266.23 70.8468 266.23 71.6838 264.811 72.2488C263.469 72.7838 261.35 72.7908 259.99 72.2488ZM254.066 64.6938C253.418 64.4358 252.437 64.2078 251.042 64.2988L251.877 63.9658L250.296 63.3358L242.49 66.4458L244.072 67.0758L248.538 65.2968C249.629 64.8618 251.211 64.8318 252.216 65.2318C253.22 65.6318 253.22 66.2918 252.127 66.7268L247.662 68.5068L249.361 69.1828L253.944 67.3578C255.881 66.5848 255.776 65.3758 254.066 64.6938ZM245.473 61.2678C243.179 60.3538 239.601 60.3788 237.312 61.2908C234.96 62.2288 235.018 63.6058 237.312 64.5198C239.664 65.4568 243.121 65.4798 245.473 64.5428C247.768 63.6288 247.825 62.2048 245.473 61.2678ZM238.953 63.8658C237.651 63.3468 237.662 62.5048 239.01 61.9678C240.429 61.4028 242.531 61.4028 243.833 61.9208C245.175 62.4558 245.194 63.3008 243.775 63.8658C242.432 64.4008 240.301 64.4028 238.953 63.8658Z" fill="#1D1D1B"/>
<path d="M133.167 32.7158C131.869 32.1988 129.765 32.1988 128.467 32.7158L119.395 36.3307C118.097 36.8477 118.097 37.6857 119.395 38.2027L133.302 43.7437C134.6 44.2607 136.704 44.2607 138.002 43.7437L147.073 40.1297C148.372 39.6117 148.372 38.7737 147.073 38.2567L133.167 32.7158Z" fill="white"/>
<path d="M133.167 32.7158C131.869 32.1988 129.765 32.1988 128.467 32.7158L119.395 36.3307C118.097 36.8477 118.097 37.6857 119.395 38.2027L133.302 43.7437C134.6 44.2607 136.704 44.2607 138.002 43.7437L147.073 40.1297C148.372 39.6117 148.372 38.7737 147.073 38.2567L133.167 32.7158Z" stroke="#1D1D1B" stroke-width="0.5"/>
<path d="M136.645 35.0947L141.332 36.9627" stroke="#1D1D1B" stroke-width="0.5"/>
<path d="M125.218 39.6488L129.905 41.5168" stroke="#1D1D1B" stroke-width="0.5"/>
<path d="M140.317 42.8657L134.505 40.5487L134.512 40.5297C134.626 40.2227 135.139 39.8897 136.045 39.5297C136.946 39.1707 137.864 38.9327 138.802 38.8157L138.861 38.8077L144.678 41.1247" stroke="#1D1D1B" stroke-width="0.5"/>
<path d="M130.454 42.5778C130.461 42.1048 130.964 41.6698 131.968 41.2698C132.976 40.8678 133.868 40.6378 134.637 40.5758" stroke="#1D1D1B" stroke-width="0.5"/>
<path d="M126.004 33.6958L131.72 35.9738L131.774 35.9698C132.662 35.9028 133.583 35.6768 134.539 35.2968C135.501 34.9138 136.011 34.4248 136.07 33.8338" stroke="#1D1D1B" stroke-width="0.5"/>
<path d="M121.816 35.3657L127.365 37.5757H127.411C128.418 37.5487 129.349 37.3637 130.202 37.0237C131.05 36.6857 131.602 36.3237 131.854 35.9397" stroke="#1D1D1B" stroke-width="0.5"/>
<path d="M122.302 39.3917C123.613 39.3887 124.725 39.2057 125.633 38.8437C126.534 38.4847 127.158 38.0507 127.505 37.5437" stroke="#1D1D1B" stroke-width="0.5"/>
<path d="M147.165 43.0488C147.13 43.1368 147.067 43.2228 146.961 43.3068C146.862 43.3888 146.728 43.4638 146.552 43.5338C146.384 43.6008 146.185 43.6578 145.98 43.6978C145.782 43.7398 145.558 43.7678 145.331 43.7788C145.027 43.7978 144.817 43.9088 144.864 44.0298C144.91 44.1508 145.191 44.2348 145.495 44.2168C145.827 44.1958 146.162 44.1558 146.476 44.0958C146.786 44.0328 147.078 43.9478 147.334 43.8458C147.591 43.7428 147.802 43.6268 147.96 43.5038C148.111 43.3778 148.214 43.2488 148.262 43.1138C148.308 42.9928 148.097 42.8808 147.795 42.8628C147.491 42.8438 147.212 42.9278 147.165 43.0488Z" fill="#1D1D1B"/>
<path d="M149.242 43.2898C149.06 43.5988 148.67 43.8908 148.062 44.1328C147.456 44.3748 146.725 44.5308 145.949 44.6028C145.651 44.6328 145.471 44.7518 145.542 44.8678C145.617 44.9858 145.908 45.0598 146.212 45.0318C147.175 44.9408 148.097 44.7468 148.851 44.4468C149.603 44.1468 150.099 43.7818 150.322 43.3958C150.392 43.2748 150.205 43.1578 149.907 43.1278C149.616 43.0998 149.312 43.1738 149.242 43.2898Z" fill="#1D1D1B"/>
<path d="M151.408 43.5627C151.116 44.0047 150.538 44.4257 149.669 44.7727C148.793 45.1207 147.747 45.3517 146.633 45.4657C146.334 45.4957 146.159 45.6167 146.235 45.7347C146.311 45.8537 146.614 45.9237 146.912 45.8937C148.209 45.7587 149.434 45.4887 150.451 45.0837C151.466 44.6787 152.142 44.1907 152.481 43.6747C152.557 43.5557 152.381 43.4347 152.085 43.4047C151.792 43.3717 151.495 43.4437 151.408 43.5627Z" fill="#1D1D1B"/>
<path d="M153.579 43.8317C153.177 44.4107 152.412 44.9577 151.273 45.4107C150.129 45.8667 148.757 46.1717 147.31 46.3297C147.018 46.3627 146.842 46.4827 146.925 46.5997C147.006 46.7157 147.31 46.7857 147.601 46.7527C149.236 46.5757 150.771 46.2297 152.055 45.7177C153.334 45.2087 154.203 44.5927 154.653 43.9437C154.735 43.8267 154.566 43.7037 154.268 43.6737C153.97 43.6437 153.666 43.7127 153.579 43.8317Z" fill="#1D1D1B"/>
<path d="M188.858 90.4937C191.795 89.3237 195.786 88.8307 199.618 89.0037C199.297 87.8887 198.057 86.8107 195.902 85.9517C190.81 83.9217 182.574 83.9317 177.504 85.9517C172.412 87.9807 172.436 91.2617 177.504 93.2817C179.661 94.1407 182.367 94.6337 185.165 94.7617C184.66 93.2627 185.899 91.6727 188.858 90.4937Z" fill="white"/>
<path d="M188.858 90.4937C191.795 89.3237 195.786 88.8307 199.618 89.0037C199.297 87.8887 198.057 86.8107 195.902 85.9517C190.81 83.9217 182.574 83.9317 177.504 85.9517C172.412 87.9807 172.436 91.2617 177.504 93.2817C179.661 94.1407 182.367 94.6337 185.165 94.7617C184.66 93.2627 185.899 91.6727 188.858 90.4937Z" stroke="#1D1D1B" stroke-width="0.5"/>
<path d="M207.259 97.8247C202.165 99.8537 193.929 99.8447 188.86 97.8247C186.703 96.9657 185.464 95.8867 185.144 94.7717C188.974 94.9457 192.965 94.4517 195.902 93.2827C198.837 92.1127 200.079 90.5217 199.643 88.9957C202.441 89.1237 205.148 89.6167 207.303 90.4767C212.328 92.5147 212.328 95.8047 207.259 97.8247Z" fill="white"/>
<path d="M207.259 97.8247C202.165 99.8537 193.929 99.8447 188.86 97.8247C186.703 96.9657 185.464 95.8867 185.144 94.7717C188.974 94.9457 192.965 94.4517 195.902 93.2827C198.837 92.1127 200.079 90.5217 199.643 88.9957C202.441 89.1237 205.148 89.6167 207.303 90.4767C212.328 92.5147 212.328 95.8047 207.259 97.8247Z" stroke="#1D1D1B" stroke-width="0.5"/>
</g>
<path d="M58.0422 51.1147C57.8778 50.8017 58.2138 50.2687 58.7016 50.0677L151.026 12.1387C151.635 11.8887 152.182 11.9827 152.387 12.3727" fill="#1D1D1B"/>
<path d="M58.0422 51.1147C57.8778 50.8017 58.2138 50.2687 58.7016 50.0677L151.026 12.1387C151.635 11.8887 152.182 11.9827 152.387 12.3727" stroke="#1D1D1B"/>
</g>
</svg>
