<svg width="214" height="130" viewBox="0 0 214 130" fill="none" xmlns="http://www.w3.org/2000/svg">
<g clip-path="url(#clip0_1_1292)">
<mask id="mask0_1_1292" style="mask-type:luminance" maskUnits="userSpaceOnUse" x="0" y="0" width="214" height="130">
<path d="M213.351 0H0.220947V130H213.351V0Z" fill="white"/>
</mask>
<g mask="url(#mask0_1_1292)">
<path d="M111.298 127.757L157.504 27.5021V103.419L111.298 127.757Z" fill="white"/>
<path d="M111.298 127.757L157.504 27.5021V103.419L111.298 127.757Z" stroke="#1D1D1B" stroke-width="1.03434" stroke-linejoin="round"/>
<path d="M68.382 25.9167L91.6501 13.146L113.478 1.31708C113.478 1.31708 114.356 0.778553 115.166 0.778687C115.976 0.778822 116.839 1.21781 116.839 1.21781L154.398 20.4762L111.258 23.2048L68.382 25.9167Z" fill="white"/>
<path d="M68.382 25.9167L91.6501 13.146L113.478 1.31708C113.478 1.31708 114.356 0.778553 115.166 0.778687C115.976 0.778822 116.839 1.21781 116.839 1.21781L154.398 20.4762L111.258 23.2048L68.382 25.9167Z" stroke="#1D1D1B" stroke-width="1.03434" stroke-linecap="round" stroke-linejoin="round"/>
<path d="M111.298 127.866L67.7723 104.87L67.1931 28.4887C67.1931 28.4887 67.0894 26.6695 68.6424 25.8541C70.1955 25.0387 111.298 127.866 111.298 127.866Z" fill="white"/>
<path d="M111.298 127.866L67.7723 104.87L67.1931 28.4887C67.1931 28.4887 67.0894 26.6695 68.6424 25.8541C70.1955 25.0387 111.298 127.866 111.298 127.866Z" stroke="#1D1D1B" stroke-width="1.03434" stroke-linecap="round" stroke-linejoin="round"/>
<path d="M154.329 20.443C155.108 20.8073 156.492 22.4211 156.897 23.4249C157.302 24.4286 157.6 26.8311 157.505 27.4397L154.329 20.443Z" fill="#F4F8AC"/>
<path d="M154.329 20.443C155.108 20.8073 156.492 22.4211 156.897 23.4249C157.302 24.4286 157.6 26.8311 157.505 27.4397L154.329 20.443Z" stroke="#1D1D1B" stroke-width="1.03434" stroke-linecap="round" stroke-linejoin="round"/>
<path d="M111.298 127.757L111.115 51.7789L157.504 27.5021V103.419L111.298 127.757Z" fill="white"/>
<path d="M111.298 127.757L111.115 51.7789L157.504 27.5021V103.419L111.298 127.757Z" stroke="#1D1D1B" stroke-width="0.51717" stroke-linejoin="round"/>
<path d="M108.323 45.267L68.382 25.9167L91.6501 13.146L113.478 1.31708C113.478 1.31708 114.356 0.778553 115.166 0.778687C115.976 0.778822 116.839 1.21781 116.839 1.21781L154.398 20.4762L108.323 45.267Z" fill="white"/>
<path d="M108.323 45.267L68.382 25.9167L91.6501 13.146L113.478 1.31708C113.478 1.31708 114.356 0.778553 115.166 0.778687C115.976 0.778822 116.839 1.21781 116.839 1.21781L154.398 20.4762L108.323 45.267Z" stroke="#1D1D1B" stroke-width="0.51717" stroke-linecap="round" stroke-linejoin="round"/>
<path d="M111.298 127.866L67.7723 104.87L67.1931 28.4887C67.1931 28.4887 67.0894 26.6695 68.6424 25.8541C70.1955 25.0387 71.6135 25.6659 71.6135 25.6659L105.93 43.6696C105.93 43.6696 108.434 45.0517 109.832 47.4963C111.23 49.9408 111.298 53.5812 111.298 53.5812V127.866Z" fill="white"/>
<path d="M111.298 127.866L67.7723 104.87L67.1931 28.4887C67.1931 28.4887 67.0894 26.6695 68.6424 25.8541C70.1955 25.0387 71.6135 25.6659 71.6135 25.6659L105.93 43.6696C105.93 43.6696 108.434 45.0517 109.832 47.4963C111.23 49.9408 111.298 53.5812 111.298 53.5812V127.866Z" stroke="#1D1D1B" stroke-width="0.51717" stroke-linecap="round" stroke-linejoin="round"/>
<path d="M110.153 48.2298C109.552 46.9898 109.066 46.0239 107.959 45.0736L154.329 20.443C155.108 20.8073 156.492 22.4211 156.897 23.4249C157.302 24.4286 157.6 26.8311 157.505 27.4397L111.152 51.7792C111.097 51.2724 110.778 49.521 110.17 48.2664L110.153 48.2298Z" fill="#FDFFD0"/>
<path d="M110.153 48.2298C109.552 46.9898 109.066 46.0239 107.959 45.0736L154.329 20.443C155.108 20.8073 156.492 22.4211 156.897 23.4249C157.302 24.4286 157.6 26.8311 157.505 27.4397L111.152 51.7792C111.097 51.2724 110.778 49.521 110.17 48.2664L110.153 48.2298Z" stroke="#1D1D1B" stroke-width="0.51717" stroke-linecap="round" stroke-linejoin="round"/>
<path d="M122.989 90.3375L106.185 99.4583L106.374 120.812L122.91 112.074L122.989 90.3375Z" fill="#FDFFD0"/>
<path d="M122.989 90.3375L106.185 99.4583L106.374 120.812L122.91 112.074L122.989 90.3375Z" stroke="#1D1D1B" stroke-width="0.51717" stroke-linejoin="round"/>
<path d="M71.8226 102.57V81.0413L106.375 99.4588V120.812L71.8226 102.57Z" fill="#FDFFD0"/>
<path d="M71.8226 102.57V81.0413L106.375 99.4588V120.812L71.8226 102.57Z" stroke="#1D1D1B" stroke-width="0.51717" stroke-linejoin="round"/>
<path d="M88.4262 72.2172L73.7893 80.8852L106.374 98.5988L122.256 90.07L88.4262 72.2172Z" fill="white"/>
<path d="M88.4262 72.2172L73.7893 80.8852L106.374 98.5988L122.256 90.07L88.4262 72.2172Z" stroke="#1D1D1B" stroke-width="0.51717" stroke-linejoin="round"/>
<path d="M82.0176 100.494V95.9297L91.8358 101.188V105.752L82.0176 100.494Z" fill="#FDFFD0"/>
<path d="M82.0176 100.494V95.9297L91.8358 101.188V105.752L82.0176 100.494Z" stroke="#1D1D1B" stroke-width="0.51717" stroke-linejoin="round"/>
<path d="M83.1506 100.139L82.0176 100.49L91.8358 105.752V104.524L83.1506 100.139Z" fill="#1D1D1B"/>
<path d="M83.1506 100.139L82.0176 100.49L91.8358 105.752V104.524L83.1506 100.139Z" stroke="#1D1D1B" stroke-width="0.51717" stroke-linejoin="round"/>
<path d="M82.0177 100.49V95.9297L83.1505 96.6313V100.139L82.0177 100.49Z" fill="#F4F8AC"/>
<path d="M82.0177 100.49V95.9297L83.1505 96.6313V100.139L82.0177 100.49Z" stroke="#1D1D1B" stroke-width="0.51717" stroke-linejoin="round"/>
<path d="M87.4934 71.7446L71.8225 81.0412L106.29 99.4021L122.99 90.3375L121.101 89.4605L106.185 97.5291L75.2209 80.6903L89.1927 72.6217L87.4934 71.7446Z" fill="#1D1D1B"/>
<path d="M87.4934 71.7446L71.8225 81.0412L106.29 99.4021L122.99 90.3375L121.101 89.4605L106.185 97.5291L75.2209 80.6903L89.1927 72.6217L87.4934 71.7446Z" stroke="#1D1D1B" stroke-width="0.51717" stroke-linejoin="round"/>
<path d="M71.787 81.1416L106.408 99.5112L106.264 120.803" stroke="#1D1D1B" stroke-width="0.51717" stroke-linejoin="round"/>
<path d="M122.989 65.7545L106.185 74.8753L106.374 96.2286L122.91 87.491L122.989 65.7545Z" fill="#FDFFD0"/>
<path d="M122.989 65.7545L106.185 74.8753L106.374 96.2286L122.91 87.491L122.989 65.7545Z" stroke="#1D1D1B" stroke-width="0.51717" stroke-linejoin="round"/>
<path d="M71.8226 77.9871V56.4583L106.375 74.8758V96.2292L71.8226 77.9871Z" fill="#FDFFD0"/>
<path d="M71.8226 77.9871V56.4583L106.375 74.8758V96.2292L71.8226 77.9871Z" stroke="#1D1D1B" stroke-width="0.51717" stroke-linejoin="round"/>
<path d="M88.4262 47.6342L73.7893 56.3022L106.374 74.0158L122.256 65.487L88.4262 47.6342Z" fill="white"/>
<path d="M88.4262 47.6342L73.7893 56.3022L106.374 74.0158L122.256 65.487L88.4262 47.6342Z" stroke="#1D1D1B" stroke-width="0.51717" stroke-linejoin="round"/>
<path d="M82.0176 75.9107V71.3467L91.8358 76.6053V81.1693L82.0176 75.9107Z" fill="#FDFFD0"/>
<path d="M82.0176 75.9107V71.3467L91.8358 76.6053V81.1693L82.0176 75.9107Z" stroke="#1D1D1B" stroke-width="0.51717" stroke-linejoin="round"/>
<path d="M83.1506 75.5563L82.0176 75.907L91.8358 81.1693V79.9413L83.1506 75.5563Z" fill="#1D1D1B"/>
<path d="M83.1506 75.5563L82.0176 75.907L91.8358 81.1693V79.9413L83.1506 75.5563Z" stroke="#1D1D1B" stroke-width="0.51717" stroke-linejoin="round"/>
<path d="M82.0177 75.9072V71.3467L83.1505 72.0483V75.5564L82.0177 75.9072Z" fill="#F4F8AC"/>
<path d="M82.0177 75.9072V71.3467L83.1505 72.0483V75.5564L82.0177 75.9072Z" stroke="#1D1D1B" stroke-width="0.51717" stroke-linejoin="round"/>
<path d="M87.4934 47.1616L71.8225 56.4582L106.29 74.8191L122.99 65.7545L121.101 64.8775L106.185 72.9461L75.2209 56.1073L89.1927 48.0387L87.4934 47.1616Z" fill="#1D1D1B"/>
<path d="M87.4934 47.1616L71.8225 56.4582L106.29 74.8191L122.99 65.7545L121.101 64.8775L106.185 72.9461L75.2209 56.1073L89.1927 48.0387L87.4934 47.1616Z" stroke="#1D1D1B" stroke-width="0.51717" stroke-linejoin="round"/>
<path d="M71.787 56.5586L106.408 74.9282L106.264 96.2195" stroke="#1D1D1B" stroke-width="0.51717" stroke-linejoin="round"/>
<path d="M122.989 42.4211L106.185 50.9671L106.374 70.9747L122.91 62.7877L122.989 42.4211Z" fill="#FDFFD0"/>
<path d="M122.989 42.4211L106.185 50.9671L106.374 70.9747L122.91 62.7877L122.989 42.4211Z" stroke="#1D1D1B" stroke-width="0.51717" stroke-linejoin="round"/>
<path d="M71.8226 53.8827V33.7107L106.375 50.9675V70.9751L71.8226 53.8827Z" fill="#FDFFD0"/>
<path d="M71.8226 53.8827V33.7107L106.375 50.9675V70.9751L71.8226 53.8827Z" stroke="#1D1D1B" stroke-width="0.51717" stroke-linejoin="round"/>
<path d="M88.4262 25.4427L73.7893 33.5645L106.374 50.1617L122.256 42.1705L88.4262 25.4427Z" fill="white"/>
<path d="M88.4262 25.4427L73.7893 33.5645L106.374 50.1617L122.256 42.1705L88.4262 25.4427Z" stroke="#1D1D1B" stroke-width="0.51717" stroke-linejoin="round"/>
<path d="M82.0176 51.9372V47.6609L91.8358 52.5881V56.8644L82.0176 51.9372Z" fill="#FDFFD0"/>
<path d="M82.0176 51.9372V47.6609L91.8358 52.5881V56.8644L82.0176 51.9372Z" stroke="#1D1D1B" stroke-width="0.51717" stroke-linejoin="round"/>
<path d="M83.1506 51.6051L82.0176 51.9337L91.8358 56.8643V55.7138L83.1506 51.6051Z" fill="#1D1D1B"/>
<path d="M83.1506 51.6051L82.0176 51.9337L91.8358 56.8643V55.7138L83.1506 51.6051Z" stroke="#1D1D1B" stroke-width="0.51717" stroke-linejoin="round"/>
<path d="M82.0177 51.934V47.6609L83.1505 48.3183V51.6053L82.0177 51.934Z" fill="#F4F8AC"/>
<path d="M82.0177 51.934V47.6609L83.1505 48.3183V51.6053L82.0177 51.934Z" stroke="#1D1D1B" stroke-width="0.51717" stroke-linejoin="round"/>
<path d="M87.4934 25L71.8225 33.7107L106.29 50.9144L122.99 42.4211L121.101 41.5993L106.185 49.1595L75.2209 33.3819L89.1927 25.8218L87.4934 25Z" fill="#1D1D1B"/>
<path d="M87.4934 25L71.8225 33.7107L106.29 50.9144L122.99 42.4211L121.101 41.5993L106.185 49.1595L75.2209 33.3819L89.1927 25.8218L87.4934 25Z" stroke="#1D1D1B" stroke-width="0.51717" stroke-linejoin="round"/>
<path d="M71.787 31.3046L106.408 49.6742L106.264 70.9655" stroke="#1D1D1B" stroke-width="0.51717" stroke-linejoin="round"/>
<mask id="mask1_1_1292" style="mask-type:alpha" maskUnits="userSpaceOnUse" x="2" y="-39" width="203" height="137">
<path d="M36.2797 -38.5129L2.73376 -17.0201L15.1689 65.4585L26.7365 79.1601L75.7541 80.7049L106.408 97.3619L121.663 89.2349L203.431 47.4583L204.588 -36.095L36.2797 -38.5129Z" fill="#F4F8AC"/>
<path d="M36.2797 -38.5129L2.73376 -17.0201L15.1689 65.4585L26.7365 79.1601L75.7541 80.7049L106.408 97.3619L121.663 89.2349L203.431 47.4583L204.588 -36.095L36.2797 -38.5129Z" stroke="#1D1D1B" stroke-width="0.51717"/>
</mask>
<g mask="url(#mask1_1_1292)">
<path d="M86.0317 91.4082C85.7146 91.2372 85.4273 91.2217 85.2195 91.3341L84.2798 91.8434C84.4871 91.7308 84.775 91.7469 85.0921 91.9173L97.3073 98.4962L98.2469 97.9871L86.0317 91.4082Z" fill="#F4F8AC"/>
<path d="M86.0304 91.4083C85.7131 91.2373 85.4259 91.2218 85.218 91.3343L84.2784 91.8435C84.4856 91.7309 84.7735 91.7471 85.0906 91.9174L97.3058 98.4963L98.2456 97.9872L86.0304 91.4083Z" fill="#1D1D1B"/>
<path d="M86.0304 91.4083C85.7131 91.2373 85.4259 91.2218 85.218 91.3343L84.2784 91.8435C84.4856 91.7309 84.7735 91.7471 85.0906 91.9174L97.3058 98.4963L98.2456 97.9872L86.0304 91.4083Z" stroke="#1D1D1B" stroke-width="0.51717" stroke-miterlimit="10"/>
<path d="M112.117 103.396L99.7457 96.733C99.4344 96.5651 99.1439 96.5446 98.9334 96.659L97.9938 97.1681C98.2043 97.0538 98.4948 97.0749 98.8061 97.2421L111.178 103.906C111.808 104.245 112.317 105.068 112.315 105.743L112.262 130.255C112.261 130.591 112.134 130.827 111.929 130.938L112.868 130.429C113.073 130.317 113.2 130.082 113.202 129.746L113.255 105.234C113.257 104.558 112.748 103.736 112.117 103.396Z" fill="#1D1D1B"/>
<path d="M112.117 103.396L99.7457 96.733C99.4344 96.5651 99.1439 96.5446 98.9334 96.659L97.9938 97.1681C98.2043 97.0538 98.4948 97.0749 98.8061 97.2421L111.178 103.906C111.808 104.245 112.317 105.068 112.315 105.743L112.262 130.255C112.261 130.591 112.134 130.827 111.929 130.938L112.868 130.429C113.073 130.317 113.2 130.082 113.202 129.746L113.255 105.234C113.257 104.558 112.748 103.736 112.117 103.396Z" stroke="#1D1D1B" stroke-width="0.51717" stroke-miterlimit="10"/>
<path d="M111.179 103.906C111.809 104.246 112.318 105.068 112.316 105.744L112.31 130.238C112.308 130.914 111.795 131.186 111.165 130.847L85.0835 116.799C84.453 116.46 83.9439 115.637 83.9459 114.962L83.9461 92.5268C83.9481 91.8511 84.4605 91.5788 85.0908 91.9183L97.306 98.4972L97.7306 97.4722C97.8951 97.0748 98.3256 96.9829 98.8068 97.2421L111.179 103.906Z" fill="#F4F8AC"/>
<path d="M111.179 103.906C111.809 104.246 112.318 105.068 112.316 105.744L112.31 130.238C112.308 130.914 111.795 131.186 111.165 130.847L85.0835 116.799C84.453 116.46 83.9439 115.637 83.9459 114.962L83.9461 92.5268C83.9481 91.8511 84.4605 91.5788 85.0908 91.9183L97.306 98.4972L97.7306 97.4722C97.8951 97.0748 98.3256 96.9829 98.8068 97.2421L111.179 103.906Z" stroke="#1D1D1B" stroke-width="0.51717" stroke-miterlimit="10"/>
</g>
<mask id="mask2_1_1292" style="mask-type:alpha" maskUnits="userSpaceOnUse" x="2" y="-39" width="203" height="137">
<path d="M36.1355 -38.5129L2.58948 -17.0201L15.0246 65.4585L26.5922 79.1601L75.6098 80.7049L106.264 97.3619L121.519 89.2349L203.287 47.4583L204.444 -36.095L36.1355 -38.5129Z" fill="#F4F8AC"/>
<path d="M36.1355 -38.5129L2.58948 -17.0201L15.0246 65.4585L26.5922 79.1601L75.6098 80.7049L106.264 97.3619L121.519 89.2349L203.287 47.4583L204.444 -36.095L36.1355 -38.5129Z" stroke="#1D1D1B" stroke-width="0.51717"/>
</mask>
<g mask="url(#mask2_1_1292)">
<path d="M65.1555 97.5078C64.8383 97.3368 64.5511 97.3213 64.3432 97.4338L63.4034 97.943C63.6106 97.8304 63.8987 97.8466 64.2159 98.0169L76.431 104.596L77.3706 104.087L65.1555 97.5078Z" fill="#1D1D1B"/>
<path d="M65.1555 97.5078C64.8383 97.3368 64.5511 97.3213 64.3432 97.4338L63.4034 97.943C63.6106 97.8304 63.8987 97.8466 64.2159 98.0169L76.431 104.596L77.3706 104.087L65.1555 97.5078Z" stroke="#1D1D1B" stroke-width="0.51717" stroke-miterlimit="10"/>
<path d="M90.3037 110.005C90.9342 110.344 91.4433 111.167 91.4413 111.842L91.3879 135.204C91.3859 135.879 90.8735 136.152 90.2432 135.812L64.1616 121.765C63.5312 121.425 63.0219 120.602 63.0239 119.927L63.0712 98.6254C63.0732 97.9498 63.5857 97.6775 64.2161 98.0169L76.4313 104.596L76.8557 103.571C77.0204 103.173 77.4509 103.082 77.9319 103.341L90.3037 110.005Z" stroke="#1D1D1B" stroke-width="0.51717" stroke-miterlimit="10"/>
</g>
</g>
</g>
<defs>
<clipPath id="clip0_1_1292">
<rect width="213.13" height="130" fill="white" transform="translate(0.220947)"/>
</clipPath>
</defs>
</svg>
