<svg width="224" height="93" viewBox="0 0 224 93" fill="none" xmlns="http://www.w3.org/2000/svg">
<path d="M223.445 56.2447C223.436 56.5667 223.424 57.2237 223.452 57.8067C223.49 58.6487 222.707 59.4937 221.1 60.1337L143.994 90.8567C140.846 92.1147 135.716 92.1077 132.535 90.8397L2.39325 38.9877C0.780695 38.3447 -0.0178495 37.5017 0.000427743 36.6627C0.0130845 36.0037 0.00465381 35.2547 0.00183286 34.9957C-0.0431522 34.1507 0.739925 33.3027 2.35248 32.6597L79.4583 1.93777C82.6117 0.680772 87.7418 0.688772 90.9176 1.95377L221.059 53.8067C222.615 54.4267 223.414 55.2347 223.452 56.0447V56.0467C223.455 56.1127 223.452 56.1787 223.445 56.2447Z" fill="#1D1D1B"/>
<path d="M223.445 56.2447C223.436 56.5667 223.424 57.2237 223.452 57.8067C223.49 58.6487 222.707 59.4937 221.1 60.1337L143.994 90.8567C140.846 92.1147 135.716 92.1077 132.535 90.8397L2.39325 38.9877C0.780695 38.3447 -0.0178495 37.5017 0.000427743 36.6627C0.0130845 36.0037 0.00465381 35.2547 0.00183286 34.9957C-0.0431522 34.1507 0.739925 33.3027 2.35248 32.6597L79.4583 1.93777C82.6117 0.680772 87.7418 0.688772 90.9176 1.95377L221.059 53.8067C222.615 54.4267 223.414 55.2347 223.452 56.0447V56.0467C223.455 56.1127 223.452 56.1787 223.445 56.2447Z" stroke="#1D1D1B" stroke-width="0.973" stroke-miterlimit="10"/>
<path d="M2.39445 37.2257L132.534 89.0787C135.715 90.3467 140.846 90.3537 143.992 89.0947L221.1 58.3727C224.252 57.1167 224.235 55.0727 221.059 53.8077L90.9188 1.95375C87.7429 0.688757 82.6129 0.681757 79.4595 1.93876L2.35368 32.6607C-0.799732 33.9167 -0.781454 35.9607 2.39445 37.2257Z" fill="white"/>
<path d="M2.39445 37.2257L132.534 89.0787C135.715 90.3467 140.846 90.3537 143.992 89.0947L221.1 58.3727C224.252 57.1167 224.235 55.0727 221.059 53.8077L90.9188 1.95375C87.7429 0.688757 82.6129 0.681757 79.4595 1.93876L2.35368 32.6607C-0.799732 33.9167 -0.781454 35.9607 2.39445 37.2257Z" stroke="#1D1D1B" stroke-miterlimit="10"/>
<path d="M166.845 41.7678C170.203 40.4308 175.141 40.4308 178.362 41.7148C181.661 43.0288 181.661 44.9958 178.31 46.3358C176.734 46.9638 174.738 47.2898 172.725 47.3058C173.027 47.5428 173.425 47.7808 173.908 48.0198L172.029 48.6198C171.043 48.1288 170.349 47.6338 169.94 47.1268C168.801 46.9658 167.727 46.7008 166.788 46.3268C163.565 45.0428 163.623 43.0518 166.845 41.7678ZM176.723 42.3678C174.486 41.4768 171.071 41.5308 168.662 42.4918C166.314 43.4268 166.256 44.7608 168.486 45.6498C168.814 45.7798 169.158 45.8898 169.514 45.9798C169.536 45.3708 169.964 44.7448 170.769 44.0988L172.923 44.5238C172.129 45.1618 171.801 45.7478 171.953 46.3148C173.536 46.3688 175.164 46.1338 176.483 45.6078C178.894 44.6478 179.017 43.2818 176.723 42.3678ZM198.112 53.7078L194.714 55.0618C193.412 55.5798 194.049 56.2108 195.829 56.4458L194.183 57.1018C191.54 56.5178 190.605 55.3918 193.355 54.2968L200.068 51.6218L201.708 52.2748L199.694 53.0778L201.807 53.9198L200.225 54.5498L198.112 53.7078ZM206.511 55.6508C204.217 54.7368 200.639 54.7628 198.35 55.6738C195.998 56.6118 196.055 57.9888 198.35 58.9028C200.702 59.8398 204.158 59.8628 206.511 58.9258C208.805 58.0118 208.863 56.5878 206.511 55.6508ZM199.99 58.2488C198.706 57.7368 198.7 56.8878 200.048 56.3508C201.467 55.7858 203.58 55.7908 204.87 56.3048C206.23 56.8468 206.23 57.6838 204.811 58.2488C203.469 58.7838 201.35 58.7908 199.99 58.2488ZM194.066 50.6938C193.418 50.4358 192.437 50.2078 191.042 50.2988L191.877 49.9658L190.296 49.3358L182.49 52.4458L184.072 53.0758L188.538 51.2968C189.629 50.8618 191.211 50.8318 192.216 51.2318C193.22 51.6318 193.22 52.2918 192.127 52.7268L187.662 54.5068L189.361 55.1828L193.944 53.3578C195.881 52.5848 195.776 51.3758 194.066 50.6938ZM185.473 47.2678C183.179 46.3538 179.601 46.3788 177.312 47.2908C174.96 48.2288 175.018 49.6058 177.312 50.5198C179.664 51.4568 183.121 51.4798 185.473 50.5428C187.768 49.6288 187.825 48.2048 185.473 47.2678ZM178.953 49.8658C177.651 49.3468 177.662 48.5048 179.01 47.9678C180.429 47.4028 182.531 47.4028 183.833 47.9208C185.175 48.4558 185.194 49.3008 183.775 49.8658C182.432 50.4008 180.301 50.4028 178.953 49.8658Z" fill="#1D1D1B"/>
<path d="M73.1669 18.7158C71.8693 18.1988 69.7647 18.1988 68.4671 18.7158L59.3949 22.3307C58.0973 22.8477 58.0973 23.6857 59.3949 24.2027L73.3019 29.7437C74.5995 30.2607 76.7042 30.2607 78.0018 29.7437L87.0726 26.1297C88.3716 25.6117 88.3716 24.7737 87.0726 24.2567L73.1669 18.7158Z" fill="white"/>
<path d="M73.1669 18.7158C71.8693 18.1988 69.7647 18.1988 68.4671 18.7158L59.3949 22.3307C58.0973 22.8477 58.0973 23.6857 59.3949 24.2027L73.3019 29.7437C74.5995 30.2607 76.7042 30.2607 78.0018 29.7437L87.0726 26.1297C88.3716 25.6117 88.3716 24.7737 87.0726 24.2567L73.1669 18.7158Z" stroke="#1D1D1B" stroke-width="0.5"/>
<path d="M76.6451 21.0947L81.3323 22.9627" stroke="#1D1D1B" stroke-width="0.5"/>
<path d="M65.218 25.6488L69.9053 27.5168" stroke="#1D1D1B" stroke-width="0.5"/>
<path d="M80.3173 28.8657L74.5053 26.5487L74.5124 26.5297C74.6262 26.2227 75.1394 25.8897 76.0448 25.5297C76.946 25.1707 77.864 24.9327 78.8017 24.8157L78.8608 24.8077L84.6783 27.1247" stroke="#1D1D1B" stroke-width="0.5"/>
<path d="M70.4536 28.5778C70.4606 28.1048 70.9639 27.6698 71.9677 27.2698C72.9757 26.8678 73.8685 26.6378 74.6375 26.5758" stroke="#1D1D1B" stroke-width="0.5"/>
<path d="M66.0039 19.6958L71.7203 21.9738L71.7737 21.9698C72.6622 21.9028 73.5831 21.6768 74.5391 21.2968C75.5007 20.9138 76.011 20.4248 76.0701 19.8338" stroke="#1D1D1B" stroke-width="0.5"/>
<path d="M61.8158 21.3657L67.3649 23.5757H67.4113C68.4179 23.5487 69.3486 23.3637 70.2019 23.0237C71.0497 22.6857 71.6022 22.3237 71.8539 21.9397" stroke="#1D1D1B" stroke-width="0.5"/>
<path d="M62.3022 25.3917C63.6125 25.3887 64.7246 25.2057 65.6328 24.8437C66.534 24.4847 67.1582 24.0507 67.5054 23.5437" stroke="#1D1D1B" stroke-width="0.5"/>
<path d="M87.1653 29.0488C87.1302 29.1368 87.0669 29.2228 86.9615 29.3068C86.8617 29.3888 86.7281 29.4638 86.5524 29.5338C86.3836 29.6008 86.1854 29.6578 85.9802 29.6978C85.7819 29.7398 85.5584 29.7678 85.3306 29.7788C85.027 29.7978 84.8175 29.9088 84.8639 30.0298C84.9103 30.1508 85.1915 30.2348 85.4951 30.2168C85.8269 30.1958 86.1615 30.1558 86.4764 30.0958C86.7857 30.0328 87.0782 29.9478 87.334 29.8458C87.5913 29.7428 87.8022 29.6268 87.9596 29.5038C88.1115 29.3778 88.2141 29.2488 88.2619 29.1138C88.3083 28.9928 88.0974 28.8808 87.7952 28.8628C87.4915 28.8438 87.2117 28.9278 87.1653 29.0488Z" fill="#1D1D1B"/>
<path d="M89.2418 29.2898C89.0605 29.5988 88.6696 29.8908 88.0623 30.1328C87.4564 30.3748 86.7253 30.5308 85.9492 30.6028C85.6512 30.6328 85.4712 30.7518 85.5415 30.8678C85.6175 30.9858 85.9085 31.0598 86.2121 31.0318C87.1752 30.9408 88.0974 30.7468 88.851 30.4468C89.6031 30.1468 90.0994 29.7818 90.3215 29.3958C90.3918 29.2748 90.2049 29.1578 89.9068 29.1278C89.6158 29.0998 89.3121 29.1738 89.2418 29.2898Z" fill="#1D1D1B"/>
<path d="M91.4083 29.5627C91.1159 30.0047 90.5381 30.4257 89.6692 30.7727C88.7934 31.1207 87.7474 31.3517 86.6325 31.4657C86.3345 31.4957 86.1587 31.6167 86.2347 31.7347C86.3106 31.8537 86.6142 31.9237 86.9123 31.8937C88.2085 31.7587 89.4345 31.4887 90.4509 31.0837C91.466 30.6787 92.1422 30.1907 92.481 29.6747C92.5569 29.5557 92.3812 29.4347 92.0845 29.4047C91.7921 29.3717 91.4955 29.4437 91.4083 29.5627Z" fill="#1D1D1B"/>
<path d="M93.579 29.8317C93.1769 30.4107 92.4121 30.9577 91.2733 31.4107C90.1289 31.8667 88.7568 32.1717 87.3101 32.3297C87.0177 32.3627 86.842 32.4827 86.9249 32.5997C87.0065 32.7157 87.3101 32.7857 87.6012 32.7527C89.2362 32.5757 90.7714 32.2297 92.055 31.7177C93.3344 31.2087 94.2032 30.5927 94.6531 29.9437C94.7346 29.8267 94.5659 29.7037 94.2679 29.6737C93.9698 29.6437 93.6662 29.7127 93.579 29.8317Z" fill="#1D1D1B"/>
<path d="M128.858 76.4937C131.795 75.3237 135.786 74.8307 139.618 75.0037C139.297 73.8887 138.057 72.8107 135.902 71.9517C130.81 69.9217 122.574 69.9317 117.504 71.9517C112.412 73.9807 112.436 77.2617 117.504 79.2817C119.661 80.1407 122.367 80.6337 125.165 80.7617C124.66 79.2627 125.899 77.6727 128.858 76.4937Z" fill="white"/>
<path d="M128.858 76.4937C131.795 75.3237 135.786 74.8307 139.618 75.0037C139.297 73.8887 138.057 72.8107 135.902 71.9517C130.81 69.9217 122.574 69.9317 117.504 71.9517C112.412 73.9807 112.436 77.2617 117.504 79.2817C119.661 80.1407 122.367 80.6337 125.165 80.7617C124.66 79.2627 125.899 77.6727 128.858 76.4937Z" stroke="#1D1D1B" stroke-width="0.5"/>
<path d="M147.259 83.8247C142.165 85.8537 133.929 85.8447 128.86 83.8247C126.703 82.9657 125.464 81.8867 125.144 80.7717C128.974 80.9457 132.965 80.4517 135.902 79.2827C138.837 78.1127 140.079 76.5217 139.643 74.9957C142.441 75.1237 145.148 75.6167 147.303 76.4767C152.328 78.5147 152.328 81.8047 147.259 83.8247Z" fill="white"/>
<path d="M147.259 83.8247C142.165 85.8537 133.929 85.8447 128.86 83.8247C126.703 82.9657 125.464 81.8867 125.144 80.7717C128.974 80.9457 132.965 80.4517 135.902 79.2827C138.837 78.1127 140.079 76.5217 139.643 74.9957C142.441 75.1237 145.148 75.6167 147.303 76.4767C152.328 78.5147 152.328 81.8047 147.259 83.8247Z" stroke="#1D1D1B" stroke-width="0.5"/>
</svg>
