<svg width="214" height="130" viewBox="0 0 214 130" fill="none" xmlns="http://www.w3.org/2000/svg">
<g clip-path="url(#clip0_1_1075)">
<mask id="mask0_1_1075" style="mask-type:luminance" maskUnits="userSpaceOnUse" x="0" y="0" width="214" height="130">
<path d="M213.221 0H0.110596V130H213.221V0Z" fill="white"/>
</mask>
<g mask="url(#mask0_1_1075)">
<path d="M118.171 76.6165L120.298 75.9344L122.413 78.9064L124.54 78.2243L126.654 81.1962L128.783 80.5151L130.923 83.4713L133.05 82.7892L135.165 85.7611L137.293 85.079L139.406 88.05L141.535 87.3679L143.676 90.3241L145.805 89.6429L147.947 92.5991L150.073 91.9179L152.216 94.8741L154.344 94.192L156.458 97.164L158.586 96.4818L160.727 99.438L161.172 23.3832L159.044 24.0653L156.931 21.0933L154.802 21.7755L152.662 18.8193L150.533 19.5004L148.328 16.5067L146.201 17.1888L144.071 14.1911L141.943 14.8732L139.785 11.8893L137.656 12.5714L135.544 9.59945L133.416 10.2816L131.273 7.32542L129.146 8.00654L127.033 5.03654L124.904 5.71766L122.791 2.74667L120.663 3.42779L118.385 0.437988L118.171 76.6165Z" fill="white"/>
<path d="M118.171 76.6165L118.385 0.437988L120.663 3.42779L122.791 2.74568L124.904 5.71766L127.033 5.03555L129.146 8.00753L131.273 7.32542L133.416 10.2816L135.544 9.60044L137.656 12.5714L139.785 11.8893L141.943 14.8722L144.072 14.1911L146.201 17.1888L148.33 16.5067L150.533 19.5014L152.662 18.8193L154.802 21.7755L156.931 21.0933L159.044 24.0653L161.172 23.3832L160.727 99.438L158.586 96.4818L156.457 97.163L154.344 94.192L152.216 94.8731L150.073 91.9179L147.947 92.5991L145.805 89.6429L143.676 90.325L141.533 87.3689L139.406 88.05L137.293 85.079L135.165 85.7601L133.052 82.7892L130.923 83.4703L128.782 80.5141L126.654 81.1962L124.54 78.2243L122.411 78.9064L120.298 75.9354L118.171 76.6165Z" stroke="#1D1D1B" stroke-width="0.495" stroke-linejoin="round"/>
<path d="M124.592 70.3895L125.314 70.7775L125.313 63.0466L124.592 62.6595V70.3895Z" fill="#1D1D1B"/>
<path d="M140.62 78.9886L141.342 79.3767L141.341 71.6458L140.62 71.2587V78.9886Z" fill="#1D1D1B"/>
<path d="M147.825 82.8525L148.545 83.2386V75.5087L147.825 75.1226V82.8525Z" fill="#1D1D1B"/>
<path d="M126.032 71.1636L126.755 71.5507L126.754 63.8208L126.032 63.4347V71.1636Z" fill="#1D1D1B"/>
<path d="M142.062 79.7628L142.783 80.1499V72.419L142.062 72.0319V79.7628Z" fill="#1D1D1B"/>
<path d="M149.266 83.6277L149.986 84.0148V76.2849L149.266 75.8988V83.6277Z" fill="#1D1D1B"/>
<path d="M130.715 73.6762L131.076 73.8693V66.1403L130.715 65.9463V73.6762Z" fill="#1D1D1B"/>
<path d="M146.744 82.2743L147.104 82.4674V74.7385L146.744 74.5454V82.2743Z" fill="#1D1D1B"/>
<path d="M153.948 86.1384L154.308 86.3304L154.307 78.6025L153.948 78.4084V86.1384Z" fill="#1D1D1B"/>
<path d="M134.317 75.6077L135.039 75.9948L135.038 68.2639L134.317 67.8768V75.6077Z" fill="#1D1D1B"/>
<path d="M135.759 76.3799L136.479 76.767V69.0371L135.759 68.651V76.3799Z" fill="#1D1D1B"/>
<path d="M137.199 77.1521L137.92 77.5392V69.8093L137.199 69.4232V77.1521Z" fill="#1D1D1B"/>
<path d="M140.081 70.9695L138.28 70.0023V77.7312L140.081 78.6975V70.9695Z" fill="#1D1D1B"/>
<path d="M129.635 65.3652L127.474 64.2059V71.9349L129.635 73.0942V65.3652Z" fill="#1D1D1B"/>
<path d="M145.664 73.9643L143.503 72.8051V80.534L145.664 81.6933V73.9643Z" fill="#1D1D1B"/>
<path d="M152.867 77.8282L150.706 76.6689V84.3989L152.867 85.5591V77.8282Z" fill="#1D1D1B"/>
<path d="M133.597 67.4927L132.156 66.7195V74.4494L133.597 75.2216V67.4927Z" fill="#1D1D1B"/>
<path d="M146.382 64.6622V69.4875L155.893 74.59V69.7637L146.382 64.6622Z" fill="#EBEBE8"/>
<path d="M123.006 40.5558V42.6813L146.779 55.4335V53.309L123.006 40.5558Z" fill="#EBEBE8"/>
<path d="M150.74 55.4344V57.56L155.891 60.3231V58.1975L150.74 55.4344Z" fill="#EBEBE8"/>
<path d="M123.006 33.7545V35.881L139.249 44.595V42.4705L123.006 33.7545Z" fill="#EBEBE8"/>
<path d="M150.74 48.6342V50.7597L155.891 53.5228V51.3972L150.74 48.6342Z" fill="#EBEBE8"/>
<path d="M123.005 26.9531V29.0787L142.816 39.7063V37.5808L123.005 26.9531Z" fill="#EBEBE8"/>
<path d="M150.741 41.8339V43.9594L155.892 46.7225V44.597L150.741 41.8339Z" fill="#EBEBE8"/>
<path d="M123.007 43.9564V46.082L134.496 52.2467V50.1212L123.007 43.9564Z" fill="#EBEBE8"/>
<path d="M150.741 58.8341V60.9596L155.892 63.7227V61.5972L150.741 58.8341Z" fill="#EBEBE8"/>
<path d="M123.006 37.1561V39.2817L134.495 45.4464V43.3209L123.006 37.1561Z" fill="#EBEBE8"/>
<path d="M150.74 52.0328V54.1584L155.891 56.9215V54.7959L150.74 52.0328Z" fill="#EBEBE8"/>
<path d="M123.007 30.3538V32.4803L131.724 37.157V35.0305L123.007 30.3538Z" fill="#EBEBE8"/>
<path d="M150.74 45.2325V47.3581L155.891 50.1212V47.9956L150.74 45.2325Z" fill="#EBEBE8"/>
<path d="M132.909 19.939V24.19L146.382 31.417V27.167L132.909 19.939Z" fill="#EBEBE8"/>
<path d="M128.552 22.7051V24.8306L150.739 36.7334V34.6078L128.552 22.7051Z" fill="#EBEBE8"/>
<path d="M160.497 23.7036L88.04 35.5836L118.408 2.41858" stroke="black" stroke-width="0.99" stroke-dasharray="2.97 5.94"/>
<path d="M158.899 96.9636L88.04 35.5836L117.875 77.1636" stroke="black" stroke-width="0.99" stroke-dasharray="2.97 5.94"/>
<mask id="mask1_1_1075" style="mask-type:alpha" maskUnits="userSpaceOnUse" x="97" y="0" width="71" height="102">
<mask id="mask2_1_1075" style="mask-type:alpha" maskUnits="userSpaceOnUse" x="97" y="-3" width="71" height="105">
<path d="M99.1317 24.2505L119.851 -0.249512" stroke="white" stroke-width="4" stroke-linecap="round"/>
<path d="M104.782 32.5005L165.056 23.0005" stroke="white" stroke-width="4" stroke-linecap="round"/>
<path d="M106.128 50.2505L161.423 99.3754" stroke="white" stroke-width="4" stroke-linecap="round"/>
<path d="M103.706 58.0005C105.051 58.7505 118.505 77.0005 118.505 77.0005" stroke="white" stroke-width="4" stroke-linecap="round"/>
</mask>
<g mask="url(#mask2_1_1075)">
<path d="M213.221 0.000488281H0.111023V130H213.221V0.000488281Z" fill="white"/>
</g>
</mask>
<g mask="url(#mask1_1_1075)">
<path d="M160.497 23.7036L88.04 35.5836L118.408 2.41858" stroke="black" stroke-width="0.99" stroke-dasharray="2.97 5.94"/>
<path d="M158.899 96.9636L88.04 35.5836L117.875 77.1636" stroke="black" stroke-width="0.99" stroke-dasharray="2.97 5.94"/>
</g>
<path d="M98.0669 128.86L98.0381 128.845C97.987 128.829 97.9411 128.813 97.8889 128.792L56.5861 106.848C54.2579 105.421 52.8652 102.998 52.8769 100.409L52.9057 5.00152C52.9174 4.8253 52.9462 4.66096 52.9856 4.50058C53.513 0.9643 58.047 -1.01174 61.5153 0.847476L61.5729 0.879161C61.6133 0.900937 61.6528 0.910839 61.6933 0.932622L102.957 22.8918C105.243 24.2976 106.614 26.6786 106.602 29.2298L106.527 124.297C106.527 124.478 106.505 124.648 106.476 124.818C106.195 128.568 101.644 130.778 98.0669 128.86Z" fill="#FDFFD0"/>
<path d="M98.0669 128.861L98.0381 128.845C97.987 128.829 97.9411 128.814 97.8889 128.793L56.5861 106.849C54.2579 105.422 52.8652 102.999 52.8769 100.41L52.9057 5.00155C52.9174 4.82533 52.9462 4.66099 52.9856 4.50061C53.513 0.964328 58.047 -1.01072 61.5153 0.848501L61.5729 0.880178C61.6133 0.901962 61.6528 0.911864 61.6933 0.933639L102.957 22.8918C105.243 24.2976 106.614 26.6786 106.602 29.2298L106.527 124.298C106.527 124.479 106.505 124.648 106.476 124.818C106.195 128.568 101.644 130.779 98.0669 128.861Z" stroke="#1D1D1B" stroke-width="0.99"/>
<path d="M102.257 27.324C101.626 26.3073 100.744 25.4282 99.6545 24.7569C84.1881 16.4667 74.076 10.9742 58.6095 2.6839C57.1934 1.94339 55.8285 1.83053 54.7629 2.36908C53.8284 2.83735 53.2498 3.75409 53.1688 4.88764V4.89358L53.1401 100.301C53.1294 102.937 54.5391 105.384 56.9068 106.837L97.9923 128.899C99.305 129.443 100.784 129.374 101.867 128.725C102.772 128.181 103.271 127.308 103.277 126.27L103.352 31.2018C103.357 29.8059 102.974 28.4793 102.257 27.324Z" fill="#FDFFD0"/>
<path d="M102.257 27.324C101.626 26.3073 100.744 25.4282 99.6545 24.7569C84.1881 16.4667 74.076 10.9742 58.6095 2.6839C57.1934 1.94339 55.8285 1.83053 54.7629 2.36908C53.8284 2.83735 53.2498 3.75409 53.1688 4.88764V4.89358L53.1401 100.301C53.1294 102.937 54.5391 105.384 56.9068 106.837L97.9923 128.899C99.305 129.443 100.784 129.374 101.867 128.725C102.772 128.181 103.271 127.308 103.277 126.27L103.352 31.2018C103.357 29.8059 102.974 28.4793 102.257 27.324Z" stroke="#1D1D1B" stroke-width="0.495"/>
<path d="M97.2794 125.854L57.7528 105.208C56.0693 104.206 55.057 102.51 55.0634 100.692L55.1326 7.0855C55.252 5.50744 56.8514 4.55506 58.9377 5.60446L66.9933 9.81493L66.9869 11.0891C66.9805 12.582 67.9832 14.3204 69.2277 14.9709L87.0629 24.2937C88.3075 24.9441 89.3134 24.262 89.3198 22.7691L89.3251 21.5019L98.4366 26.2668C100.096 27.2528 101.086 28.9219 101.074 30.7128L100.967 124.085C100.973 125.78 98.8617 126.792 97.2794 125.854Z" fill="white"/>
<path d="M97.2794 125.854L57.7528 105.208C56.0693 104.206 55.057 102.51 55.0634 100.692L55.1326 7.0855C55.252 5.50744 56.8514 4.55506 58.9377 5.60446L66.9933 9.81493L66.9869 11.0891C66.9805 12.582 67.9832 14.3204 69.2277 14.9709L87.0629 24.2937C88.3075 24.9441 89.3134 24.262 89.3198 22.7691L89.3251 21.5019L98.4366 26.2668C100.096 27.2528 101.086 28.9219 101.074 30.7128L100.967 124.085C100.973 125.78 98.8617 126.792 97.2794 125.854Z" stroke="#1D1D1B" stroke-width="0.495" stroke-miterlimit="10"/>
<path d="M76.2413 96.4666C79.2983 98.1071 81.7779 102.096 81.7779 105.376C81.7779 108.656 79.2994 109.985 76.2413 108.346C73.1842 106.705 70.7068 102.717 70.7068 99.4356C70.7068 96.1558 73.1842 94.8262 76.2413 96.4666Z" fill="#FDFFD0"/>
<path d="M76.2413 96.4666C79.2983 98.1071 81.7779 102.096 81.7779 105.376C81.7779 108.656 79.2994 109.985 76.2413 108.346C73.1842 106.705 70.7068 102.717 70.7068 99.4356C70.7068 96.1558 73.1842 94.8262 76.2413 96.4666Z" stroke="#1D1D1B" stroke-width="0.495"/>
<path d="M76.2413 97.5556C78.7378 98.8951 80.7613 102.151 80.7613 104.83C80.7613 107.508 78.7378 108.593 76.2413 107.254C73.7447 105.914 71.7212 102.657 71.7212 99.9791C71.7212 97.3012 73.7447 96.2161 76.2413 97.5556Z" fill="white"/>
<path d="M76.2413 97.5556C78.7378 98.8951 80.7613 102.151 80.7613 104.83C80.7613 107.508 78.7378 108.593 76.2413 107.254C73.7447 105.914 71.7212 102.657 71.7212 99.9791C71.7212 97.3012 73.7447 96.2161 76.2413 97.5556Z" stroke="#1D1D1B" stroke-width="0.495"/>
<path d="M83.3101 19.2783L75.4709 14.9698C75.2194 14.8312 75.0127 14.9748 75.0127 15.2896C75.0127 15.6034 75.213 15.9717 75.4656 16.1044L83.3048 20.4128C83.5563 20.5514 83.763 20.4069 83.763 20.0931C83.763 19.7793 83.5627 19.411 83.3101 19.2783Z" fill="white"/>
<path d="M83.3101 19.2783L75.4709 14.9698C75.2194 14.8312 75.0127 14.9748 75.0127 15.2896C75.0127 15.6034 75.213 15.9717 75.4656 16.1044L83.3048 20.4129C83.5563 20.5514 83.763 20.4069 83.763 20.0931C83.763 19.7792 83.5627 19.411 83.3101 19.2783Z" stroke="#1D1D1B" stroke-width="0.495"/>
<path d="M73.2896 13.7066L73.2438 13.6799C72.9913 13.5413 72.7845 13.6858 72.7845 13.9997C72.7845 14.3135 72.9859 14.6818 73.2385 14.8154L73.2843 14.8421C73.5358 14.9807 73.7425 14.8362 73.7425 14.5224C73.7425 14.2135 73.5422 13.8452 73.2896 13.7066Z" fill="white"/>
<path d="M73.2896 13.7066L73.2438 13.6799C72.9913 13.5413 72.7845 13.6858 72.7845 13.9997C72.7845 14.3135 72.9859 14.6818 73.2385 14.8154L73.2843 14.8421C73.5358 14.9807 73.7425 14.8362 73.7425 14.5224C73.7425 14.2135 73.5422 13.8452 73.2896 13.7066Z" stroke="#1D1D1B" stroke-width="0.495"/>
<path d="M61.0966 79.9751L61.2649 20.4642L63.0433 22.8006L64.7056 22.268L66.3572 24.5886L68.0194 24.0569L69.67 26.3775L71.3322 25.8449L73.0062 28.1546L74.6685 27.6219L76.319 29.9435L77.9813 29.4109L79.668 31.7413L81.3303 31.2087L82.9936 33.5501L84.6569 33.0174L86.3778 35.3568L88.0401 34.8242L89.713 37.1339L91.3763 36.6012L93.0268 38.9228L94.6891 38.3902L94.3417 97.803L92.6688 95.4934L91.0055 96.026L89.3549 93.7044L87.6927 94.2371L86.0198 91.9284L84.3564 92.461L82.6835 90.1513L81.0213 90.684L79.3484 88.3743L77.6861 88.9069L76.0345 86.5854L74.3722 87.118L72.7217 84.7974L71.0584 85.329L69.3855 83.0204L67.7232 83.553L66.0727 81.2314L64.4104 81.764L62.7588 79.4425L61.0966 79.9751Z" fill="white"/>
<path d="M61.0966 79.9751L61.2649 20.4642L63.0433 22.8006L64.7056 22.268L66.3572 24.5886L68.0194 24.0569L69.67 26.3775L71.3322 25.8449L73.0062 28.1546L74.6685 27.6219L76.319 29.9435L77.9813 29.4109L79.668 31.7413L81.3303 31.2087L82.9936 33.5501L84.6569 33.0174L86.3778 35.3568L88.0401 34.8242L89.713 37.1339L91.3763 36.6012L93.0268 38.9228L94.6891 38.3902L94.3417 97.803L92.6688 95.4934L91.0055 96.026L89.3549 93.7044L87.6927 94.2371L86.0198 91.9284L84.3564 92.461L82.6835 90.1513L81.0213 90.6839L79.3484 88.3743L77.6861 88.9069L76.0345 86.5853L74.3722 87.118L72.7217 84.7974L71.0584 85.329L69.3855 83.0204L67.7232 83.553L66.0727 81.2314L64.4104 81.764L62.7588 79.4425L61.0966 79.9751Z" stroke="#1D1D1B" stroke-width="0.44649" stroke-linejoin="round"/>
<path d="M66.1143 75.1113L66.6769 75.4132V69.3752L66.1143 69.0732V75.1113Z" fill="#1D1D1B"/>
<path d="M78.6355 81.8294L79.1981 82.1313V76.0933L78.6355 75.7914V81.8294Z" fill="#1D1D1B"/>
<path d="M84.2627 84.8479L84.8253 85.1499V79.1119L84.2627 78.8099V84.8479Z" fill="#1D1D1B"/>
<path d="M67.2395 75.7151L67.8021 76.0171V69.9791L67.2395 69.6771V75.7151Z" fill="#1D1D1B"/>
<path d="M79.7607 82.4313L80.3234 82.7342V76.6952L79.7607 76.3943V82.4313Z" fill="#1D1D1B"/>
<path d="M85.3889 85.4528L85.9515 85.7548V79.7167L85.3889 79.4148V85.4528Z" fill="#1D1D1B"/>
<path d="M70.8975 77.6773L71.1799 77.8288V71.7908L70.8965 71.6393L70.8975 77.6773Z" fill="#1D1D1B"/>
<path d="M83.4188 84.3945L83.7001 84.5459V78.5079L83.4188 78.3564V84.3945Z" fill="#1D1D1B"/>
<path d="M89.047 87.414L89.3283 87.5645V81.5265L89.047 81.375V87.414Z" fill="#1D1D1B"/>
<path d="M73.7117 79.1861L74.2743 79.488V73.45L73.7117 73.1481V79.1861Z" fill="#1D1D1B"/>
<path d="M74.8368 79.7909L75.3994 80.0929V74.0549L74.8368 73.7529V79.7909Z" fill="#1D1D1B"/>
<path d="M75.962 80.3948L76.5246 80.6968V74.6588L75.962 74.3568V80.3948Z" fill="#1D1D1B"/>
<path d="M78.2146 75.5627L76.8059 74.8093L76.807 80.8473L78.2146 81.6007V75.5627Z" fill="#1D1D1B"/>
<path d="M70.0525 71.1859L68.3646 70.28V76.318L70.0525 77.2239V71.1859Z" fill="#1D1D1B"/>
<path d="M82.5738 77.903L80.886 76.9972V83.0352L82.5738 83.9411V77.903Z" fill="#1D1D1B"/>
<path d="M88.202 80.9236L86.5142 80.0177V86.0557L88.202 86.9616V80.9236Z" fill="#1D1D1B"/>
<path d="M73.149 72.8461L72.0238 72.2422V78.2812L73.149 78.8851V72.8461Z" fill="#1D1D1B"/>
<path d="M83.1375 70.6365V74.4064L90.5665 78.3921V74.6222L83.1375 70.6365Z" fill="#EBEBE8"/>
<path d="M64.875 51.8057V53.4659L83.4465 63.4283V61.768L64.875 51.8057Z" fill="#EBEBE8"/>
<path d="M86.5409 63.4282V65.0885L90.5665 67.2476V65.5864L86.5409 63.4282Z" fill="#EBEBE8"/>
<path d="M64.875 46.4923V48.1525L77.5657 54.9608V53.2995L64.875 46.4923Z" fill="#EBEBE8"/>
<path d="M86.5409 58.1149V59.7751L90.5665 61.9343V60.2731L86.5409 58.1149Z" fill="#EBEBE8"/>
<path d="M64.8739 41.178V42.8382L80.3499 51.1413V49.4811L64.8739 41.178Z" fill="#EBEBE8"/>
<path d="M86.5409 52.8026V54.4628L90.5665 56.622V54.9618L86.5409 52.8026Z" fill="#EBEBE8"/>
<path d="M64.875 54.4618V56.122L73.8512 60.9384V59.2781L64.875 54.4618Z" fill="#EBEBE8"/>
<path d="M86.5409 66.0845V67.7447L90.5665 69.9039V68.2427L86.5409 66.0845Z" fill="#EBEBE8"/>
<path d="M64.875 49.1484V50.8087L73.8512 55.625V53.9648L64.875 49.1484Z" fill="#EBEBE8"/>
<path d="M86.5409 60.7711V62.4313L90.5665 64.5905V62.9303L86.5409 60.7711Z" fill="#EBEBE8"/>
<path d="M64.8761 43.8342V45.4945L71.685 49.1485V47.4883L64.8761 43.8342Z" fill="#EBEBE8"/>
<path d="M86.5409 55.4578V57.118L90.5665 59.2772V57.617L86.5409 55.4578Z" fill="#EBEBE8"/>
<path d="M72.6119 35.6984V39.0198L83.1353 44.6658V41.3443L72.6119 35.6984Z" fill="#EBEBE8"/>
<path d="M69.2075 37.8575V39.5188L86.5398 48.8168V47.1556L69.2075 37.8575Z" fill="#EBEBE8"/>
<path d="M89.4151 53.9227L85.591 55.9877C85.0743 56.2657 84.7557 56.8577 84.7536 57.6987L84.7256 66.5417C84.7202 68.2357 86.0021 70.2987 87.5875 71.1487L112.891 84.3407C113.716 84.7827 114.463 84.8107 114.988 84.4967L118.759 82.4617C119.273 82.1827 119.594 81.5907 119.596 80.7507H119.598L119.625 71.9077C119.63 70.2137 118.349 68.1517 116.76 67.2997L91.459 54.1077C90.6615 53.6797 89.9382 53.6407 89.4151 53.9227Z" fill="#1D1D1B"/>
<path d="M89.4151 53.9227L85.591 55.9877C85.0743 56.2657 84.7557 56.8577 84.7536 57.6987L84.7256 66.5417C84.7202 68.2357 86.0021 70.2987 87.5875 71.1487L112.891 84.3407C113.716 84.7827 114.463 84.8107 114.988 84.4967L118.759 82.4617C119.273 82.1827 119.594 81.5907 119.596 80.7507H119.598L119.625 71.9077C119.63 70.2137 118.349 68.1517 116.76 67.2997L91.459 54.1077C90.6615 53.6797 89.9382 53.6407 89.4151 53.9227Z" stroke="#1D1D1B" stroke-miterlimit="10"/>
<path d="M87.58 55.9367C85.9935 55.0867 84.702 55.7687 84.6966 57.4627L84.6686 66.3037C84.6632 67.9977 85.9462 70.0617 87.5316 70.9117L112.893 84.3407C114.478 85.1907 115.77 84.5087 115.775 82.8147L115.801 73.9737C115.806 72.2797 114.525 70.2157 112.939 69.3657L87.58 55.9367Z" fill="#F4F8AC"/>
<path d="M87.58 55.9367C85.9935 55.0867 84.702 55.7687 84.6966 57.4627L84.6686 66.3037C84.6632 67.9977 85.9462 70.0617 87.5316 70.9117L112.893 84.3407C114.478 85.1907 115.77 84.5087 115.775 82.8147L115.801 73.9737C115.806 72.2797 114.525 70.2157 112.939 69.3657L87.58 55.9367Z" stroke="#1D1D1B" stroke-width="0.5" stroke-miterlimit="10"/>
<path d="M89.4324 62.0148L90.1632 62.4068L90.1643 67.3348L89.3291 66.8868V63.5548L88.285 62.9948V62.3228C89.2763 62.8548 89.3409 62.6798 89.4324 62.0148ZM92.9853 63.8648C94.2123 64.5228 94.8645 65.9508 94.8645 67.3928C94.8645 68.8348 94.2123 69.5628 92.9853 68.9048C91.7583 68.2468 91.106 66.8178 91.106 65.3758C91.106 63.9338 91.7583 63.2068 92.9853 63.8648ZM92.9853 68.0648C93.6838 68.4398 94.0293 67.9318 94.0293 66.9448C94.0293 65.9578 93.6838 65.0798 92.9853 64.7048C92.2868 64.3298 91.9413 64.8368 91.9413 65.8238C91.9413 66.8108 92.2868 67.6898 92.9853 68.0648ZM96.4381 68.0688C95.8246 67.7398 95.3876 66.9868 95.3876 66.3288C95.3876 65.6778 95.8246 65.3878 96.4381 65.7168C97.0451 66.0428 97.4757 66.7988 97.4757 67.4498C97.4757 68.1078 97.0451 68.3948 96.4381 68.0688ZM96.5888 70.7818L95.9624 70.4458L98.8846 67.0858L99.511 67.4218L96.5888 70.7818ZM96.4316 67.5048C96.7126 67.6558 96.9009 67.4638 96.9009 67.1418C96.9009 66.8198 96.7126 66.4248 96.4316 66.2738C96.1507 66.1238 95.9613 66.3148 95.9613 66.6368C95.9613 66.9588 96.1507 67.3548 96.4316 67.5048ZM99.0482 72.1568C98.4347 71.8278 97.9977 71.0758 97.9977 70.4178C97.9977 69.7668 98.4347 69.4758 99.0482 69.8048C99.6552 70.1308 100.086 70.8868 100.086 71.5378C100.086 72.1958 99.6552 72.4828 99.0482 72.1568ZM99.0417 71.5938C99.3226 71.7438 99.511 71.5518 99.511 71.2298C99.511 70.9078 99.3226 70.5118 99.0417 70.3618C98.7608 70.2108 98.5713 70.4038 98.5713 70.7258C98.5713 71.0478 98.7608 71.4438 99.0417 71.5938Z" fill="#1D1D1B"/>
<path d="M105.712 73.2398C105.515 72.9258 105.256 72.6818 104.997 72.5438C104.739 72.4058 104.479 72.3718 104.281 72.4758L103.511 72.8888C103.413 72.9068 103.311 72.9418 103.207 72.9968C102.811 73.2038 102.682 73.8008 103.076 74.4288L104.998 77.2718C105.194 77.5858 105.453 77.8288 105.712 77.9668C105.97 78.1048 106.228 78.1378 106.426 78.0338C106.477 78.0068 106.522 77.9718 106.56 77.9308L106.567 77.9248L112.838 73.3508C113.183 73.0718 113.378 72.6328 113.037 72.1648C112.853 71.9118 112.569 71.6528 112.35 71.5368C111.728 71.2038 111.078 71.7908 110.611 72.1688L106.864 74.8968L105.712 73.2398ZM104.735 73.6098C104.721 73.5868 104.706 73.5638 104.691 73.5418C104.734 73.5978 104.775 73.6578 104.814 73.7198L105.135 74.2298L104.735 73.6098Z" fill="#1D1D1B"/>
<path d="M105.712 73.2398C105.515 72.9258 105.256 72.6818 104.997 72.5438C104.739 72.4058 104.479 72.3718 104.281 72.4758L103.511 72.8888C103.413 72.9068 103.311 72.9418 103.207 72.9968C102.811 73.2038 102.682 73.8008 103.076 74.4288L104.998 77.2718C105.194 77.5858 105.453 77.8288 105.712 77.9668C105.97 78.1048 106.228 78.1378 106.426 78.0338C106.477 78.0068 106.522 77.9718 106.56 77.9308L106.567 77.9248L112.838 73.3508C113.183 73.0718 113.378 72.6328 113.037 72.1648C112.853 71.9118 112.569 71.6528 112.35 71.5368C111.728 71.2038 111.078 71.7908 110.611 72.1688L106.864 74.8968L105.712 73.2398ZM104.735 73.6098C104.721 73.5868 104.706 73.5638 104.691 73.5418C104.734 73.5978 104.775 73.6578 104.814 73.7198L105.135 74.2298L104.735 73.6098Z" stroke="#1D1D1B" stroke-width="0.5" stroke-miterlimit="10"/>
<path d="M111.806 71.9038C112.024 72.0208 112.244 72.2128 112.428 72.4648C112.863 73.0628 112.447 73.6238 112.102 73.9018L106.56 77.9308C106.522 77.9718 106.477 78.0068 106.426 78.0338C106.228 78.1378 105.969 78.1048 105.711 77.9668C105.452 77.8288 105.194 77.5858 104.998 77.2718L103.089 74.4648C102.695 73.8368 102.825 73.2398 103.221 73.0328C103.889 72.6818 104.431 73.1368 104.748 73.6458L106.132 75.5228L110.799 72.0828C110.999 71.9218 111.509 71.7448 111.806 71.9038Z" fill="white"/>
<path d="M111.806 71.9038C112.024 72.0208 112.244 72.2128 112.428 72.4648C112.863 73.0628 112.447 73.6238 112.102 73.9018L106.56 77.9308C106.522 77.9718 106.477 78.0068 106.426 78.0338C106.228 78.1378 105.969 78.1048 105.711 77.9668C105.452 77.8288 105.194 77.5858 104.998 77.2718L103.089 74.4648C102.695 73.8368 102.825 73.2398 103.221 73.0328C103.889 72.6818 104.431 73.1368 104.748 73.6458L106.133 75.5228L110.799 72.0828C110.999 71.9218 111.509 71.7448 111.806 71.9038Z" stroke="#1D1D1B" stroke-width="0.5" stroke-miterlimit="10"/>
</g>
</g>
<defs>
<clipPath id="clip0_1_1075">
<rect width="213.11" height="130" fill="white" transform="translate(0.110596)"/>
</clipPath>
</defs>
</svg>
