<svg width="37" height="33" viewBox="0 0 37 33" fill="none" xmlns="http://www.w3.org/2000/svg">
<path d="M5.41509 0.922718L1.59096 2.98772C1.07433 3.26572 0.755739 3.85772 0.753586 4.69871L0.725603 13.5417C0.720222 15.2357 2.00211 17.2987 3.58752 18.1487L28.8905 31.3407C29.7161 31.7827 30.463 31.8107 30.9883 31.4967L34.7586 29.4617C35.2731 29.1827 35.5938 28.5907 35.596 27.7507H35.5981L35.625 18.9077C35.6304 17.2137 34.3485 15.1517 32.7599 14.2997L7.45901 1.10772C6.66146 0.679719 5.93818 0.640719 5.41509 0.922718Z" fill="#1D1D1B"/>
<path d="M5.41509 0.922718L1.59096 2.98772C1.07433 3.26572 0.755739 3.85772 0.753586 4.69871L0.725603 13.5417C0.720222 15.2357 2.00211 17.2987 3.58752 18.1487L28.8905 31.3407C29.7161 31.7827 30.463 31.8107 30.9883 31.4967L34.7586 29.4617C35.2731 29.1827 35.5938 28.5907 35.596 27.7507H35.5981L35.625 18.9077C35.6304 17.2137 34.3485 15.1517 32.7599 14.2997L7.45901 1.10772C6.66146 0.679719 5.93818 0.640719 5.41509 0.922718Z" stroke="#1D1D1B" stroke-miterlimit="10"/>
<path d="M3.58002 2.93672C1.99354 2.08672 0.701962 2.76872 0.69658 4.46272L0.668596 13.3037C0.663214 14.9977 1.94618 17.0617 3.53159 17.9117L28.8927 31.3407C30.4781 32.1907 31.7697 31.5087 31.7751 29.8147L31.8009 20.9737C31.8063 19.2797 30.5255 17.2157 28.939 16.3657L3.58002 2.93672Z" fill="#F4F8AC"/>
<path d="M3.58002 2.93672C1.99354 2.08672 0.701962 2.76872 0.69658 4.46272L0.668596 13.3037C0.663214 14.9977 1.94618 17.0617 3.53159 17.9117L28.8927 31.3407C30.4781 32.1907 31.7697 31.5087 31.7751 29.8147L31.8009 20.9737C31.8063 19.2797 30.5255 17.2157 28.939 16.3657L3.58002 2.93672Z" stroke="#1D1D1B" stroke-width="0.5" stroke-miterlimit="10"/>
<path d="M5.43238 9.01477L6.1632 9.40677L6.16428 14.3348L5.32906 13.8868V10.5548L4.28503 9.99477V9.32277C5.27632 9.85477 5.3409 9.67977 5.43238 9.01477ZM8.98529 10.8648C10.2123 11.5228 10.8645 12.9508 10.8645 14.3928C10.8645 15.8348 10.2123 16.5628 8.98529 15.9048C7.75829 15.2468 7.10605 13.8178 7.10605 12.3758C7.10605 10.9338 7.75829 10.2068 8.98529 10.8648ZM8.98529 15.0648C9.68382 15.4398 10.0293 14.9318 10.0293 13.9448C10.0293 12.9578 9.68382 12.0798 8.98529 11.7048C8.28676 11.3298 7.94127 11.8368 7.94127 12.8238C7.94127 13.8108 8.28676 14.6898 8.98529 15.0648ZM12.4381 15.0688C11.8246 14.7398 11.3876 13.9868 11.3876 13.3288C11.3876 12.6778 11.8246 12.3878 12.4381 12.7168C13.0451 13.0428 13.4757 13.7988 13.4757 14.4498C13.4757 15.1078 13.0451 15.3948 12.4381 15.0688ZM12.5888 17.7818L11.9624 17.4458L14.8846 14.0858L15.511 14.4218L12.5888 17.7818ZM12.4316 14.5048C12.7126 14.6558 12.9009 14.4638 12.9009 14.1418C12.9009 13.8198 12.7126 13.4248 12.4316 13.2738C12.1507 13.1238 11.9613 13.3148 11.9613 13.6368C11.9613 13.9588 12.1507 14.3548 12.4316 14.5048ZM15.0482 19.1568C14.4347 18.8278 13.9977 18.0758 13.9977 17.4178C13.9977 16.7668 14.4347 16.4758 15.0482 16.8048C15.6552 17.1308 16.0857 17.8868 16.0857 18.5378C16.0857 19.1958 15.6552 19.4828 15.0482 19.1568ZM15.0417 18.5938C15.3226 18.7438 15.511 18.5518 15.511 18.2298C15.511 17.9078 15.3226 17.5118 15.0417 17.3618C14.7608 17.2108 14.5713 17.4038 14.5713 17.7258C14.5713 18.0478 14.7608 18.4438 15.0417 18.5938Z" fill="#1D1D1B"/>
<path d="M21.7116 20.2398C21.5146 19.9258 21.2563 19.6818 20.9969 19.5438C20.7386 19.4058 20.4792 19.3718 20.2811 19.4758L19.5105 19.8888C19.4126 19.9068 19.3114 19.9418 19.207 19.9968C18.8109 20.2038 18.6817 20.8008 19.0757 21.4288L20.998 24.2718C21.1939 24.5858 21.4532 24.8288 21.7116 24.9668C21.9699 25.1048 22.2282 25.1378 22.4262 25.0338C22.4768 25.0068 22.522 24.9718 22.5597 24.9308L22.5672 24.9248L28.8378 20.3508C29.1833 20.0718 29.3781 19.6328 29.0369 19.1648C28.8529 18.9118 28.5687 18.6528 28.3503 18.5368C27.7281 18.2038 27.0781 18.7908 26.6109 19.1688L22.8643 21.8968L21.7116 20.2398ZM20.7353 20.6098C20.7214 20.5868 20.7063 20.5638 20.6912 20.5418C20.7343 20.5978 20.7752 20.6578 20.8139 20.7198L21.1347 21.2298L20.7353 20.6098Z" fill="#1D1D1B"/>
<path d="M21.7116 20.2398C21.5146 19.9258 21.2563 19.6818 20.9969 19.5438C20.7386 19.4058 20.4792 19.3718 20.2811 19.4758L19.5105 19.8888C19.4126 19.9068 19.3114 19.9418 19.207 19.9968C18.8109 20.2038 18.6817 20.8008 19.0757 21.4288L20.998 24.2718C21.1939 24.5858 21.4532 24.8288 21.7116 24.9668C21.9699 25.1048 22.2282 25.1378 22.4262 25.0338C22.4768 25.0068 22.522 24.9718 22.5597 24.9308L22.5672 24.9248L28.8378 20.3508C29.1833 20.0718 29.3781 19.6328 29.0369 19.1648C28.8529 18.9118 28.5687 18.6528 28.3503 18.5368C27.7281 18.2038 27.0781 18.7908 26.6109 19.1688L22.8643 21.8968L21.7116 20.2398ZM20.7353 20.6098C20.7214 20.5868 20.7063 20.5638 20.6912 20.5418C20.7343 20.5978 20.7752 20.6578 20.8139 20.7198L21.1347 21.2298L20.7353 20.6098Z" stroke="#1D1D1B" stroke-width="0.5" stroke-miterlimit="10"/>
<path d="M27.8057 18.9038C28.0242 19.0208 28.2438 19.2128 28.4278 19.4648C28.8627 20.0628 28.4472 20.6238 28.1017 20.9018L22.5598 24.9308C22.5221 24.9718 22.4769 25.0068 22.4263 25.0338C22.2283 25.1378 21.9689 25.1048 21.7106 24.9668C21.4523 24.8288 21.194 24.5858 20.9981 24.2718L19.0887 21.4648C18.6948 20.8368 18.825 20.2398 19.2211 20.0328C19.8895 19.6818 20.4309 20.1368 20.7484 20.6458L22.1325 22.5228L26.7994 19.0828C26.9985 18.9218 27.5087 18.7448 27.8057 18.9038Z" fill="white"/>
<path d="M27.8057 18.9038C28.0242 19.0208 28.2438 19.2128 28.4278 19.4648C28.8627 20.0628 28.4472 20.6238 28.1017 20.9018L22.5598 24.9308C22.5221 24.9718 22.4769 25.0068 22.4263 25.0338C22.2283 25.1378 21.9689 25.1048 21.7106 24.9668C21.4523 24.8288 21.194 24.5858 20.9981 24.2718L19.0887 21.4648C18.6948 20.8368 18.825 20.2398 19.2211 20.0328C19.8895 19.6818 20.4309 20.1368 20.7484 20.6458L22.1325 22.5228L26.7994 19.0828C26.9985 18.9218 27.5087 18.7448 27.8057 18.9038Z" stroke="#1D1D1B" stroke-width="0.5" stroke-miterlimit="10"/>
</svg>
